999
dxflib 2.0.4.8
  0
SECTION
  2
HEADER
  9
$ACADVER
  1
AC1015
  9
$HANDSEED
  5
FFFF
  9
$DIMASZ
 40
0.1
  9
$GRIDUNIT
 10
0.0
 20
0.0
  9
$DIMADEC
 70
2
  9
$DIMGAP
 40
0.025
  9
$SPLINESEGS
 70
8
  9
$AUPREC
 70
2
  9
$LUNITS
 70
2
  9
$DIMEXO
 40
0.025
  9
$INSUNITS
 70
1
  9
$DIMLUNIT
 70
2
  9
$DIMTXT
 40
0.1
  9
$GRIDMODE
 70
1
  9
$LUPREC
 70
4
  9
$PSVPSCALE
 40
1.0
  9
$DIMSTYLE
  2
Standard
  9
$PLIMMAX
 10
11.0
 20
8.5
  9
$PLIMMIN
 10
0.0
 20
0.0
  9
$PINSBASE
 10
-99.8811256549739426
 20
-52.0227536061019933
 30
0.0
  9
$DIMEXE
 40
0.05
  9
$DIMAUNIT
 70
0
  9
$AUNITS
 70
0
  0
ENDSEC
  0
SECTION
  2
TABLES
  0
TABLE
  2
VPORT
  5
8
100
AcDbSymbolTable
 70
1
  0
VPORT
  5
30
100
AcDbSymbolTableRecord
100
AcDbViewportTableRecord
  2
*Active
 70
0
 10
0.0
 20
0.0
 11
1.0
 21
1.0
 12
286.3055555555554861
 22
148.5
 13
0.0
 23
0.0
 14
10.0
 24
10.0
 15
10.0
 25
10.0
 16
0.0
 26
0.0
 36
1.0
 17
0.0
 27
0.0
 37
0.0
 40
297.0
 41
1.92798353909465
 42
50.0
 43
0.0
 44
0.0
 50
0.0
 51
0.0
 71
0
 72
100
 73
1
 74
3
 75
1
 76
1
 77
0
 78
0
281
0
 65
1
110
0.0
120
0.0
130
0.0
111
1.0
121
0.0
131
0.0
112
0.0
122
1.0
132
0.0
 79
0
146
0.0
  0
ENDTAB
  0
TABLE
  2
LTYPE
  5
5
100
AcDbSymbolTable
 70
21
  0
LTYPE
  5
14
100
AcDbSymbolTableRecord
100
AcDbLinetypeTableRecord
  2
ByBlock
 70
0
  3

 72
65
 73
0
 40
0.0
  0
LTYPE
  5
15
100
AcDbSymbolTableRecord
100
AcDbLinetypeTableRecord
  2
ByLayer
 70
0
  3

 72
65
 73
0
 40
0.0
  0
LTYPE
  5
16
100
AcDbSymbolTableRecord
100
AcDbLinetypeTableRecord
  2
CONTINUOUS
 70
0
  3
Solid line
 72
65
 73
0
 40
0.0
  0
LTYPE
  5
31
100
AcDbSymbolTableRecord
100
AcDbLinetypeTableRecord
  2
DOT
 70
0
  3
Dot . . . . . . . . . . . . . . . . . . . . . .
 72
65
 73
2
 40
6.3499999999999996
 49
0.0
 74
0
 49
-6.3499999999999996
 74
0
  0
LTYPE
  5
32
100
AcDbSymbolTableRecord
100
AcDbLinetypeTableRecord
  2
DOT2
 70
0
  3
Dot (.5x) .....................................
 72
65
 73
2
 40
3.1749999999999998
 49
0.0
 74
0
 49
-3.1749999999999998
 74
0
  0
LTYPE
  5
33
100
AcDbSymbolTableRecord
100
AcDbLinetypeTableRecord
  2
DOTX2
 70
0
  3
Dot (2x) .  .  .  .  .  .  .  .  .  .  .  .  .
 72
65
 73
2
 40
12.6999999999999993
 49
0.0
 74
0
 49
-12.6999999999999993
 74
0
  0
LTYPE
  5
34
100
AcDbSymbolTableRecord
100
AcDbLinetypeTableRecord
  2
DASHED
 70
0
  3
Dashed __ __ __ __ __ __ __ __ __ __ __ __ __ _
 72
65
 73
2
 40
19.0500000000000007
 49
12.6999999999999993
 74
0
 49
-6.3499999999999996
 74
0
  0
LTYPE
  5
35
100
AcDbSymbolTableRecord
100
AcDbLinetypeTableRecord
  2
DASHED2
 70
0
  3
Dashed (.5x) _ _ _ _ _ _ _ _ _ _ _ _ _ _ _ _ _
 72
65
 73
2
 40
9.5250000000000004
 49
6.3499999999999996
 74
0
 49
-3.1749999999999998
 74
0
  0
LTYPE
  5
36
100
AcDbSymbolTableRecord
100
AcDbLinetypeTableRecord
  2
DASHEDX2
 70
0
  3
Dashed (2x) ____  ____  ____  ____  ____  ___
 72
65
 73
2
 40
38.1000000000000014
 49
25.3999999999999986
 74
0
 49
-12.6999999999999993
 74
0
  0
LTYPE
  5
37
100
AcDbSymbolTableRecord
100
AcDbLinetypeTableRecord
  2
DASHDOT
 70
0
  3
Dash dot __ . __ . __ . __ . __ . __ . __ . __
 72
65
 73
4
 40
25.3999999999999986
 49
12.6999999999999993
 74
0
 49
-6.3499999999999996
 74
0
 49
0.0
 74
0
 49
-6.3499999999999996
 74
0
  0
LTYPE
  5
38
100
AcDbSymbolTableRecord
100
AcDbLinetypeTableRecord
  2
DASHDOT2
 70
0
  3
Dash dot (.5x) _._._._._._._._._._._._._._._.
 72
65
 73
4
 40
12.6999999999999993
 49
6.3499999999999996
 74
0
 49
-3.1749999999999998
 74
0
 49
0.0
 74
0
 49
-3.1749999999999998
 74
0
  0
LTYPE
  5
39
100
AcDbSymbolTableRecord
100
AcDbLinetypeTableRecord
  2
DASHDOTX2
 70
0
  3
Dash dot (2x) ____  .  ____  .  ____  .  ___
 72
65
 73
4
 40
50.7999999999999972
 49
25.3999999999999986
 74
0
 49
-12.6999999999999993
 74
0
 49
0.0
 74
0
 49
-12.6999999999999993
 74
0
  0
LTYPE
  5
3A
100
AcDbSymbolTableRecord
100
AcDbLinetypeTableRecord
  2
DIVIDE
 70
0
  3
Divide ____ . . ____ . . ____ . . ____ . . ____
 72
65
 73
6
 40
31.75
 49
12.6999999999999993
 74
0
 49
-6.3499999999999996
 74
0
 49
0.0
 74
0
 49
-6.3499999999999996
 74
0
 49
0.0
 74
0
 49
-6.3499999999999996
 74
0
  0
LTYPE
  5
3B
100
AcDbSymbolTableRecord
100
AcDbLinetypeTableRecord
  2
DIVIDE2
 70
0
  3
Divide (.5x) __..__..__..__..__..__..__..__.._
 72
65
 73
6
 40
15.875
 49
6.3499999999999996
 74
0
 49
-3.1749999999999998
 74
0
 49
0.0
 74
0
 49
-3.1749999999999998
 74
0
 49
0.0
 74
0
 49
-3.1749999999999998
 74
0
  0
LTYPE
  5
3C
100
AcDbSymbolTableRecord
100
AcDbLinetypeTableRecord
  2
DIVIDEX2
 70
0
  3
Divide (2x) ________  .  .  ________  .  .  _
 72
65
 73
6
 40
63.5
 49
25.3999999999999986
 74
0
 49
-12.6999999999999993
 74
0
 49
0.0
 74
0
 49
-12.6999999999999993
 74
0
 49
0.0
 74
0
 49
-12.6999999999999993
 74
0
  0
LTYPE
  5
3D
100
AcDbSymbolTableRecord
100
AcDbLinetypeTableRecord
  2
CENTER
 70
0
  3
Center ____ _ ____ _ ____ _ ____ _ ____ _ ____
 72
65
 73
4
 40
50.7999999999999972
 49
31.75
 74
0
 49
-6.3499999999999996
 74
0
 49
6.3499999999999996
 74
0
 49
-6.3499999999999996
 74
0
  0
LTYPE
  5
3E
100
AcDbSymbolTableRecord
100
AcDbLinetypeTableRecord
  2
CENTER2
 70
0
  3
Center (.5x) ___ _ ___ _ ___ _ ___ _ ___ _ ___
 72
65
 73
4
 40
28.5749999999999993
 49
19.0500000000000007
 74
0
 49
-3.1749999999999998
 74
0
 49
3.1749999999999998
 74
0
 49
-3.1749999999999998
 74
0
  0
LTYPE
  5
3F
100
AcDbSymbolTableRecord
100
AcDbLinetypeTableRecord
  2
CENTERX2
 70
0
  3
Center (2x) ________  __  ________  __  _____
 72
65
 73
4
 40
101.5999999999999943
 49
63.5
 74
0
 49
-12.6999999999999993
 74
0
 49
12.6999999999999993
 74
0
 49
-12.6999999999999993
 74
0
  0
LTYPE
  5
40
100
AcDbSymbolTableRecord
100
AcDbLinetypeTableRecord
  2
BORDER
 70
0
  3
Border __ __ . __ __ . __ __ . __ __ . __ __ .
 72
65
 73
6
 40
44.4500000000000028
 49
12.6999999999999993
 74
0
 49
-6.3499999999999996
 74
0
 49
12.6999999999999993
 74
0
 49
-6.3499999999999996
 74
0
 49
0.0
 74
0
 49
-6.3499999999999996
 74
0
  0
LTYPE
  5
41
100
AcDbSymbolTableRecord
100
AcDbLinetypeTableRecord
  2
BORDER2
 70
0
  3
Border (.5x) __.__.__.__.__.__.__.__.__.__.__.
 72
65
 73
6
 40
22.2250000000000014
 49
6.3499999999999996
 74
0
 49
-3.1749999999999998
 74
0
 49
6.3499999999999996
 74
0
 49
-3.1749999999999998
 74
0
 49
0.0
 74
0
 49
-3.1749999999999998
 74
0
  0
LTYPE
  5
42
100
AcDbSymbolTableRecord
100
AcDbLinetypeTableRecord
  2
BORDERX2
 70
0
  3
Border (2x) ____  ____  .  ____  ____  .  ___
 72
65
 73
6
 40
88.9000000000000057
 49
25.3999999999999986
 74
0
 49
-12.6999999999999993
 74
0
 49
25.3999999999999986
 74
0
 49
-12.6999999999999993
 74
0
 49
0.0
 74
0
 49
-12.6999999999999993
 74
0
  0
ENDTAB
  0
TABLE
  2
LAYER
  5
2
100
AcDbSymbolTable
 70
3
  0
LAYER
  5
10
100
AcDbSymbolTableRecord
100
AcDbLayerTableRecord
  2
0
 70
0
 62
7
  6
CONTINUOUS
370
0
390
F
  0
LAYER
  5
43
100
AcDbSymbolTableRecord
100
AcDbLayerTableRecord
  2
HIDDEN
 70
0
 62
3
  6
DASHED
390
F
  0
LAYER
  5
44
100
AcDbSymbolTableRecord
100
AcDbLayerTableRecord
  2
OBJECT
 70
0
 62
7
  6
CONTINUOUS
390
F
  0
ENDTAB
  0
TABLE
  2
STYLE
  5
3
100
AcDbSymbolTable
 70
1
  0
STYLE
  5
11
100
AcDbSymbolTableRecord
100
AcDbTextStyleTableRecord
  2
Standard
 70
0
 40
0.0
 41
0.75
 50
0.0
 71
0
 42
2.5
  3
txt
  4

  0
ENDTAB
  0
TABLE
  2
VIEW
  5
6
100
AcDbSymbolTable
 70
0
  0
ENDTAB
  0
TABLE
  2
UCS
  5
7
100
AcDbSymbolTable
 70
0
  0
ENDTAB
  0
TABLE
  2
APPID
  5
9
100
AcDbSymbolTable
 70
1
  0
APPID
  5
12
100
AcDbSymbolTableRecord
100
AcDbRegAppTableRecord
  2
ACAD
 70
0
  0
ENDTAB
  0
TABLE
  2
DIMSTYLE
  5
A
100
AcDbSymbolTable
 70
1
100
AcDbDimStyleTable
 71
0
  0
DIMSTYLE
105
27
100
AcDbSymbolTableRecord
100
AcDbDimStyleTableRecord
  2
Standard
 41
0.1
 42
0.025
 43
3.75
 44
0.05
 70
0
 73
0
 74
0
 77
1
 78
8
140
0.1
141
2.5
143
0.03937007874016
147
0.025
171
3
172
1
271
2
272
2
274
3
278
44
283
0
284
8
340
11
  0
ENDTAB
  0
TABLE
  2
BLOCK_RECORD
  5
1
100
AcDbSymbolTable
 70
1
  0
BLOCK_RECORD
  5
1F
100
AcDbSymbolTableRecord
100
AcDbBlockTableRecord
  2
*Model_Space
340
22
  0
BLOCK_RECORD
  5
1B
100
AcDbSymbolTableRecord
100
AcDbBlockTableRecord
  2
*Paper_Space
340
1E
  0
BLOCK_RECORD
  5
23
100
AcDbSymbolTableRecord
100
AcDbBlockTableRecord
  2
*Paper_Space0
340
26
  0
ENDTAB
  0
ENDSEC
  0
SECTION
  2
BLOCKS
  0
BLOCK
  5
20
100
AcDbEntity
  8
0
100
AcDbBlockBegin
  2
*Model_Space
 70
0
 10
0.0
 20
0.0
 30
0.0
  3
*Model_Space
  1

  0
ENDBLK
  5
21
100
AcDbEntity
  8
0
100
AcDbBlockEnd
  0
BLOCK
  5
1C
100
AcDbEntity
 67
1
  8
0
100
AcDbBlockBegin
  2
*Paper_Space
 70
0
 10
0.0
 20
0.0
 30
0.0
  3
*Paper_Space
  1

  0
ENDBLK
  5
1D
100
AcDbEntity
 67
1
  8
0
100
AcDbBlockEnd
  0
BLOCK
  5
24
100
AcDbEntity
  8
0
100
AcDbBlockBegin
  2
*Paper_Space0
 70
0
 10
0.0
 20
0.0
 30
0.0
  3
*Paper_Space0
  1

  0
ENDBLK
  5
25
100
AcDbEntity
  8
0
100
AcDbBlockEnd
  0
ENDSEC
  0
SECTION
  2
ENTITIES
  0
LINE
  5
45
100
AcDbEntity
100
AcDbLine
  8
HIDDEN
 62
256
370
-1
  6
ByLayer
 10
110.3540748404043939
 20
59.0119724537840895
 30
0.0
 11
109.7840748404044007
 21
59.0119724537840895
 31
0.0
  0
LINE
  5
46
100
AcDbEntity
100
AcDbLine
  8
HIDDEN
 62
256
370
-1
  6
ByLayer
 10
110.3940748404044143
 20
53.5118264537841171
 30
0.0
 11
109.7840748404044007
 21
53.5118264537841171
 31
0.0
  0
CIRCLE
  5
47
100
AcDbEntity
100
AcDbCircle
  8
HIDDEN
 62
256
370
-1
  6
ByLayer
 10
109.9690748404044029
 20
53.7618994537841033
 30
0.0
 40
0.105
  0
CIRCLE
  5
48
100
AcDbEntity
100
AcDbCircle
  8
HIDDEN
 62
256
370
-1
  6
ByLayer
 10
109.9690748404044029
 20
54.3868994537841033
 30
0.0
 40
0.105
  0
CIRCLE
  5
49
100
AcDbEntity
100
AcDbCircle
  8
HIDDEN
 62
256
370
-1
  6
ByLayer
 10
109.9690748404044029
 20
55.0118994537841033
 30
0.0
 40
0.105
  0
CIRCLE
  5
4A
100
AcDbEntity
100
AcDbCircle
  8
HIDDEN
 62
256
370
-1
  6
ByLayer
 10
109.9690748404044029
 20
55.6368994537841033
 30
0.0
 40
0.105
  0
CIRCLE
  5
4B
100
AcDbEntity
100
AcDbCircle
  8
HIDDEN
 62
256
370
-1
  6
ByLayer
 10
109.9690748404044029
 20
56.2618994537841033
 30
0.0
 40
0.105
  0
CIRCLE
  5
4C
100
AcDbEntity
100
AcDbCircle
  8
HIDDEN
 62
256
370
-1
  6
ByLayer
 10
109.9690748404044029
 20
56.8868994537841033
 30
0.0
 40
0.105
  0
CIRCLE
  5
4D
100
AcDbEntity
100
AcDbCircle
  8
HIDDEN
 62
256
370
-1
  6
ByLayer
 10
109.9690748404044029
 20
57.5118994537841033
 30
0.0
 40
0.105
  0
CIRCLE
  5
4E
100
AcDbEntity
100
AcDbCircle
  8
HIDDEN
 62
256
370
-1
  6
ByLayer
 10
109.9690748404044029
 20
58.1368994537841033
 30
0.0
 40
0.105
  0
CIRCLE
  5
4F
100
AcDbEntity
100
AcDbCircle
  8
HIDDEN
 62
256
370
-1
  6
ByLayer
 10
109.9690748404044029
 20
58.7618994537841033
 30
0.0
 40
0.105
  0
ARC
  5
50
100
AcDbEntity
  8
OBJECT
 62
256
370
-1
  6
ByLayer
100
AcDbCircle
 10
109.9440748404043688
 20
53.5118264537841171
 30
0.0
 40
0.45
100
AcDbArc
 50
270.0
 51
0.0
  0
ARC
  5
51
100
AcDbEntity
  8
OBJECT
 62
256
370
-1
  6
ByLayer
100
AcDbCircle
 10
109.9340748404043779
 20
59.0118264537841171
 30
0.0
 40
0.42
100
AcDbArc
 50
0.0
 51
90.0
  0
ARC
  5
52
100
AcDbEntity
  8
OBJECT
 62
256
370
-1
  6
ByLayer
100
AcDbCircle
 10
109.9340748404043779
 20
59.0118264537841171
 30
0.0
 40
0.5
100
AcDbArc
 50
0.0
 51
90.0
  0
LINE
  5
53
100
AcDbEntity
100
AcDbLine
  8
HIDDEN
 62
256
370
-1
  6
ByLayer
 10
101.0540748404043825
 20
53.5118264537841171
 30
0.0
 11
101.0540748404043825
 21
59.0119724537840895
 31
0.0
  0
LINE
  5
54
100
AcDbEntity
100
AcDbLine
  8
HIDDEN
 62
256
370
-1
  6
ByLayer
 10
109.7840748404044007
 20
53.5118264537841171
 30
0.0
 11
109.7840748404044007
 21
59.0119724537840895
 31
0.0
  0
LINE
  5
55
100
AcDbEntity
100
AcDbLine
  8
OBJECT
 62
256
370
-1
  6
ByLayer
 10
100.4840748404043893
 20
56.2618264537841171
 30
0.0
 11
100.4840748404043893
 21
59.0118264537841171
 31
0.0
  0
LINE
  5
56
100
AcDbEntity
100
AcDbLine
  8
OBJECT
 62
256
370
-1
  6
ByLayer
 10
100.4040748404044052
 20
56.2618264537841171
 30
0.0
 11
100.4040748404044052
 21
59.0118264537841171
 31
0.0
  0
ARC
  5
57
100
AcDbEntity
  8
OBJECT
 62
256
370
-1
  6
ByLayer
100
AcDbCircle
 10
100.9040748404044052
 20
59.0118264537841171
 30
0.0
 40
0.42
100
AcDbArc
 50
90.0
 51
180.0
  0
ARC
  5
58
100
AcDbEntity
  8
OBJECT
 62
256
370
-1
  6
ByLayer
100
AcDbCircle
 10
100.9040748404044052
 20
59.0118264537841171
 30
0.0
 40
0.5
100
AcDbArc
 50
90.0
 51
180.0
  0
LINE
  5
59
100
AcDbEntity
100
AcDbLine
  8
OBJECT
 62
256
370
-1
  6
ByLayer
 10
100.9040748404044052
 20
59.431826453784133
 30
0.0
 11
109.9340748404043779
 21
59.431826453784133
 31
0.0
  0
LINE
  5
5A
100
AcDbEntity
100
AcDbLine
  8
OBJECT
 62
256
370
-1
  6
ByLayer
 10
100.9040748404044052
 20
59.5118264537841171
 30
0.0
 11
109.9340748404043779
 21
59.5118264537841171
 31
0.0
  0
CIRCLE
  5
5B
100
AcDbEntity
100
AcDbCircle
  8
HIDDEN
 62
256
370
-1
  6
ByLayer
 10
100.8690748404043802
 20
58.7618994537841033
 30
0.0
 40
0.105
  0
CIRCLE
  5
5C
100
AcDbEntity
100
AcDbCircle
  8
HIDDEN
 62
256
370
-1
  6
ByLayer
 10
100.8690748404043802
 20
58.1368994537841033
 30
0.0
 40
0.105
  0
LINE
  5
5D
100
AcDbEntity
100
AcDbLine
  8
HIDDEN
 62
256
370
-1
  6
ByLayer
 10
100.4840748404043893
 20
59.0119724537840895
 30
0.0
 11
101.0540748404043825
 21
59.0119724537840895
 31
0.0
  0
CIRCLE
  5
5E
100
AcDbEntity
100
AcDbCircle
  8
HIDDEN
 62
256
370
-1
  6
ByLayer
 10
100.8690748404043802
 20
57.5118994537841033
 30
0.0
 40
0.105
  0
CIRCLE
  5
5F
100
AcDbEntity
100
AcDbCircle
  8
HIDDEN
 62
256
370
-1
  6
ByLayer
 10
100.8690748404043802
 20
56.8868994537841033
 30
0.0
 40
0.105
  0
LINE
  5
60
100
AcDbEntity
100
AcDbLine
  8
OBJECT
 62
256
370
-1
  6
ByLayer
 10
100.4440748404043688
 20
56.2618264537841171
 30
0.0
 11
100.4440748404043688
 21
53.5118264537841171
 31
0.0
  0
CIRCLE
  5
61
100
AcDbEntity
100
AcDbCircle
  8
HIDDEN
 62
256
370
-1
  6
ByLayer
 10
100.8690748404043802
 20
56.2618994537841033
 30
0.0
 40
0.105
  0
CIRCLE
  5
62
100
AcDbEntity
100
AcDbCircle
  8
HIDDEN
 62
256
370
-1
  6
ByLayer
 10
100.8690748404043802
 20
55.6368994537841033
 30
0.0
 40
0.105
  0
LINE
  5
63
100
AcDbEntity
100
AcDbLine
  8
OBJECT
 62
256
370
-1
  6
ByLayer
 10
100.4040748404044052
 20
56.2618264537841171
 30
0.0
 11
100.4840748404043893
 21
56.2618264537841171
 31
0.0
  0
CIRCLE
  5
64
100
AcDbEntity
100
AcDbCircle
  8
HIDDEN
 62
256
370
-1
  6
ByLayer
 10
100.8690748404043802
 20
55.0118994537841033
 30
0.0
 40
0.105
  0
CIRCLE
  5
65
100
AcDbEntity
100
AcDbCircle
  8
HIDDEN
 62
256
370
-1
  6
ByLayer
 10
100.8690748404043802
 20
54.3868994537841033
 30
0.0
 40
0.105
  0
LINE
  5
66
100
AcDbEntity
100
AcDbLine
  8
OBJECT
 62
256
370
-1
  6
ByLayer
 10
109.9440748404043688
 20
53.0618264537841284
 30
0.0
 11
100.8940748404044143
 21
53.0618264537841284
 31
0.0
  0
CIRCLE
  5
67
100
AcDbEntity
100
AcDbCircle
  8
HIDDEN
 62
256
370
-1
  6
ByLayer
 10
100.8690748404043802
 20
53.7618994537841033
 30
0.0
 40
0.105
  0
LINE
  5
68
100
AcDbEntity
100
AcDbLine
  8
HIDDEN
 62
256
370
-1
  6
ByLayer
 10
100.4440748404043688
 20
53.5118264537841171
 30
0.0
 11
101.0540748404043825
 21
53.5118264537841171
 31
0.0
  0
ARC
  5
69
100
AcDbEntity
  8
OBJECT
 62
256
370
-1
  6
ByLayer
100
AcDbCircle
 10
100.8940748404044143
 20
53.5118264537841171
 30
0.0
 40
0.45
100
AcDbArc
 50
180.0
 51
270.0
  0
LINE
  5
6A
100
AcDbEntity
100
AcDbLine
  8
OBJECT
 62
256
370
-1
  6
ByLayer
 10
110.3540748404043939
 20
56.2618264537841171
 30
0.0
 11
110.3540748404043939
 21
59.0118264537841171
 31
0.0
  0
LINE
  5
6B
100
AcDbEntity
100
AcDbLine
  8
OBJECT
 62
256
370
-1
  6
ByLayer
 10
110.4340748404043779
 20
56.2618264537841171
 30
0.0
 11
110.4340748404043779
 21
59.0118264537841171
 31
0.0
  0
LINE
  5
6C
100
AcDbEntity
100
AcDbLine
  8
OBJECT
 62
256
370
-1
  6
ByLayer
 10
110.3940748404044143
 20
56.2618264537841171
 30
0.0
 11
110.3940748404044143
 21
53.5118264537841171
 31
0.0
  0
LINE
  5
6D
100
AcDbEntity
100
AcDbLine
  8
OBJECT
 62
256
370
-1
  6
ByLayer
 10
110.4340748404043779
 20
56.2618264537841171
 30
0.0
 11
110.3540748404043939
 21
56.2618264537841171
 31
0.0
  0
LINE
  5
6E
100
AcDbEntity
100
AcDbLine
  8
OBJECT
 62
256
370
-1
  6
ByLayer
 10
102.545574840404413
 20
58.8308264537841339
 30
0.0
 11
102.545574840404413
 21
57.9588264537841198
 31
0.0
  0
LINE
  5
6F
100
AcDbEntity
100
AcDbLine
  8
OBJECT
 62
256
370
-1
  6
ByLayer
 10
102.545574840404413
 20
57.9588264537841198
 30
0.0
 11
102.6675748404043702
 21
57.9588264537841198
 31
0.0
  0
LINE
  5
70
100
AcDbEntity
100
AcDbLine
  8
OBJECT
 62
256
370
-1
  6
ByLayer
 10
102.6675748404043702
 20
57.9588264537841198
 30
0.0
 11
102.6675748404043702
 21
58.8288264537840675
 31
0.0
  0
LINE
  5
71
100
AcDbEntity
100
AcDbLine
  8
OBJECT
 62
256
370
-1
  6
ByLayer
 10
102.6675748404043702
 20
58.8288264537840675
 30
0.0
 11
102.545574840404413
 21
58.8308264537841339
 31
0.0
  0
LINE
  5
72
100
AcDbEntity
100
AcDbLine
  8
OBJECT
 62
256
370
-1
  6
ByLayer
 10
103.0425748404043702
 20
57.9588264537841198
 30
0.0
 11
103.0425748404043702
 21
58.8288264537840675
 31
0.0
  0
LINE
  5
73
100
AcDbEntity
100
AcDbLine
  8
OBJECT
 62
256
370
-1
  6
ByLayer
 10
102.920574840404413
 20
58.8308264537841339
 30
0.0
 11
102.920574840404413
 21
57.9588264537841198
 31
0.0
  0
LINE
  5
74
100
AcDbEntity
100
AcDbLine
  8
OBJECT
 62
256
370
-1
  6
ByLayer
 10
102.920574840404413
 20
57.9588264537841198
 30
0.0
 11
103.0425748404043702
 21
57.9588264537841198
 31
0.0
  0
LINE
  5
75
100
AcDbEntity
100
AcDbLine
  8
OBJECT
 62
256
370
-1
  6
ByLayer
 10
103.0425748404043702
 20
58.8288264537840675
 30
0.0
 11
102.920574840404413
 21
58.8308264537841339
 31
0.0
  0
LINE
  5
76
100
AcDbEntity
100
AcDbLine
  8
OBJECT
 62
256
370
-1
  6
ByLayer
 10
103.4175748404043702
 20
57.9588264537841198
 30
0.0
 11
103.4175748404043702
 21
58.8288264537840675
 31
0.0
  0
LINE
  5
77
100
AcDbEntity
100
AcDbLine
  8
OBJECT
 62
256
370
-1
  6
ByLayer
 10
103.295574840404413
 20
58.8308264537841339
 30
0.0
 11
103.295574840404413
 21
57.9588264537841198
 31
0.0
  0
LINE
  5
78
100
AcDbEntity
100
AcDbLine
  8
OBJECT
 62
256
370
-1
  6
ByLayer
 10
103.295574840404413
 20
57.9588264537841198
 30
0.0
 11
103.4175748404043702
 21
57.9588264537841198
 31
0.0
  0
LINE
  5
79
100
AcDbEntity
100
AcDbLine
  8
OBJECT
 62
256
370
-1
  6
ByLayer
 10
103.4175748404043702
 20
58.8288264537840675
 30
0.0
 11
103.295574840404413
 21
58.8308264537841339
 31
0.0
  0
LINE
  5
7A
100
AcDbEntity
100
AcDbLine
  8
OBJECT
 62
256
370
-1
  6
ByLayer
 10
103.7925748404043702
 20
57.9588264537841198
 30
0.0
 11
103.7925748404043702
 21
58.8288264537840675
 31
0.0
  0
LINE
  5
7B
100
AcDbEntity
100
AcDbLine
  8
OBJECT
 62
256
370
-1
  6
ByLayer
 10
103.670574840404413
 20
58.8308264537841339
 30
0.0
 11
103.670574840404413
 21
57.9588264537841198
 31
0.0
  0
LINE
  5
7C
100
AcDbEntity
100
AcDbLine
  8
OBJECT
 62
256
370
-1
  6
ByLayer
 10
103.670574840404413
 20
57.9588264537841198
 30
0.0
 11
103.7925748404043702
 21
57.9588264537841198
 31
0.0
  0
LINE
  5
7D
100
AcDbEntity
100
AcDbLine
  8
OBJECT
 62
256
370
-1
  6
ByLayer
 10
103.7925748404043702
 20
58.8288264537840675
 30
0.0
 11
103.670574840404413
 21
58.8308264537841339
 31
0.0
  0
LINE
  5
7E
100
AcDbEntity
100
AcDbLine
  8
OBJECT
 62
256
370
-1
  6
ByLayer
 10
104.1675748404043702
 20
57.9588264537841198
 30
0.0
 11
104.1675748404043702
 21
58.8288264537840675
 31
0.0
  0
LINE
  5
7F
100
AcDbEntity
100
AcDbLine
  8
OBJECT
 62
256
370
-1
  6
ByLayer
 10
104.045574840404413
 20
58.8308264537841339
 30
0.0
 11
104.045574840404413
 21
57.9588264537841198
 31
0.0
  0
LINE
  5
80
100
AcDbEntity
100
AcDbLine
  8
OBJECT
 62
256
370
-1
  6
ByLayer
 10
104.045574840404413
 20
57.9588264537841198
 30
0.0
 11
104.1675748404043702
 21
57.9588264537841198
 31
0.0
  0
LINE
  5
81
100
AcDbEntity
100
AcDbLine
  8
OBJECT
 62
256
370
-1
  6
ByLayer
 10
104.1675748404043702
 20
58.8288264537840675
 30
0.0
 11
104.045574840404413
 21
58.8308264537841339
 31
0.0
  0
LINE
  5
82
100
AcDbEntity
100
AcDbLine
  8
OBJECT
 62
256
370
-1
  6
ByLayer
 10
104.5425748404043702
 20
57.9588264537841198
 30
0.0
 11
104.5425748404043702
 21
58.8288264537840675
 31
0.0
  0
LINE
  5
83
100
AcDbEntity
100
AcDbLine
  8
OBJECT
 62
256
370
-1
  6
ByLayer
 10
104.420574840404413
 20
58.8308264537841339
 30
0.0
 11
104.420574840404413
 21
57.9588264537841198
 31
0.0
  0
LINE
  5
84
100
AcDbEntity
100
AcDbLine
  8
OBJECT
 62
256
370
-1
  6
ByLayer
 10
104.420574840404413
 20
57.9588264537841198
 30
0.0
 11
104.5425748404043702
 21
57.9588264537841198
 31
0.0
  0
LINE
  5
85
100
AcDbEntity
100
AcDbLine
  8
OBJECT
 62
256
370
-1
  6
ByLayer
 10
104.5425748404043702
 20
58.8288264537840675
 30
0.0
 11
104.420574840404413
 21
58.8308264537841339
 31
0.0
  0
LINE
  5
86
100
AcDbEntity
100
AcDbLine
  8
OBJECT
 62
256
370
-1
  6
ByLayer
 10
104.9175748404043702
 20
57.9588264537841198
 30
0.0
 11
104.9175748404043702
 21
58.8288264537840675
 31
0.0
  0
LINE
  5
87
100
AcDbEntity
100
AcDbLine
  8
OBJECT
 62
256
370
-1
  6
ByLayer
 10
104.795574840404413
 20
58.8308264537841339
 30
0.0
 11
104.795574840404413
 21
57.9588264537841198
 31
0.0
  0
LINE
  5
88
100
AcDbEntity
100
AcDbLine
  8
OBJECT
 62
256
370
-1
  6
ByLayer
 10
104.795574840404413
 20
57.9588264537841198
 30
0.0
 11
104.9175748404043702
 21
57.9588264537841198
 31
0.0
  0
LINE
  5
89
100
AcDbEntity
100
AcDbLine
  8
OBJECT
 62
256
370
-1
  6
ByLayer
 10
104.9175748404043702
 20
58.8288264537840675
 30
0.0
 11
104.795574840404413
 21
58.8308264537841339
 31
0.0
  0
LINE
  5
8A
100
AcDbEntity
100
AcDbLine
  8
OBJECT
 62
256
370
-1
  6
ByLayer
 10
105.2925748404043702
 20
57.9588264537841198
 30
0.0
 11
105.2925748404043702
 21
58.8288264537840675
 31
0.0
  0
LINE
  5
8B
100
AcDbEntity
100
AcDbLine
  8
OBJECT
 62
256
370
-1
  6
ByLayer
 10
105.170574840404413
 20
58.8308264537841339
 30
0.0
 11
105.170574840404413
 21
57.9588264537841198
 31
0.0
  0
LINE
  5
8C
100
AcDbEntity
100
AcDbLine
  8
OBJECT
 62
256
370
-1
  6
ByLayer
 10
105.170574840404413
 20
57.9588264537841198
 30
0.0
 11
105.2925748404043702
 21
57.9588264537841198
 31
0.0
  0
LINE
  5
8D
100
AcDbEntity
100
AcDbLine
  8
OBJECT
 62
256
370
-1
  6
ByLayer
 10
105.2925748404043702
 20
58.8288264537840675
 30
0.0
 11
105.170574840404413
 21
58.8308264537841339
 31
0.0
  0
LINE
  5
8E
100
AcDbEntity
100
AcDbLine
  8
OBJECT
 62
256
370
-1
  6
ByLayer
 10
105.6675748404043702
 20
57.9588264537841198
 30
0.0
 11
105.6675748404043702
 21
58.8288264537840675
 31
0.0
  0
LINE
  5
8F
100
AcDbEntity
100
AcDbLine
  8
OBJECT
 62
256
370
-1
  6
ByLayer
 10
105.545574840404413
 20
58.8308264537841339
 30
0.0
 11
105.545574840404413
 21
57.9588264537841198
 31
0.0
  0
LINE
  5
90
100
AcDbEntity
100
AcDbLine
  8
OBJECT
 62
256
370
-1
  6
ByLayer
 10
105.545574840404413
 20
57.9588264537841198
 30
0.0
 11
105.6675748404043702
 21
57.9588264537841198
 31
0.0
  0
LINE
  5
91
100
AcDbEntity
100
AcDbLine
  8
OBJECT
 62
256
370
-1
  6
ByLayer
 10
105.6675748404043702
 20
58.8288264537840675
 30
0.0
 11
105.545574840404413
 21
58.8308264537841339
 31
0.0
  0
LINE
  5
92
100
AcDbEntity
100
AcDbLine
  8
OBJECT
 62
256
370
-1
  6
ByLayer
 10
106.0425748404043702
 20
57.9588264537841198
 30
0.0
 11
106.0425748404043702
 21
58.8288264537840675
 31
0.0
  0
LINE
  5
93
100
AcDbEntity
100
AcDbLine
  8
OBJECT
 62
256
370
-1
  6
ByLayer
 10
105.920574840404413
 20
58.8308264537841339
 30
0.0
 11
105.920574840404413
 21
57.9588264537841198
 31
0.0
  0
LINE
  5
94
100
AcDbEntity
100
AcDbLine
  8
OBJECT
 62
256
370
-1
  6
ByLayer
 10
105.920574840404413
 20
57.9588264537841198
 30
0.0
 11
106.0425748404043702
 21
57.9588264537841198
 31
0.0
  0
LINE
  5
95
100
AcDbEntity
100
AcDbLine
  8
OBJECT
 62
256
370
-1
  6
ByLayer
 10
106.0425748404043702
 20
58.8288264537840675
 30
0.0
 11
105.920574840404413
 21
58.8308264537841339
 31
0.0
  0
LINE
  5
96
100
AcDbEntity
100
AcDbLine
  8
OBJECT
 62
256
370
-1
  6
ByLayer
 10
106.4175748404043702
 20
57.9588264537841198
 30
0.0
 11
106.4175748404043702
 21
58.8288264537840675
 31
0.0
  0
LINE
  5
97
100
AcDbEntity
100
AcDbLine
  8
OBJECT
 62
256
370
-1
  6
ByLayer
 10
106.295574840404413
 20
58.8308264537841339
 30
0.0
 11
106.295574840404413
 21
57.9588264537841198
 31
0.0
  0
LINE
  5
98
100
AcDbEntity
100
AcDbLine
  8
OBJECT
 62
256
370
-1
  6
ByLayer
 10
106.295574840404413
 20
57.9588264537841198
 30
0.0
 11
106.4175748404043702
 21
57.9588264537841198
 31
0.0
  0
LINE
  5
99
100
AcDbEntity
100
AcDbLine
  8
OBJECT
 62
256
370
-1
  6
ByLayer
 10
106.4175748404043702
 20
58.8288264537840675
 30
0.0
 11
106.295574840404413
 21
58.8308264537841339
 31
0.0
  0
LINE
  5
9A
100
AcDbEntity
100
AcDbLine
  8
OBJECT
 62
256
370
-1
  6
ByLayer
 10
106.7925748404043702
 20
57.9588264537841198
 30
0.0
 11
106.7925748404043702
 21
58.8288264537840675
 31
0.0
  0
LINE
  5
9B
100
AcDbEntity
100
AcDbLine
  8
OBJECT
 62
256
370
-1
  6
ByLayer
 10
106.670574840404413
 20
58.8308264537841339
 30
0.0
 11
106.670574840404413
 21
57.9588264537841198
 31
0.0
  0
LINE
  5
9C
100
AcDbEntity
100
AcDbLine
  8
OBJECT
 62
256
370
-1
  6
ByLayer
 10
106.670574840404413
 20
57.9588264537841198
 30
0.0
 11
106.7925748404043702
 21
57.9588264537841198
 31
0.0
  0
LINE
  5
9D
100
AcDbEntity
100
AcDbLine
  8
OBJECT
 62
256
370
-1
  6
ByLayer
 10
106.7925748404043702
 20
58.8288264537840675
 30
0.0
 11
106.670574840404413
 21
58.8308264537841339
 31
0.0
  0
LINE
  5
9E
100
AcDbEntity
100
AcDbLine
  8
OBJECT
 62
256
370
-1
  6
ByLayer
 10
107.1675748404043702
 20
57.9588264537841198
 30
0.0
 11
107.1675748404043702
 21
58.8288264537840675
 31
0.0
  0
LINE
  5
9F
100
AcDbEntity
100
AcDbLine
  8
OBJECT
 62
256
370
-1
  6
ByLayer
 10
107.045574840404413
 20
58.8308264537841339
 30
0.0
 11
107.045574840404413
 21
57.9588264537841198
 31
0.0
  0
LINE
  5
A0
100
AcDbEntity
100
AcDbLine
  8
OBJECT
 62
256
370
-1
  6
ByLayer
 10
107.045574840404413
 20
57.9588264537841198
 30
0.0
 11
107.1675748404043702
 21
57.9588264537841198
 31
0.0
  0
LINE
  5
A1
100
AcDbEntity
100
AcDbLine
  8
OBJECT
 62
256
370
-1
  6
ByLayer
 10
107.1675748404043702
 20
58.8288264537840675
 30
0.0
 11
107.045574840404413
 21
58.8308264537841339
 31
0.0
  0
LINE
  5
A2
100
AcDbEntity
100
AcDbLine
  8
OBJECT
 62
256
370
-1
  6
ByLayer
 10
107.5425748404043702
 20
57.9588264537841198
 30
0.0
 11
107.5425748404043702
 21
58.8288264537840675
 31
0.0
  0
LINE
  5
A3
100
AcDbEntity
100
AcDbLine
  8
OBJECT
 62
256
370
-1
  6
ByLayer
 10
107.420574840404413
 20
58.8308264537841339
 30
0.0
 11
107.420574840404413
 21
57.9588264537841198
 31
0.0
  0
LINE
  5
A4
100
AcDbEntity
100
AcDbLine
  8
OBJECT
 62
256
370
-1
  6
ByLayer
 10
107.420574840404413
 20
57.9588264537841198
 30
0.0
 11
107.5425748404043702
 21
57.9588264537841198
 31
0.0
  0
LINE
  5
A5
100
AcDbEntity
100
AcDbLine
  8
OBJECT
 62
256
370
-1
  6
ByLayer
 10
107.5425748404043702
 20
58.8288264537840675
 30
0.0
 11
107.420574840404413
 21
58.8308264537841339
 31
0.0
  0
LINE
  5
A6
100
AcDbEntity
100
AcDbLine
  8
OBJECT
 62
256
370
-1
  6
ByLayer
 10
107.9175748404043702
 20
57.9588264537841198
 30
0.0
 11
107.9175748404043702
 21
58.8288264537840675
 31
0.0
  0
LINE
  5
A7
100
AcDbEntity
100
AcDbLine
  8
OBJECT
 62
256
370
-1
  6
ByLayer
 10
107.795574840404413
 20
58.8308264537841339
 30
0.0
 11
107.795574840404413
 21
57.9588264537841198
 31
0.0
  0
LINE
  5
A8
100
AcDbEntity
100
AcDbLine
  8
OBJECT
 62
256
370
-1
  6
ByLayer
 10
107.795574840404413
 20
57.9588264537841198
 30
0.0
 11
107.9175748404043702
 21
57.9588264537841198
 31
0.0
  0
LINE
  5
A9
100
AcDbEntity
100
AcDbLine
  8
OBJECT
 62
256
370
-1
  6
ByLayer
 10
107.9175748404043702
 20
58.8288264537840675
 30
0.0
 11
107.795574840404413
 21
58.8308264537841339
 31
0.0
  0
LINE
  5
AA
100
AcDbEntity
100
AcDbLine
  8
OBJECT
 62
256
370
-1
  6
ByLayer
 10
108.2925748404043702
 20
57.9588264537841198
 30
0.0
 11
108.2925748404043702
 21
58.8288264537840675
 31
0.0
  0
LINE
  5
AB
100
AcDbEntity
100
AcDbLine
  8
OBJECT
 62
256
370
-1
  6
ByLayer
 10
108.170574840404413
 20
58.8308264537841339
 30
0.0
 11
108.170574840404413
 21
57.9588264537841198
 31
0.0
  0
LINE
  5
AC
100
AcDbEntity
100
AcDbLine
  8
OBJECT
 62
256
370
-1
  6
ByLayer
 10
108.170574840404413
 20
57.9588264537841198
 30
0.0
 11
108.2925748404043702
 21
57.9588264537841198
 31
0.0
  0
LINE
  5
AD
100
AcDbEntity
100
AcDbLine
  8
OBJECT
 62
256
370
-1
  6
ByLayer
 10
108.2925748404043702
 20
58.8288264537840675
 30
0.0
 11
108.170574840404413
 21
58.8308264537841339
 31
0.0
  0
LINE
  5
AE
100
AcDbEntity
100
AcDbLine
  8
OBJECT
 62
256
370
-1
  6
ByLayer
 10
108.170574840404413
 20
54.5588264537840857
 30
0.0
 11
108.170574840404413
 21
53.6868264537841284
 31
0.0
  0
LINE
  5
AF
100
AcDbEntity
100
AcDbLine
  8
OBJECT
 62
256
370
-1
  6
ByLayer
 10
108.2925748404043702
 20
53.6868264537841284
 30
0.0
 11
108.2925748404043702
 21
54.556826453784133
 31
0.0
  0
LINE
  5
B0
100
AcDbEntity
100
AcDbLine
  8
OBJECT
 62
256
370
-1
  6
ByLayer
 10
107.795574840404413
 20
54.5588264537840857
 30
0.0
 11
107.795574840404413
 21
53.6868264537841284
 31
0.0
  0
LINE
  5
B1
100
AcDbEntity
100
AcDbLine
  8
OBJECT
 62
256
370
-1
  6
ByLayer
 10
107.9175748404043702
 20
53.6868264537841284
 30
0.0
 11
107.9175748404043702
 21
54.556826453784133
 31
0.0
  0
LINE
  5
B2
100
AcDbEntity
100
AcDbLine
  8
OBJECT
 62
256
370
-1
  6
ByLayer
 10
107.420574840404413
 20
54.5588264537840857
 30
0.0
 11
107.420574840404413
 21
53.6868264537841284
 31
0.0
  0
LINE
  5
B3
100
AcDbEntity
100
AcDbLine
  8
OBJECT
 62
256
370
-1
  6
ByLayer
 10
107.5425748404043702
 20
53.6868264537841284
 30
0.0
 11
107.5425748404043702
 21
54.556826453784133
 31
0.0
  0
LINE
  5
B4
100
AcDbEntity
100
AcDbLine
  8
OBJECT
 62
256
370
-1
  6
ByLayer
 10
107.045574840404413
 20
54.5588264537840857
 30
0.0
 11
107.045574840404413
 21
53.6868264537841284
 31
0.0
  0
LINE
  5
B5
100
AcDbEntity
100
AcDbLine
  8
OBJECT
 62
256
370
-1
  6
ByLayer
 10
107.1675748404043702
 20
53.6868264537841284
 30
0.0
 11
107.1675748404043702
 21
54.556826453784133
 31
0.0
  0
LINE
  5
B6
100
AcDbEntity
100
AcDbLine
  8
OBJECT
 62
256
370
-1
  6
ByLayer
 10
106.670574840404413
 20
54.5588264537840857
 30
0.0
 11
106.670574840404413
 21
53.6868264537841284
 31
0.0
  0
LINE
  5
B7
100
AcDbEntity
100
AcDbLine
  8
OBJECT
 62
256
370
-1
  6
ByLayer
 10
106.7925748404043702
 20
53.6868264537841284
 30
0.0
 11
106.7925748404043702
 21
54.556826453784133
 31
0.0
  0
LINE
  5
B8
100
AcDbEntity
100
AcDbLine
  8
OBJECT
 62
256
370
-1
  6
ByLayer
 10
106.295574840404413
 20
54.5588264537840857
 30
0.0
 11
106.295574840404413
 21
53.6868264537841284
 31
0.0
  0
LINE
  5
B9
100
AcDbEntity
100
AcDbLine
  8
OBJECT
 62
256
370
-1
  6
ByLayer
 10
106.4175748404043702
 20
53.6868264537841284
 30
0.0
 11
106.4175748404043702
 21
54.556826453784133
 31
0.0
  0
LINE
  5
BA
100
AcDbEntity
100
AcDbLine
  8
OBJECT
 62
256
370
-1
  6
ByLayer
 10
105.920574840404413
 20
54.5588264537840857
 30
0.0
 11
105.920574840404413
 21
53.6868264537841284
 31
0.0
  0
LINE
  5
BB
100
AcDbEntity
100
AcDbLine
  8
OBJECT
 62
256
370
-1
  6
ByLayer
 10
106.0425748404043702
 20
53.6868264537841284
 30
0.0
 11
106.0425748404043702
 21
54.556826453784133
 31
0.0
  0
LINE
  5
BC
100
AcDbEntity
100
AcDbLine
  8
OBJECT
 62
256
370
-1
  6
ByLayer
 10
105.545574840404413
 20
54.5588264537840857
 30
0.0
 11
105.545574840404413
 21
53.6868264537841284
 31
0.0
  0
LINE
  5
BD
100
AcDbEntity
100
AcDbLine
  8
OBJECT
 62
256
370
-1
  6
ByLayer
 10
105.6675748404043702
 20
53.6868264537841284
 30
0.0
 11
105.6675748404043702
 21
54.556826453784133
 31
0.0
  0
LINE
  5
BE
100
AcDbEntity
100
AcDbLine
  8
OBJECT
 62
256
370
-1
  6
ByLayer
 10
105.170574840404413
 20
54.5588264537840857
 30
0.0
 11
105.170574840404413
 21
53.6868264537841284
 31
0.0
  0
LINE
  5
BF
100
AcDbEntity
100
AcDbLine
  8
OBJECT
 62
256
370
-1
  6
ByLayer
 10
105.2925748404043702
 20
53.6868264537841284
 30
0.0
 11
105.2925748404043702
 21
54.556826453784133
 31
0.0
  0
LINE
  5
C0
100
AcDbEntity
100
AcDbLine
  8
OBJECT
 62
256
370
-1
  6
ByLayer
 10
104.795574840404413
 20
54.5588264537840857
 30
0.0
 11
104.795574840404413
 21
53.6868264537841284
 31
0.0
  0
LINE
  5
C1
100
AcDbEntity
100
AcDbLine
  8
OBJECT
 62
256
370
-1
  6
ByLayer
 10
104.9175748404043702
 20
53.6868264537841284
 30
0.0
 11
104.9175748404043702
 21
54.556826453784133
 31
0.0
  0
LINE
  5
C2
100
AcDbEntity
100
AcDbLine
  8
OBJECT
 62
256
370
-1
  6
ByLayer
 10
104.420574840404413
 20
54.5588264537840857
 30
0.0
 11
104.420574840404413
 21
53.6868264537841284
 31
0.0
  0
LINE
  5
C3
100
AcDbEntity
100
AcDbLine
  8
OBJECT
 62
256
370
-1
  6
ByLayer
 10
104.5425748404043702
 20
53.6868264537841284
 30
0.0
 11
104.5425748404043702
 21
54.556826453784133
 31
0.0
  0
LINE
  5
C4
100
AcDbEntity
100
AcDbLine
  8
OBJECT
 62
256
370
-1
  6
ByLayer
 10
104.045574840404413
 20
54.5588264537840857
 30
0.0
 11
104.045574840404413
 21
53.6868264537841284
 31
0.0
  0
LINE
  5
C5
100
AcDbEntity
100
AcDbLine
  8
OBJECT
 62
256
370
-1
  6
ByLayer
 10
104.1675748404043702
 20
53.6868264537841284
 30
0.0
 11
104.1675748404043702
 21
54.556826453784133
 31
0.0
  0
LINE
  5
C6
100
AcDbEntity
100
AcDbLine
  8
OBJECT
 62
256
370
-1
  6
ByLayer
 10
103.670574840404413
 20
54.5588264537840857
 30
0.0
 11
103.670574840404413
 21
53.6868264537841284
 31
0.0
  0
LINE
  5
C7
100
AcDbEntity
100
AcDbLine
  8
OBJECT
 62
256
370
-1
  6
ByLayer
 10
103.7925748404043702
 20
53.6868264537841284
 30
0.0
 11
103.7925748404043702
 21
54.556826453784133
 31
0.0
  0
LINE
  5
C8
100
AcDbEntity
100
AcDbLine
  8
OBJECT
 62
256
370
-1
  6
ByLayer
 10
103.295574840404413
 20
54.5588264537840857
 30
0.0
 11
103.295574840404413
 21
53.6868264537841284
 31
0.0
  0
LINE
  5
C9
100
AcDbEntity
100
AcDbLine
  8
OBJECT
 62
256
370
-1
  6
ByLayer
 10
103.4175748404043702
 20
53.6868264537841284
 30
0.0
 11
103.4175748404043702
 21
54.556826453784133
 31
0.0
  0
LINE
  5
CA
100
AcDbEntity
100
AcDbLine
  8
OBJECT
 62
256
370
-1
  6
ByLayer
 10
102.920574840404413
 20
54.5588264537840857
 30
0.0
 11
102.920574840404413
 21
53.6868264537841284
 31
0.0
  0
LINE
  5
CB
100
AcDbEntity
100
AcDbLine
  8
OBJECT
 62
256
370
-1
  6
ByLayer
 10
103.0425748404043702
 20
53.6868264537841284
 30
0.0
 11
103.0425748404043702
 21
54.556826453784133
 31
0.0
  0
LINE
  5
CC
100
AcDbEntity
100
AcDbLine
  8
OBJECT
 62
256
370
-1
  6
ByLayer
 10
102.6675748404043702
 20
53.6868264537841284
 30
0.0
 11
102.6675748404043702
 21
54.556826453784133
 31
0.0
  0
LINE
  5
CD
100
AcDbEntity
100
AcDbLine
  8
OBJECT
 62
256
370
-1
  6
ByLayer
 10
102.545574840404413
 20
54.5588264537840857
 30
0.0
 11
102.545574840404413
 21
53.6868264537841284
 31
0.0
  0
LINE
  5
CE
100
AcDbEntity
100
AcDbLine
  8
OBJECT
 62
256
370
-1
  6
ByLayer
 10
103.295574840404413
 20
53.6868264537841284
 30
0.0
 11
103.4175748404043702
 21
53.6868264537841284
 31
0.0
  0
LINE
  5
CF
100
AcDbEntity
100
AcDbLine
  8
OBJECT
 62
256
370
-1
  6
ByLayer
 10
102.920574840404413
 20
53.6868264537841284
 30
0.0
 11
103.0425748404043702
 21
53.6868264537841284
 31
0.0
  0
LINE
  5
D0
100
AcDbEntity
100
AcDbLine
  8
OBJECT
 62
256
370
-1
  6
ByLayer
 10
102.545574840404413
 20
53.6868264537841284
 30
0.0
 11
102.6675748404043702
 21
53.6868264537841284
 31
0.0
  0
LINE
  5
D1
100
AcDbEntity
100
AcDbLine
  8
OBJECT
 62
256
370
-1
  6
ByLayer
 10
105.920574840404413
 20
53.6868264537841284
 30
0.0
 11
106.0425748404043702
 21
53.6868264537841284
 31
0.0
  0
LINE
  5
D2
100
AcDbEntity
100
AcDbLine
  8
OBJECT
 62
256
370
-1
  6
ByLayer
 10
105.545574840404413
 20
53.6868264537841284
 30
0.0
 11
105.6675748404043702
 21
53.6868264537841284
 31
0.0
  0
LINE
  5
D3
100
AcDbEntity
100
AcDbLine
  8
OBJECT
 62
256
370
-1
  6
ByLayer
 10
105.170574840404413
 20
53.6868264537841284
 30
0.0
 11
105.2925748404043702
 21
53.6868264537841284
 31
0.0
  0
LINE
  5
D4
100
AcDbEntity
100
AcDbLine
  8
OBJECT
 62
256
370
-1
  6
ByLayer
 10
104.795574840404413
 20
53.6868264537841284
 30
0.0
 11
104.9175748404043702
 21
53.6868264537841284
 31
0.0
  0
LINE
  5
D5
100
AcDbEntity
100
AcDbLine
  8
OBJECT
 62
256
370
-1
  6
ByLayer
 10
104.420574840404413
 20
53.6868264537841284
 30
0.0
 11
104.5425748404043702
 21
53.6868264537841284
 31
0.0
  0
LINE
  5
D6
100
AcDbEntity
100
AcDbLine
  8
OBJECT
 62
256
370
-1
  6
ByLayer
 10
104.045574840404413
 20
53.6868264537841284
 30
0.0
 11
104.1675748404043702
 21
53.6868264537841284
 31
0.0
  0
LINE
  5
D7
100
AcDbEntity
100
AcDbLine
  8
OBJECT
 62
256
370
-1
  6
ByLayer
 10
103.670574840404413
 20
53.6868264537841284
 30
0.0
 11
103.7925748404043702
 21
53.6868264537841284
 31
0.0
  0
LINE
  5
D8
100
AcDbEntity
100
AcDbLine
  8
OBJECT
 62
256
370
-1
  6
ByLayer
 10
108.170574840404413
 20
53.6868264537841284
 30
0.0
 11
108.2925748404043702
 21
53.6868264537841284
 31
0.0
  0
LINE
  5
D9
100
AcDbEntity
100
AcDbLine
  8
OBJECT
 62
256
370
-1
  6
ByLayer
 10
107.795574840404413
 20
53.6868264537841284
 30
0.0
 11
107.9175748404043702
 21
53.6868264537841284
 31
0.0
  0
LINE
  5
DA
100
AcDbEntity
100
AcDbLine
  8
OBJECT
 62
256
370
-1
  6
ByLayer
 10
107.420574840404413
 20
53.6868264537841284
 30
0.0
 11
107.5425748404043702
 21
53.6868264537841284
 31
0.0
  0
LINE
  5
DB
100
AcDbEntity
100
AcDbLine
  8
OBJECT
 62
256
370
-1
  6
ByLayer
 10
107.045574840404413
 20
53.6868264537841284
 30
0.0
 11
107.1675748404043702
 21
53.6868264537841284
 31
0.0
  0
LINE
  5
DC
100
AcDbEntity
100
AcDbLine
  8
OBJECT
 62
256
370
-1
  6
ByLayer
 10
106.670574840404413
 20
53.6868264537841284
 30
0.0
 11
106.7925748404043702
 21
53.6868264537841284
 31
0.0
  0
LINE
  5
DD
100
AcDbEntity
100
AcDbLine
  8
OBJECT
 62
256
370
-1
  6
ByLayer
 10
106.295574840404413
 20
53.6868264537841284
 30
0.0
 11
106.4175748404043702
 21
53.6868264537841284
 31
0.0
  0
LINE
  5
DE
100
AcDbEntity
100
AcDbLine
  8
OBJECT
 62
256
370
-1
  6
ByLayer
 10
103.4175748404043702
 20
54.556826453784133
 30
0.0
 11
103.295574840404413
 21
54.5588264537840857
 31
0.0
  0
LINE
  5
DF
100
AcDbEntity
100
AcDbLine
  8
OBJECT
 62
256
370
-1
  6
ByLayer
 10
103.0425748404043702
 20
54.556826453784133
 30
0.0
 11
102.920574840404413
 21
54.5588264537840857
 31
0.0
  0
LINE
  5
E0
100
AcDbEntity
100
AcDbLine
  8
OBJECT
 62
256
370
-1
  6
ByLayer
 10
102.6675748404043702
 20
54.556826453784133
 30
0.0
 11
102.545574840404413
 21
54.5588264537840857
 31
0.0
  0
LINE
  5
E1
100
AcDbEntity
100
AcDbLine
  8
OBJECT
 62
256
370
-1
  6
ByLayer
 10
106.0425748404043702
 20
54.556826453784133
 30
0.0
 11
105.920574840404413
 21
54.5588264537840857
 31
0.0
  0
LINE
  5
E2
100
AcDbEntity
100
AcDbLine
  8
OBJECT
 62
256
370
-1
  6
ByLayer
 10
105.6675748404043702
 20
54.556826453784133
 30
0.0
 11
105.545574840404413
 21
54.5588264537840857
 31
0.0
  0
LINE
  5
E3
100
AcDbEntity
100
AcDbLine
  8
OBJECT
 62
256
370
-1
  6
ByLayer
 10
105.2925748404043702
 20
54.556826453784133
 30
0.0
 11
105.170574840404413
 21
54.5588264537840857
 31
0.0
  0
LINE
  5
E4
100
AcDbEntity
100
AcDbLine
  8
OBJECT
 62
256
370
-1
  6
ByLayer
 10
104.9175748404043702
 20
54.556826453784133
 30
0.0
 11
104.795574840404413
 21
54.5588264537840857
 31
0.0
  0
LINE
  5
E5
100
AcDbEntity
100
AcDbLine
  8
OBJECT
 62
256
370
-1
  6
ByLayer
 10
104.5425748404043702
 20
54.556826453784133
 30
0.0
 11
104.420574840404413
 21
54.5588264537840857
 31
0.0
  0
LINE
  5
E6
100
AcDbEntity
100
AcDbLine
  8
OBJECT
 62
256
370
-1
  6
ByLayer
 10
104.1675748404043702
 20
54.556826453784133
 30
0.0
 11
104.045574840404413
 21
54.5588264537840857
 31
0.0
  0
LINE
  5
E7
100
AcDbEntity
100
AcDbLine
  8
OBJECT
 62
256
370
-1
  6
ByLayer
 10
103.7925748404043702
 20
54.556826453784133
 30
0.0
 11
103.670574840404413
 21
54.5588264537840857
 31
0.0
  0
LINE
  5
E8
100
AcDbEntity
100
AcDbLine
  8
OBJECT
 62
256
370
-1
  6
ByLayer
 10
108.2925748404043702
 20
54.556826453784133
 30
0.0
 11
108.170574840404413
 21
54.5588264537840857
 31
0.0
  0
LINE
  5
E9
100
AcDbEntity
100
AcDbLine
  8
OBJECT
 62
256
370
-1
  6
ByLayer
 10
107.9175748404043702
 20
54.556826453784133
 30
0.0
 11
107.795574840404413
 21
54.5588264537840857
 31
0.0
  0
LINE
  5
EA
100
AcDbEntity
100
AcDbLine
  8
OBJECT
 62
256
370
-1
  6
ByLayer
 10
107.5425748404043702
 20
54.556826453784133
 30
0.0
 11
107.420574840404413
 21
54.5588264537840857
 31
0.0
  0
LINE
  5
EB
100
AcDbEntity
100
AcDbLine
  8
OBJECT
 62
256
370
-1
  6
ByLayer
 10
107.1675748404043702
 20
54.556826453784133
 30
0.0
 11
107.045574840404413
 21
54.5588264537840857
 31
0.0
  0
LINE
  5
EC
100
AcDbEntity
100
AcDbLine
  8
OBJECT
 62
256
370
-1
  6
ByLayer
 10
106.7925748404043702
 20
54.556826453784133
 30
0.0
 11
106.670574840404413
 21
54.5588264537840857
 31
0.0
  0
LINE
  5
ED
100
AcDbEntity
100
AcDbLine
  8
OBJECT
 62
256
370
-1
  6
ByLayer
 10
106.4175748404043702
 20
54.556826453784133
 30
0.0
 11
106.295574840404413
 21
54.5588264537840857
 31
0.0
  0
LWPOLYLINE
  5
EE
  8
0
 62
256
370
-1
  6
ByLayer
100
AcDbEntity
100
AcDbPolyline
 90
3
 70
0
 10
102.5453268404044138
 20
54.5588694537840908
 10
99.9143268404043852
 20
56.4571694537840969
 10
99.5643268404043624
 20
56.4571694537840969
  0
MTEXT
  5
EF
100
AcDbEntity
100
AcDbMText
  8
0
 62
256
370
-1
  6
ByLayer
 10
93.8265208404043847
 20
56.3403124537841151
 30
0.0
 40
0.35
 41
100.0
 71
7
 72
2
  1
.872\~x\~.122\~SLOTS
  7
STANDARD
 50
0.0
 73
0
 44
1.0
  0
MTEXT
  5
F0
100
AcDbEntity
100
AcDbMText
  8
0
 62
256
370
-1
  6
ByLayer
 10
93.8265208404043847
 20
55.885312453784131
 30
0.0
 40
0.35
 41
100.0
 71
7
 72
2
  1
.375\~"\~CENTERS
  7
STANDARD
 50
0.0
 73
0
 44
1.0
  0
CIRCLE
  5
F1
100
AcDbEntity
100
AcDbCircle
  8
0
 62
256
370
-1
  6
ByLayer
 10
105.0865447729628102
 20
55.9407869299508533
 30
0.0
 40
0.064
  0
CIRCLE
  5
F2
100
AcDbEntity
100
AcDbCircle
  8
0
 62
256
370
-1
  6
ByLayer
 10
105.0865447729628102
 20
57.1277869299508509
 30
0.0
 40
0.064
  0
CIRCLE
  5
F3
100
AcDbEntity
100
AcDbCircle
  8
0
 62
256
370
-1
  6
ByLayer
 10
104.8715447729628067
 20
56.6067869299508502
 30
0.0
 40
0.064
  0
CIRCLE
  5
F4
100
AcDbEntity
100
AcDbCircle
  8
0
 62
256
370
-1
  6
ByLayer
 10
105.3015447729628136
 20
56.6067869299508502
 30
0.0
 40
0.064
  0
ARC
  5
F5
100
AcDbEntity
  8
0
 62
256
370
-1
  6
ByLayer
100
AcDbCircle
 10
104.6746433330102093
 20
56.5342869299508521
 30
0.0
 40
0.0880985600473991
100
AcDbArc
 50
135.6049994694525651
 51
225.6849115901835319
  0
ARC
  5
F6
100
AcDbEntity
  8
0
 62
256
370
-1
  6
ByLayer
100
AcDbCircle
 10
105.4988020648190457
 20
56.5277127169683382
 30
0.0
 40
0.0879886532954181
100
AcDbArc
 50
314.9999999999980105
 51
45.0000000000034817
  0
LINE
  5
F7
100
AcDbEntity
100
AcDbLine
  8
0
 62
256
370
-1
  6
ByLayer
 10
104.5992908570201649
 20
56.5799307755885152
 30
0.0
 11
104.9728607930417468
 21
57.196649617776508
 31
0.0
  0
LINE
  5
F8
100
AcDbEntity
100
AcDbLine
  8
0
 62
256
370
-1
  6
ByLayer
 10
105.5742612560743225
 20
56.572966595960537
 30
0.0
 11
105.200531957706275
 21
57.1961465582377642
 31
0.0
  0
ARC
  5
F9
100
AcDbEntity
  8
0
 62
256
370
-1
  6
ByLayer
100
AcDbCircle
 10
105.0865447729628102
 20
57.1277869299508509
 30
0.0
 40
0.1329139460901891
100
AcDbArc
 50
30.9516756488735894
 51
148.7951245965707869
  0
LINE
  5
FA
100
AcDbEntity
100
AcDbLine
  8
0
 62
256
370
-1
  6
ByLayer
 10
104.5993707223943261
 20
56.4885114957803864
 30
0.0
 11
104.9740577524349163
 21
55.8723803453900629
 31
0.0
  0
ARC
  5
FB
100
AcDbEntity
  8
0
 62
256
370
-1
  6
ByLayer
100
AcDbCircle
 10
105.0865447729628102
 20
55.9407869299508533
 30
0.0
 40
0.131654056521301
100
AcDbArc
 50
211.3049844332556688
 51
328.4060507189542477
  0
LINE
  5
FC
100
AcDbEntity
100
AcDbLine
  8
0
 62
256
370
-1
  6
ByLayer
 10
105.5737492392092491
 20
56.4816158172931324
 30
0.0
 11
105.1986853634108883
 21
55.871813902088725
 31
0.0
  0
CIRCLE
  5
FD
100
AcDbEntity
100
AcDbCircle
  8
0
 62
256
370
-1
  6
ByLayer
 10
105.0844708991009355
 20
56.5277127169683382
 30
0.0
 40
0.3837584867232604
  0
CIRCLE
  5
FE
100
AcDbEntity
100
AcDbCircle
  8
0
 62
256
370
-1
  6
ByLayer
 10
106.3604445327790842
 20
55.9239641945804067
 30
0.0
 40
0.064
  0
CIRCLE
  5
FF
100
AcDbEntity
100
AcDbCircle
  8
0
 62
256
370
-1
  6
ByLayer
 10
106.3604445327790842
 20
57.1109641945804043
 30
0.0
 40
0.064
  0
CIRCLE
  5
100
100
AcDbEntity
100
AcDbCircle
  8
0
 62
256
370
-1
  6
ByLayer
 10
106.1454445327790808
 20
56.5899641945804035
 30
0.0
 40
0.064
  0
CIRCLE
  5
101
100
AcDbEntity
100
AcDbCircle
  8
0
 62
256
370
-1
  6
ByLayer
 10
106.5754445327790876
 20
56.5899641945804035
 30
0.0
 40
0.064
  0
ARC
  5
102
100
AcDbEntity
  8
0
 62
256
370
-1
  6
ByLayer
100
AcDbCircle
 10
105.9485430928264833
 20
56.5174641945804055
 30
0.0
 40
0.0880985600473991
100
AcDbArc
 50
135.6049994694525651
 51
225.6849115901835319
  0
ARC
  5
103
100
AcDbEntity
  8
0
 62
256
370
-1
  6
ByLayer
100
AcDbCircle
 10
106.7727018246353197
 20
56.5108899815978916
 30
0.0
 40
0.0879886532954181
100
AcDbArc
 50
314.9999999999980105
 51
45.0000000000034817
  0
LINE
  5
104
100
AcDbEntity
100
AcDbLine
  8
0
 62
256
370
-1
  6
ByLayer
 10
105.8731906168364389
 20
56.5631080402180686
 30
0.0
 11
106.2467605528580208
 21
57.1798268824060614
 31
0.0
  0
LINE
  5
105
100
AcDbEntity
100
AcDbLine
  8
0
 62
256
370
-1
  6
ByLayer
 10
106.8481610158905966
 20
56.5561438605900904
 30
0.0
 11
106.474431717522549
 21
57.1793238228673175
 31
0.0
  0
ARC
  5
106
100
AcDbEntity
  8
0
 62
256
370
-1
  6
ByLayer
100
AcDbCircle
 10
106.3604445327790842
 20
57.1109641945804043
 30
0.0
 40
0.1329139460901891
100
AcDbArc
 50
30.9516756488735894
 51
148.7951245965707869
  0
LINE
  5
107
100
AcDbEntity
100
AcDbLine
  8
0
 62
256
370
-1
  6
ByLayer
 10
105.8732704822106001
 20
56.4716887604099398
 30
0.0
 11
106.2479575122511903
 21
55.8555576100196163
 31
0.0
  0
ARC
  5
108
100
AcDbEntity
  8
0
 62
256
370
-1
  6
ByLayer
100
AcDbCircle
 10
106.3604445327790842
 20
55.9239641945804067
 30
0.0
 40
0.131654056521301
100
AcDbArc
 50
211.3049844332556688
 51
328.4060507189542477
  0
LINE
  5
109
100
AcDbEntity
100
AcDbLine
  8
0
 62
256
370
-1
  6
ByLayer
 10
106.8476489990255232
 20
56.4647930819226858
 30
0.0
 11
106.4725851232271623
 21
55.8549911667182784
 31
0.0
  0
CIRCLE
  5
10A
100
AcDbEntity
100
AcDbCircle
  8
0
 62
256
370
-1
  6
ByLayer
 10
106.3583706589172095
 20
56.5108899815978916
 30
0.0
 40
0.3837584867232604
  0
CIRCLE
  5
10B
100
AcDbEntity
100
AcDbCircle
  8
0
 62
256
370
-1
  6
ByLayer
 10
107.6343442925953582
 20
55.90714145920996
 30
0.0
 40
0.064
  0
CIRCLE
  5
10C
100
AcDbEntity
100
AcDbCircle
  8
0
 62
256
370
-1
  6
ByLayer
 10
107.6343442925953582
 20
57.0941414592099576
 30
0.0
 40
0.064
  0
CIRCLE
  5
10D
100
AcDbEntity
100
AcDbCircle
  8
0
 62
256
370
-1
  6
ByLayer
 10
107.4193442925953548
 20
56.5731414592099568
 30
0.0
 40
0.064
  0
CIRCLE
  5
10E
100
AcDbEntity
100
AcDbCircle
  8
0
 62
256
370
-1
  6
ByLayer
 10
107.8493442925953616
 20
56.5731414592099568
 30
0.0
 40
0.064
  0
ARC
  5
10F
100
AcDbEntity
  8
0
 62
256
370
-1
  6
ByLayer
100
AcDbCircle
 10
107.2224428526427573
 20
56.5006414592099588
 30
0.0
 40
0.0880985600473991
100
AcDbArc
 50
135.6049994694525651
 51
225.6849115901835319
  0
ARC
  5
110
100
AcDbEntity
  8
0
 62
256
370
-1
  6
ByLayer
100
AcDbCircle
 10
108.0466015844515937
 20
56.4940672462274449
 30
0.0
 40
0.0879886532954181
100
AcDbArc
 50
314.9999999999980105
 51
45.0000000000034817
  0
LINE
  5
111
100
AcDbEntity
100
AcDbLine
  8
0
 62
256
370
-1
  6
ByLayer
 10
107.147090376652713
 20
56.5462853048476219
 30
0.0
 11
107.5206603126742948
 21
57.1630041470356147
 31
0.0
  0
LINE
  5
112
100
AcDbEntity
100
AcDbLine
  8
0
 62
256
370
-1
  6
ByLayer
 10
108.1220607757068706
 20
56.5393211252196437
 30
0.0
 11
107.748331477338823
 21
57.1625010874968709
 31
0.0
  0
ARC
  5
113
100
AcDbEntity
  8
0
 62
256
370
-1
  6
ByLayer
100
AcDbCircle
 10
107.6343442925953582
 20
57.0941414592099576
 30
0.0
 40
0.1329139460901891
100
AcDbArc
 50
30.9516756488735894
 51
148.7951245965707869
  0
LINE
  5
114
100
AcDbEntity
100
AcDbLine
  8
0
 62
256
370
-1
  6
ByLayer
 10
107.1471702420268741
 20
56.4548660250394931
 30
0.0
 11
107.5218572720674644
 21
55.8387348746491696
 31
0.0
  0
ARC
  5
115
100
AcDbEntity
  8
0
 62
256
370
-1
  6
ByLayer
100
AcDbCircle
 10
107.6343442925953582
 20
55.90714145920996
 30
0.0
 40
0.131654056521301
100
AcDbArc
 50
211.3049844332556688
 51
328.4060507189542477
  0
LINE
  5
116
100
AcDbEntity
100
AcDbLine
  8
0
 62
256
370
-1
  6
ByLayer
 10
108.1215487588417972
 20
56.4479703465522391
 30
0.0
 11
107.7464848830434363
 21
55.8381684313478317
 31
0.0
  0
CIRCLE
  5
117
100
AcDbEntity
100
AcDbCircle
  8
0
 62
256
370
-1
  6
ByLayer
 10
107.6322704187334836
 20
56.4940672462274449
 30
0.0
 40
0.3837584867232604
  0
ARC
  5
118
100
AcDbEntity
  8
0
 62
256
370
-1
  6
ByLayer
100
AcDbCircle
 10
101.7387143880788472
 20
55.2664472703315184
 30
0.0
 40
0.0600000000000023
100
AcDbArc
 50
180.0
 51
269.4405245804961169
  0
LINE
  5
119
100
AcDbEntity
100
AcDbLine
  8
0
 62
256
370
-1
  6
ByLayer
 10
101.6787143880788449
 20
55.2664472703315184
 30
0.0
 11
101.6787143880788449
 21
57.3474472703315215
 31
0.0
  0
ARC
  5
11A
100
AcDbEntity
  8
0
 62
256
370
-1
  6
ByLayer
100
AcDbCircle
 10
101.7387143880788472
 20
57.3474472703315215
 30
0.0
 40
0.0600000000000023
100
AcDbArc
 50
104.9999488289782192
 51
180.0
  0
LINE
  5
11B
100
AcDbEntity
100
AcDbLine
  8
0
 62
256
370
-1
  6
ByLayer
 10
102.8007143880788448
 20
55.2664472703315184
 30
0.0
 11
102.8007143880788448
 21
57.3474472703315215
 31
0.0
  0
ARC
  5
11C
100
AcDbEntity
  8
0
 62
256
370
-1
  6
ByLayer
100
AcDbCircle
 10
102.7407143880788425
 20
57.3474472703315215
 30
0.0
 40
0.0600000000000023
100
AcDbArc
 50
360.0
 51
75.0000511710217665
  0
ARC
  5
11D
100
AcDbEntity
  8
0
 62
256
370
-1
  6
ByLayer
100
AcDbCircle
 10
102.7407143880788425
 20
55.2664472703315184
 30
0.0
 40
0.0600000000000023
100
AcDbArc
 50
273.8785747598931266
 51
0.0
  0
LINE
  5
11E
100
AcDbEntity
100
AcDbLine
  8
0
 62
256
370
-1
  6
ByLayer
 10
101.7231852971329715
 20
57.4054028337779627
 30
0.0
 11
102.7562434790247465
 21
57.4054028337779627
 31
0.0
  0
LINE
  5
11F
100
AcDbEntity
100
AcDbLine
  8
0
 62
256
370
-1
  6
ByLayer
 10
101.7381285161000903
 20
55.2064501307828266
 30
0.0
 11
102.7445551486828208
 21
55.2065703252024989
 31
0.0
  0
CIRCLE
  5
120
100
AcDbEntity
100
AcDbCircle
  8
0
 62
256
370
-1
  6
ByLayer
 10
103.0280281102351552
 20
56.3059565308853109
 30
0.0
 40
0.062
  0
CIRCLE
  5
121
100
AcDbEntity
100
AcDbCircle
  8
0
 62
256
370
-1
  6
ByLayer
 10
101.4530281102351523
 20
56.3059565308853109
 30
0.0
 40
0.062
  0
CIRCLE
  5
122
100
AcDbEntity
100
AcDbCircle
  8
0
 62
256
370
18
  6
DASHED
 10
102.2340748160325745
 20
56.9017438291919291
 30
0.0
 40
0.5
  0
CIRCLE
  5
123
100
AcDbEntity
100
AcDbCircle
  8
0
 62
256
370
18
  6
DASHED
 10
101.7387143880788472
 20
57.3474472703315215
 30
0.0
 40
0.062
  0
CIRCLE
  5
124
100
AcDbEntity
100
AcDbCircle
  8
0
 62
256
370
18
  6
DASHED
 10
102.7407143880788425
 20
57.3474472703315215
 30
0.0
 40
0.062
  0
CIRCLE
  5
125
100
AcDbEntity
100
AcDbCircle
  8
0
 62
256
370
18
  6
DASHED
 10
101.7387143880788472
 20
55.2664472703315184
 30
0.0
 40
0.062
  0
CIRCLE
  5
126
100
AcDbEntity
100
AcDbCircle
  8
0
 62
256
370
18
  6
DASHED
 10
102.7407143880788425
 20
55.2664472703315184
 30
0.0
 40
0.062
  0
CIRCLE
  5
127
100
AcDbEntity
100
AcDbCircle
  8
0
 62
256
370
18
  6
DASHED
 10
102.2375186061329941
 20
55.7566836208032441
 30
0.0
 40
0.5
  0
DIMENSION
  5
128
100
AcDbEntity
  8
0
 62
256
370
-1
  6
ByLayer
100
AcDbDimension
 10
102.2340748160325745
 20
56.9017438291919291
 30
0.0
 11
102.42706232203345
 21
57.0774732306236814
 31
0.0
 70
4
 71
5
 72
1
 41
1.0
 42
0.0
  1

  3
Standard
100
AcDbRadialDimension
 15
102.6849121122351534
 25
57.1179514431946558
 35
0.0
 40
0.0
  0
DIMENSION
  5
129
100
AcDbEntity
  8
0
 62
256
370
-1
  6
ByLayer
100
AcDbDimension
 10
102.7407143880788425
 20
57.3474472703315215
 30
0.0
 11
103.0201945282439766
 21
57.5158458787762683
 31
0.0
 70
4
 71
5
 72
1
 41
1.0
 42
0.0
  1

  3
Standard
100
AcDbRadialDimension
 15
102.7997522863776538
 25
57.366382068045219
 35
0.0
 40
0.0
  0
MTEXT
  5
12A
100
AcDbEntity
100
AcDbMText
  8
0
 62
256
370
-1
  6
ByLayer
 10
101.9401704442325922
 20
53.3563011424066644
 30
0.0
 40
0.1
 41
100.0
 71
1
 72
0
  1
Dashed\~Lines\~indicate\~punch-die\~and\~drill\~entries\~prior\~to\~removal\~with\~nibbler
  7
normallatin1
 50
0.0
 73
1
 44
1.0
  0
MTEXT
  5
12B
100
AcDbEntity
100
AcDbMText
  8
0
 62
256
370
-1
  6
ByLayer
 10
105.4405298013247858
 20
55.3547019867551171
 30
0.0
 40
0.1
 41
100.0
 71
1
 72
0
  1
TO-3\~Mounting\~holes\~should\~be\~0.187\~ID
  7
normallatin1
 50
0.0
 73
1
 44
1.0
  0
ENDSEC
  0
SECTION
  2
OBJECTS
  0
DICTIONARY
  5
C
100
AcDbDictionary
280
0
281
1
  3
ACAD_GROUP
350
D
  3
ACAD_LAYOUT
350
1A
  3
ACAD_MLINESTYLE
350
17
  3
ACAD_PLOTSETTINGS
350
19
  3
ACAD_PLOTSTYLENAME
350
E
  3
AcDbVariableDictionary
350
12C
  0
DICTIONARY
  5
D
100
AcDbDictionary
280
0
281
1
  0
ACDBDICTIONARYWDFLT
  5
E
100
AcDbDictionary
281
1
  3
Normal
350
F
100
AcDbDictionaryWithDefault
340
F
  0
ACDBPLACEHOLDER
  5
F
  0
DICTIONARY
  5
17
100
AcDbDictionary
280
0
281
1
  3
Standard
350
18
  0
MLINESTYLE
  5
18
100
AcDbMlineStyle
  2
STANDARD
 70
0
  3

 62
256
 51
90.0
 52
90.0
 71
2
 49
0.5
 62
256
  6
BYLAYER
 49
-0.5
 62
256
  6
BYLAYER
  0
DICTIONARY
  5
19
100
AcDbDictionary
280
0
281
1
  0
DICTIONARY
  5
1A
100
AcDbDictionary
281
1
  3
Layout1
350
1E
  3
Layout2
350
26
  3
Model
350
22
  0
LAYOUT
  5
1E
100
AcDbPlotSettings
  1

  2
C:\Program Files\AutoCAD 2002\plotters\DWF ePlot (optimized for plotting).pc3
  4

  6

 40
0.0
 41
0.0
 42
0.0
 43
0.0
 44
0.0
 45
0.0
 46
0.0
 47
0.0
 48
0.0
 49
0.0
140
0.0
141
0.0
142
1.0
143
1.0
 70
688
 72
0
 73
0
 74
5
  7

 75
16
147
1.0
148
0.0
149
0.0
100
AcDbLayout
  1
Layout1
 70
1
 71
1
 10
0.0
 20
0.0
 11
420.0
 21
297.0
 12
0.0
 22
0.0
 32
0.0
 14
100000000000000000000.0
 24
100000000000000000000.0
 34
100000000000000000000.0
 15
-100000000000000000000.0
 25
-100000000000000000000.0
 35
-100000000000000000000.0
146
0.0
 13
0.0
 23
0.0
 33
0.0
 16
1.0
 26
0.0
 36
0.0
 17
0.0
 27
1.0
 37
0.0
 76
0
330
1B
  0
LAYOUT
  5
22
100
AcDbPlotSettings
  1

  2
C:\Program Files\AutoCAD 2002\plotters\DWF ePlot (optimized for plotting).pc3
  4

  6

 40
0.0
 41
0.0
 42
0.0
 43
0.0
 44
0.0
 45
0.0
 46
0.0
 47
0.0
 48
0.0
 49
0.0
140
0.0
141
0.0
142
1.0
143
1.0
 70
1712
 72
0
 73
0
 74
0
  7

 75
0
147
1.0
148
0.0
149
0.0
100
AcDbLayout
  1
Model
 70
1
 71
0
 10
0.0
 20
0.0
 11
12.0
 21
9.0
 12
0.0
 22
0.0
 32
0.0
 14
0.0
 24
0.0
 34
0.0
 15
0.0
 25
0.0
 35
0.0
146
0.0
 13
0.0
 23
0.0
 33
0.0
 16
1.0
 26
0.0
 36
0.0
 17
0.0
 27
1.0
 37
0.0
 76
0
330
1F
  0
LAYOUT
  5
26
100
AcDbPlotSettings
  1

  2
C:\Program Files\AutoCAD 2002\plotters\DWF ePlot (optimized for plotting).pc3
  4

  6

 40
0.0
 41
0.0
 42
0.0
 43
0.0
 44
0.0
 45
0.0
 46
0.0
 47
0.0
 48
0.0
 49
0.0
140
0.0
141
0.0
142
1.0
143
1.0
 70
688
 72
0
 73
0
 74
5
  7

 75
16
147
1.0
148
0.0
149
0.0
100
AcDbLayout
  1
Layout2
 70
1
 71
2
 10
0.0
 20
0.0
 11
12.0
 21
9.0
 12
0.0
 22
0.0
 32
0.0
 14
0.0
 24
0.0
 34
0.0
 15
0.0
 25
0.0
 35
0.0
146
0.0
 13
0.0
 23
0.0
 33
0.0
 16
1.0
 26
0.0
 36
0.0
 17
0.0
 27
1.0
 37
0.0
 76
0
330
23
  0
DICTIONARY
  5
12C
100
AcDbDictionary
281
1
  3
DIMASSOC
350
12E
  3
HIDETEXT
350
12D
  0
DICTIONARYVAR
  5
12D
100
DictionaryVariables
280
0
  1
2
  0
DICTIONARYVAR
  5
12E
100
DictionaryVariables
280
0
  1
1
  0
ENDSEC
  0
EOF
