999
dxflib 2.0.4.8
  0
SECTION
  2
HEADER
  9
$ACADVER
  1
AC1015
  9
$HANDSEED
  5
FFFF
  9
$DIMASZ
 40
0.1
  9
$GRIDUNIT
 10
0.0
 20
0.0
  9
$DIMADEC
 70
2
  9
$DIMGAP
 40
0.025
  9
$SPLINESEGS
 70
8
  9
$AUPREC
 70
2
  9
$LUNITS
 70
2
  9
$DIMEXO
 40
0.025
  9
$INSUNITS
 70
1
  9
$DIMLUNIT
 70
2
  9
$DIMTXT
 40
0.1
  9
$GRIDMODE
 70
1
  9
$LUPREC
 70
4
  9
$PSVPSCALE
 40
3.0
  9
$DIMSTYLE
  2
Standard
  9
$PLIMMAX
 10
8.5
 20
11.0
  9
$PLIMMIN
 10
0.0
 20
0.0
  9
$PINSBASE
 10
3.5114178519198065
 20
9.8950000050005009
 30
0.0
  9
$DIMEXE
 40
0.05
  9
$DIMAUNIT
 70
0
  9
$AUNITS
 70
0
  0
ENDSEC
  0
SECTION
  2
TABLES
  0
TABLE
  2
VPORT
  5
8
100
AcDbSymbolTable
 70
1
  0
VPORT
  5
30
100
AcDbSymbolTableRecord
100
AcDbViewportTableRecord
  2
*Active
 70
0
 10
0.0
 20
0.0
 11
1.0
 21
1.0
 12
286.3055555555554861
 22
148.5
 13
0.0
 23
0.0
 14
10.0
 24
10.0
 15
10.0
 25
10.0
 16
0.0
 26
0.0
 36
1.0
 17
0.0
 27
0.0
 37
0.0
 40
297.0
 41
1.92798353909465
 42
50.0
 43
0.0
 44
0.0
 50
0.0
 51
0.0
 71
0
 72
100
 73
1
 74
3
 75
1
 76
1
 77
0
 78
0
281
0
 65
1
110
0.0
120
0.0
130
0.0
111
1.0
121
0.0
131
0.0
112
0.0
122
1.0
132
0.0
 79
0
146
0.0
  0
ENDTAB
  0
TABLE
  2
LTYPE
  5
5
100
AcDbSymbolTable
 70
21
  0
LTYPE
  5
14
100
AcDbSymbolTableRecord
100
AcDbLinetypeTableRecord
  2
ByBlock
 70
0
  3

 72
65
 73
0
 40
0.0
  0
LTYPE
  5
15
100
AcDbSymbolTableRecord
100
AcDbLinetypeTableRecord
  2
ByLayer
 70
0
  3

 72
65
 73
0
 40
0.0
  0
LTYPE
  5
16
100
AcDbSymbolTableRecord
100
AcDbLinetypeTableRecord
  2
CONTINUOUS
 70
0
  3
Solid line
 72
65
 73
0
 40
0.0
  0
LTYPE
  5
31
100
AcDbSymbolTableRecord
100
AcDbLinetypeTableRecord
  2
DOT
 70
0
  3
Dot . . . . . . . . . . . . . . . . . . . . . .
 72
65
 73
2
 40
6.3499999999999996
 49
0.0
 74
0
 49
-6.3499999999999996
 74
0
  0
LTYPE
  5
32
100
AcDbSymbolTableRecord
100
AcDbLinetypeTableRecord
  2
DOT2
 70
0
  3
Dot (.5x) .....................................
 72
65
 73
2
 40
3.1749999999999998
 49
0.0
 74
0
 49
-3.1749999999999998
 74
0
  0
LTYPE
  5
33
100
AcDbSymbolTableRecord
100
AcDbLinetypeTableRecord
  2
DOTX2
 70
0
  3
Dot (2x) .  .  .  .  .  .  .  .  .  .  .  .  .
 72
65
 73
2
 40
12.6999999999999993
 49
0.0
 74
0
 49
-12.6999999999999993
 74
0
  0
LTYPE
  5
34
100
AcDbSymbolTableRecord
100
AcDbLinetypeTableRecord
  2
DASHED
 70
0
  3
Dashed __ __ __ __ __ __ __ __ __ __ __ __ __ _
 72
65
 73
2
 40
19.0500000000000007
 49
12.6999999999999993
 74
0
 49
-6.3499999999999996
 74
0
  0
LTYPE
  5
35
100
AcDbSymbolTableRecord
100
AcDbLinetypeTableRecord
  2
DASHED2
 70
0
  3
Dashed (.5x) _ _ _ _ _ _ _ _ _ _ _ _ _ _ _ _ _
 72
65
 73
2
 40
9.5250000000000004
 49
6.3499999999999996
 74
0
 49
-3.1749999999999998
 74
0
  0
LTYPE
  5
36
100
AcDbSymbolTableRecord
100
AcDbLinetypeTableRecord
  2
DASHEDX2
 70
0
  3
Dashed (2x) ____  ____  ____  ____  ____  ___
 72
65
 73
2
 40
38.1000000000000014
 49
25.3999999999999986
 74
0
 49
-12.6999999999999993
 74
0
  0
LTYPE
  5
37
100
AcDbSymbolTableRecord
100
AcDbLinetypeTableRecord
  2
DASHDOT
 70
0
  3
Dash dot __ . __ . __ . __ . __ . __ . __ . __
 72
65
 73
4
 40
25.3999999999999986
 49
12.6999999999999993
 74
0
 49
-6.3499999999999996
 74
0
 49
0.0
 74
0
 49
-6.3499999999999996
 74
0
  0
LTYPE
  5
38
100
AcDbSymbolTableRecord
100
AcDbLinetypeTableRecord
  2
DASHDOT2
 70
0
  3
Dash dot (.5x) _._._._._._._._._._._._._._._.
 72
65
 73
4
 40
12.6999999999999993
 49
6.3499999999999996
 74
0
 49
-3.1749999999999998
 74
0
 49
0.0
 74
0
 49
-3.1749999999999998
 74
0
  0
LTYPE
  5
39
100
AcDbSymbolTableRecord
100
AcDbLinetypeTableRecord
  2
DASHDOTX2
 70
0
  3
Dash dot (2x) ____  .  ____  .  ____  .  ___
 72
65
 73
4
 40
50.7999999999999972
 49
25.3999999999999986
 74
0
 49
-12.6999999999999993
 74
0
 49
0.0
 74
0
 49
-12.6999999999999993
 74
0
  0
LTYPE
  5
3A
100
AcDbSymbolTableRecord
100
AcDbLinetypeTableRecord
  2
DIVIDE
 70
0
  3
Divide ____ . . ____ . . ____ . . ____ . . ____
 72
65
 73
6
 40
31.75
 49
12.6999999999999993
 74
0
 49
-6.3499999999999996
 74
0
 49
0.0
 74
0
 49
-6.3499999999999996
 74
0
 49
0.0
 74
0
 49
-6.3499999999999996
 74
0
  0
LTYPE
  5
3B
100
AcDbSymbolTableRecord
100
AcDbLinetypeTableRecord
  2
DIVIDE2
 70
0
  3
Divide (.5x) __..__..__..__..__..__..__..__.._
 72
65
 73
6
 40
15.875
 49
6.3499999999999996
 74
0
 49
-3.1749999999999998
 74
0
 49
0.0
 74
0
 49
-3.1749999999999998
 74
0
 49
0.0
 74
0
 49
-3.1749999999999998
 74
0
  0
LTYPE
  5
3C
100
AcDbSymbolTableRecord
100
AcDbLinetypeTableRecord
  2
DIVIDEX2
 70
0
  3
Divide (2x) ________  .  .  ________  .  .  _
 72
65
 73
6
 40
63.5
 49
25.3999999999999986
 74
0
 49
-12.6999999999999993
 74
0
 49
0.0
 74
0
 49
-12.6999999999999993
 74
0
 49
0.0
 74
0
 49
-12.6999999999999993
 74
0
  0
LTYPE
  5
3D
100
AcDbSymbolTableRecord
100
AcDbLinetypeTableRecord
  2
CENTER
 70
0
  3
Center ____ _ ____ _ ____ _ ____ _ ____ _ ____
 72
65
 73
4
 40
50.7999999999999972
 49
31.75
 74
0
 49
-6.3499999999999996
 74
0
 49
6.3499999999999996
 74
0
 49
-6.3499999999999996
 74
0
  0
LTYPE
  5
3E
100
AcDbSymbolTableRecord
100
AcDbLinetypeTableRecord
  2
CENTER2
 70
0
  3
Center (.5x) ___ _ ___ _ ___ _ ___ _ ___ _ ___
 72
65
 73
4
 40
28.5749999999999993
 49
19.0500000000000007
 74
0
 49
-3.1749999999999998
 74
0
 49
3.1749999999999998
 74
0
 49
-3.1749999999999998
 74
0
  0
LTYPE
  5
3F
100
AcDbSymbolTableRecord
100
AcDbLinetypeTableRecord
  2
CENTERX2
 70
0
  3
Center (2x) ________  __  ________  __  _____
 72
65
 73
4
 40
101.5999999999999943
 49
63.5
 74
0
 49
-12.6999999999999993
 74
0
 49
12.6999999999999993
 74
0
 49
-12.6999999999999993
 74
0
  0
LTYPE
  5
40
100
AcDbSymbolTableRecord
100
AcDbLinetypeTableRecord
  2
BORDER
 70
0
  3
Border __ __ . __ __ . __ __ . __ __ . __ __ .
 72
65
 73
6
 40
44.4500000000000028
 49
12.6999999999999993
 74
0
 49
-6.3499999999999996
 74
0
 49
12.6999999999999993
 74
0
 49
-6.3499999999999996
 74
0
 49
0.0
 74
0
 49
-6.3499999999999996
 74
0
  0
LTYPE
  5
41
100
AcDbSymbolTableRecord
100
AcDbLinetypeTableRecord
  2
BORDER2
 70
0
  3
Border (.5x) __.__.__.__.__.__.__.__.__.__.__.
 72
65
 73
6
 40
22.2250000000000014
 49
6.3499999999999996
 74
0
 49
-3.1749999999999998
 74
0
 49
6.3499999999999996
 74
0
 49
-3.1749999999999998
 74
0
 49
0.0
 74
0
 49
-3.1749999999999998
 74
0
  0
LTYPE
  5
42
100
AcDbSymbolTableRecord
100
AcDbLinetypeTableRecord
  2
BORDERX2
 70
0
  3
Border (2x) ____  ____  .  ____  ____  .  ___
 72
65
 73
6
 40
88.9000000000000057
 49
25.3999999999999986
 74
0
 49
-12.6999999999999993
 74
0
 49
25.3999999999999986
 74
0
 49
-12.6999999999999993
 74
0
 49
0.0
 74
0
 49
-12.6999999999999993
 74
0
  0
ENDTAB
  0
TABLE
  2
LAYER
  5
2
100
AcDbSymbolTable
 70
7
  0
LAYER
  5
10
100
AcDbSymbolTableRecord
100
AcDbLayerTableRecord
  2
0
 70
0
 62
7
  6
CONTINUOUS
370
0
390
F
  0
LAYER
  5
43
100
AcDbSymbolTableRecord
100
AcDbLayerTableRecord
  2
PC Board
 70
4
 62
9
  6
CONTINUOUS
370
0
390
F
  0
LAYER
  5
44
100
AcDbSymbolTableRecord
100
AcDbLayerTableRecord
  2
V+ in (unregulated)
 70
0
 62
1
  6
CONTINUOUS
370
0
390
F
  0
LAYER
  5
45
100
AcDbSymbolTableRecord
100
AcDbLayerTableRecord
  2
V- in (unregulated)
 70
0
 62
1
  6
CONTINUOUS
370
13
390
F
  0
LAYER
  5
46
100
AcDbSymbolTableRecord
100
AcDbLayerTableRecord
  2
V-
 70
0
 62
3
  6
CONTINUOUS
370
0
390
F
  0
LAYER
  5
47
100
AcDbSymbolTableRecord
100
AcDbLayerTableRecord
  2
V+
 70
0
 62
5
  6
CONTINUOUS
370
13
390
F
  0
LAYER
  5
48
100
AcDbSymbolTableRecord
100
AcDbLayerTableRecord
  2
Ground
 70
0
 62
8
  6
CONTINUOUS
370
13
390
F
  0
ENDTAB
  0
TABLE
  2
STYLE
  5
3
100
AcDbSymbolTable
 70
1
  0
STYLE
  5
11
100
AcDbSymbolTableRecord
100
AcDbTextStyleTableRecord
  2
Standard
 70
0
 40
0.0
 41
0.75
 50
0.0
 71
0
 42
2.5
  3
txt
  4

  0
ENDTAB
  0
TABLE
  2
VIEW
  5
6
100
AcDbSymbolTable
 70
0
  0
ENDTAB
  0
TABLE
  2
UCS
  5
7
100
AcDbSymbolTable
 70
0
  0
ENDTAB
  0
TABLE
  2
APPID
  5
9
100
AcDbSymbolTable
 70
1
  0
APPID
  5
12
100
AcDbSymbolTableRecord
100
AcDbRegAppTableRecord
  2
ACAD
 70
0
  0
ENDTAB
  0
TABLE
  2
DIMSTYLE
  5
A
100
AcDbSymbolTable
 70
1
100
AcDbDimStyleTable
 71
0
  0
DIMSTYLE
105
27
100
AcDbSymbolTableRecord
100
AcDbDimStyleTableRecord
  2
Standard
 41
0.1
 42
0.025
 43
3.75
 44
0.05
 70
0
 73
0
 74
0
 77
1
 78
8
140
0.1
141
2.5
143
0.03937007874016
147
0.025
171
3
172
1
271
2
272
2
274
3
278
44
283
0
284
8
340
11
  0
ENDTAB
  0
TABLE
  2
BLOCK_RECORD
  5
1
100
AcDbSymbolTable
 70
1
  0
BLOCK_RECORD
  5
1F
100
AcDbSymbolTableRecord
100
AcDbBlockTableRecord
  2
*Model_Space
340
22
  0
BLOCK_RECORD
  5
1B
100
AcDbSymbolTableRecord
100
AcDbBlockTableRecord
  2
*Paper_Space
340
1E
  0
BLOCK_RECORD
  5
23
100
AcDbSymbolTableRecord
100
AcDbBlockTableRecord
  2
*Paper_Space0
340
26
  0
BLOCK_RECORD
  5
49
100
AcDbSymbolTableRecord
100
AcDbBlockTableRecord
  2
PC Board
340
0
  0
BLOCK_RECORD
  5
4A
100
AcDbSymbolTableRecord
100
AcDbBlockTableRecord
  2
SolderV-in
340
0
  0
BLOCK_RECORD
  5
4B
100
AcDbSymbolTableRecord
100
AcDbBlockTableRecord
  2
SolderV-
340
0
  0
BLOCK_RECORD
  5
4C
100
AcDbSymbolTableRecord
100
AcDbBlockTableRecord
  2
SolderV+in
340
0
  0
BLOCK_RECORD
  5
4D
100
AcDbSymbolTableRecord
100
AcDbBlockTableRecord
  2
SolderV+
340
0
  0
BLOCK_RECORD
  5
4E
100
AcDbSymbolTableRecord
100
AcDbBlockTableRecord
  2
ResistorV-
340
0
  0
BLOCK_RECORD
  5
4F
100
AcDbSymbolTableRecord
100
AcDbBlockTableRecord
  2
DiodeV+
340
0
  0
BLOCK_RECORD
  5
50
100
AcDbSymbolTableRecord
100
AcDbBlockTableRecord
  2
ResistorV+
340
0
  0
BLOCK_RECORD
  5
51
100
AcDbSymbolTableRecord
100
AcDbBlockTableRecord
  2
DiodeV-
340
0
  0
BLOCK_RECORD
  5
52
100
AcDbSymbolTableRecord
100
AcDbBlockTableRecord
  2
ElectrolyticCapV+
340
0
  0
BLOCK_RECORD
  5
53
100
AcDbSymbolTableRecord
100
AcDbBlockTableRecord
  2
ElectrolyticCapV-
340
0
  0
BLOCK_RECORD
  5
54
100
AcDbSymbolTableRecord
100
AcDbBlockTableRecord
  2
SolderGnd
340
0
  0
BLOCK_RECORD
  5
55
100
AcDbSymbolTableRecord
100
AcDbBlockTableRecord
  2
RegulatorAIO_V+
340
0
  0
BLOCK_RECORD
  5
56
100
AcDbSymbolTableRecord
100
AcDbBlockTableRecord
  2
RegulatorIOA_V+
340
0
  0
BLOCK_RECORD
  5
57
100
AcDbSymbolTableRecord
100
AcDbBlockTableRecord
  2
RegulatorAIO_V-
340
0
  0
BLOCK_RECORD
  5
58
100
AcDbSymbolTableRecord
100
AcDbBlockTableRecord
  2
ResistorV+in
340
0
  0
BLOCK_RECORD
  5
59
100
AcDbSymbolTableRecord
100
AcDbBlockTableRecord
  2
ResistorV-in
340
0
  0
BLOCK_RECORD
  5
5A
100
AcDbSymbolTableRecord
100
AcDbBlockTableRecord
  2
JFET_SGD_V+
340
0
  0
BLOCK_RECORD
  5
5B
100
AcDbSymbolTableRecord
100
AcDbBlockTableRecord
  2
JFET_DGS_V+
340
0
  0
BLOCK_RECORD
  5
5C
100
AcDbSymbolTableRecord
100
AcDbBlockTableRecord
  2
JFET_DGS_V-
340
0
  0
BLOCK_RECORD
  5
5D
100
AcDbSymbolTableRecord
100
AcDbBlockTableRecord
  2
JFET_SGD_V-
340
0
  0
ENDTAB
  0
ENDSEC
  0
SECTION
  2
BLOCKS
  0
BLOCK
  5
20
100
AcDbEntity
  8
0
100
AcDbBlockBegin
  2
*Model_Space
 70
0
 10
0.0
 20
0.0
 30
0.0
  3
*Model_Space
  1

  0
ENDBLK
  5
21
100
AcDbEntity
  8
0
100
AcDbBlockEnd
  0
BLOCK
  5
1C
100
AcDbEntity
 67
1
  8
0
100
AcDbBlockBegin
  2
*Paper_Space
 70
0
 10
0.0
 20
0.0
 30
0.0
  3
*Paper_Space
  1

  0
ENDBLK
  5
1D
100
AcDbEntity
 67
1
  8
0
100
AcDbBlockEnd
  0
BLOCK
  5
24
100
AcDbEntity
  8
0
100
AcDbBlockBegin
  2
*Paper_Space0
 70
0
 10
0.0
 20
0.0
 30
0.0
  3
*Paper_Space0
  1

  0
ENDBLK
  5
25
100
AcDbEntity
  8
0
100
AcDbBlockEnd
  0
BLOCK
  5
5E
100
AcDbEntity
  8
0
100
AcDbBlockBegin
  2
PC Board
 70
0
 10
0.0
 20
0.0
 30
0.0
  3
PC Board
  1

  0
CIRCLE
  5
5F
100
AcDbEntity
100
AcDbCircle
  8
0
 62
256
370
-1
  6
ByLayer
 10
0.1000000000000002
 20
-0.0000000000000001
 30
0.0
 40
0.017
  0
CIRCLE
  5
60
100
AcDbEntity
100
AcDbCircle
  8
0
 62
256
370
-1
  6
ByLayer
 10
0.2000000000000002
 20
-0.0000000000000001
 30
0.0
 40
0.017
  0
CIRCLE
  5
61
100
AcDbEntity
100
AcDbCircle
  8
0
 62
256
370
-1
  6
ByLayer
 10
0.1000000000000002
 20
-0.0000000000000001
 30
0.0
 40
0.017
  0
CIRCLE
  5
62
100
AcDbEntity
100
AcDbCircle
  8
0
 62
256
370
-1
  6
ByLayer
 10
0.2000000000000002
 20
-0.0000000000000001
 30
0.0
 40
0.017
  0
CIRCLE
  5
63
100
AcDbEntity
100
AcDbCircle
  8
0
 62
256
370
-1
  6
ByLayer
 10
0.1000000000000002
 20
-0.0000000000000001
 30
0.0
 40
0.017
  0
CIRCLE
  5
64
100
AcDbEntity
100
AcDbCircle
  8
0
 62
256
370
-1
  6
ByLayer
 10
0.2000000000000002
 20
-0.0000000000000001
 30
0.0
 40
0.017
  0
CIRCLE
  5
65
100
AcDbEntity
100
AcDbCircle
  8
0
 62
256
370
-1
  6
ByLayer
 10
0.1000000000000002
 20
-0.1000000000000001
 30
0.0
 40
0.017
  0
CIRCLE
  5
66
100
AcDbEntity
100
AcDbCircle
  8
0
 62
256
370
-1
  6
ByLayer
 10
0.2000000000000002
 20
-0.1000000000000001
 30
0.0
 40
0.017
  0
CIRCLE
  5
67
100
AcDbEntity
100
AcDbCircle
  8
0
 62
256
370
-1
  6
ByLayer
 10
0.1000000000000002
 20
-0.2000000000000001
 30
0.0
 40
0.017
  0
CIRCLE
  5
68
100
AcDbEntity
100
AcDbCircle
  8
0
 62
256
370
-1
  6
ByLayer
 10
0.2000000000000002
 20
-0.2000000000000001
 30
0.0
 40
0.017
  0
CIRCLE
  5
69
100
AcDbEntity
100
AcDbCircle
  8
0
 62
256
370
-1
  6
ByLayer
 10
0.1000000000000002
 20
-0.3
 30
0.0
 40
0.017
  0
CIRCLE
  5
6A
100
AcDbEntity
100
AcDbCircle
  8
0
 62
256
370
-1
  6
ByLayer
 10
0.2000000000000002
 20
-0.3
 30
0.0
 40
0.017
  0
CIRCLE
  5
6B
100
AcDbEntity
100
AcDbCircle
  8
0
 62
256
370
-1
  6
ByLayer
 10
0.1000000000000002
 20
-0.3
 30
0.0
 40
0.017
  0
CIRCLE
  5
6C
100
AcDbEntity
100
AcDbCircle
  8
0
 62
256
370
-1
  6
ByLayer
 10
0.2000000000000002
 20
-0.3
 30
0.0
 40
0.017
  0
CIRCLE
  5
6D
100
AcDbEntity
100
AcDbCircle
  8
0
 62
256
370
-1
  6
ByLayer
 10
0.1000000000000002
 20
-0.3
 30
0.0
 40
0.017
  0
CIRCLE
  5
6E
100
AcDbEntity
100
AcDbCircle
  8
0
 62
256
370
-1
  6
ByLayer
 10
0.2000000000000002
 20
-0.3
 30
0.0
 40
0.017
  0
CIRCLE
  5
6F
100
AcDbEntity
100
AcDbCircle
  8
0
 62
256
370
-1
  6
ByLayer
 10
0.1000000000000002
 20
-0.4000000000000001
 30
0.0
 40
0.017
  0
CIRCLE
  5
70
100
AcDbEntity
100
AcDbCircle
  8
0
 62
256
370
-1
  6
ByLayer
 10
0.2000000000000002
 20
-0.4000000000000001
 30
0.0
 40
0.017
  0
CIRCLE
  5
71
100
AcDbEntity
100
AcDbCircle
  8
0
 62
256
370
-1
  6
ByLayer
 10
0.1000000000000002
 20
-0.5
 30
0.0
 40
0.017
  0
CIRCLE
  5
72
100
AcDbEntity
100
AcDbCircle
  8
0
 62
256
370
-1
  6
ByLayer
 10
0.2000000000000002
 20
-0.5
 30
0.0
 40
0.017
  0
CIRCLE
  5
73
100
AcDbEntity
100
AcDbCircle
  8
0
 62
256
370
-1
  6
ByLayer
 10
0.1000000000000002
 20
-0.6000000000000001
 30
0.0
 40
0.017
  0
CIRCLE
  5
74
100
AcDbEntity
100
AcDbCircle
  8
0
 62
256
370
-1
  6
ByLayer
 10
0.2000000000000002
 20
-0.6000000000000001
 30
0.0
 40
0.017
  0
CIRCLE
  5
75
100
AcDbEntity
100
AcDbCircle
  8
0
 62
256
370
-1
  6
ByLayer
 10
0.1000000000000002
 20
-0.6000000000000001
 30
0.0
 40
0.017
  0
CIRCLE
  5
76
100
AcDbEntity
100
AcDbCircle
  8
0
 62
256
370
-1
  6
ByLayer
 10
0.2000000000000002
 20
-0.6000000000000001
 30
0.0
 40
0.017
  0
CIRCLE
  5
77
100
AcDbEntity
100
AcDbCircle
  8
0
 62
256
370
-1
  6
ByLayer
 10
0.1000000000000002
 20
-0.6000000000000001
 30
0.0
 40
0.017
  0
CIRCLE
  5
78
100
AcDbEntity
100
AcDbCircle
  8
0
 62
256
370
-1
  6
ByLayer
 10
0.2000000000000002
 20
-0.6000000000000001
 30
0.0
 40
0.017
  0
CIRCLE
  5
79
100
AcDbEntity
100
AcDbCircle
  8
0
 62
256
370
-1
  6
ByLayer
 10
0.1000000000000002
 20
-0.7000000000000002
 30
0.0
 40
0.017
  0
CIRCLE
  5
7A
100
AcDbEntity
100
AcDbCircle
  8
0
 62
256
370
-1
  6
ByLayer
 10
0.2000000000000002
 20
-0.7000000000000002
 30
0.0
 40
0.017
  0
CIRCLE
  5
7B
100
AcDbEntity
100
AcDbCircle
  8
0
 62
256
370
-1
  6
ByLayer
 10
0.1000000000000002
 20
-0.8
 30
0.0
 40
0.017
  0
CIRCLE
  5
7C
100
AcDbEntity
100
AcDbCircle
  8
0
 62
256
370
-1
  6
ByLayer
 10
0.2000000000000002
 20
-0.8
 30
0.0
 40
0.017
  0
CIRCLE
  5
7D
100
AcDbEntity
100
AcDbCircle
  8
0
 62
256
370
-1
  6
ByLayer
 10
0.1000000000000002
 20
-0.9000000000000001
 30
0.0
 40
0.017
  0
CIRCLE
  5
7E
100
AcDbEntity
100
AcDbCircle
  8
0
 62
256
370
-1
  6
ByLayer
 10
0.2000000000000002
 20
-0.9000000000000001
 30
0.0
 40
0.017
  0
CIRCLE
  5
7F
100
AcDbEntity
100
AcDbCircle
  8
0
 62
256
370
-1
  6
ByLayer
 10
0.1000000000000002
 20
-0.9000000000000001
 30
0.0
 40
0.017
  0
CIRCLE
  5
80
100
AcDbEntity
100
AcDbCircle
  8
0
 62
256
370
-1
  6
ByLayer
 10
0.2000000000000002
 20
-0.9000000000000001
 30
0.0
 40
0.017
  0
CIRCLE
  5
81
100
AcDbEntity
100
AcDbCircle
  8
0
 62
256
370
-1
  6
ByLayer
 10
0.1000000000000002
 20
-0.9000000000000001
 30
0.0
 40
0.017
  0
CIRCLE
  5
82
100
AcDbEntity
100
AcDbCircle
  8
0
 62
256
370
-1
  6
ByLayer
 10
0.2000000000000002
 20
-0.9000000000000001
 30
0.0
 40
0.017
  0
CIRCLE
  5
83
100
AcDbEntity
100
AcDbCircle
  8
0
 62
256
370
-1
  6
ByLayer
 10
0.1000000000000002
 20
-1.0
 30
0.0
 40
0.017
  0
CIRCLE
  5
84
100
AcDbEntity
100
AcDbCircle
  8
0
 62
256
370
-1
  6
ByLayer
 10
0.2000000000000002
 20
-1.0
 30
0.0
 40
0.017
  0
CIRCLE
  5
85
100
AcDbEntity
100
AcDbCircle
  8
0
 62
256
370
-1
  6
ByLayer
 10
0.1000000000000002
 20
-1.1000000000000001
 30
0.0
 40
0.017
  0
CIRCLE
  5
86
100
AcDbEntity
100
AcDbCircle
  8
0
 62
256
370
-1
  6
ByLayer
 10
0.2000000000000002
 20
-1.1000000000000001
 30
0.0
 40
0.017
  0
CIRCLE
  5
87
100
AcDbEntity
100
AcDbCircle
  8
0
 62
256
370
-1
  6
ByLayer
 10
0.1000000000000002
 20
-1.2
 30
0.0
 40
0.017
  0
CIRCLE
  5
88
100
AcDbEntity
100
AcDbCircle
  8
0
 62
256
370
-1
  6
ByLayer
 10
0.2000000000000002
 20
-1.2
 30
0.0
 40
0.017
  0
CIRCLE
  5
89
100
AcDbEntity
100
AcDbCircle
  8
0
 62
256
370
-1
  6
ByLayer
 10
0.1000000000000002
 20
-1.2
 30
0.0
 40
0.017
  0
CIRCLE
  5
8A
100
AcDbEntity
100
AcDbCircle
  8
0
 62
256
370
-1
  6
ByLayer
 10
0.2000000000000002
 20
-1.2
 30
0.0
 40
0.017
  0
CIRCLE
  5
8B
100
AcDbEntity
100
AcDbCircle
  8
0
 62
256
370
-1
  6
ByLayer
 10
0.1000000000000002
 20
-1.2
 30
0.0
 40
0.017
  0
CIRCLE
  5
8C
100
AcDbEntity
100
AcDbCircle
  8
0
 62
256
370
-1
  6
ByLayer
 10
0.2000000000000002
 20
-1.2
 30
0.0
 40
0.017
  0
CIRCLE
  5
8D
100
AcDbEntity
100
AcDbCircle
  8
0
 62
256
370
-1
  6
ByLayer
 10
0.1000000000000002
 20
-1.2999999999999998
 30
0.0
 40
0.017
  0
CIRCLE
  5
8E
100
AcDbEntity
100
AcDbCircle
  8
0
 62
256
370
-1
  6
ByLayer
 10
0.2000000000000002
 20
-1.2999999999999998
 30
0.0
 40
0.017
  0
CIRCLE
  5
8F
100
AcDbEntity
100
AcDbCircle
  8
0
 62
256
370
-1
  6
ByLayer
 10
0.1000000000000002
 20
-1.3999999999999999
 30
0.0
 40
0.017
  0
CIRCLE
  5
90
100
AcDbEntity
100
AcDbCircle
  8
0
 62
256
370
-1
  6
ByLayer
 10
0.2000000000000002
 20
-1.3999999999999999
 30
0.0
 40
0.017
  0
CIRCLE
  5
91
100
AcDbEntity
100
AcDbCircle
  8
0
 62
256
370
-1
  6
ByLayer
 10
0.1000000000000002
 20
-1.5
 30
0.0
 40
0.017
  0
CIRCLE
  5
92
100
AcDbEntity
100
AcDbCircle
  8
0
 62
256
370
-1
  6
ByLayer
 10
0.2000000000000002
 20
-1.5
 30
0.0
 40
0.017
  0
CIRCLE
  5
93
100
AcDbEntity
100
AcDbCircle
  8
0
 62
256
370
-1
  6
ByLayer
 10
0.1000000000000002
 20
-1.5
 30
0.0
 40
0.017
  0
CIRCLE
  5
94
100
AcDbEntity
100
AcDbCircle
  8
0
 62
256
370
-1
  6
ByLayer
 10
0.2000000000000002
 20
-1.5
 30
0.0
 40
0.017
  0
CIRCLE
  5
95
100
AcDbEntity
100
AcDbCircle
  8
0
 62
256
370
-1
  6
ByLayer
 10
0.1000000000000002
 20
-1.5
 30
0.0
 40
0.017
  0
CIRCLE
  5
96
100
AcDbEntity
100
AcDbCircle
  8
0
 62
256
370
-1
  6
ByLayer
 10
0.2000000000000002
 20
-1.5
 30
0.0
 40
0.017
  0
CIRCLE
  5
97
100
AcDbEntity
100
AcDbCircle
  8
0
 62
256
370
-1
  6
ByLayer
 10
0.1000000000000002
 20
-1.6000000000000001
 30
0.0
 40
0.017
  0
CIRCLE
  5
98
100
AcDbEntity
100
AcDbCircle
  8
0
 62
256
370
-1
  6
ByLayer
 10
0.2000000000000002
 20
-1.6000000000000001
 30
0.0
 40
0.017
  0
CIRCLE
  5
99
100
AcDbEntity
100
AcDbCircle
  8
0
 62
256
370
-1
  6
ByLayer
 10
0.1000000000000002
 20
-1.7
 30
0.0
 40
0.017
  0
CIRCLE
  5
9A
100
AcDbEntity
100
AcDbCircle
  8
0
 62
256
370
-1
  6
ByLayer
 10
0.2000000000000002
 20
-1.7
 30
0.0
 40
0.017
  0
CIRCLE
  5
9B
100
AcDbEntity
100
AcDbCircle
  8
0
 62
256
370
-1
  6
ByLayer
 10
0.1000000000000002
 20
-1.8
 30
0.0
 40
0.017
  0
CIRCLE
  5
9C
100
AcDbEntity
100
AcDbCircle
  8
0
 62
256
370
-1
  6
ByLayer
 10
0.2000000000000002
 20
-1.8
 30
0.0
 40
0.017
  0
CIRCLE
  5
9D
100
AcDbEntity
100
AcDbCircle
  8
0
 62
256
370
-1
  6
ByLayer
 10
0.1000000000000002
 20
-1.8
 30
0.0
 40
0.017
  0
CIRCLE
  5
9E
100
AcDbEntity
100
AcDbCircle
  8
0
 62
256
370
-1
  6
ByLayer
 10
0.2000000000000002
 20
-1.8
 30
0.0
 40
0.017
  0
CIRCLE
  5
9F
100
AcDbEntity
100
AcDbCircle
  8
0
 62
256
370
-1
  6
ByLayer
 10
0.1000000000000002
 20
-1.8
 30
0.0
 40
0.017
  0
CIRCLE
  5
A0
100
AcDbEntity
100
AcDbCircle
  8
0
 62
256
370
-1
  6
ByLayer
 10
0.2000000000000002
 20
-1.8
 30
0.0
 40
0.017
  0
CIRCLE
  5
A1
100
AcDbEntity
100
AcDbCircle
  8
0
 62
256
370
-1
  6
ByLayer
 10
0.1000000000000002
 20
-1.8999999999999999
 30
0.0
 40
0.017
  0
CIRCLE
  5
A2
100
AcDbEntity
100
AcDbCircle
  8
0
 62
256
370
-1
  6
ByLayer
 10
0.2000000000000002
 20
-1.8999999999999999
 30
0.0
 40
0.017
  0
CIRCLE
  5
A3
100
AcDbEntity
100
AcDbCircle
  8
0
 62
256
370
-1
  6
ByLayer
 10
0.1000000000000002
 20
-2.0
 30
0.0
 40
0.017
  0
CIRCLE
  5
A4
100
AcDbEntity
100
AcDbCircle
  8
0
 62
256
370
-1
  6
ByLayer
 10
0.2000000000000002
 20
-2.0
 30
0.0
 40
0.017
  0
CIRCLE
  5
A5
100
AcDbEntity
100
AcDbCircle
  8
0
 62
256
370
-1
  6
ByLayer
 10
0.1000000000000002
 20
-2.1000000000000001
 30
0.0
 40
0.017
  0
CIRCLE
  5
A6
100
AcDbEntity
100
AcDbCircle
  8
0
 62
256
370
-1
  6
ByLayer
 10
0.2000000000000002
 20
-2.1000000000000001
 30
0.0
 40
0.017
  0
CIRCLE
  5
A7
100
AcDbEntity
100
AcDbCircle
  8
0
 62
256
370
-1
  6
ByLayer
 10
0.1000000000000002
 20
-2.1000000000000001
 30
0.0
 40
0.017
  0
CIRCLE
  5
A8
100
AcDbEntity
100
AcDbCircle
  8
0
 62
256
370
-1
  6
ByLayer
 10
0.2000000000000002
 20
-2.1000000000000001
 30
0.0
 40
0.017
  0
CIRCLE
  5
A9
100
AcDbEntity
100
AcDbCircle
  8
0
 62
256
370
-1
  6
ByLayer
 10
0.1000000000000002
 20
-2.1000000000000001
 30
0.0
 40
0.017
  0
CIRCLE
  5
AA
100
AcDbEntity
100
AcDbCircle
  8
0
 62
256
370
-1
  6
ByLayer
 10
0.2000000000000002
 20
-2.1000000000000001
 30
0.0
 40
0.017
  0
CIRCLE
  5
AB
100
AcDbEntity
100
AcDbCircle
  8
0
 62
256
370
-1
  6
ByLayer
 10
0.1000000000000002
 20
-2.2000000000000002
 30
0.0
 40
0.017
  0
CIRCLE
  5
AC
100
AcDbEntity
100
AcDbCircle
  8
0
 62
256
370
-1
  6
ByLayer
 10
0.2000000000000002
 20
-2.2000000000000002
 30
0.0
 40
0.017
  0
CIRCLE
  5
AD
100
AcDbEntity
100
AcDbCircle
  8
0
 62
256
370
-1
  6
ByLayer
 10
0.1000000000000002
 20
-2.2999999999999998
 30
0.0
 40
0.017
  0
CIRCLE
  5
AE
100
AcDbEntity
100
AcDbCircle
  8
0
 62
256
370
-1
  6
ByLayer
 10
0.2000000000000002
 20
-2.2999999999999998
 30
0.0
 40
0.017
  0
CIRCLE
  5
AF
100
AcDbEntity
100
AcDbCircle
  8
0
 62
256
370
-1
  6
ByLayer
 10
0.1000000000000002
 20
-2.3999999999999999
 30
0.0
 40
0.017
  0
CIRCLE
  5
B0
100
AcDbEntity
100
AcDbCircle
  8
0
 62
256
370
-1
  6
ByLayer
 10
0.2000000000000002
 20
-2.3999999999999999
 30
0.0
 40
0.017
  0
CIRCLE
  5
B1
100
AcDbEntity
100
AcDbCircle
  8
0
 62
256
370
-1
  6
ByLayer
 10
0.1000000000000002
 20
-2.5
 30
0.0
 40
0.017
  0
CIRCLE
  5
B2
100
AcDbEntity
100
AcDbCircle
  8
0
 62
256
370
-1
  6
ByLayer
 10
0.2000000000000002
 20
-2.5
 30
0.0
 40
0.017
  0
CIRCLE
  5
B3
100
AcDbEntity
100
AcDbCircle
  8
0
 62
256
370
-1
  6
ByLayer
 10
0.3000000000000002
 20
-0.0000000000000001
 30
0.0
 40
0.017
  0
CIRCLE
  5
B4
100
AcDbEntity
100
AcDbCircle
  8
0
 62
256
370
-1
  6
ByLayer
 10
0.3000000000000002
 20
-0.0000000000000001
 30
0.0
 40
0.017
  0
CIRCLE
  5
B5
100
AcDbEntity
100
AcDbCircle
  8
0
 62
256
370
-1
  6
ByLayer
 10
0.3000000000000002
 20
-0.0000000000000001
 30
0.0
 40
0.017
  0
CIRCLE
  5
B6
100
AcDbEntity
100
AcDbCircle
  8
0
 62
256
370
-1
  6
ByLayer
 10
0.3000000000000002
 20
-0.1000000000000001
 30
0.0
 40
0.017
  0
CIRCLE
  5
B7
100
AcDbEntity
100
AcDbCircle
  8
0
 62
256
370
-1
  6
ByLayer
 10
0.3000000000000002
 20
-0.2000000000000001
 30
0.0
 40
0.017
  0
CIRCLE
  5
B8
100
AcDbEntity
100
AcDbCircle
  8
0
 62
256
370
-1
  6
ByLayer
 10
0.3000000000000002
 20
-0.3
 30
0.0
 40
0.017
  0
CIRCLE
  5
B9
100
AcDbEntity
100
AcDbCircle
  8
0
 62
256
370
-1
  6
ByLayer
 10
0.3000000000000002
 20
-0.3
 30
0.0
 40
0.017
  0
CIRCLE
  5
BA
100
AcDbEntity
100
AcDbCircle
  8
0
 62
256
370
-1
  6
ByLayer
 10
0.3000000000000002
 20
-0.3
 30
0.0
 40
0.017
  0
CIRCLE
  5
BB
100
AcDbEntity
100
AcDbCircle
  8
0
 62
256
370
-1
  6
ByLayer
 10
0.3000000000000002
 20
-0.4000000000000001
 30
0.0
 40
0.017
  0
CIRCLE
  5
BC
100
AcDbEntity
100
AcDbCircle
  8
0
 62
256
370
-1
  6
ByLayer
 10
0.3000000000000002
 20
-0.5
 30
0.0
 40
0.017
  0
CIRCLE
  5
BD
100
AcDbEntity
100
AcDbCircle
  8
0
 62
256
370
-1
  6
ByLayer
 10
0.3000000000000002
 20
-0.6000000000000001
 30
0.0
 40
0.017
  0
CIRCLE
  5
BE
100
AcDbEntity
100
AcDbCircle
  8
0
 62
256
370
-1
  6
ByLayer
 10
0.3000000000000002
 20
-0.6000000000000001
 30
0.0
 40
0.017
  0
CIRCLE
  5
BF
100
AcDbEntity
100
AcDbCircle
  8
0
 62
256
370
-1
  6
ByLayer
 10
0.3000000000000002
 20
-0.6000000000000001
 30
0.0
 40
0.017
  0
CIRCLE
  5
C0
100
AcDbEntity
100
AcDbCircle
  8
0
 62
256
370
-1
  6
ByLayer
 10
0.3000000000000002
 20
-0.7000000000000002
 30
0.0
 40
0.017
  0
CIRCLE
  5
C1
100
AcDbEntity
100
AcDbCircle
  8
0
 62
256
370
-1
  6
ByLayer
 10
0.3000000000000002
 20
-0.8
 30
0.0
 40
0.017
  0
CIRCLE
  5
C2
100
AcDbEntity
100
AcDbCircle
  8
0
 62
256
370
-1
  6
ByLayer
 10
0.3000000000000002
 20
-0.9000000000000001
 30
0.0
 40
0.017
  0
CIRCLE
  5
C3
100
AcDbEntity
100
AcDbCircle
  8
0
 62
256
370
-1
  6
ByLayer
 10
0.3000000000000002
 20
-0.9000000000000001
 30
0.0
 40
0.017
  0
CIRCLE
  5
C4
100
AcDbEntity
100
AcDbCircle
  8
0
 62
256
370
-1
  6
ByLayer
 10
0.3000000000000002
 20
-0.9000000000000001
 30
0.0
 40
0.017
  0
CIRCLE
  5
C5
100
AcDbEntity
100
AcDbCircle
  8
0
 62
256
370
-1
  6
ByLayer
 10
0.3000000000000002
 20
-1.0
 30
0.0
 40
0.017
  0
CIRCLE
  5
C6
100
AcDbEntity
100
AcDbCircle
  8
0
 62
256
370
-1
  6
ByLayer
 10
0.3000000000000002
 20
-1.1000000000000001
 30
0.0
 40
0.017
  0
CIRCLE
  5
C7
100
AcDbEntity
100
AcDbCircle
  8
0
 62
256
370
-1
  6
ByLayer
 10
0.3000000000000002
 20
-1.2
 30
0.0
 40
0.017
  0
CIRCLE
  5
C8
100
AcDbEntity
100
AcDbCircle
  8
0
 62
256
370
-1
  6
ByLayer
 10
0.3000000000000002
 20
-1.2
 30
0.0
 40
0.017
  0
CIRCLE
  5
C9
100
AcDbEntity
100
AcDbCircle
  8
0
 62
256
370
-1
  6
ByLayer
 10
0.3000000000000002
 20
-1.2
 30
0.0
 40
0.017
  0
CIRCLE
  5
CA
100
AcDbEntity
100
AcDbCircle
  8
0
 62
256
370
-1
  6
ByLayer
 10
0.3000000000000002
 20
-1.2999999999999998
 30
0.0
 40
0.017
  0
CIRCLE
  5
CB
100
AcDbEntity
100
AcDbCircle
  8
0
 62
256
370
-1
  6
ByLayer
 10
0.3000000000000002
 20
-1.3999999999999999
 30
0.0
 40
0.017
  0
CIRCLE
  5
CC
100
AcDbEntity
100
AcDbCircle
  8
0
 62
256
370
-1
  6
ByLayer
 10
0.3000000000000002
 20
-1.5
 30
0.0
 40
0.017
  0
CIRCLE
  5
CD
100
AcDbEntity
100
AcDbCircle
  8
0
 62
256
370
-1
  6
ByLayer
 10
0.3000000000000002
 20
-1.5
 30
0.0
 40
0.017
  0
CIRCLE
  5
CE
100
AcDbEntity
100
AcDbCircle
  8
0
 62
256
370
-1
  6
ByLayer
 10
0.3000000000000002
 20
-1.5
 30
0.0
 40
0.017
  0
CIRCLE
  5
CF
100
AcDbEntity
100
AcDbCircle
  8
0
 62
256
370
-1
  6
ByLayer
 10
0.3000000000000002
 20
-1.6000000000000001
 30
0.0
 40
0.017
  0
CIRCLE
  5
D0
100
AcDbEntity
100
AcDbCircle
  8
0
 62
256
370
-1
  6
ByLayer
 10
0.3000000000000002
 20
-1.7
 30
0.0
 40
0.017
  0
CIRCLE
  5
D1
100
AcDbEntity
100
AcDbCircle
  8
0
 62
256
370
-1
  6
ByLayer
 10
0.3000000000000002
 20
-1.8
 30
0.0
 40
0.017
  0
CIRCLE
  5
D2
100
AcDbEntity
100
AcDbCircle
  8
0
 62
256
370
-1
  6
ByLayer
 10
0.3000000000000002
 20
-1.8
 30
0.0
 40
0.017
  0
CIRCLE
  5
D3
100
AcDbEntity
100
AcDbCircle
  8
0
 62
256
370
-1
  6
ByLayer
 10
0.3000000000000002
 20
-1.8
 30
0.0
 40
0.017
  0
CIRCLE
  5
D4
100
AcDbEntity
100
AcDbCircle
  8
0
 62
256
370
-1
  6
ByLayer
 10
0.3000000000000002
 20
-1.8999999999999999
 30
0.0
 40
0.017
  0
CIRCLE
  5
D5
100
AcDbEntity
100
AcDbCircle
  8
0
 62
256
370
-1
  6
ByLayer
 10
0.3000000000000002
 20
-2.0
 30
0.0
 40
0.017
  0
CIRCLE
  5
D6
100
AcDbEntity
100
AcDbCircle
  8
0
 62
256
370
-1
  6
ByLayer
 10
0.3000000000000002
 20
-2.1000000000000001
 30
0.0
 40
0.017
  0
CIRCLE
  5
D7
100
AcDbEntity
100
AcDbCircle
  8
0
 62
256
370
-1
  6
ByLayer
 10
0.3000000000000002
 20
-2.1000000000000001
 30
0.0
 40
0.017
  0
CIRCLE
  5
D8
100
AcDbEntity
100
AcDbCircle
  8
0
 62
256
370
-1
  6
ByLayer
 10
0.3000000000000002
 20
-2.1000000000000001
 30
0.0
 40
0.017
  0
CIRCLE
  5
D9
100
AcDbEntity
100
AcDbCircle
  8
0
 62
256
370
-1
  6
ByLayer
 10
0.3000000000000002
 20
-2.2000000000000002
 30
0.0
 40
0.017
  0
CIRCLE
  5
DA
100
AcDbEntity
100
AcDbCircle
  8
0
 62
256
370
-1
  6
ByLayer
 10
0.3000000000000002
 20
-2.2999999999999998
 30
0.0
 40
0.017
  0
CIRCLE
  5
DB
100
AcDbEntity
100
AcDbCircle
  8
0
 62
256
370
-1
  6
ByLayer
 10
0.3000000000000002
 20
-2.3999999999999999
 30
0.0
 40
0.017
  0
CIRCLE
  5
DC
100
AcDbEntity
100
AcDbCircle
  8
0
 62
256
370
-1
  6
ByLayer
 10
0.3000000000000002
 20
-2.5
 30
0.0
 40
0.017
  0
LINE
  5
DD
100
AcDbEntity
100
AcDbLine
  8
0
 62
256
370
-1
  6
ByLayer
 10
0.1000000000000003
 20
-2.4000000000000004
 30
0.0
 11
0.3000000000000003
 21
-2.4000000000000004
 31
0.0
  0
LINE
  5
DE
100
AcDbEntity
100
AcDbLine
  8
0
 62
256
370
-1
  6
ByLayer
 10
0.1000000000000003
 20
-2.3000000000000003
 30
0.0
 11
0.3000000000000003
 21
-2.3000000000000003
 31
0.0
  0
LINE
  5
DF
100
AcDbEntity
100
AcDbLine
  8
0
 62
256
370
-1
  6
ByLayer
 10
0.1000000000000003
 20
-2.2000000000000006
 30
0.0
 11
0.3000000000000003
 21
-2.2000000000000006
 31
0.0
  0
LINE
  5
E0
100
AcDbEntity
100
AcDbLine
  8
0
 62
256
370
-1
  6
ByLayer
 10
0.1000000000000003
 20
-2.1000000000000005
 30
0.0
 11
0.3000000000000003
 21
-2.1000000000000005
 31
0.0
  0
LINE
  5
E1
100
AcDbEntity
100
AcDbLine
  8
0
 62
256
370
-1
  6
ByLayer
 10
0.1000000000000003
 20
-2.0000000000000004
 30
0.0
 11
0.3000000000000003
 21
-2.0000000000000004
 31
0.0
  0
LINE
  5
E2
100
AcDbEntity
100
AcDbLine
  8
0
 62
256
370
-1
  6
ByLayer
 10
0.1000000000000003
 20
-1.9000000000000004
 30
0.0
 11
0.3000000000000003
 21
-1.9000000000000004
 31
0.0
  0
LINE
  5
E3
100
AcDbEntity
100
AcDbLine
  8
0
 62
256
370
-1
  6
ByLayer
 10
0.1000000000000003
 20
-1.8000000000000005
 30
0.0
 11
0.3000000000000003
 21
-1.8000000000000005
 31
0.0
  0
LINE
  5
E4
100
AcDbEntity
100
AcDbLine
  8
0
 62
256
370
-1
  6
ByLayer
 10
0.1000000000000003
 20
-1.7000000000000004
 30
0.0
 11
0.3000000000000003
 21
-1.7000000000000004
 31
0.0
  0
LINE
  5
E5
100
AcDbEntity
100
AcDbLine
  8
0
 62
256
370
-1
  6
ByLayer
 10
0.1000000000000003
 20
-1.6000000000000003
 30
0.0
 11
0.3000000000000003
 21
-1.6000000000000003
 31
0.0
  0
LINE
  5
E6
100
AcDbEntity
100
AcDbLine
  8
0
 62
256
370
-1
  6
ByLayer
 10
0.1000000000000003
 20
-1.5000000000000004
 30
0.0
 11
0.3000000000000003
 21
-1.5000000000000004
 31
0.0
  0
LINE
  5
E7
100
AcDbEntity
100
AcDbLine
  8
0
 62
256
370
-1
  6
ByLayer
 10
0.1000000000000003
 20
-1.4000000000000004
 30
0.0
 11
0.3000000000000003
 21
-1.4000000000000004
 31
0.0
  0
LINE
  5
E8
100
AcDbEntity
100
AcDbLine
  8
0
 62
256
370
-1
  6
ByLayer
 10
0.1000000000000003
 20
-1.3000000000000003
 30
0.0
 11
0.3000000000000003
 21
-1.3000000000000003
 31
0.0
  0
LINE
  5
E9
100
AcDbEntity
100
AcDbLine
  8
0
 62
256
370
-1
  6
ByLayer
 10
0.1000000000000003
 20
-1.2000000000000004
 30
0.0
 11
0.3000000000000003
 21
-1.2000000000000004
 31
0.0
  0
LINE
  5
EA
100
AcDbEntity
100
AcDbLine
  8
0
 62
256
370
-1
  6
ByLayer
 10
0.1000000000000003
 20
-1.1000000000000003
 30
0.0
 11
0.3000000000000003
 21
-1.1000000000000003
 31
0.0
  0
LINE
  5
EB
100
AcDbEntity
100
AcDbLine
  8
0
 62
256
370
-1
  6
ByLayer
 10
0.1000000000000003
 20
-1.0000000000000004
 30
0.0
 11
0.3000000000000003
 21
-1.0000000000000004
 31
0.0
  0
LINE
  5
EC
100
AcDbEntity
100
AcDbLine
  8
0
 62
256
370
-1
  6
ByLayer
 10
0.1000000000000003
 20
-0.9000000000000004
 30
0.0
 11
0.3000000000000003
 21
-0.9000000000000004
 31
0.0
  0
LINE
  5
ED
100
AcDbEntity
100
AcDbLine
  8
0
 62
256
370
-1
  6
ByLayer
 10
0.1000000000000003
 20
-0.8000000000000005
 30
0.0
 11
0.3000000000000003
 21
-0.8000000000000005
 31
0.0
  0
LINE
  5
EE
100
AcDbEntity
100
AcDbLine
  8
0
 62
256
370
-1
  6
ByLayer
 10
0.1000000000000003
 20
-0.7000000000000004
 30
0.0
 11
0.3000000000000003
 21
-0.7000000000000004
 31
0.0
  0
LINE
  5
EF
100
AcDbEntity
100
AcDbLine
  8
0
 62
256
370
-1
  6
ByLayer
 10
0.1000000000000003
 20
-0.6000000000000003
 30
0.0
 11
0.3000000000000003
 21
-0.6000000000000003
 31
0.0
  0
LINE
  5
F0
100
AcDbEntity
100
AcDbLine
  8
0
 62
256
370
-1
  6
ByLayer
 10
0.1000000000000003
 20
-0.5000000000000004
 30
0.0
 11
0.3000000000000003
 21
-0.5000000000000004
 31
0.0
  0
LINE
  5
F1
100
AcDbEntity
100
AcDbLine
  8
0
 62
256
370
-1
  6
ByLayer
 10
0.1000000000000003
 20
-0.4000000000000005
 30
0.0
 11
0.3000000000000003
 21
-0.4000000000000005
 31
0.0
  0
LINE
  5
F2
100
AcDbEntity
100
AcDbLine
  8
0
 62
256
370
-1
  6
ByLayer
 10
0.1000000000000003
 20
-0.3000000000000004
 30
0.0
 11
0.3000000000000003
 21
-0.3000000000000004
 31
0.0
  0
LINE
  5
F3
100
AcDbEntity
100
AcDbLine
  8
0
 62
256
370
-1
  6
ByLayer
 10
0.1000000000000003
 20
-0.2000000000000003
 30
0.0
 11
0.3000000000000003
 21
-0.2000000000000003
 31
0.0
  0
LINE
  5
F4
100
AcDbEntity
100
AcDbLine
  8
0
 62
256
370
-1
  6
ByLayer
 10
0.1000000000000003
 20
-0.1000000000000003
 30
0.0
 11
0.3000000000000003
 21
-0.1000000000000003
 31
0.0
  0
LINE
  5
F5
100
AcDbEntity
100
AcDbLine
  8
0
 62
256
370
-1
  6
ByLayer
 10
0.1000000000000003
 20
-0.0000000000000003
 30
0.0
 11
0.3000000000000003
 21
-0.0000000000000003
 31
0.0
  0
LINE
  5
F6
100
AcDbEntity
100
AcDbLine
  8
0
 62
256
370
-1
  6
ByLayer
 10
0.1000000000000002
 20
-2.5000000000000004
 30
0.0
 11
0.3000000000000002
 21
-2.5000000000000004
 31
0.0
  0
CIRCLE
  5
F7
100
AcDbEntity
100
AcDbCircle
  8
0
 62
256
370
-1
  6
ByLayer
 10
0.6000000000000002
 20
-0.0000000000000001
 30
0.0
 40
0.017
  0
CIRCLE
  5
F8
100
AcDbEntity
100
AcDbCircle
  8
0
 62
256
370
-1
  6
ByLayer
 10
0.7000000000000002
 20
-0.0000000000000001
 30
0.0
 40
0.017
  0
CIRCLE
  5
F9
100
AcDbEntity
100
AcDbCircle
  8
0
 62
256
370
-1
  6
ByLayer
 10
0.6000000000000002
 20
-0.0000000000000001
 30
0.0
 40
0.017
  0
CIRCLE
  5
FA
100
AcDbEntity
100
AcDbCircle
  8
0
 62
256
370
-1
  6
ByLayer
 10
0.7000000000000002
 20
-0.0000000000000001
 30
0.0
 40
0.017
  0
CIRCLE
  5
FB
100
AcDbEntity
100
AcDbCircle
  8
0
 62
256
370
-1
  6
ByLayer
 10
0.6000000000000002
 20
-0.0000000000000001
 30
0.0
 40
0.017
  0
CIRCLE
  5
FC
100
AcDbEntity
100
AcDbCircle
  8
0
 62
256
370
-1
  6
ByLayer
 10
0.7000000000000002
 20
-0.0000000000000001
 30
0.0
 40
0.017
  0
CIRCLE
  5
FD
100
AcDbEntity
100
AcDbCircle
  8
0
 62
256
370
-1
  6
ByLayer
 10
0.6000000000000002
 20
-0.1000000000000001
 30
0.0
 40
0.017
  0
CIRCLE
  5
FE
100
AcDbEntity
100
AcDbCircle
  8
0
 62
256
370
-1
  6
ByLayer
 10
0.7000000000000002
 20
-0.1000000000000001
 30
0.0
 40
0.017
  0
CIRCLE
  5
FF
100
AcDbEntity
100
AcDbCircle
  8
0
 62
256
370
-1
  6
ByLayer
 10
0.6000000000000002
 20
-0.2000000000000001
 30
0.0
 40
0.017
  0
CIRCLE
  5
100
100
AcDbEntity
100
AcDbCircle
  8
0
 62
256
370
-1
  6
ByLayer
 10
0.7000000000000002
 20
-0.2000000000000001
 30
0.0
 40
0.017
  0
CIRCLE
  5
101
100
AcDbEntity
100
AcDbCircle
  8
0
 62
256
370
-1
  6
ByLayer
 10
0.6000000000000002
 20
-0.3
 30
0.0
 40
0.017
  0
CIRCLE
  5
102
100
AcDbEntity
100
AcDbCircle
  8
0
 62
256
370
-1
  6
ByLayer
 10
0.7000000000000002
 20
-0.3
 30
0.0
 40
0.017
  0
CIRCLE
  5
103
100
AcDbEntity
100
AcDbCircle
  8
0
 62
256
370
-1
  6
ByLayer
 10
0.6000000000000002
 20
-0.3
 30
0.0
 40
0.017
  0
CIRCLE
  5
104
100
AcDbEntity
100
AcDbCircle
  8
0
 62
256
370
-1
  6
ByLayer
 10
0.7000000000000002
 20
-0.3
 30
0.0
 40
0.017
  0
CIRCLE
  5
105
100
AcDbEntity
100
AcDbCircle
  8
0
 62
256
370
-1
  6
ByLayer
 10
0.6000000000000002
 20
-0.3
 30
0.0
 40
0.017
  0
CIRCLE
  5
106
100
AcDbEntity
100
AcDbCircle
  8
0
 62
256
370
-1
  6
ByLayer
 10
0.7000000000000002
 20
-0.3
 30
0.0
 40
0.017
  0
CIRCLE
  5
107
100
AcDbEntity
100
AcDbCircle
  8
0
 62
256
370
-1
  6
ByLayer
 10
0.6000000000000002
 20
-0.4000000000000001
 30
0.0
 40
0.017
  0
CIRCLE
  5
108
100
AcDbEntity
100
AcDbCircle
  8
0
 62
256
370
-1
  6
ByLayer
 10
0.7000000000000002
 20
-0.4000000000000001
 30
0.0
 40
0.017
  0
CIRCLE
  5
109
100
AcDbEntity
100
AcDbCircle
  8
0
 62
256
370
-1
  6
ByLayer
 10
0.6000000000000002
 20
-0.5
 30
0.0
 40
0.017
  0
CIRCLE
  5
10A
100
AcDbEntity
100
AcDbCircle
  8
0
 62
256
370
-1
  6
ByLayer
 10
0.7000000000000002
 20
-0.5
 30
0.0
 40
0.017
  0
CIRCLE
  5
10B
100
AcDbEntity
100
AcDbCircle
  8
0
 62
256
370
-1
  6
ByLayer
 10
0.6000000000000002
 20
-0.6000000000000001
 30
0.0
 40
0.017
  0
CIRCLE
  5
10C
100
AcDbEntity
100
AcDbCircle
  8
0
 62
256
370
-1
  6
ByLayer
 10
0.7000000000000002
 20
-0.6000000000000001
 30
0.0
 40
0.017
  0
CIRCLE
  5
10D
100
AcDbEntity
100
AcDbCircle
  8
0
 62
256
370
-1
  6
ByLayer
 10
0.6000000000000002
 20
-0.6000000000000001
 30
0.0
 40
0.017
  0
CIRCLE
  5
10E
100
AcDbEntity
100
AcDbCircle
  8
0
 62
256
370
-1
  6
ByLayer
 10
0.7000000000000002
 20
-0.6000000000000001
 30
0.0
 40
0.017
  0
CIRCLE
  5
10F
100
AcDbEntity
100
AcDbCircle
  8
0
 62
256
370
-1
  6
ByLayer
 10
0.6000000000000002
 20
-0.6000000000000001
 30
0.0
 40
0.017
  0
CIRCLE
  5
110
100
AcDbEntity
100
AcDbCircle
  8
0
 62
256
370
-1
  6
ByLayer
 10
0.7000000000000002
 20
-0.6000000000000001
 30
0.0
 40
0.017
  0
CIRCLE
  5
111
100
AcDbEntity
100
AcDbCircle
  8
0
 62
256
370
-1
  6
ByLayer
 10
0.6000000000000002
 20
-0.7000000000000002
 30
0.0
 40
0.017
  0
CIRCLE
  5
112
100
AcDbEntity
100
AcDbCircle
  8
0
 62
256
370
-1
  6
ByLayer
 10
0.7000000000000002
 20
-0.7000000000000002
 30
0.0
 40
0.017
  0
CIRCLE
  5
113
100
AcDbEntity
100
AcDbCircle
  8
0
 62
256
370
-1
  6
ByLayer
 10
0.6000000000000002
 20
-0.8
 30
0.0
 40
0.017
  0
CIRCLE
  5
114
100
AcDbEntity
100
AcDbCircle
  8
0
 62
256
370
-1
  6
ByLayer
 10
0.7000000000000002
 20
-0.8
 30
0.0
 40
0.017
  0
CIRCLE
  5
115
100
AcDbEntity
100
AcDbCircle
  8
0
 62
256
370
-1
  6
ByLayer
 10
0.6000000000000002
 20
-0.9000000000000001
 30
0.0
 40
0.017
  0
CIRCLE
  5
116
100
AcDbEntity
100
AcDbCircle
  8
0
 62
256
370
-1
  6
ByLayer
 10
0.7000000000000002
 20
-0.9000000000000001
 30
0.0
 40
0.017
  0
CIRCLE
  5
117
100
AcDbEntity
100
AcDbCircle
  8
0
 62
256
370
-1
  6
ByLayer
 10
0.6000000000000002
 20
-0.9000000000000001
 30
0.0
 40
0.017
  0
CIRCLE
  5
118
100
AcDbEntity
100
AcDbCircle
  8
0
 62
256
370
-1
  6
ByLayer
 10
0.7000000000000002
 20
-0.9000000000000001
 30
0.0
 40
0.017
  0
CIRCLE
  5
119
100
AcDbEntity
100
AcDbCircle
  8
0
 62
256
370
-1
  6
ByLayer
 10
0.6000000000000002
 20
-0.9000000000000001
 30
0.0
 40
0.017
  0
CIRCLE
  5
11A
100
AcDbEntity
100
AcDbCircle
  8
0
 62
256
370
-1
  6
ByLayer
 10
0.7000000000000002
 20
-0.9000000000000001
 30
0.0
 40
0.017
  0
CIRCLE
  5
11B
100
AcDbEntity
100
AcDbCircle
  8
0
 62
256
370
-1
  6
ByLayer
 10
0.6000000000000002
 20
-1.0
 30
0.0
 40
0.017
  0
CIRCLE
  5
11C
100
AcDbEntity
100
AcDbCircle
  8
0
 62
256
370
-1
  6
ByLayer
 10
0.7000000000000002
 20
-1.0
 30
0.0
 40
0.017
  0
CIRCLE
  5
11D
100
AcDbEntity
100
AcDbCircle
  8
0
 62
256
370
-1
  6
ByLayer
 10
0.6000000000000002
 20
-1.1000000000000001
 30
0.0
 40
0.017
  0
CIRCLE
  5
11E
100
AcDbEntity
100
AcDbCircle
  8
0
 62
256
370
-1
  6
ByLayer
 10
0.7000000000000002
 20
-1.1000000000000001
 30
0.0
 40
0.017
  0
CIRCLE
  5
11F
100
AcDbEntity
100
AcDbCircle
  8
0
 62
256
370
-1
  6
ByLayer
 10
0.6000000000000002
 20
-1.2
 30
0.0
 40
0.017
  0
CIRCLE
  5
120
100
AcDbEntity
100
AcDbCircle
  8
0
 62
256
370
-1
  6
ByLayer
 10
0.7000000000000002
 20
-1.2
 30
0.0
 40
0.017
  0
CIRCLE
  5
121
100
AcDbEntity
100
AcDbCircle
  8
0
 62
256
370
-1
  6
ByLayer
 10
0.6000000000000002
 20
-1.2
 30
0.0
 40
0.017
  0
CIRCLE
  5
122
100
AcDbEntity
100
AcDbCircle
  8
0
 62
256
370
-1
  6
ByLayer
 10
0.7000000000000002
 20
-1.2
 30
0.0
 40
0.017
  0
CIRCLE
  5
123
100
AcDbEntity
100
AcDbCircle
  8
0
 62
256
370
-1
  6
ByLayer
 10
0.6000000000000002
 20
-1.2
 30
0.0
 40
0.017
  0
CIRCLE
  5
124
100
AcDbEntity
100
AcDbCircle
  8
0
 62
256
370
-1
  6
ByLayer
 10
0.7000000000000002
 20
-1.2
 30
0.0
 40
0.017
  0
CIRCLE
  5
125
100
AcDbEntity
100
AcDbCircle
  8
0
 62
256
370
-1
  6
ByLayer
 10
0.6000000000000002
 20
-1.2999999999999998
 30
0.0
 40
0.017
  0
CIRCLE
  5
126
100
AcDbEntity
100
AcDbCircle
  8
0
 62
256
370
-1
  6
ByLayer
 10
0.7000000000000002
 20
-1.2999999999999998
 30
0.0
 40
0.017
  0
CIRCLE
  5
127
100
AcDbEntity
100
AcDbCircle
  8
0
 62
256
370
-1
  6
ByLayer
 10
0.6000000000000002
 20
-1.3999999999999999
 30
0.0
 40
0.017
  0
CIRCLE
  5
128
100
AcDbEntity
100
AcDbCircle
  8
0
 62
256
370
-1
  6
ByLayer
 10
0.7000000000000002
 20
-1.3999999999999999
 30
0.0
 40
0.017
  0
CIRCLE
  5
129
100
AcDbEntity
100
AcDbCircle
  8
0
 62
256
370
-1
  6
ByLayer
 10
0.6000000000000002
 20
-1.5
 30
0.0
 40
0.017
  0
CIRCLE
  5
12A
100
AcDbEntity
100
AcDbCircle
  8
0
 62
256
370
-1
  6
ByLayer
 10
0.7000000000000002
 20
-1.5
 30
0.0
 40
0.017
  0
CIRCLE
  5
12B
100
AcDbEntity
100
AcDbCircle
  8
0
 62
256
370
-1
  6
ByLayer
 10
0.6000000000000002
 20
-1.5
 30
0.0
 40
0.017
  0
CIRCLE
  5
12C
100
AcDbEntity
100
AcDbCircle
  8
0
 62
256
370
-1
  6
ByLayer
 10
0.7000000000000002
 20
-1.5
 30
0.0
 40
0.017
  0
CIRCLE
  5
12D
100
AcDbEntity
100
AcDbCircle
  8
0
 62
256
370
-1
  6
ByLayer
 10
0.6000000000000002
 20
-1.5
 30
0.0
 40
0.017
  0
CIRCLE
  5
12E
100
AcDbEntity
100
AcDbCircle
  8
0
 62
256
370
-1
  6
ByLayer
 10
0.7000000000000002
 20
-1.5
 30
0.0
 40
0.017
  0
CIRCLE
  5
12F
100
AcDbEntity
100
AcDbCircle
  8
0
 62
256
370
-1
  6
ByLayer
 10
0.6000000000000002
 20
-1.6000000000000001
 30
0.0
 40
0.017
  0
CIRCLE
  5
130
100
AcDbEntity
100
AcDbCircle
  8
0
 62
256
370
-1
  6
ByLayer
 10
0.7000000000000002
 20
-1.6000000000000001
 30
0.0
 40
0.017
  0
CIRCLE
  5
131
100
AcDbEntity
100
AcDbCircle
  8
0
 62
256
370
-1
  6
ByLayer
 10
0.6000000000000002
 20
-1.7
 30
0.0
 40
0.017
  0
CIRCLE
  5
132
100
AcDbEntity
100
AcDbCircle
  8
0
 62
256
370
-1
  6
ByLayer
 10
0.7000000000000002
 20
-1.7
 30
0.0
 40
0.017
  0
CIRCLE
  5
133
100
AcDbEntity
100
AcDbCircle
  8
0
 62
256
370
-1
  6
ByLayer
 10
0.6000000000000002
 20
-1.8
 30
0.0
 40
0.017
  0
CIRCLE
  5
134
100
AcDbEntity
100
AcDbCircle
  8
0
 62
256
370
-1
  6
ByLayer
 10
0.7000000000000002
 20
-1.8
 30
0.0
 40
0.017
  0
CIRCLE
  5
135
100
AcDbEntity
100
AcDbCircle
  8
0
 62
256
370
-1
  6
ByLayer
 10
0.6000000000000002
 20
-1.8
 30
0.0
 40
0.017
  0
CIRCLE
  5
136
100
AcDbEntity
100
AcDbCircle
  8
0
 62
256
370
-1
  6
ByLayer
 10
0.7000000000000002
 20
-1.8
 30
0.0
 40
0.017
  0
CIRCLE
  5
137
100
AcDbEntity
100
AcDbCircle
  8
0
 62
256
370
-1
  6
ByLayer
 10
0.6000000000000002
 20
-1.8
 30
0.0
 40
0.017
  0
CIRCLE
  5
138
100
AcDbEntity
100
AcDbCircle
  8
0
 62
256
370
-1
  6
ByLayer
 10
0.7000000000000002
 20
-1.8
 30
0.0
 40
0.017
  0
CIRCLE
  5
139
100
AcDbEntity
100
AcDbCircle
  8
0
 62
256
370
-1
  6
ByLayer
 10
0.6000000000000002
 20
-1.8999999999999999
 30
0.0
 40
0.017
  0
CIRCLE
  5
13A
100
AcDbEntity
100
AcDbCircle
  8
0
 62
256
370
-1
  6
ByLayer
 10
0.7000000000000002
 20
-1.8999999999999999
 30
0.0
 40
0.017
  0
CIRCLE
  5
13B
100
AcDbEntity
100
AcDbCircle
  8
0
 62
256
370
-1
  6
ByLayer
 10
0.6000000000000002
 20
-2.0
 30
0.0
 40
0.017
  0
CIRCLE
  5
13C
100
AcDbEntity
100
AcDbCircle
  8
0
 62
256
370
-1
  6
ByLayer
 10
0.7000000000000002
 20
-2.0
 30
0.0
 40
0.017
  0
CIRCLE
  5
13D
100
AcDbEntity
100
AcDbCircle
  8
0
 62
256
370
-1
  6
ByLayer
 10
0.6000000000000002
 20
-2.1000000000000001
 30
0.0
 40
0.017
  0
CIRCLE
  5
13E
100
AcDbEntity
100
AcDbCircle
  8
0
 62
256
370
-1
  6
ByLayer
 10
0.7000000000000002
 20
-2.1000000000000001
 30
0.0
 40
0.017
  0
CIRCLE
  5
13F
100
AcDbEntity
100
AcDbCircle
  8
0
 62
256
370
-1
  6
ByLayer
 10
0.6000000000000002
 20
-2.1000000000000001
 30
0.0
 40
0.017
  0
CIRCLE
  5
140
100
AcDbEntity
100
AcDbCircle
  8
0
 62
256
370
-1
  6
ByLayer
 10
0.7000000000000002
 20
-2.1000000000000001
 30
0.0
 40
0.017
  0
CIRCLE
  5
141
100
AcDbEntity
100
AcDbCircle
  8
0
 62
256
370
-1
  6
ByLayer
 10
0.6000000000000002
 20
-2.1000000000000001
 30
0.0
 40
0.017
  0
CIRCLE
  5
142
100
AcDbEntity
100
AcDbCircle
  8
0
 62
256
370
-1
  6
ByLayer
 10
0.7000000000000002
 20
-2.1000000000000001
 30
0.0
 40
0.017
  0
CIRCLE
  5
143
100
AcDbEntity
100
AcDbCircle
  8
0
 62
256
370
-1
  6
ByLayer
 10
0.6000000000000002
 20
-2.2000000000000002
 30
0.0
 40
0.017
  0
CIRCLE
  5
144
100
AcDbEntity
100
AcDbCircle
  8
0
 62
256
370
-1
  6
ByLayer
 10
0.7000000000000002
 20
-2.2000000000000002
 30
0.0
 40
0.017
  0
CIRCLE
  5
145
100
AcDbEntity
100
AcDbCircle
  8
0
 62
256
370
-1
  6
ByLayer
 10
0.6000000000000002
 20
-2.2999999999999998
 30
0.0
 40
0.017
  0
CIRCLE
  5
146
100
AcDbEntity
100
AcDbCircle
  8
0
 62
256
370
-1
  6
ByLayer
 10
0.7000000000000002
 20
-2.2999999999999998
 30
0.0
 40
0.017
  0
CIRCLE
  5
147
100
AcDbEntity
100
AcDbCircle
  8
0
 62
256
370
-1
  6
ByLayer
 10
0.6000000000000002
 20
-2.3999999999999999
 30
0.0
 40
0.017
  0
CIRCLE
  5
148
100
AcDbEntity
100
AcDbCircle
  8
0
 62
256
370
-1
  6
ByLayer
 10
0.7000000000000002
 20
-2.3999999999999999
 30
0.0
 40
0.017
  0
CIRCLE
  5
149
100
AcDbEntity
100
AcDbCircle
  8
0
 62
256
370
-1
  6
ByLayer
 10
0.6000000000000002
 20
-2.5
 30
0.0
 40
0.017
  0
CIRCLE
  5
14A
100
AcDbEntity
100
AcDbCircle
  8
0
 62
256
370
-1
  6
ByLayer
 10
0.7000000000000002
 20
-2.5
 30
0.0
 40
0.017
  0
CIRCLE
  5
14B
100
AcDbEntity
100
AcDbCircle
  8
0
 62
256
370
-1
  6
ByLayer
 10
0.8000000000000002
 20
-0.0000000000000001
 30
0.0
 40
0.017
  0
CIRCLE
  5
14C
100
AcDbEntity
100
AcDbCircle
  8
0
 62
256
370
-1
  6
ByLayer
 10
0.8000000000000002
 20
-0.0000000000000001
 30
0.0
 40
0.017
  0
CIRCLE
  5
14D
100
AcDbEntity
100
AcDbCircle
  8
0
 62
256
370
-1
  6
ByLayer
 10
0.8000000000000002
 20
-0.0000000000000001
 30
0.0
 40
0.017
  0
CIRCLE
  5
14E
100
AcDbEntity
100
AcDbCircle
  8
0
 62
256
370
-1
  6
ByLayer
 10
0.8000000000000002
 20
-0.1000000000000001
 30
0.0
 40
0.017
  0
CIRCLE
  5
14F
100
AcDbEntity
100
AcDbCircle
  8
0
 62
256
370
-1
  6
ByLayer
 10
0.8000000000000002
 20
-0.2000000000000001
 30
0.0
 40
0.017
  0
CIRCLE
  5
150
100
AcDbEntity
100
AcDbCircle
  8
0
 62
256
370
-1
  6
ByLayer
 10
0.8000000000000002
 20
-0.3
 30
0.0
 40
0.017
  0
CIRCLE
  5
151
100
AcDbEntity
100
AcDbCircle
  8
0
 62
256
370
-1
  6
ByLayer
 10
0.8000000000000002
 20
-0.3
 30
0.0
 40
0.017
  0
CIRCLE
  5
152
100
AcDbEntity
100
AcDbCircle
  8
0
 62
256
370
-1
  6
ByLayer
 10
0.8000000000000002
 20
-0.3
 30
0.0
 40
0.017
  0
CIRCLE
  5
153
100
AcDbEntity
100
AcDbCircle
  8
0
 62
256
370
-1
  6
ByLayer
 10
0.8000000000000002
 20
-0.4000000000000001
 30
0.0
 40
0.017
  0
CIRCLE
  5
154
100
AcDbEntity
100
AcDbCircle
  8
0
 62
256
370
-1
  6
ByLayer
 10
0.8000000000000002
 20
-0.5
 30
0.0
 40
0.017
  0
CIRCLE
  5
155
100
AcDbEntity
100
AcDbCircle
  8
0
 62
256
370
-1
  6
ByLayer
 10
0.8000000000000002
 20
-0.6000000000000001
 30
0.0
 40
0.017
  0
CIRCLE
  5
156
100
AcDbEntity
100
AcDbCircle
  8
0
 62
256
370
-1
  6
ByLayer
 10
0.8000000000000002
 20
-0.6000000000000001
 30
0.0
 40
0.017
  0
CIRCLE
  5
157
100
AcDbEntity
100
AcDbCircle
  8
0
 62
256
370
-1
  6
ByLayer
 10
0.8000000000000002
 20
-0.6000000000000001
 30
0.0
 40
0.017
  0
CIRCLE
  5
158
100
AcDbEntity
100
AcDbCircle
  8
0
 62
256
370
-1
  6
ByLayer
 10
0.8000000000000002
 20
-0.7000000000000002
 30
0.0
 40
0.017
  0
CIRCLE
  5
159
100
AcDbEntity
100
AcDbCircle
  8
0
 62
256
370
-1
  6
ByLayer
 10
0.8000000000000002
 20
-0.8
 30
0.0
 40
0.017
  0
CIRCLE
  5
15A
100
AcDbEntity
100
AcDbCircle
  8
0
 62
256
370
-1
  6
ByLayer
 10
0.8000000000000002
 20
-0.9000000000000001
 30
0.0
 40
0.017
  0
CIRCLE
  5
15B
100
AcDbEntity
100
AcDbCircle
  8
0
 62
256
370
-1
  6
ByLayer
 10
0.8000000000000002
 20
-0.9000000000000001
 30
0.0
 40
0.017
  0
CIRCLE
  5
15C
100
AcDbEntity
100
AcDbCircle
  8
0
 62
256
370
-1
  6
ByLayer
 10
0.8000000000000002
 20
-0.9000000000000001
 30
0.0
 40
0.017
  0
CIRCLE
  5
15D
100
AcDbEntity
100
AcDbCircle
  8
0
 62
256
370
-1
  6
ByLayer
 10
0.8000000000000002
 20
-1.0
 30
0.0
 40
0.017
  0
CIRCLE
  5
15E
100
AcDbEntity
100
AcDbCircle
  8
0
 62
256
370
-1
  6
ByLayer
 10
0.8000000000000002
 20
-1.1000000000000001
 30
0.0
 40
0.017
  0
CIRCLE
  5
15F
100
AcDbEntity
100
AcDbCircle
  8
0
 62
256
370
-1
  6
ByLayer
 10
0.8000000000000002
 20
-1.2
 30
0.0
 40
0.017
  0
CIRCLE
  5
160
100
AcDbEntity
100
AcDbCircle
  8
0
 62
256
370
-1
  6
ByLayer
 10
0.8000000000000002
 20
-1.2
 30
0.0
 40
0.017
  0
CIRCLE
  5
161
100
AcDbEntity
100
AcDbCircle
  8
0
 62
256
370
-1
  6
ByLayer
 10
0.8000000000000002
 20
-1.2
 30
0.0
 40
0.017
  0
CIRCLE
  5
162
100
AcDbEntity
100
AcDbCircle
  8
0
 62
256
370
-1
  6
ByLayer
 10
0.8000000000000002
 20
-1.2999999999999998
 30
0.0
 40
0.017
  0
CIRCLE
  5
163
100
AcDbEntity
100
AcDbCircle
  8
0
 62
256
370
-1
  6
ByLayer
 10
0.8000000000000002
 20
-1.3999999999999999
 30
0.0
 40
0.017
  0
CIRCLE
  5
164
100
AcDbEntity
100
AcDbCircle
  8
0
 62
256
370
-1
  6
ByLayer
 10
0.8000000000000002
 20
-1.5
 30
0.0
 40
0.017
  0
CIRCLE
  5
165
100
AcDbEntity
100
AcDbCircle
  8
0
 62
256
370
-1
  6
ByLayer
 10
0.8000000000000002
 20
-1.5
 30
0.0
 40
0.017
  0
CIRCLE
  5
166
100
AcDbEntity
100
AcDbCircle
  8
0
 62
256
370
-1
  6
ByLayer
 10
0.8000000000000002
 20
-1.5
 30
0.0
 40
0.017
  0
CIRCLE
  5
167
100
AcDbEntity
100
AcDbCircle
  8
0
 62
256
370
-1
  6
ByLayer
 10
0.8000000000000002
 20
-1.6000000000000001
 30
0.0
 40
0.017
  0
CIRCLE
  5
168
100
AcDbEntity
100
AcDbCircle
  8
0
 62
256
370
-1
  6
ByLayer
 10
0.8000000000000002
 20
-1.7
 30
0.0
 40
0.017
  0
CIRCLE
  5
169
100
AcDbEntity
100
AcDbCircle
  8
0
 62
256
370
-1
  6
ByLayer
 10
0.8000000000000002
 20
-1.8
 30
0.0
 40
0.017
  0
CIRCLE
  5
16A
100
AcDbEntity
100
AcDbCircle
  8
0
 62
256
370
-1
  6
ByLayer
 10
0.8000000000000002
 20
-1.8
 30
0.0
 40
0.017
  0
CIRCLE
  5
16B
100
AcDbEntity
100
AcDbCircle
  8
0
 62
256
370
-1
  6
ByLayer
 10
0.8000000000000002
 20
-1.8
 30
0.0
 40
0.017
  0
CIRCLE
  5
16C
100
AcDbEntity
100
AcDbCircle
  8
0
 62
256
370
-1
  6
ByLayer
 10
0.8000000000000002
 20
-1.8999999999999999
 30
0.0
 40
0.017
  0
CIRCLE
  5
16D
100
AcDbEntity
100
AcDbCircle
  8
0
 62
256
370
-1
  6
ByLayer
 10
0.8000000000000002
 20
-2.0
 30
0.0
 40
0.017
  0
CIRCLE
  5
16E
100
AcDbEntity
100
AcDbCircle
  8
0
 62
256
370
-1
  6
ByLayer
 10
0.8000000000000002
 20
-2.1000000000000001
 30
0.0
 40
0.017
  0
CIRCLE
  5
16F
100
AcDbEntity
100
AcDbCircle
  8
0
 62
256
370
-1
  6
ByLayer
 10
0.8000000000000002
 20
-2.1000000000000001
 30
0.0
 40
0.017
  0
CIRCLE
  5
170
100
AcDbEntity
100
AcDbCircle
  8
0
 62
256
370
-1
  6
ByLayer
 10
0.8000000000000002
 20
-2.1000000000000001
 30
0.0
 40
0.017
  0
CIRCLE
  5
171
100
AcDbEntity
100
AcDbCircle
  8
0
 62
256
370
-1
  6
ByLayer
 10
0.8000000000000002
 20
-2.2000000000000002
 30
0.0
 40
0.017
  0
CIRCLE
  5
172
100
AcDbEntity
100
AcDbCircle
  8
0
 62
256
370
-1
  6
ByLayer
 10
0.8000000000000002
 20
-2.2999999999999998
 30
0.0
 40
0.017
  0
CIRCLE
  5
173
100
AcDbEntity
100
AcDbCircle
  8
0
 62
256
370
-1
  6
ByLayer
 10
0.8000000000000002
 20
-2.3999999999999999
 30
0.0
 40
0.017
  0
CIRCLE
  5
174
100
AcDbEntity
100
AcDbCircle
  8
0
 62
256
370
-1
  6
ByLayer
 10
0.8000000000000002
 20
-2.5
 30
0.0
 40
0.017
  0
LINE
  5
175
100
AcDbEntity
100
AcDbLine
  8
0
 62
256
370
-1
  6
ByLayer
 10
0.6000000000000002
 20
-2.4000000000000004
 30
0.0
 11
0.8000000000000003
 21
-2.4000000000000004
 31
0.0
  0
LINE
  5
176
100
AcDbEntity
100
AcDbLine
  8
0
 62
256
370
-1
  6
ByLayer
 10
0.6000000000000002
 20
-2.3000000000000003
 30
0.0
 11
0.8000000000000003
 21
-2.3000000000000003
 31
0.0
  0
LINE
  5
177
100
AcDbEntity
100
AcDbLine
  8
0
 62
256
370
-1
  6
ByLayer
 10
0.6000000000000002
 20
-2.2000000000000006
 30
0.0
 11
0.8000000000000003
 21
-2.2000000000000006
 31
0.0
  0
LINE
  5
178
100
AcDbEntity
100
AcDbLine
  8
0
 62
256
370
-1
  6
ByLayer
 10
0.6000000000000002
 20
-2.1000000000000005
 30
0.0
 11
0.8000000000000003
 21
-2.1000000000000005
 31
0.0
  0
LINE
  5
179
100
AcDbEntity
100
AcDbLine
  8
0
 62
256
370
-1
  6
ByLayer
 10
0.6000000000000002
 20
-2.0000000000000004
 30
0.0
 11
0.8000000000000003
 21
-2.0000000000000004
 31
0.0
  0
LINE
  5
17A
100
AcDbEntity
100
AcDbLine
  8
0
 62
256
370
-1
  6
ByLayer
 10
0.6000000000000002
 20
-1.9000000000000004
 30
0.0
 11
0.8000000000000003
 21
-1.9000000000000004
 31
0.0
  0
LINE
  5
17B
100
AcDbEntity
100
AcDbLine
  8
0
 62
256
370
-1
  6
ByLayer
 10
0.6000000000000002
 20
-1.8000000000000005
 30
0.0
 11
0.8000000000000003
 21
-1.8000000000000005
 31
0.0
  0
LINE
  5
17C
100
AcDbEntity
100
AcDbLine
  8
0
 62
256
370
-1
  6
ByLayer
 10
0.6000000000000002
 20
-1.7000000000000004
 30
0.0
 11
0.8000000000000003
 21
-1.7000000000000004
 31
0.0
  0
LINE
  5
17D
100
AcDbEntity
100
AcDbLine
  8
0
 62
256
370
-1
  6
ByLayer
 10
0.6000000000000002
 20
-1.6000000000000003
 30
0.0
 11
0.8000000000000003
 21
-1.6000000000000003
 31
0.0
  0
LINE
  5
17E
100
AcDbEntity
100
AcDbLine
  8
0
 62
256
370
-1
  6
ByLayer
 10
0.6000000000000002
 20
-1.5000000000000004
 30
0.0
 11
0.8000000000000003
 21
-1.5000000000000004
 31
0.0
  0
LINE
  5
17F
100
AcDbEntity
100
AcDbLine
  8
0
 62
256
370
-1
  6
ByLayer
 10
0.6000000000000002
 20
-1.4000000000000004
 30
0.0
 11
0.8000000000000003
 21
-1.4000000000000004
 31
0.0
  0
LINE
  5
180
100
AcDbEntity
100
AcDbLine
  8
0
 62
256
370
-1
  6
ByLayer
 10
0.6000000000000002
 20
-1.3000000000000003
 30
0.0
 11
0.8000000000000003
 21
-1.3000000000000003
 31
0.0
  0
LINE
  5
181
100
AcDbEntity
100
AcDbLine
  8
0
 62
256
370
-1
  6
ByLayer
 10
0.6000000000000002
 20
-1.2000000000000004
 30
0.0
 11
0.8000000000000003
 21
-1.2000000000000004
 31
0.0
  0
LINE
  5
182
100
AcDbEntity
100
AcDbLine
  8
0
 62
256
370
-1
  6
ByLayer
 10
0.6000000000000002
 20
-1.1000000000000003
 30
0.0
 11
0.8000000000000003
 21
-1.1000000000000003
 31
0.0
  0
LINE
  5
183
100
AcDbEntity
100
AcDbLine
  8
0
 62
256
370
-1
  6
ByLayer
 10
0.6000000000000002
 20
-1.0000000000000004
 30
0.0
 11
0.8000000000000003
 21
-1.0000000000000004
 31
0.0
  0
LINE
  5
184
100
AcDbEntity
100
AcDbLine
  8
0
 62
256
370
-1
  6
ByLayer
 10
0.6000000000000002
 20
-0.9000000000000004
 30
0.0
 11
0.8000000000000003
 21
-0.9000000000000004
 31
0.0
  0
LINE
  5
185
100
AcDbEntity
100
AcDbLine
  8
0
 62
256
370
-1
  6
ByLayer
 10
0.6000000000000002
 20
-0.8000000000000005
 30
0.0
 11
0.8000000000000003
 21
-0.8000000000000005
 31
0.0
  0
LINE
  5
186
100
AcDbEntity
100
AcDbLine
  8
0
 62
256
370
-1
  6
ByLayer
 10
0.6000000000000002
 20
-0.7000000000000004
 30
0.0
 11
0.8000000000000003
 21
-0.7000000000000004
 31
0.0
  0
LINE
  5
187
100
AcDbEntity
100
AcDbLine
  8
0
 62
256
370
-1
  6
ByLayer
 10
0.6000000000000002
 20
-0.6000000000000003
 30
0.0
 11
0.8000000000000003
 21
-0.6000000000000003
 31
0.0
  0
LINE
  5
188
100
AcDbEntity
100
AcDbLine
  8
0
 62
256
370
-1
  6
ByLayer
 10
0.6000000000000002
 20
-0.5000000000000004
 30
0.0
 11
0.8000000000000003
 21
-0.5000000000000004
 31
0.0
  0
LINE
  5
189
100
AcDbEntity
100
AcDbLine
  8
0
 62
256
370
-1
  6
ByLayer
 10
0.6000000000000002
 20
-0.4000000000000005
 30
0.0
 11
0.8000000000000003
 21
-0.4000000000000005
 31
0.0
  0
LINE
  5
18A
100
AcDbEntity
100
AcDbLine
  8
0
 62
256
370
-1
  6
ByLayer
 10
0.6000000000000002
 20
-0.3000000000000004
 30
0.0
 11
0.8000000000000003
 21
-0.3000000000000004
 31
0.0
  0
LINE
  5
18B
100
AcDbEntity
100
AcDbLine
  8
0
 62
256
370
-1
  6
ByLayer
 10
0.6000000000000002
 20
-0.2000000000000003
 30
0.0
 11
0.8000000000000003
 21
-0.2000000000000003
 31
0.0
  0
LINE
  5
18C
100
AcDbEntity
100
AcDbLine
  8
0
 62
256
370
-1
  6
ByLayer
 10
0.6000000000000002
 20
-0.1000000000000003
 30
0.0
 11
0.8000000000000003
 21
-0.1000000000000003
 31
0.0
  0
LINE
  5
18D
100
AcDbEntity
100
AcDbLine
  8
0
 62
256
370
-1
  6
ByLayer
 10
0.6000000000000002
 20
-0.0000000000000003
 30
0.0
 11
0.8000000000000003
 21
-0.0000000000000003
 31
0.0
  0
LINE
  5
18E
100
AcDbEntity
100
AcDbLine
  8
0
 62
256
370
-1
  6
ByLayer
 10
0.6000000000000002
 20
-2.5000000000000004
 30
0.0
 11
0.8000000000000002
 21
-2.5000000000000004
 31
0.0
  0
LINE
  5
18F
100
AcDbEntity
100
AcDbLine
  8
0
 62
256
370
-1
  6
ByLayer
 10
0.4
 20
-0.0000000000000001
 30
0.0
 11
0.4
 21
-2.5
 31
0.0
  0
LINE
  5
190
100
AcDbEntity
100
AcDbLine
  8
0
 62
256
370
-1
  6
ByLayer
 10
0.5000000000000002
 20
-0.0000000000000001
 30
0.0
 11
0.5000000000000002
 21
-2.5
 31
0.0
  0
CIRCLE
  5
191
100
AcDbEntity
100
AcDbCircle
  8
0
 62
256
370
-1
  6
ByLayer
 10
0.9000000000000002
 20
-0.1000000000000002
 30
0.0
 40
0.017
  0
CIRCLE
  5
192
100
AcDbEntity
100
AcDbCircle
  8
0
 62
256
370
-1
  6
ByLayer
 10
0.9000000000000002
 20
-0.2000000000000001
 30
0.0
 40
0.017
  0
CIRCLE
  5
193
100
AcDbEntity
100
AcDbCircle
  8
0
 62
256
370
-1
  6
ByLayer
 10
0.9000000000000002
 20
-0.3000000000000003
 30
0.0
 40
0.017
  0
CIRCLE
  5
194
100
AcDbEntity
100
AcDbCircle
  8
0
 62
256
370
-1
  6
ByLayer
 10
1.1000000000000001
 20
-0.2000000000000001
 30
0.0
 40
0.017
  0
CIRCLE
  5
195
100
AcDbEntity
100
AcDbCircle
  8
0
 62
256
370
-1
  6
ByLayer
 10
1.2000000000000002
 20
-0.2000000000000001
 30
0.0
 40
0.017
  0
LINE
  5
196
100
AcDbEntity
100
AcDbLine
  8
0
 62
256
370
-1
  6
ByLayer
 10
1.1000000000000001
 20
-0.2000000000000001
 30
0.0
 11
1.2000000000000002
 21
-0.2000000000000001
 31
0.0
  0
LINE
  5
197
100
AcDbEntity
100
AcDbLine
  8
0
 62
256
370
-1
  6
ByLayer
 10
0.9000000000000002
 20
-0.1000000000000002
 30
0.0
 11
0.9000000000000002
 21
-0.3000000000000003
 31
0.0
  0
CIRCLE
  5
198
100
AcDbEntity
100
AcDbCircle
  8
0
 62
256
370
-1
  6
ByLayer
 10
1.0000000000000002
 20
-0.3000000000000003
 30
0.0
 40
0.017
  0
CIRCLE
  5
199
100
AcDbEntity
100
AcDbCircle
  8
0
 62
256
370
-1
  6
ByLayer
 10
1.0000000000000002
 20
-0.4000000000000001
 30
0.0
 40
0.017
  0
CIRCLE
  5
19A
100
AcDbEntity
100
AcDbCircle
  8
0
 62
256
370
-1
  6
ByLayer
 10
1.0000000000000002
 20
-0.5000000000000002
 30
0.0
 40
0.017
  0
LINE
  5
19B
100
AcDbEntity
100
AcDbLine
  8
0
 62
256
370
-1
  6
ByLayer
 10
1.0000000000000002
 20
-0.3000000000000003
 30
0.0
 11
1.0000000000000002
 21
-0.5000000000000002
 31
0.0
  0
CIRCLE
  5
19C
100
AcDbEntity
100
AcDbCircle
  8
0
 62
256
370
-1
  6
ByLayer
 10
0.9000000000000002
 20
-0.6000000000000003
 30
0.0
 40
0.017
  0
CIRCLE
  5
19D
100
AcDbEntity
100
AcDbCircle
  8
0
 62
256
370
-1
  6
ByLayer
 10
0.9000000000000002
 20
-0.7000000000000002
 30
0.0
 40
0.017
  0
CIRCLE
  5
19E
100
AcDbEntity
100
AcDbCircle
  8
0
 62
256
370
-1
  6
ByLayer
 10
0.9000000000000002
 20
-0.8000000000000003
 30
0.0
 40
0.017
  0
LINE
  5
19F
100
AcDbEntity
100
AcDbLine
  8
0
 62
256
370
-1
  6
ByLayer
 10
0.9000000000000002
 20
-0.6000000000000003
 30
0.0
 11
0.9000000000000002
 21
-0.8000000000000003
 31
0.0
  0
CIRCLE
  5
1A0
100
AcDbEntity
100
AcDbCircle
  8
0
 62
256
370
-1
  6
ByLayer
 10
1.0000000000000002
 20
-0.8000000000000003
 30
0.0
 40
0.017
  0
CIRCLE
  5
1A1
100
AcDbEntity
100
AcDbCircle
  8
0
 62
256
370
-1
  6
ByLayer
 10
1.0000000000000002
 20
-0.9000000000000001
 30
0.0
 40
0.017
  0
CIRCLE
  5
1A2
100
AcDbEntity
100
AcDbCircle
  8
0
 62
256
370
-1
  6
ByLayer
 10
1.0000000000000002
 20
-1.0000000000000002
 30
0.0
 40
0.017
  0
LINE
  5
1A3
100
AcDbEntity
100
AcDbLine
  8
0
 62
256
370
-1
  6
ByLayer
 10
1.0000000000000002
 20
-0.8000000000000003
 30
0.0
 11
1.0000000000000002
 21
-1.0000000000000002
 31
0.0
  0
CIRCLE
  5
1A4
100
AcDbEntity
100
AcDbCircle
  8
0
 62
256
370
-1
  6
ByLayer
 10
0.9000000000000002
 20
-1.1000000000000001
 30
0.0
 40
0.017
  0
CIRCLE
  5
1A5
100
AcDbEntity
100
AcDbCircle
  8
0
 62
256
370
-1
  6
ByLayer
 10
0.9000000000000002
 20
-1.2000000000000002
 30
0.0
 40
0.017
  0
CIRCLE
  5
1A6
100
AcDbEntity
100
AcDbCircle
  8
0
 62
256
370
-1
  6
ByLayer
 10
0.9000000000000002
 20
-1.3000000000000003
 30
0.0
 40
0.017
  0
LINE
  5
1A7
100
AcDbEntity
100
AcDbLine
  8
0
 62
256
370
-1
  6
ByLayer
 10
0.9000000000000002
 20
-1.1000000000000001
 30
0.0
 11
0.9000000000000002
 21
-1.3000000000000003
 31
0.0
  0
CIRCLE
  5
1A8
100
AcDbEntity
100
AcDbCircle
  8
0
 62
256
370
-1
  6
ByLayer
 10
1.0000000000000002
 20
-1.2000000000000002
 30
0.0
 40
0.017
  0
CIRCLE
  5
1A9
100
AcDbEntity
100
AcDbCircle
  8
0
 62
256
370
-1
  6
ByLayer
 10
1.0000000000000002
 20
-1.3000000000000003
 30
0.0
 40
0.017
  0
CIRCLE
  5
1AA
100
AcDbEntity
100
AcDbCircle
  8
0
 62
256
370
-1
  6
ByLayer
 10
1.0000000000000002
 20
-1.4000000000000004
 30
0.0
 40
0.017
  0
LINE
  5
1AB
100
AcDbEntity
100
AcDbLine
  8
0
 62
256
370
-1
  6
ByLayer
 10
1.0000000000000002
 20
-1.2000000000000002
 30
0.0
 11
1.0000000000000002
 21
-1.4000000000000004
 31
0.0
  0
CIRCLE
  5
1AC
100
AcDbEntity
100
AcDbCircle
  8
0
 62
256
370
-1
  6
ByLayer
 10
0.9000000000000002
 20
-1.5000000000000002
 30
0.0
 40
0.017
  0
CIRCLE
  5
1AD
100
AcDbEntity
100
AcDbCircle
  8
0
 62
256
370
-1
  6
ByLayer
 10
0.9000000000000002
 20
-1.6000000000000003
 30
0.0
 40
0.017
  0
CIRCLE
  5
1AE
100
AcDbEntity
100
AcDbCircle
  8
0
 62
256
370
-1
  6
ByLayer
 10
0.9000000000000002
 20
-1.7000000000000004
 30
0.0
 40
0.017
  0
LINE
  5
1AF
100
AcDbEntity
100
AcDbLine
  8
0
 62
256
370
-1
  6
ByLayer
 10
0.9000000000000002
 20
-1.5000000000000002
 30
0.0
 11
0.9000000000000002
 21
-1.7000000000000004
 31
0.0
  0
CIRCLE
  5
1B0
100
AcDbEntity
100
AcDbCircle
  8
0
 62
256
370
-1
  6
ByLayer
 10
1.0000000000000002
 20
-1.6000000000000003
 30
0.0
 40
0.017
  0
CIRCLE
  5
1B1
100
AcDbEntity
100
AcDbCircle
  8
0
 62
256
370
-1
  6
ByLayer
 10
1.0000000000000002
 20
-1.7000000000000004
 30
0.0
 40
0.017
  0
CIRCLE
  5
1B2
100
AcDbEntity
100
AcDbCircle
  8
0
 62
256
370
-1
  6
ByLayer
 10
1.0000000000000002
 20
-1.8000000000000005
 30
0.0
 40
0.017
  0
LINE
  5
1B3
100
AcDbEntity
100
AcDbLine
  8
0
 62
256
370
-1
  6
ByLayer
 10
1.0000000000000002
 20
-1.6000000000000003
 30
0.0
 11
1.0000000000000002
 21
-1.8000000000000005
 31
0.0
  0
CIRCLE
  5
1B4
100
AcDbEntity
100
AcDbCircle
  8
0
 62
256
370
-1
  6
ByLayer
 10
0.9000000000000002
 20
-1.9000000000000004
 30
0.0
 40
0.017
  0
CIRCLE
  5
1B5
100
AcDbEntity
100
AcDbCircle
  8
0
 62
256
370
-1
  6
ByLayer
 10
0.9000000000000002
 20
-2.0000000000000004
 30
0.0
 40
0.017
  0
CIRCLE
  5
1B6
100
AcDbEntity
100
AcDbCircle
  8
0
 62
256
370
-1
  6
ByLayer
 10
0.9000000000000002
 20
-2.1000000000000005
 30
0.0
 40
0.017
  0
LINE
  5
1B7
100
AcDbEntity
100
AcDbLine
  8
0
 62
256
370
-1
  6
ByLayer
 10
0.9000000000000002
 20
-1.9000000000000004
 30
0.0
 11
0.9000000000000002
 21
-2.1000000000000005
 31
0.0
  0
CIRCLE
  5
1B8
100
AcDbEntity
100
AcDbCircle
  8
0
 62
256
370
-1
  6
ByLayer
 10
1.0000000000000002
 20
-2.0000000000000004
 30
0.0
 40
0.017
  0
CIRCLE
  5
1B9
100
AcDbEntity
100
AcDbCircle
  8
0
 62
256
370
-1
  6
ByLayer
 10
1.0000000000000002
 20
-2.1000000000000005
 30
0.0
 40
0.017
  0
CIRCLE
  5
1BA
100
AcDbEntity
100
AcDbCircle
  8
0
 62
256
370
-1
  6
ByLayer
 10
1.0000000000000002
 20
-2.2000000000000006
 30
0.0
 40
0.017
  0
LINE
  5
1BB
100
AcDbEntity
100
AcDbLine
  8
0
 62
256
370
-1
  6
ByLayer
 10
1.0000000000000002
 20
-2.0000000000000004
 30
0.0
 11
1.0000000000000002
 21
-2.2000000000000006
 31
0.0
  0
CIRCLE
  5
1BC
100
AcDbEntity
100
AcDbCircle
  8
0
 62
256
370
-1
  6
ByLayer
 10
0.9000000000000002
 20
-2.3000000000000003
 30
0.0
 40
0.017
  0
CIRCLE
  5
1BD
100
AcDbEntity
100
AcDbCircle
  8
0
 62
256
370
-1
  6
ByLayer
 10
0.9000000000000002
 20
-2.4000000000000004
 30
0.0
 40
0.017
  0
CIRCLE
  5
1BE
100
AcDbEntity
100
AcDbCircle
  8
0
 62
256
370
-1
  6
ByLayer
 10
0.9000000000000002
 20
-2.5000000000000004
 30
0.0
 40
0.017
  0
LINE
  5
1BF
100
AcDbEntity
100
AcDbLine
  8
0
 62
256
370
-1
  6
ByLayer
 10
0.9000000000000002
 20
-2.3000000000000003
 30
0.0
 11
0.9000000000000002
 21
-2.5000000000000004
 31
0.0
  0
CIRCLE
  5
1C0
100
AcDbEntity
100
AcDbCircle
  8
0
 62
256
370
-1
  6
ByLayer
 10
0.0000000000000002
 20
-0.0000000000000001
 30
0.0
 40
0.017
  0
CIRCLE
  5
1C1
100
AcDbEntity
100
AcDbCircle
  8
0
 62
256
370
-1
  6
ByLayer
 10
0.0000000000000002
 20
-0.1000000000000002
 30
0.0
 40
0.017
  0
CIRCLE
  5
1C2
100
AcDbEntity
100
AcDbCircle
  8
0
 62
256
370
-1
  6
ByLayer
 10
0.0000000000000002
 20
-0.2000000000000003
 30
0.0
 40
0.017
  0
LINE
  5
1C3
100
AcDbEntity
100
AcDbLine
  8
0
 62
256
370
-1
  6
ByLayer
 10
0.0000000000000002
 20
-0.0000000000000001
 30
0.0
 11
0.0000000000000002
 21
-0.2000000000000003
 31
0.0
  0
CIRCLE
  5
1C4
100
AcDbEntity
100
AcDbCircle
  8
0
 62
256
370
-1
  6
ByLayer
 10
-0.0999999999999998
 20
-0.2000000000000001
 30
0.0
 40
0.017
  0
CIRCLE
  5
1C5
100
AcDbEntity
100
AcDbCircle
  8
0
 62
256
370
-1
  6
ByLayer
 10
-0.0999999999999998
 20
-0.3000000000000002
 30
0.0
 40
0.017
  0
CIRCLE
  5
1C6
100
AcDbEntity
100
AcDbCircle
  8
0
 62
256
370
-1
  6
ByLayer
 10
-0.0999999999999998
 20
-0.4000000000000002
 30
0.0
 40
0.017
  0
LINE
  5
1C7
100
AcDbEntity
100
AcDbLine
  8
0
 62
256
370
-1
  6
ByLayer
 10
-0.0999999999999998
 20
-0.2000000000000001
 30
0.0
 11
-0.0999999999999998
 21
-0.4000000000000002
 31
0.0
  0
CIRCLE
  5
1C8
100
AcDbEntity
100
AcDbCircle
  8
0
 62
256
370
-1
  6
ByLayer
 10
0.0000000000000002
 20
-0.5
 30
0.0
 40
0.017
  0
CIRCLE
  5
1C9
100
AcDbEntity
100
AcDbCircle
  8
0
 62
256
370
-1
  6
ByLayer
 10
0.0000000000000002
 20
-0.6000000000000001
 30
0.0
 40
0.017
  0
CIRCLE
  5
1CA
100
AcDbEntity
100
AcDbCircle
  8
0
 62
256
370
-1
  6
ByLayer
 10
0.0000000000000002
 20
-0.7000000000000002
 30
0.0
 40
0.017
  0
LINE
  5
1CB
100
AcDbEntity
100
AcDbLine
  8
0
 62
256
370
-1
  6
ByLayer
 10
0.0000000000000002
 20
-0.5
 30
0.0
 11
0.0000000000000002
 21
-0.7000000000000002
 31
0.0
  0
CIRCLE
  5
1CC
100
AcDbEntity
100
AcDbCircle
  8
0
 62
256
370
-1
  6
ByLayer
 10
-0.0999999999999998
 20
-0.6000000000000001
 30
0.0
 40
0.017
  0
CIRCLE
  5
1CD
100
AcDbEntity
100
AcDbCircle
  8
0
 62
256
370
-1
  6
ByLayer
 10
-0.0999999999999998
 20
-0.7000000000000002
 30
0.0
 40
0.017
  0
CIRCLE
  5
1CE
100
AcDbEntity
100
AcDbCircle
  8
0
 62
256
370
-1
  6
ByLayer
 10
-0.0999999999999998
 20
-0.8000000000000003
 30
0.0
 40
0.017
  0
LINE
  5
1CF
100
AcDbEntity
100
AcDbLine
  8
0
 62
256
370
-1
  6
ByLayer
 10
-0.0999999999999998
 20
-0.6000000000000001
 30
0.0
 11
-0.0999999999999998
 21
-0.8000000000000003
 31
0.0
  0
CIRCLE
  5
1D0
100
AcDbEntity
100
AcDbCircle
  8
0
 62
256
370
-1
  6
ByLayer
 10
0.0000000000000002
 20
-1.0
 30
0.0
 40
0.017
  0
CIRCLE
  5
1D1
100
AcDbEntity
100
AcDbCircle
  8
0
 62
256
370
-1
  6
ByLayer
 10
0.0000000000000002
 20
-1.1000000000000001
 30
0.0
 40
0.017
  0
CIRCLE
  5
1D2
100
AcDbEntity
100
AcDbCircle
  8
0
 62
256
370
-1
  6
ByLayer
 10
0.0000000000000002
 20
-1.2000000000000002
 30
0.0
 40
0.017
  0
LINE
  5
1D3
100
AcDbEntity
100
AcDbLine
  8
0
 62
256
370
-1
  6
ByLayer
 10
0.0000000000000002
 20
-1.0
 30
0.0
 11
0.0000000000000002
 21
-1.2000000000000002
 31
0.0
  0
CIRCLE
  5
1D4
100
AcDbEntity
100
AcDbCircle
  8
0
 62
256
370
-1
  6
ByLayer
 10
-0.0999999999999998
 20
-1.0999999999999999
 30
0.0
 40
0.017
  0
CIRCLE
  5
1D5
100
AcDbEntity
100
AcDbCircle
  8
0
 62
256
370
-1
  6
ByLayer
 10
-0.0999999999999998
 20
-1.2
 30
0.0
 40
0.017
  0
CIRCLE
  5
1D6
100
AcDbEntity
100
AcDbCircle
  8
0
 62
256
370
-1
  6
ByLayer
 10
-0.0999999999999998
 20
-1.3
 30
0.0
 40
0.017
  0
LINE
  5
1D7
100
AcDbEntity
100
AcDbLine
  8
0
 62
256
370
-1
  6
ByLayer
 10
-0.0999999999999998
 20
-1.0999999999999999
 30
0.0
 11
-0.0999999999999998
 21
-1.3
 31
0.0
  0
CIRCLE
  5
1D8
100
AcDbEntity
100
AcDbCircle
  8
0
 62
256
370
-1
  6
ByLayer
 10
0.0000000000000002
 20
-1.3999999999999999
 30
0.0
 40
0.017
  0
CIRCLE
  5
1D9
100
AcDbEntity
100
AcDbCircle
  8
0
 62
256
370
-1
  6
ByLayer
 10
0.0000000000000002
 20
-1.5
 30
0.0
 40
0.017
  0
CIRCLE
  5
1DA
100
AcDbEntity
100
AcDbCircle
  8
0
 62
256
370
-1
  6
ByLayer
 10
0.0000000000000002
 20
-1.6000000000000001
 30
0.0
 40
0.017
  0
LINE
  5
1DB
100
AcDbEntity
100
AcDbLine
  8
0
 62
256
370
-1
  6
ByLayer
 10
0.0000000000000002
 20
-1.3999999999999999
 30
0.0
 11
0.0000000000000002
 21
-1.6000000000000001
 31
0.0
  0
CIRCLE
  5
1DC
100
AcDbEntity
100
AcDbCircle
  8
0
 62
256
370
-1
  6
ByLayer
 10
-0.0999999999999998
 20
-1.5
 30
0.0
 40
0.017
  0
CIRCLE
  5
1DD
100
AcDbEntity
100
AcDbCircle
  8
0
 62
256
370
-1
  6
ByLayer
 10
-0.0999999999999998
 20
-1.6000000000000001
 30
0.0
 40
0.017
  0
CIRCLE
  5
1DE
100
AcDbEntity
100
AcDbCircle
  8
0
 62
256
370
-1
  6
ByLayer
 10
-0.0999999999999998
 20
-1.7000000000000002
 30
0.0
 40
0.017
  0
LINE
  5
1DF
100
AcDbEntity
100
AcDbLine
  8
0
 62
256
370
-1
  6
ByLayer
 10
-0.0999999999999998
 20
-1.5
 30
0.0
 11
-0.0999999999999998
 21
-1.7000000000000002
 31
0.0
  0
CIRCLE
  5
1E0
100
AcDbEntity
100
AcDbCircle
  8
0
 62
256
370
-1
  6
ByLayer
 10
0.0000000000000002
 20
-1.7999999999999998
 30
0.0
 40
0.017
  0
CIRCLE
  5
1E1
100
AcDbEntity
100
AcDbCircle
  8
0
 62
256
370
-1
  6
ByLayer
 10
0.0000000000000002
 20
-1.8999999999999999
 30
0.0
 40
0.017
  0
CIRCLE
  5
1E2
100
AcDbEntity
100
AcDbCircle
  8
0
 62
256
370
-1
  6
ByLayer
 10
0.0000000000000002
 20
-2.0
 30
0.0
 40
0.017
  0
LINE
  5
1E3
100
AcDbEntity
100
AcDbLine
  8
0
 62
256
370
-1
  6
ByLayer
 10
0.0000000000000002
 20
-1.7999999999999998
 30
0.0
 11
0.0000000000000002
 21
-2.0
 31
0.0
  0
CIRCLE
  5
1E4
100
AcDbEntity
100
AcDbCircle
  8
0
 62
256
370
-1
  6
ByLayer
 10
-0.0999999999999998
 20
-1.8999999999999999
 30
0.0
 40
0.017
  0
CIRCLE
  5
1E5
100
AcDbEntity
100
AcDbCircle
  8
0
 62
256
370
-1
  6
ByLayer
 10
-0.0999999999999998
 20
-2.0
 30
0.0
 40
0.017
  0
CIRCLE
  5
1E6
100
AcDbEntity
100
AcDbCircle
  8
0
 62
256
370
-1
  6
ByLayer
 10
-0.0999999999999998
 20
-2.1000000000000001
 30
0.0
 40
0.017
  0
LINE
  5
1E7
100
AcDbEntity
100
AcDbLine
  8
0
 62
256
370
-1
  6
ByLayer
 10
-0.0999999999999998
 20
-1.8999999999999999
 30
0.0
 11
-0.0999999999999998
 21
-2.1000000000000001
 31
0.0
  0
CIRCLE
  5
1E8
100
AcDbEntity
100
AcDbCircle
  8
0
 62
256
370
-1
  6
ByLayer
 10
0.0000000000000002
 20
-2.1999999999999997
 30
0.0
 40
0.017
  0
CIRCLE
  5
1E9
100
AcDbEntity
100
AcDbCircle
  8
0
 62
256
370
-1
  6
ByLayer
 10
0.0000000000000002
 20
-2.2999999999999998
 30
0.0
 40
0.017
  0
CIRCLE
  5
1EA
100
AcDbEntity
100
AcDbCircle
  8
0
 62
256
370
-1
  6
ByLayer
 10
0.0000000000000002
 20
-2.3999999999999999
 30
0.0
 40
0.017
  0
LINE
  5
1EB
100
AcDbEntity
100
AcDbLine
  8
0
 62
256
370
-1
  6
ByLayer
 10
0.0000000000000002
 20
-2.1999999999999997
 30
0.0
 11
0.0000000000000002
 21
-2.3999999999999999
 31
0.0
  0
CIRCLE
  5
1EC
100
AcDbEntity
100
AcDbCircle
  8
0
 62
256
370
-1
  6
ByLayer
 10
1.1000000000000001
 20
-0.3000000000000003
 30
0.0
 40
0.017
  0
CIRCLE
  5
1ED
100
AcDbEntity
100
AcDbCircle
  8
0
 62
256
370
-1
  6
ByLayer
 10
1.2000000000000002
 20
-0.3000000000000003
 30
0.0
 40
0.017
  0
LINE
  5
1EE
100
AcDbEntity
100
AcDbLine
  8
0
 62
256
370
-1
  6
ByLayer
 10
1.1000000000000001
 20
-0.3000000000000003
 30
0.0
 11
1.2000000000000002
 21
-0.3000000000000003
 31
0.0
  0
CIRCLE
  5
1EF
100
AcDbEntity
100
AcDbCircle
  8
0
 62
256
370
-1
  6
ByLayer
 10
1.1000000000000001
 20
-0.4000000000000001
 30
0.0
 40
0.017
  0
CIRCLE
  5
1F0
100
AcDbEntity
100
AcDbCircle
  8
0
 62
256
370
-1
  6
ByLayer
 10
1.2000000000000002
 20
-0.4000000000000001
 30
0.0
 40
0.017
  0
LINE
  5
1F1
100
AcDbEntity
100
AcDbLine
  8
0
 62
256
370
-1
  6
ByLayer
 10
1.1000000000000001
 20
-0.4000000000000001
 30
0.0
 11
1.2000000000000002
 21
-0.4000000000000001
 31
0.0
  0
CIRCLE
  5
1F2
100
AcDbEntity
100
AcDbCircle
  8
0
 62
256
370
-1
  6
ByLayer
 10
1.1000000000000001
 20
-0.5000000000000002
 30
0.0
 40
0.017
  0
CIRCLE
  5
1F3
100
AcDbEntity
100
AcDbCircle
  8
0
 62
256
370
-1
  6
ByLayer
 10
1.2000000000000002
 20
-0.5000000000000002
 30
0.0
 40
0.017
  0
LINE
  5
1F4
100
AcDbEntity
100
AcDbLine
  8
0
 62
256
370
-1
  6
ByLayer
 10
1.1000000000000001
 20
-0.5000000000000002
 30
0.0
 11
1.2000000000000002
 21
-0.5000000000000002
 31
0.0
  0
CIRCLE
  5
1F5
100
AcDbEntity
100
AcDbCircle
  8
0
 62
256
370
-1
  6
ByLayer
 10
1.1000000000000001
 20
-0.6000000000000003
 30
0.0
 40
0.017
  0
CIRCLE
  5
1F6
100
AcDbEntity
100
AcDbCircle
  8
0
 62
256
370
-1
  6
ByLayer
 10
1.2000000000000002
 20
-0.6000000000000003
 30
0.0
 40
0.017
  0
LINE
  5
1F7
100
AcDbEntity
100
AcDbLine
  8
0
 62
256
370
-1
  6
ByLayer
 10
1.1000000000000001
 20
-0.6000000000000003
 30
0.0
 11
1.2000000000000002
 21
-0.6000000000000003
 31
0.0
  0
CIRCLE
  5
1F8
100
AcDbEntity
100
AcDbCircle
  8
0
 62
256
370
-1
  6
ByLayer
 10
1.1000000000000001
 20
-0.7000000000000002
 30
0.0
 40
0.017
  0
CIRCLE
  5
1F9
100
AcDbEntity
100
AcDbCircle
  8
0
 62
256
370
-1
  6
ByLayer
 10
1.2000000000000002
 20
-0.7000000000000002
 30
0.0
 40
0.017
  0
LINE
  5
1FA
100
AcDbEntity
100
AcDbLine
  8
0
 62
256
370
-1
  6
ByLayer
 10
1.1000000000000001
 20
-0.7000000000000002
 30
0.0
 11
1.2000000000000002
 21
-0.7000000000000002
 31
0.0
  0
CIRCLE
  5
1FB
100
AcDbEntity
100
AcDbCircle
  8
0
 62
256
370
-1
  6
ByLayer
 10
1.1000000000000001
 20
-0.8000000000000003
 30
0.0
 40
0.017
  0
CIRCLE
  5
1FC
100
AcDbEntity
100
AcDbCircle
  8
0
 62
256
370
-1
  6
ByLayer
 10
1.2000000000000002
 20
-0.8000000000000003
 30
0.0
 40
0.017
  0
LINE
  5
1FD
100
AcDbEntity
100
AcDbLine
  8
0
 62
256
370
-1
  6
ByLayer
 10
1.1000000000000001
 20
-0.8000000000000003
 30
0.0
 11
1.2000000000000002
 21
-0.8000000000000003
 31
0.0
  0
CIRCLE
  5
1FE
100
AcDbEntity
100
AcDbCircle
  8
0
 62
256
370
-1
  6
ByLayer
 10
1.1000000000000001
 20
-0.9000000000000004
 30
0.0
 40
0.017
  0
CIRCLE
  5
1FF
100
AcDbEntity
100
AcDbCircle
  8
0
 62
256
370
-1
  6
ByLayer
 10
1.2000000000000002
 20
-0.9000000000000004
 30
0.0
 40
0.017
  0
LINE
  5
200
100
AcDbEntity
100
AcDbLine
  8
0
 62
256
370
-1
  6
ByLayer
 10
1.1000000000000001
 20
-0.9000000000000004
 30
0.0
 11
1.2000000000000002
 21
-0.9000000000000004
 31
0.0
  0
CIRCLE
  5
201
100
AcDbEntity
100
AcDbCircle
  8
0
 62
256
370
-1
  6
ByLayer
 10
1.1000000000000001
 20
-1.0000000000000002
 30
0.0
 40
0.017
  0
CIRCLE
  5
202
100
AcDbEntity
100
AcDbCircle
  8
0
 62
256
370
-1
  6
ByLayer
 10
1.2000000000000002
 20
-1.0000000000000002
 30
0.0
 40
0.017
  0
LINE
  5
203
100
AcDbEntity
100
AcDbLine
  8
0
 62
256
370
-1
  6
ByLayer
 10
1.1000000000000001
 20
-1.0000000000000002
 30
0.0
 11
1.2000000000000002
 21
-1.0000000000000002
 31
0.0
  0
CIRCLE
  5
204
100
AcDbEntity
100
AcDbCircle
  8
0
 62
256
370
-1
  6
ByLayer
 10
1.1000000000000001
 20
-1.1000000000000001
 30
0.0
 40
0.017
  0
CIRCLE
  5
205
100
AcDbEntity
100
AcDbCircle
  8
0
 62
256
370
-1
  6
ByLayer
 10
1.2000000000000002
 20
-1.1000000000000001
 30
0.0
 40
0.017
  0
LINE
  5
206
100
AcDbEntity
100
AcDbLine
  8
0
 62
256
370
-1
  6
ByLayer
 10
1.1000000000000001
 20
-1.1000000000000001
 30
0.0
 11
1.2000000000000002
 21
-1.1000000000000001
 31
0.0
  0
CIRCLE
  5
207
100
AcDbEntity
100
AcDbCircle
  8
0
 62
256
370
-1
  6
ByLayer
 10
1.1000000000000001
 20
-1.2000000000000002
 30
0.0
 40
0.017
  0
CIRCLE
  5
208
100
AcDbEntity
100
AcDbCircle
  8
0
 62
256
370
-1
  6
ByLayer
 10
1.2000000000000002
 20
-1.2000000000000002
 30
0.0
 40
0.017
  0
LINE
  5
209
100
AcDbEntity
100
AcDbLine
  8
0
 62
256
370
-1
  6
ByLayer
 10
1.1000000000000001
 20
-1.2000000000000002
 30
0.0
 11
1.2000000000000002
 21
-1.2000000000000002
 31
0.0
  0
CIRCLE
  5
20A
100
AcDbEntity
100
AcDbCircle
  8
0
 62
256
370
-1
  6
ByLayer
 10
1.1000000000000001
 20
-1.3000000000000003
 30
0.0
 40
0.017
  0
CIRCLE
  5
20B
100
AcDbEntity
100
AcDbCircle
  8
0
 62
256
370
-1
  6
ByLayer
 10
1.2000000000000002
 20
-1.3000000000000003
 30
0.0
 40
0.017
  0
LINE
  5
20C
100
AcDbEntity
100
AcDbLine
  8
0
 62
256
370
-1
  6
ByLayer
 10
1.1000000000000001
 20
-1.3000000000000003
 30
0.0
 11
1.2000000000000002
 21
-1.3000000000000003
 31
0.0
  0
CIRCLE
  5
20D
100
AcDbEntity
100
AcDbCircle
  8
0
 62
256
370
-1
  6
ByLayer
 10
1.1000000000000001
 20
-1.4000000000000004
 30
0.0
 40
0.017
  0
CIRCLE
  5
20E
100
AcDbEntity
100
AcDbCircle
  8
0
 62
256
370
-1
  6
ByLayer
 10
1.2000000000000002
 20
-1.4000000000000004
 30
0.0
 40
0.017
  0
LINE
  5
20F
100
AcDbEntity
100
AcDbLine
  8
0
 62
256
370
-1
  6
ByLayer
 10
1.1000000000000001
 20
-1.4000000000000004
 30
0.0
 11
1.2000000000000002
 21
-1.4000000000000004
 31
0.0
  0
CIRCLE
  5
210
100
AcDbEntity
100
AcDbCircle
  8
0
 62
256
370
-1
  6
ByLayer
 10
1.1000000000000001
 20
-1.5000000000000002
 30
0.0
 40
0.017
  0
CIRCLE
  5
211
100
AcDbEntity
100
AcDbCircle
  8
0
 62
256
370
-1
  6
ByLayer
 10
1.2000000000000002
 20
-1.5000000000000002
 30
0.0
 40
0.017
  0
LINE
  5
212
100
AcDbEntity
100
AcDbLine
  8
0
 62
256
370
-1
  6
ByLayer
 10
1.1000000000000001
 20
-1.5000000000000002
 30
0.0
 11
1.2000000000000002
 21
-1.5000000000000002
 31
0.0
  0
CIRCLE
  5
213
100
AcDbEntity
100
AcDbCircle
  8
0
 62
256
370
-1
  6
ByLayer
 10
1.1000000000000001
 20
-1.6000000000000003
 30
0.0
 40
0.017
  0
CIRCLE
  5
214
100
AcDbEntity
100
AcDbCircle
  8
0
 62
256
370
-1
  6
ByLayer
 10
1.2000000000000002
 20
-1.6000000000000003
 30
0.0
 40
0.017
  0
LINE
  5
215
100
AcDbEntity
100
AcDbLine
  8
0
 62
256
370
-1
  6
ByLayer
 10
1.1000000000000001
 20
-1.6000000000000003
 30
0.0
 11
1.2000000000000002
 21
-1.6000000000000003
 31
0.0
  0
CIRCLE
  5
216
100
AcDbEntity
100
AcDbCircle
  8
0
 62
256
370
-1
  6
ByLayer
 10
1.1000000000000001
 20
-1.7000000000000004
 30
0.0
 40
0.017
  0
CIRCLE
  5
217
100
AcDbEntity
100
AcDbCircle
  8
0
 62
256
370
-1
  6
ByLayer
 10
1.2000000000000002
 20
-1.7000000000000004
 30
0.0
 40
0.017
  0
LINE
  5
218
100
AcDbEntity
100
AcDbLine
  8
0
 62
256
370
-1
  6
ByLayer
 10
1.1000000000000001
 20
-1.7000000000000004
 30
0.0
 11
1.2000000000000002
 21
-1.7000000000000004
 31
0.0
  0
CIRCLE
  5
219
100
AcDbEntity
100
AcDbCircle
  8
0
 62
256
370
-1
  6
ByLayer
 10
-0.2999999999999999
 20
-0.2000000000000001
 30
0.0
 40
0.017
  0
CIRCLE
  5
21A
100
AcDbEntity
100
AcDbCircle
  8
0
 62
256
370
-1
  6
ByLayer
 10
-0.1999999999999998
 20
-0.2000000000000001
 30
0.0
 40
0.017
  0
LINE
  5
21B
100
AcDbEntity
100
AcDbLine
  8
0
 62
256
370
-1
  6
ByLayer
 10
-0.2999999999999999
 20
-0.2000000000000001
 30
0.0
 11
-0.1999999999999998
 21
-0.2000000000000001
 31
0.0
  0
CIRCLE
  5
21C
100
AcDbEntity
100
AcDbCircle
  8
0
 62
256
370
-1
  6
ByLayer
 10
-0.2999999999999999
 20
-0.3000000000000003
 30
0.0
 40
0.017
  0
CIRCLE
  5
21D
100
AcDbEntity
100
AcDbCircle
  8
0
 62
256
370
-1
  6
ByLayer
 10
-0.1999999999999998
 20
-0.3000000000000003
 30
0.0
 40
0.017
  0
LINE
  5
21E
100
AcDbEntity
100
AcDbLine
  8
0
 62
256
370
-1
  6
ByLayer
 10
-0.2999999999999999
 20
-0.3000000000000003
 30
0.0
 11
-0.1999999999999998
 21
-0.3000000000000003
 31
0.0
  0
CIRCLE
  5
21F
100
AcDbEntity
100
AcDbCircle
  8
0
 62
256
370
-1
  6
ByLayer
 10
-0.2999999999999999
 20
-0.4000000000000001
 30
0.0
 40
0.017
  0
CIRCLE
  5
220
100
AcDbEntity
100
AcDbCircle
  8
0
 62
256
370
-1
  6
ByLayer
 10
-0.1999999999999998
 20
-0.4000000000000001
 30
0.0
 40
0.017
  0
LINE
  5
221
100
AcDbEntity
100
AcDbLine
  8
0
 62
256
370
-1
  6
ByLayer
 10
-0.2999999999999999
 20
-0.4000000000000001
 30
0.0
 11
-0.1999999999999998
 21
-0.4000000000000001
 31
0.0
  0
CIRCLE
  5
222
100
AcDbEntity
100
AcDbCircle
  8
0
 62
256
370
-1
  6
ByLayer
 10
-0.2999999999999999
 20
-0.5000000000000002
 30
0.0
 40
0.017
  0
CIRCLE
  5
223
100
AcDbEntity
100
AcDbCircle
  8
0
 62
256
370
-1
  6
ByLayer
 10
-0.1999999999999998
 20
-0.5000000000000002
 30
0.0
 40
0.017
  0
LINE
  5
224
100
AcDbEntity
100
AcDbLine
  8
0
 62
256
370
-1
  6
ByLayer
 10
-0.2999999999999999
 20
-0.5000000000000002
 30
0.0
 11
-0.1999999999999998
 21
-0.5000000000000002
 31
0.0
  0
CIRCLE
  5
225
100
AcDbEntity
100
AcDbCircle
  8
0
 62
256
370
-1
  6
ByLayer
 10
-0.2999999999999999
 20
-0.6000000000000003
 30
0.0
 40
0.017
  0
CIRCLE
  5
226
100
AcDbEntity
100
AcDbCircle
  8
0
 62
256
370
-1
  6
ByLayer
 10
-0.1999999999999998
 20
-0.6000000000000003
 30
0.0
 40
0.017
  0
LINE
  5
227
100
AcDbEntity
100
AcDbLine
  8
0
 62
256
370
-1
  6
ByLayer
 10
-0.2999999999999999
 20
-0.6000000000000003
 30
0.0
 11
-0.1999999999999998
 21
-0.6000000000000003
 31
0.0
  0
CIRCLE
  5
228
100
AcDbEntity
100
AcDbCircle
  8
0
 62
256
370
-1
  6
ByLayer
 10
-0.2999999999999999
 20
-0.7000000000000002
 30
0.0
 40
0.017
  0
CIRCLE
  5
229
100
AcDbEntity
100
AcDbCircle
  8
0
 62
256
370
-1
  6
ByLayer
 10
-0.1999999999999998
 20
-0.7000000000000002
 30
0.0
 40
0.017
  0
LINE
  5
22A
100
AcDbEntity
100
AcDbLine
  8
0
 62
256
370
-1
  6
ByLayer
 10
-0.2999999999999999
 20
-0.7000000000000002
 30
0.0
 11
-0.1999999999999998
 21
-0.7000000000000002
 31
0.0
  0
CIRCLE
  5
22B
100
AcDbEntity
100
AcDbCircle
  8
0
 62
256
370
-1
  6
ByLayer
 10
-0.2999999999999999
 20
-0.8000000000000003
 30
0.0
 40
0.017
  0
CIRCLE
  5
22C
100
AcDbEntity
100
AcDbCircle
  8
0
 62
256
370
-1
  6
ByLayer
 10
-0.1999999999999998
 20
-0.8000000000000003
 30
0.0
 40
0.017
  0
LINE
  5
22D
100
AcDbEntity
100
AcDbLine
  8
0
 62
256
370
-1
  6
ByLayer
 10
-0.2999999999999999
 20
-0.8000000000000003
 30
0.0
 11
-0.1999999999999998
 21
-0.8000000000000003
 31
0.0
  0
CIRCLE
  5
22E
100
AcDbEntity
100
AcDbCircle
  8
0
 62
256
370
-1
  6
ByLayer
 10
-0.2999999999999999
 20
-0.9000000000000004
 30
0.0
 40
0.017
  0
CIRCLE
  5
22F
100
AcDbEntity
100
AcDbCircle
  8
0
 62
256
370
-1
  6
ByLayer
 10
-0.1999999999999998
 20
-0.9000000000000004
 30
0.0
 40
0.017
  0
LINE
  5
230
100
AcDbEntity
100
AcDbLine
  8
0
 62
256
370
-1
  6
ByLayer
 10
-0.2999999999999999
 20
-0.9000000000000004
 30
0.0
 11
-0.1999999999999998
 21
-0.9000000000000004
 31
0.0
  0
CIRCLE
  5
231
100
AcDbEntity
100
AcDbCircle
  8
0
 62
256
370
-1
  6
ByLayer
 10
-0.2999999999999999
 20
-1.0000000000000002
 30
0.0
 40
0.017
  0
CIRCLE
  5
232
100
AcDbEntity
100
AcDbCircle
  8
0
 62
256
370
-1
  6
ByLayer
 10
-0.1999999999999998
 20
-1.0000000000000002
 30
0.0
 40
0.017
  0
LINE
  5
233
100
AcDbEntity
100
AcDbLine
  8
0
 62
256
370
-1
  6
ByLayer
 10
-0.2999999999999999
 20
-1.0000000000000002
 30
0.0
 11
-0.1999999999999998
 21
-1.0000000000000002
 31
0.0
  0
CIRCLE
  5
234
100
AcDbEntity
100
AcDbCircle
  8
0
 62
256
370
-1
  6
ByLayer
 10
-0.2999999999999999
 20
-1.1000000000000001
 30
0.0
 40
0.017
  0
CIRCLE
  5
235
100
AcDbEntity
100
AcDbCircle
  8
0
 62
256
370
-1
  6
ByLayer
 10
-0.1999999999999998
 20
-1.1000000000000001
 30
0.0
 40
0.017
  0
LINE
  5
236
100
AcDbEntity
100
AcDbLine
  8
0
 62
256
370
-1
  6
ByLayer
 10
-0.2999999999999999
 20
-1.1000000000000001
 30
0.0
 11
-0.1999999999999998
 21
-1.1000000000000001
 31
0.0
  0
CIRCLE
  5
237
100
AcDbEntity
100
AcDbCircle
  8
0
 62
256
370
-1
  6
ByLayer
 10
-0.2999999999999999
 20
-1.2000000000000002
 30
0.0
 40
0.017
  0
CIRCLE
  5
238
100
AcDbEntity
100
AcDbCircle
  8
0
 62
256
370
-1
  6
ByLayer
 10
-0.1999999999999998
 20
-1.2000000000000002
 30
0.0
 40
0.017
  0
LINE
  5
239
100
AcDbEntity
100
AcDbLine
  8
0
 62
256
370
-1
  6
ByLayer
 10
-0.2999999999999999
 20
-1.2000000000000002
 30
0.0
 11
-0.1999999999999998
 21
-1.2000000000000002
 31
0.0
  0
CIRCLE
  5
23A
100
AcDbEntity
100
AcDbCircle
  8
0
 62
256
370
-1
  6
ByLayer
 10
-0.2999999999999999
 20
-1.3000000000000003
 30
0.0
 40
0.017
  0
CIRCLE
  5
23B
100
AcDbEntity
100
AcDbCircle
  8
0
 62
256
370
-1
  6
ByLayer
 10
-0.1999999999999998
 20
-1.3000000000000003
 30
0.0
 40
0.017
  0
LINE
  5
23C
100
AcDbEntity
100
AcDbLine
  8
0
 62
256
370
-1
  6
ByLayer
 10
-0.2999999999999999
 20
-1.3000000000000003
 30
0.0
 11
-0.1999999999999998
 21
-1.3000000000000003
 31
0.0
  0
CIRCLE
  5
23D
100
AcDbEntity
100
AcDbCircle
  8
0
 62
256
370
-1
  6
ByLayer
 10
-0.2999999999999999
 20
-1.4000000000000004
 30
0.0
 40
0.017
  0
CIRCLE
  5
23E
100
AcDbEntity
100
AcDbCircle
  8
0
 62
256
370
-1
  6
ByLayer
 10
-0.1999999999999998
 20
-1.4000000000000004
 30
0.0
 40
0.017
  0
LINE
  5
23F
100
AcDbEntity
100
AcDbLine
  8
0
 62
256
370
-1
  6
ByLayer
 10
-0.2999999999999999
 20
-1.4000000000000004
 30
0.0
 11
-0.1999999999999998
 21
-1.4000000000000004
 31
0.0
  0
CIRCLE
  5
240
100
AcDbEntity
100
AcDbCircle
  8
0
 62
256
370
-1
  6
ByLayer
 10
-0.2999999999999999
 20
-1.5000000000000002
 30
0.0
 40
0.017
  0
CIRCLE
  5
241
100
AcDbEntity
100
AcDbCircle
  8
0
 62
256
370
-1
  6
ByLayer
 10
-0.1999999999999998
 20
-1.5000000000000002
 30
0.0
 40
0.017
  0
LINE
  5
242
100
AcDbEntity
100
AcDbLine
  8
0
 62
256
370
-1
  6
ByLayer
 10
-0.2999999999999999
 20
-1.5000000000000002
 30
0.0
 11
-0.1999999999999998
 21
-1.5000000000000002
 31
0.0
  0
CIRCLE
  5
243
100
AcDbEntity
100
AcDbCircle
  8
0
 62
256
370
-1
  6
ByLayer
 10
-0.2999999999999999
 20
-1.6000000000000003
 30
0.0
 40
0.017
  0
CIRCLE
  5
244
100
AcDbEntity
100
AcDbCircle
  8
0
 62
256
370
-1
  6
ByLayer
 10
-0.1999999999999998
 20
-1.6000000000000003
 30
0.0
 40
0.017
  0
LINE
  5
245
100
AcDbEntity
100
AcDbLine
  8
0
 62
256
370
-1
  6
ByLayer
 10
-0.2999999999999999
 20
-1.6000000000000003
 30
0.0
 11
-0.1999999999999998
 21
-1.6000000000000003
 31
0.0
  0
CIRCLE
  5
246
100
AcDbEntity
100
AcDbCircle
  8
0
 62
256
370
-1
  6
ByLayer
 10
-0.2999999999999999
 20
-1.7000000000000004
 30
0.0
 40
0.017
  0
CIRCLE
  5
247
100
AcDbEntity
100
AcDbCircle
  8
0
 62
256
370
-1
  6
ByLayer
 10
-0.1999999999999998
 20
-1.7000000000000004
 30
0.0
 40
0.017
  0
LINE
  5
248
100
AcDbEntity
100
AcDbLine
  8
0
 62
256
370
-1
  6
ByLayer
 10
-0.2999999999999999
 20
-1.7000000000000004
 30
0.0
 11
-0.1999999999999998
 21
-1.7000000000000004
 31
0.0
  0
CIRCLE
  5
249
100
AcDbEntity
100
AcDbCircle
  8
0
 62
256
370
-1
  6
ByLayer
 10
-0.2999999999999999
 20
-1.8000000000000003
 30
0.0
 40
0.017
  0
CIRCLE
  5
24A
100
AcDbEntity
100
AcDbCircle
  8
0
 62
256
370
-1
  6
ByLayer
 10
-0.1999999999999998
 20
-1.8000000000000003
 30
0.0
 40
0.017
  0
LINE
  5
24B
100
AcDbEntity
100
AcDbLine
  8
0
 62
256
370
-1
  6
ByLayer
 10
-0.2999999999999999
 20
-1.8000000000000003
 30
0.0
 11
-0.1999999999999998
 21
-1.8000000000000003
 31
0.0
  0
CIRCLE
  5
24C
100
AcDbEntity
100
AcDbCircle
  8
0
 62
256
370
-1
  6
ByLayer
 10
-0.2999999999999999
 20
-1.9000000000000004
 30
0.0
 40
0.017
  0
CIRCLE
  5
24D
100
AcDbEntity
100
AcDbCircle
  8
0
 62
256
370
-1
  6
ByLayer
 10
-0.1999999999999998
 20
-1.9000000000000004
 30
0.0
 40
0.017
  0
LINE
  5
24E
100
AcDbEntity
100
AcDbLine
  8
0
 62
256
370
-1
  6
ByLayer
 10
-0.2999999999999999
 20
-1.9000000000000004
 30
0.0
 11
-0.1999999999999998
 21
-1.9000000000000004
 31
0.0
  0
CIRCLE
  5
24F
100
AcDbEntity
100
AcDbCircle
  8
0
 62
256
370
-1
  6
ByLayer
 10
-0.2999999999999999
 20
-2.0
 30
0.0
 40
0.017
  0
CIRCLE
  5
250
100
AcDbEntity
100
AcDbCircle
  8
0
 62
256
370
-1
  6
ByLayer
 10
-0.1999999999999998
 20
-2.0
 30
0.0
 40
0.017
  0
LINE
  5
251
100
AcDbEntity
100
AcDbLine
  8
0
 62
256
370
-1
  6
ByLayer
 10
-0.2999999999999999
 20
-2.0
 30
0.0
 11
-0.1999999999999998
 21
-2.0
 31
0.0
  0
CIRCLE
  5
252
100
AcDbEntity
100
AcDbCircle
  8
0
 62
256
370
-1
  6
ByLayer
 10
-0.2999999999999999
 20
-2.1000000000000005
 30
0.0
 40
0.017
  0
CIRCLE
  5
253
100
AcDbEntity
100
AcDbCircle
  8
0
 62
256
370
-1
  6
ByLayer
 10
-0.1999999999999998
 20
-2.1000000000000005
 30
0.0
 40
0.017
  0
LINE
  5
254
100
AcDbEntity
100
AcDbLine
  8
0
 62
256
370
-1
  6
ByLayer
 10
-0.2999999999999999
 20
-2.1000000000000005
 30
0.0
 11
-0.1999999999999998
 21
-2.1000000000000005
 31
0.0
  0
CIRCLE
  5
255
100
AcDbEntity
100
AcDbCircle
  8
0
 62
256
370
-1
  6
ByLayer
 10
-0.2999999999999999
 20
-2.2000000000000002
 30
0.0
 40
0.017
  0
CIRCLE
  5
256
100
AcDbEntity
100
AcDbCircle
  8
0
 62
256
370
-1
  6
ByLayer
 10
-0.1999999999999998
 20
-2.2000000000000002
 30
0.0
 40
0.017
  0
LINE
  5
257
100
AcDbEntity
100
AcDbLine
  8
0
 62
256
370
-1
  6
ByLayer
 10
-0.2999999999999999
 20
-2.2000000000000002
 30
0.0
 11
-0.1999999999999998
 21
-2.2000000000000002
 31
0.0
  0
CIRCLE
  5
258
100
AcDbEntity
100
AcDbCircle
  8
0
 62
256
370
-1
  6
ByLayer
 10
-0.2999999999999999
 20
-2.3000000000000003
 30
0.0
 40
0.017
  0
CIRCLE
  5
259
100
AcDbEntity
100
AcDbCircle
  8
0
 62
256
370
-1
  6
ByLayer
 10
-0.1999999999999998
 20
-2.3000000000000003
 30
0.0
 40
0.017
  0
LINE
  5
25A
100
AcDbEntity
100
AcDbLine
  8
0
 62
256
370
-1
  6
ByLayer
 10
-0.2999999999999999
 20
-2.3000000000000003
 30
0.0
 11
-0.1999999999999998
 21
-2.3000000000000003
 31
0.0
  0
CIRCLE
  5
25B
100
AcDbEntity
100
AcDbCircle
  8
0
 62
256
370
-1
  6
ByLayer
 10
1.1000000000000001
 20
-1.8000000000000003
 30
0.0
 40
0.017
  0
CIRCLE
  5
25C
100
AcDbEntity
100
AcDbCircle
  8
0
 62
256
370
-1
  6
ByLayer
 10
1.2000000000000002
 20
-1.8000000000000003
 30
0.0
 40
0.017
  0
LINE
  5
25D
100
AcDbEntity
100
AcDbLine
  8
0
 62
256
370
-1
  6
ByLayer
 10
1.1000000000000001
 20
-1.8000000000000003
 30
0.0
 11
1.2000000000000002
 21
-1.8000000000000003
 31
0.0
  0
CIRCLE
  5
25E
100
AcDbEntity
100
AcDbCircle
  8
0
 62
256
370
-1
  6
ByLayer
 10
1.1000000000000001
 20
-1.9000000000000004
 30
0.0
 40
0.017
  0
CIRCLE
  5
25F
100
AcDbEntity
100
AcDbCircle
  8
0
 62
256
370
-1
  6
ByLayer
 10
1.2000000000000002
 20
-1.9000000000000004
 30
0.0
 40
0.017
  0
LINE
  5
260
100
AcDbEntity
100
AcDbLine
  8
0
 62
256
370
-1
  6
ByLayer
 10
1.1000000000000001
 20
-1.9000000000000004
 30
0.0
 11
1.2000000000000002
 21
-1.9000000000000004
 31
0.0
  0
CIRCLE
  5
261
100
AcDbEntity
100
AcDbCircle
  8
0
 62
256
370
-1
  6
ByLayer
 10
1.1000000000000001
 20
-2.0
 30
0.0
 40
0.017
  0
CIRCLE
  5
262
100
AcDbEntity
100
AcDbCircle
  8
0
 62
256
370
-1
  6
ByLayer
 10
1.2000000000000002
 20
-2.0
 30
0.0
 40
0.017
  0
LINE
  5
263
100
AcDbEntity
100
AcDbLine
  8
0
 62
256
370
-1
  6
ByLayer
 10
1.1000000000000001
 20
-2.0
 30
0.0
 11
1.2000000000000002
 21
-2.0
 31
0.0
  0
CIRCLE
  5
264
100
AcDbEntity
100
AcDbCircle
  8
0
 62
256
370
-1
  6
ByLayer
 10
1.1000000000000001
 20
-2.1000000000000005
 30
0.0
 40
0.017
  0
CIRCLE
  5
265
100
AcDbEntity
100
AcDbCircle
  8
0
 62
256
370
-1
  6
ByLayer
 10
1.2000000000000002
 20
-2.1000000000000005
 30
0.0
 40
0.017
  0
LINE
  5
266
100
AcDbEntity
100
AcDbLine
  8
0
 62
256
370
-1
  6
ByLayer
 10
1.1000000000000001
 20
-2.1000000000000005
 30
0.0
 11
1.2000000000000002
 21
-2.1000000000000005
 31
0.0
  0
CIRCLE
  5
267
100
AcDbEntity
100
AcDbCircle
  8
0
 62
256
370
-1
  6
ByLayer
 10
1.1000000000000001
 20
-2.2000000000000002
 30
0.0
 40
0.017
  0
CIRCLE
  5
268
100
AcDbEntity
100
AcDbCircle
  8
0
 62
256
370
-1
  6
ByLayer
 10
1.2000000000000002
 20
-2.2000000000000002
 30
0.0
 40
0.017
  0
LINE
  5
269
100
AcDbEntity
100
AcDbLine
  8
0
 62
256
370
-1
  6
ByLayer
 10
1.1000000000000001
 20
-2.2000000000000002
 30
0.0
 11
1.2000000000000002
 21
-2.2000000000000002
 31
0.0
  0
CIRCLE
  5
26A
100
AcDbEntity
100
AcDbCircle
  8
0
 62
256
370
-1
  6
ByLayer
 10
1.1000000000000001
 20
-2.3000000000000003
 30
0.0
 40
0.017
  0
CIRCLE
  5
26B
100
AcDbEntity
100
AcDbCircle
  8
0
 62
256
370
-1
  6
ByLayer
 10
1.2000000000000002
 20
-2.3000000000000003
 30
0.0
 40
0.017
  0
LINE
  5
26C
100
AcDbEntity
100
AcDbLine
  8
0
 62
256
370
-1
  6
ByLayer
 10
1.1000000000000001
 20
-2.3000000000000003
 30
0.0
 11
1.2000000000000002
 21
-2.3000000000000003
 31
0.0
  0
ENDBLK
  5
26D
100
AcDbEntity
  8
0
100
AcDbBlockEnd
  0
BLOCK
  5
26E
100
AcDbEntity
  8
0
100
AcDbBlockBegin
  2
SolderV-in
 70
0
 10
0.0
 20
0.0
 30
0.0
  3
SolderV-in
  1

  0
HATCH
  5
26F
  8
V- in (unregulated)
 62
256
370
-1
  6
ByLayer
100
AcDbEntity
100
AcDbHatch
 10
0.0
 20
0.0
 30
0.0
210
0.0
220
0.0
230
1.0
  2
SOLID
 70
1
 71
0
 91
1
 92
1
 93
1
 72
2
 10
0.0
 20
0.0
 40
0.0130000000000001
 50
0.0
 51
360.0
 73
1
 97
0
 75
0
 76
1
 98
0
  0
CIRCLE
  5
270
100
AcDbEntity
100
AcDbCircle
  8
V- in (unregulated)
 62
256
370
-1
  6
ByLayer
 10
0.0
 20
0.0
 30
0.0
 40
0.0130000000000001
  0
ENDBLK
  5
271
100
AcDbEntity
  8
0
100
AcDbBlockEnd
  0
BLOCK
  5
272
100
AcDbEntity
  8
0
100
AcDbBlockBegin
  2
SolderV-
 70
0
 10
0.0
 20
0.0
 30
0.0
  3
SolderV-
  1

  0
HATCH
  5
273
  8
V-
 62
256
370
-1
  6
ByLayer
100
AcDbEntity
100
AcDbHatch
 10
0.0
 20
0.0
 30
0.0
210
0.0
220
0.0
230
1.0
  2
SOLID
 70
1
 71
0
 91
1
 92
1
 93
1
 72
2
 10
0.0
 20
0.0
 40
0.0161245154965971
 50
0.0
 51
360.0
 73
1
 97
0
 75
0
 76
1
 98
0
  0
CIRCLE
  5
274
100
AcDbEntity
100
AcDbCircle
  8
V-
 62
256
370
-1
  6
ByLayer
 10
0.0
 20
0.0
 30
0.0
 40
0.0161245154965971
  0
ENDBLK
  5
275
100
AcDbEntity
  8
0
100
AcDbBlockEnd
  0
BLOCK
  5
276
100
AcDbEntity
  8
0
100
AcDbBlockBegin
  2
SolderV+in
 70
0
 10
0.0
 20
0.0
 30
0.0
  3
SolderV+in
  1

  0
HATCH
  5
277
  8
V+ in (unregulated)
 62
256
370
-1
  6
ByLayer
100
AcDbEntity
100
AcDbHatch
 10
0.0
 20
0.0
 30
0.0
210
0.0
220
0.0
230
1.0
  2
SOLID
 70
1
 71
0
 91
1
 92
1
 93
1
 72
2
 10
0.0
 20
0.0
 40
0.0149671867947322
 50
0.0
 51
360.0
 73
1
 97
0
 75
0
 76
1
 98
0
  0
CIRCLE
  5
278
100
AcDbEntity
100
AcDbCircle
  8
V+ in (unregulated)
 62
256
370
-1
  6
ByLayer
 10
0.0
 20
0.0
 30
0.0
 40
0.0149671867947322
  0
ENDBLK
  5
279
100
AcDbEntity
  8
0
100
AcDbBlockEnd
  0
BLOCK
  5
27A
100
AcDbEntity
  8
0
100
AcDbBlockBegin
  2
SolderV+
 70
0
 10
0.0
 20
0.0
 30
0.0
  3
SolderV+
  1

  0
HATCH
  5
27B
  8
V+
 62
256
370
-1
  6
ByLayer
100
AcDbEntity
100
AcDbHatch
 10
0.0
 20
0.0
 30
0.0
210
0.0
220
0.0
230
1.0
  2
SOLID
 70
1
 71
0
 91
1
 92
1
 93
1
 72
2
 10
0.0
 20
0.0
 40
0.0125500506159673
 50
0.0
 51
360.0
 73
1
 97
0
 75
0
 76
1
 98
0
  0
CIRCLE
  5
27C
100
AcDbEntity
100
AcDbCircle
  8
V+
 62
256
370
-1
  6
ByLayer
 10
0.0
 20
0.0
 30
0.0
 40
0.0125500506159673
  0
ENDBLK
  5
27D
100
AcDbEntity
  8
0
100
AcDbBlockEnd
  0
BLOCK
  5
27E
100
AcDbEntity
  8
0
100
AcDbBlockBegin
  2
ResistorV-
 70
0
 10
0.0
 20
0.0
 30
0.0
  3
ResistorV-
  1

  0
LINE
  5
27F
100
AcDbEntity
100
AcDbLine
  8
V-
 62
256
370
-1
  6
ByLayer
 10
0.0
 20
0.0
 30
0.0
 11
0.0
 21
-0.02
 31
0.0
  0
LINE
  5
280
100
AcDbEntity
100
AcDbLine
  8
V-
 62
256
370
-1
  6
ByLayer
 10
0.0
 20
-0.02
 30
0.0
 11
0.0199999999999998
 21
-0.04
 31
0.0
  0
LINE
  5
281
100
AcDbEntity
100
AcDbLine
  8
V-
 62
256
370
-1
  6
ByLayer
 10
0.0199999999999998
 20
-0.04
 30
0.0
 11
-0.01
 21
-0.05
 31
0.0
  0
LINE
  5
282
100
AcDbEntity
100
AcDbLine
  8
V-
 62
256
370
-1
  6
ByLayer
 10
-0.01
 20
-0.05
 30
0.0
 11
0.0199999999999998
 21
-0.07
 31
0.0
  0
LINE
  5
283
100
AcDbEntity
100
AcDbLine
  8
V-
 62
256
370
-1
  6
ByLayer
 10
0.0199999999999998
 20
-0.07
 30
0.0
 11
0.0
 21
-0.08
 31
0.0
  0
LINE
  5
284
100
AcDbEntity
100
AcDbLine
  8
V-
 62
256
370
-1
  6
ByLayer
 10
0.0
 20
-0.08
 30
0.0
 11
0.0
 21
-0.1
 31
0.0
  0
ENDBLK
  5
285
100
AcDbEntity
  8
0
100
AcDbBlockEnd
  0
BLOCK
  5
286
100
AcDbEntity
  8
0
100
AcDbBlockBegin
  2
DiodeV+
 70
0
 10
0.0
 20
0.0
 30
0.0
  3
DiodeV+
  1

  0
LINE
  5
287
100
AcDbEntity
100
AcDbLine
  8
V+
 62
256
370
-1
  6
ByLayer
 10
0.0
 20
0.0
 30
0.0
 11
0.0
 21
-0.03
 31
0.0
  0
LINE
  5
288
100
AcDbEntity
100
AcDbLine
  8
V+
 62
256
370
-1
  6
ByLayer
 10
-0.02
 20
-0.03
 30
0.0
 11
0.02
 21
-0.03
 31
0.0
  0
LINE
  5
289
100
AcDbEntity
100
AcDbLine
  8
V+
 62
256
370
-1
  6
ByLayer
 10
0.0
 20
-0.03
 30
0.0
 11
-0.02
 21
-0.0600000000000001
 31
0.0
  0
LINE
  5
28A
100
AcDbEntity
100
AcDbLine
  8
V+
 62
256
370
-1
  6
ByLayer
 10
-0.02
 20
-0.0600000000000001
 30
0.0
 11
0.02
 21
-0.0600000000000001
 31
0.0
  0
LINE
  5
28B
100
AcDbEntity
100
AcDbLine
  8
V+
 62
256
370
-1
  6
ByLayer
 10
0.02
 20
-0.0600000000000001
 30
0.0
 11
0.0
 21
-0.03
 31
0.0
  0
LINE
  5
28C
100
AcDbEntity
100
AcDbLine
  8
V+
 62
256
370
-1
  6
ByLayer
 10
0.0
 20
-0.0600000000000001
 30
0.0
 11
0.0
 21
-0.1
 31
0.0
  0
ENDBLK
  5
28D
100
AcDbEntity
  8
0
100
AcDbBlockEnd
  0
BLOCK
  5
28E
100
AcDbEntity
  8
0
100
AcDbBlockBegin
  2
ResistorV+
 70
0
 10
0.0
 20
0.0
 30
0.0
  3
ResistorV+
  1

  0
LINE
  5
28F
100
AcDbEntity
100
AcDbLine
  8
V+
 62
256
370
-1
  6
ByLayer
 10
0.0
 20
0.0
 30
0.0
 11
0.0
 21
-0.02
 31
0.0
  0
LINE
  5
290
100
AcDbEntity
100
AcDbLine
  8
V+
 62
256
370
-1
  6
ByLayer
 10
0.0
 20
-0.02
 30
0.0
 11
0.02
 21
-0.04
 31
0.0
  0
LINE
  5
291
100
AcDbEntity
100
AcDbLine
  8
V+
 62
256
370
-1
  6
ByLayer
 10
0.02
 20
-0.04
 30
0.0
 11
-0.01
 21
-0.05
 31
0.0
  0
LINE
  5
292
100
AcDbEntity
100
AcDbLine
  8
V+
 62
256
370
-1
  6
ByLayer
 10
-0.01
 20
-0.05
 30
0.0
 11
0.02
 21
-0.07
 31
0.0
  0
LINE
  5
293
100
AcDbEntity
100
AcDbLine
  8
V+
 62
256
370
-1
  6
ByLayer
 10
0.02
 20
-0.07
 30
0.0
 11
0.0
 21
-0.08
 31
0.0
  0
LINE
  5
294
100
AcDbEntity
100
AcDbLine
  8
V+
 62
256
370
-1
  6
ByLayer
 10
0.0
 20
-0.08
 30
0.0
 11
0.0
 21
-0.1
 31
0.0
  0
ENDBLK
  5
295
100
AcDbEntity
  8
0
100
AcDbBlockEnd
  0
BLOCK
  5
296
100
AcDbEntity
  8
0
100
AcDbBlockBegin
  2
DiodeV-
 70
0
 10
0.0
 20
0.0
 30
0.0
  3
DiodeV-
  1

  0
LINE
  5
297
100
AcDbEntity
100
AcDbLine
  8
V-
 62
256
370
-1
  6
ByLayer
 10
0.0
 20
0.0
 30
0.0
 11
0.0
 21
-0.03
 31
0.0
  0
LINE
  5
298
100
AcDbEntity
100
AcDbLine
  8
V-
 62
256
370
-1
  6
ByLayer
 10
0.0
 20
-0.03
 30
0.0
 11
-0.02
 21
-0.0599999999999999
 31
0.0
  0
LINE
  5
299
100
AcDbEntity
100
AcDbLine
  8
V-
 62
256
370
-1
  6
ByLayer
 10
-0.02
 20
-0.0599999999999999
 30
0.0
 11
0.02
 21
-0.0599999999999999
 31
0.0
  0
LINE
  5
29A
100
AcDbEntity
100
AcDbLine
  8
V-
 62
256
370
-1
  6
ByLayer
 10
0.02
 20
-0.0599999999999999
 30
0.0
 11
0.0
 21
-0.03
 31
0.0
  0
LINE
  5
29B
100
AcDbEntity
100
AcDbLine
  8
V-
 62
256
370
-1
  6
ByLayer
 10
-0.02
 20
-0.03
 30
0.0
 11
0.02
 21
-0.03
 31
0.0
  0
LINE
  5
29C
100
AcDbEntity
100
AcDbLine
  8
V-
 62
256
370
-1
  6
ByLayer
 10
0.0
 20
-0.0599999999999999
 30
0.0
 11
0.0
 21
-0.1
 31
0.0
  0
ENDBLK
  5
29D
100
AcDbEntity
  8
0
100
AcDbBlockEnd
  0
BLOCK
  5
29E
100
AcDbEntity
  8
0
100
AcDbBlockBegin
  2
ElectrolyticCapV+
 70
0
 10
0.0
 20
0.0
 30
0.0
  3
ElectrolyticCapV+
  1

  0
LINE
  5
29F
100
AcDbEntity
100
AcDbLine
  8
V+
 62
256
370
-1
  6
ByLayer
 10
0.0
 20
0.0
 30
0.0
 11
0.0
 21
-0.04
 31
0.0
  0
LINE
  5
2A0
100
AcDbEntity
100
AcDbLine
  8
V+
 62
256
370
-1
  6
ByLayer
 10
-0.02
 20
-0.04
 30
0.0
 11
0.02
 21
-0.04
 31
0.0
  0
ARC
  5
2A1
100
AcDbEntity
  8
V+
 62
256
370
-1
  6
ByLayer
100
AcDbCircle
 10
0.0
 20
-0.1
 30
0.0
 40
0.0499999999999999
100
AcDbArc
 50
63.4349488229222587
 51
116.56505117707799
  0
LINE
  5
2A2
100
AcDbEntity
100
AcDbLine
  8
V+
 62
256
370
-1
  6
ByLayer
 10
0.0
 20
-0.05
 30
0.0
 11
0.0
 21
-0.1
 31
0.0
  0
ENDBLK
  5
2A3
100
AcDbEntity
  8
0
100
AcDbBlockEnd
  0
BLOCK
  5
2A4
100
AcDbEntity
  8
0
100
AcDbBlockBegin
  2
ElectrolyticCapV-
 70
0
 10
0.0
 20
0.0
 30
0.0
  3
ElectrolyticCapV-
  1

  0
LINE
  5
2A5
100
AcDbEntity
100
AcDbLine
  8
V-
 62
256
370
-1
  6
ByLayer
 10
0.0
 20
0.0
 30
0.0
 11
0.0
 21
-0.04
 31
0.0
  0
LINE
  5
2A6
100
AcDbEntity
100
AcDbLine
  8
V-
 62
256
370
-1
  6
ByLayer
 10
0.0
 20
-0.04
 30
0.0
 11
-0.02
 21
-0.04
 31
0.0
  0
LINE
  5
2A7
100
AcDbEntity
100
AcDbLine
  8
V-
 62
256
370
-1
  6
ByLayer
 10
-0.02
 20
-0.04
 30
0.0
 11
0.02
 21
-0.04
 31
0.0
  0
LINE
  5
2A8
100
AcDbEntity
100
AcDbLine
  8
V-
 62
256
370
-1
  6
ByLayer
 10
0.0
 20
-0.05
 30
0.0
 11
0.0
 21
-0.1
 31
0.0
  0
ARC
  5
2A9
100
AcDbEntity
  8
V-
 62
256
370
-1
  6
ByLayer
100
AcDbCircle
 10
0.0
 20
-0.1
 30
0.0
 40
0.05
100
AcDbArc
 50
68.1985905136481847
 51
111.8014094863518153
  0
ENDBLK
  5
2AA
100
AcDbEntity
  8
0
100
AcDbBlockEnd
  0
BLOCK
  5
2AB
100
AcDbEntity
  8
0
100
AcDbBlockBegin
  2
SolderGnd
 70
0
 10
0.0
 20
0.0
 30
0.0
  3
SolderGnd
  1

  0
HATCH
  5
2AC
  8
Ground
 62
256
370
-1
  6
ByLayer
100
AcDbEntity
100
AcDbHatch
 10
0.0
 20
0.0
 30
0.0
210
0.0
220
0.0
230
1.0
  2
SOLID
 70
1
 71
0
 91
1
 92
1
 93
1
 72
2
 10
0.0
 20
0.0
 40
0.0136014705087355
 50
0.0
 51
360.0
 73
1
 97
0
 75
0
 76
1
 98
0
  0
CIRCLE
  5
2AD
100
AcDbEntity
100
AcDbCircle
  8
Ground
 62
256
370
-1
  6
ByLayer
 10
0.0
 20
0.0
 30
0.0
 40
0.0136014705087355
  0
ENDBLK
  5
2AE
100
AcDbEntity
  8
0
100
AcDbBlockEnd
  0
BLOCK
  5
2AF
100
AcDbEntity
  8
0
100
AcDbBlockBegin
  2
RegulatorAIO_V+
 70
0
 10
0.0
 20
0.0
 30
0.0
  3
RegulatorAIO_V+
  1

  0
HATCH
  5
2B0
  8
V+
 62
256
370
-1
  6
ByLayer
100
AcDbEntity
100
AcDbHatch
 10
0.0
 20
0.0
 30
0.0
210
0.0
220
0.0
230
1.0
  2
kerpele
 70
0
 71
0
 91
1
 92
1
 93
4
 72
1
 10
0.0
 20
0.0
 11
0.2400000000000002
 21
0.0
 72
1
 10
0.2400000000000002
 20
0.0
 11
0.2400000000000002
 21
-0.04
 72
1
 10
0.2400000000000002
 20
-0.04
 11
0.0
 21
-0.04
 72
1
 10
0.0
 20
-0.04
 11
0.0
 21
0.0
 97
0
 75
0
 76
1
 52
0.0
 41
0.002
 77
0
 78
1
 53
45.0
 43
0.0
 44
0.0
 45
-0.0883883476483184
 46
0.0883883476483185
 79
0
 98
0
  0
LINE
  5
2B1
100
AcDbEntity
100
AcDbLine
  8
V+
 62
256
370
-1
  6
ByLayer
 10
0.0
 20
0.0
 30
0.0
 11
0.2400000000000002
 21
0.0
 31
0.0
  0
LINE
  5
2B2
100
AcDbEntity
100
AcDbLine
  8
V+
 62
256
370
-1
  6
ByLayer
 10
0.2400000000000002
 20
0.0
 30
0.0
 11
0.2400000000000002
 21
-0.04
 31
0.0
  0
LINE
  5
2B3
100
AcDbEntity
100
AcDbLine
  8
V+
 62
256
370
-1
  6
ByLayer
 10
0.2400000000000002
 20
-0.04
 30
0.0
 11
0.0
 21
-0.04
 31
0.0
  0
LINE
  5
2B4
100
AcDbEntity
100
AcDbLine
  8
V+
 62
256
370
-1
  6
ByLayer
 10
0.0
 20
-0.04
 30
0.0
 11
0.0
 21
0.0
 31
0.0
  0
MTEXT
  5
2B5
100
AcDbEntity
100
AcDbMText
  8
V+
 62
256
370
-1
  6
ByLayer
 10
0.2064877715848539
 20
-0.0453614388804968
 30
0.0
 40
0.02
 41
100.0
 71
1
 72
0
  1
O
  7
normallatin1
 50
0.0
 73
1
 44
1.0
  0
MTEXT
  5
2B6
100
AcDbEntity
100
AcDbMText
  8
V+
 62
256
370
-1
  6
ByLayer
 10
0.0205291571711574
 20
-0.0491410855149215
 30
0.0
 40
0.02
 41
100.0
 71
1
 72
0
  1
A
  7
normallatin1
 50
0.0
 73
1
 44
1.0
  0
MTEXT
  5
2B7
100
AcDbEntity
100
AcDbMText
  8
V+
 62
256
370
-1
  6
ByLayer
 10
0.1210677576468551
 20
-0.0476292268611516
 30
0.0
 40
0.02
 41
100.0
 71
1
 72
0
  1
I
  7
normallatin1
 50
0.0
 73
1
 44
1.0
  0
ENDBLK
  5
2B8
100
AcDbEntity
  8
0
100
AcDbBlockEnd
  0
BLOCK
  5
2B9
100
AcDbEntity
  8
0
100
AcDbBlockBegin
  2
RegulatorIOA_V+
 70
0
 10
0.0
 20
0.0
 30
0.0
  3
RegulatorIOA_V+
  1

  0
HATCH
  5
2BA
  8
V+
 62
256
370
-1
  6
ByLayer
100
AcDbEntity
100
AcDbHatch
 10
0.0
 20
0.0
 30
0.0
210
0.0
220
0.0
230
1.0
  2
kerpele
 70
0
 71
0
 91
1
 92
1
 93
4
 72
1
 10
0.0
 20
0.0
 11
0.2400000000000002
 21
0.0
 72
1
 10
0.2400000000000002
 20
0.0
 11
0.2400000000000002
 21
-0.0400000000000003
 72
1
 10
0.2400000000000002
 20
-0.0400000000000003
 11
0.0
 21
-0.04
 72
1
 10
0.0
 20
-0.04
 11
0.0
 21
0.0
 97
0
 75
0
 76
1
 52
0.0
 41
0.002
 77
0
 78
1
 53
45.0
 43
0.0
 44
0.0
 45
-0.0883883476483184
 46
0.0883883476483185
 79
0
 98
0
  0
LINE
  5
2BB
100
AcDbEntity
100
AcDbLine
  8
V+
 62
256
370
-1
  6
ByLayer
 10
0.0
 20
0.0
 30
0.0
 11
0.2400000000000002
 21
0.0
 31
0.0
  0
LINE
  5
2BC
100
AcDbEntity
100
AcDbLine
  8
V+
 62
256
370
-1
  6
ByLayer
 10
0.2400000000000002
 20
0.0
 30
0.0
 11
0.2400000000000002
 21
-0.0400000000000003
 31
0.0
  0
LINE
  5
2BD
100
AcDbEntity
100
AcDbLine
  8
V+
 62
256
370
-1
  6
ByLayer
 10
0.2400000000000002
 20
-0.0400000000000003
 30
0.0
 11
0.0
 21
-0.04
 31
0.0
  0
LINE
  5
2BE
100
AcDbEntity
100
AcDbLine
  8
V+
 62
256
370
-1
  6
ByLayer
 10
0.0
 20
-0.04
 30
0.0
 11
0.0
 21
0.0
 31
0.0
  0
MTEXT
  5
2BF
100
AcDbEntity
100
AcDbMText
  8
V+
 62
256
370
-1
  6
ByLayer
 10
0.1186790236308377
 20
-0.043836351629569
 30
0.0
 40
0.02
 41
100.0
 71
1
 72
0
  1
O
  7
normallatin1
 50
0.0
 73
1
 44
1.0
  0
MTEXT
  5
2C0
100
AcDbEntity
100
AcDbMText
  8
V+
 62
256
370
-1
  6
ByLayer
 10
0.2222111042410002
 20
-0.0433525568603625
 30
0.0
 40
0.02
 41
100.0
 71
1
 72
0
  1
A
  7
normallatin1
 50
0.0
 73
1
 44
1.0
  0
MTEXT
  5
2C1
100
AcDbEntity
100
AcDbMText
  8
V+
 62
256
370
-1
  6
ByLayer
 10
0.0291769913276598
 20
-0.0448039411679817
 30
0.0
 40
0.02
 41
100.0
 71
1
 72
0
  1
I
  7
normallatin1
 50
0.0
 73
1
 44
1.0
  0
ENDBLK
  5
2C2
100
AcDbEntity
  8
0
100
AcDbBlockEnd
  0
BLOCK
  5
2C3
100
AcDbEntity
  8
0
100
AcDbBlockBegin
  2
RegulatorAIO_V-
 70
0
 10
0.0
 20
0.0
 30
0.0
  3
RegulatorAIO_V-
  1

  0
HATCH
  5
2C4
  8
V-
 62
256
370
-1
  6
ByLayer
100
AcDbEntity
100
AcDbHatch
 10
0.0
 20
0.0
 30
0.0
210
0.0
220
0.0
230
1.0
  2
kerpele
 70
0
 71
0
 91
1
 92
1
 93
4
 72
1
 10
0.0
 20
0.0
 11
0.2400000000000002
 21
0.0
 72
1
 10
0.2400000000000002
 20
0.0
 11
0.2400000000000002
 21
-0.0400000000000003
 72
1
 10
0.2400000000000002
 20
-0.0400000000000003
 11
0.0
 21
-0.04
 72
1
 10
0.0
 20
-0.04
 11
0.0
 21
0.0
 97
0
 75
0
 76
1
 52
0.0
 41
0.002
 77
0
 78
1
 53
45.0
 43
0.0
 44
0.0
 45
-0.0883883476483184
 46
0.0883883476483185
 79
0
 98
0
  0
LINE
  5
2C5
100
AcDbEntity
100
AcDbLine
  8
V-
 62
256
370
-1
  6
ByLayer
 10
0.0
 20
0.0
 30
0.0
 11
0.2400000000000002
 21
0.0
 31
0.0
  0
LINE
  5
2C6
100
AcDbEntity
100
AcDbLine
  8
V-
 62
256
370
-1
  6
ByLayer
 10
0.2400000000000002
 20
0.0
 30
0.0
 11
0.2400000000000002
 21
-0.0400000000000003
 31
0.0
  0
LINE
  5
2C7
100
AcDbEntity
100
AcDbLine
  8
V-
 62
256
370
-1
  6
ByLayer
 10
0.2400000000000002
 20
-0.0400000000000003
 30
0.0
 11
0.0
 21
-0.04
 31
0.0
  0
LINE
  5
2C8
100
AcDbEntity
100
AcDbLine
  8
V-
 62
256
370
-1
  6
ByLayer
 10
0.0
 20
-0.04
 30
0.0
 11
0.0
 21
0.0
 31
0.0
  0
MTEXT
  5
2C9
100
AcDbEntity
100
AcDbMText
  8
V-
 62
256
370
-1
  6
ByLayer
 10
0.2064877715848539
 20
-0.045361438880497
 30
0.0
 40
0.02
 41
100.0
 71
1
 72
0
  1
O
  7
normallatin1
 50
0.0
 73
1
 44
1.0
  0
MTEXT
  5
2CA
100
AcDbEntity
100
AcDbMText
  8
V-
 62
256
370
-1
  6
ByLayer
 10
0.0205291571711574
 20
-0.0491410855149215
 30
0.0
 40
0.02
 41
100.0
 71
1
 72
0
  1
A
  7
normallatin1
 50
0.0
 73
1
 44
1.0
  0
MTEXT
  5
2CB
100
AcDbEntity
100
AcDbMText
  8
V-
 62
256
370
-1
  6
ByLayer
 10
0.1210677576468551
 20
-0.0476292268611516
 30
0.0
 40
0.02
 41
100.0
 71
1
 72
0
  1
I
  7
normallatin1
 50
0.0
 73
1
 44
1.0
  0
ENDBLK
  5
2CC
100
AcDbEntity
  8
0
100
AcDbBlockEnd
  0
BLOCK
  5
2CD
100
AcDbEntity
  8
0
100
AcDbBlockBegin
  2
ResistorV+in
 70
0
 10
0.0
 20
0.0
 30
0.0
  3
ResistorV+in
  1

  0
LINE
  5
2CE
100
AcDbEntity
100
AcDbLine
  8
V+ in (unregulated)
 62
256
370
-1
  6
ByLayer
 10
0.0
 20
0.0
 30
0.0
 11
0.0
 21
-0.02
 31
0.0
  0
LINE
  5
2CF
100
AcDbEntity
100
AcDbLine
  8
V+ in (unregulated)
 62
256
370
-1
  6
ByLayer
 10
0.0
 20
-0.02
 30
0.0
 11
0.02
 21
-0.04
 31
0.0
  0
LINE
  5
2D0
100
AcDbEntity
100
AcDbLine
  8
V+ in (unregulated)
 62
256
370
-1
  6
ByLayer
 10
0.02
 20
-0.04
 30
0.0
 11
-0.02
 21
-0.05
 31
0.0
  0
LINE
  5
2D1
100
AcDbEntity
100
AcDbLine
  8
V+ in (unregulated)
 62
256
370
-1
  6
ByLayer
 10
-0.02
 20
-0.05
 30
0.0
 11
0.02
 21
-0.0700000000000001
 31
0.0
  0
LINE
  5
2D2
100
AcDbEntity
100
AcDbLine
  8
V+ in (unregulated)
 62
256
370
-1
  6
ByLayer
 10
0.02
 20
-0.0700000000000001
 30
0.0
 11
0.0
 21
-0.0800000000000001
 31
0.0
  0
LINE
  5
2D3
100
AcDbEntity
100
AcDbLine
  8
V+ in (unregulated)
 62
256
370
-1
  6
ByLayer
 10
0.0
 20
-0.0800000000000001
 30
0.0
 11
0.0
 21
-0.1000000000000001
 31
0.0
  0
ENDBLK
  5
2D4
100
AcDbEntity
  8
0
100
AcDbBlockEnd
  0
BLOCK
  5
2D5
100
AcDbEntity
  8
0
100
AcDbBlockBegin
  2
ResistorV-in
 70
0
 10
0.0
 20
0.0
 30
0.0
  3
ResistorV-in
  1

  0
LINE
  5
2D6
100
AcDbEntity
100
AcDbLine
  8
V- in (unregulated)
 62
256
370
-1
  6
ByLayer
 10
0.0
 20
0.0
 30
0.0
 11
0.0
 21
-0.02
 31
0.0
  0
LINE
  5
2D7
100
AcDbEntity
100
AcDbLine
  8
V- in (unregulated)
 62
256
370
-1
  6
ByLayer
 10
0.0
 20
-0.02
 30
0.0
 11
0.02
 21
-0.04
 31
0.0
  0
LINE
  5
2D8
100
AcDbEntity
100
AcDbLine
  8
V- in (unregulated)
 62
256
370
-1
  6
ByLayer
 10
0.02
 20
-0.04
 30
0.0
 11
-0.02
 21
-0.05
 31
0.0
  0
LINE
  5
2D9
100
AcDbEntity
100
AcDbLine
  8
V- in (unregulated)
 62
256
370
-1
  6
ByLayer
 10
-0.02
 20
-0.05
 30
0.0
 11
0.02
 21
-0.0700000000000001
 31
0.0
  0
LINE
  5
2DA
100
AcDbEntity
100
AcDbLine
  8
V- in (unregulated)
 62
256
370
-1
  6
ByLayer
 10
0.02
 20
-0.0700000000000001
 30
0.0
 11
0.0
 21
-0.0800000000000001
 31
0.0
  0
LINE
  5
2DB
100
AcDbEntity
100
AcDbLine
  8
V- in (unregulated)
 62
256
370
-1
  6
ByLayer
 10
0.0
 20
-0.0800000000000001
 30
0.0
 11
0.0
 21
-0.1000000000000001
 31
0.0
  0
ENDBLK
  5
2DC
100
AcDbEntity
  8
0
100
AcDbBlockEnd
  0
BLOCK
  5
2DD
100
AcDbEntity
  8
0
100
AcDbBlockBegin
  2
JFET_SGD_V+
 70
0
 10
0.0
 20
0.0
 30
0.0
  3
JFET_SGD_V+
  1

  0
HATCH
  5
2DE
  8
V+
 62
256
370
-1
  6
ByLayer
100
AcDbEntity
100
AcDbHatch
 10
0.0
 20
0.0
 30
0.0
210
0.0
220
0.0
230
1.0
  2
kerpele
 70
0
 71
0
 91
1
 92
1
 93
4
 72
1
 10
0.0
 20
-0.0000000000000004
 11
0.24
 21
-0.0000000000000004
 72
1
 10
0.24
 20
-0.0000000000000004
 11
0.24
 21
-0.0400000000000005
 72
1
 10
0.24
 20
-0.0400000000000005
 11
0.0
 21
-0.0400000000000005
 72
1
 10
0.0
 20
-0.0400000000000005
 11
0.0
 21
-0.0000000000000004
 97
0
 75
0
 76
1
 52
0.0
 41
0.002
 77
0
 78
1
 53
45.0
 43
0.0
 44
0.0
 45
-0.0883883476483184
 46
0.0883883476483185
 79
0
 98
0
  0
LINE
  5
2DF
100
AcDbEntity
100
AcDbLine
  8
V+
 62
256
370
-1
  6
ByLayer
 10
0.0
 20
-0.0000000000000004
 30
0.0
 11
0.24
 21
-0.0000000000000004
 31
0.0
  0
LINE
  5
2E0
100
AcDbEntity
100
AcDbLine
  8
V+
 62
256
370
-1
  6
ByLayer
 10
0.24
 20
-0.0000000000000004
 30
0.0
 11
0.24
 21
-0.0400000000000005
 31
0.0
  0
LINE
  5
2E1
100
AcDbEntity
100
AcDbLine
  8
V+
 62
256
370
-1
  6
ByLayer
 10
0.24
 20
-0.0400000000000005
 30
0.0
 11
0.0
 21
-0.0400000000000005
 31
0.0
  0
LINE
  5
2E2
100
AcDbEntity
100
AcDbLine
  8
V+
 62
256
370
-1
  6
ByLayer
 10
0.0
 20
-0.0400000000000005
 30
0.0
 11
0.0
 21
-0.0000000000000004
 31
0.0
  0
MTEXT
  5
2E3
100
AcDbEntity
100
AcDbMText
  8
V+
 62
256
370
-1
  6
ByLayer
 10
0.02
 20
-0.0500000000000003
 30
0.0
 40
0.02
 41
100.0
 71
1
 72
0
  1
S
  7
normallatin1
 50
0.0
 73
1
 44
1.0
  0
MTEXT
  5
2E4
100
AcDbEntity
100
AcDbMText
  8
V+
 62
256
370
-1
  6
ByLayer
 10
0.12
 20
-0.0500000000000003
 30
0.0
 40
0.02
 41
100.0
 71
1
 72
0
  1
G
  7
normallatin1
 50
0.0
 73
1
 44
1.0
  0
MTEXT
  5
2E5
100
AcDbEntity
100
AcDbMText
  8
V+
 62
256
370
-1
  6
ByLayer
 10
0.22
 20
-0.0500000000000003
 30
0.0
 40
0.02
 41
100.0
 71
1
 72
0
  1
D
  7
normallatin1
 50
0.0
 73
1
 44
1.0
  0
ENDBLK
  5
2E6
100
AcDbEntity
  8
0
100
AcDbBlockEnd
  0
BLOCK
  5
2E7
100
AcDbEntity
  8
0
100
AcDbBlockBegin
  2
JFET_DGS_V+
 70
0
 10
0.0
 20
0.0
 30
0.0
  3
JFET_DGS_V+
  1

  0
HATCH
  5
2E8
  8
V+
 62
256
370
-1
  6
ByLayer
100
AcDbEntity
100
AcDbHatch
 10
0.0
 20
0.0
 30
0.0
210
0.0
220
0.0
230
1.0
  2
kerpele
 70
0
 71
0
 91
1
 92
1
 93
4
 72
1
 10
0.0
 20
0.0
 11
0.2399999999999995
 21
0.0
 72
1
 10
0.2399999999999995
 20
0.0
 11
0.2399999999999995
 21
-0.0400000000000009
 72
1
 10
0.2399999999999995
 20
-0.0400000000000009
 11
-0.0000000000000004
 21
-0.0400000000000005
 72
1
 10
-0.0000000000000004
 20
-0.0400000000000005
 11
0.0
 21
0.0
 97
0
 75
0
 76
1
 52
0.0
 41
0.002
 77
0
 78
1
 53
45.0
 43
0.0
 44
0.0
 45
-0.0883883476483184
 46
0.0883883476483185
 79
0
 98
0
  0
LINE
  5
2E9
100
AcDbEntity
100
AcDbLine
  8
V+
 62
256
370
-1
  6
ByLayer
 10
0.0
 20
0.0
 30
0.0
 11
0.2399999999999995
 21
0.0
 31
0.0
  0
LINE
  5
2EA
100
AcDbEntity
100
AcDbLine
  8
V+
 62
256
370
-1
  6
ByLayer
 10
0.2399999999999995
 20
0.0
 30
0.0
 11
0.2399999999999995
 21
-0.0400000000000009
 31
0.0
  0
LINE
  5
2EB
100
AcDbEntity
100
AcDbLine
  8
V+
 62
256
370
-1
  6
ByLayer
 10
0.2399999999999995
 20
-0.0400000000000009
 30
0.0
 11
-0.0000000000000004
 21
-0.0400000000000005
 31
0.0
  0
LINE
  5
2EC
100
AcDbEntity
100
AcDbLine
  8
V+
 62
256
370
-1
  6
ByLayer
 10
-0.0000000000000004
 20
-0.0400000000000005
 30
0.0
 11
0.0
 21
0.0
 31
0.0
  0
MTEXT
  5
2ED
100
AcDbEntity
100
AcDbMText
  8
V+
 62
256
370
-1
  6
ByLayer
 10
0.1199999999999996
 20
-0.0500000000000003
 30
0.0
 40
0.02
 41
100.0
 71
1
 72
0
  1
G
  7
normallatin1
 50
0.0
 73
1
 44
1.0
  0
MTEXT
  5
2EE
100
AcDbEntity
100
AcDbMText
  8
V+
 62
256
370
-1
  6
ByLayer
 10
0.0199999999999996
 20
-0.0500000000000003
 30
0.0
 40
0.02
 41
100.0
 71
1
 72
0
  1
D
  7
normallatin1
 50
0.0
 73
1
 44
1.0
  0
MTEXT
  5
2EF
100
AcDbEntity
100
AcDbMText
  8
V+
 62
256
370
-1
  6
ByLayer
 10
0.2199999999999995
 20
-0.0500000000000003
 30
0.0
 40
0.02
 41
100.0
 71
1
 72
0
  1
S
  7
normallatin1
 50
0.0
 73
1
 44
1.0
  0
ENDBLK
  5
2F0
100
AcDbEntity
  8
0
100
AcDbBlockEnd
  0
BLOCK
  5
2F1
100
AcDbEntity
  8
0
100
AcDbBlockBegin
  2
JFET_DGS_V-
 70
0
 10
0.0
 20
0.0
 30
0.0
  3
JFET_DGS_V-
  1

  0
HATCH
  5
2F2
  8
V-
 62
256
370
-1
  6
ByLayer
100
AcDbEntity
100
AcDbHatch
 10
0.0
 20
0.0
 30
0.0
210
0.0
220
0.0
230
1.0
  2
kerpele
 70
0
 71
0
 91
1
 92
1
 93
4
 72
1
 10
0.0
 20
0.0
 11
0.2399999999999995
 21
0.0
 72
1
 10
0.2399999999999995
 20
0.0
 11
0.2399999999999995
 21
-0.0400000000000009
 72
1
 10
0.2399999999999995
 20
-0.0400000000000009
 11
-0.0000000000000004
 21
-0.0400000000000005
 72
1
 10
-0.0000000000000004
 20
-0.0400000000000005
 11
0.0
 21
0.0
 97
0
 75
0
 76
1
 52
0.0
 41
0.002
 77
0
 78
1
 53
45.0
 43
0.0
 44
0.0
 45
-0.0883883476483184
 46
0.0883883476483185
 79
0
 98
0
  0
LINE
  5
2F3
100
AcDbEntity
100
AcDbLine
  8
V-
 62
256
370
-1
  6
ByLayer
 10
0.0
 20
0.0
 30
0.0
 11
0.2399999999999995
 21
0.0
 31
0.0
  0
LINE
  5
2F4
100
AcDbEntity
100
AcDbLine
  8
V-
 62
256
370
-1
  6
ByLayer
 10
0.2399999999999995
 20
0.0
 30
0.0
 11
0.2399999999999995
 21
-0.0400000000000009
 31
0.0
  0
LINE
  5
2F5
100
AcDbEntity
100
AcDbLine
  8
V-
 62
256
370
-1
  6
ByLayer
 10
0.2399999999999995
 20
-0.0400000000000009
 30
0.0
 11
-0.0000000000000004
 21
-0.0400000000000005
 31
0.0
  0
LINE
  5
2F6
100
AcDbEntity
100
AcDbLine
  8
V-
 62
256
370
-1
  6
ByLayer
 10
-0.0000000000000004
 20
-0.0400000000000005
 30
0.0
 11
0.0
 21
0.0
 31
0.0
  0
MTEXT
  5
2F7
100
AcDbEntity
100
AcDbMText
  8
V-
 62
256
370
-1
  6
ByLayer
 10
0.1199999999999996
 20
-0.0500000000000003
 30
0.0
 40
0.02
 41
100.0
 71
1
 72
0
  1
G
  7
normallatin1
 50
0.0
 73
1
 44
1.0
  0
MTEXT
  5
2F8
100
AcDbEntity
100
AcDbMText
  8
V-
 62
256
370
-1
  6
ByLayer
 10
0.0199999999999996
 20
-0.0500000000000003
 30
0.0
 40
0.02
 41
100.0
 71
1
 72
0
  1
D
  7
normallatin1
 50
0.0
 73
1
 44
1.0
  0
MTEXT
  5
2F9
100
AcDbEntity
100
AcDbMText
  8
V-
 62
256
370
-1
  6
ByLayer
 10
0.2199999999999995
 20
-0.0500000000000003
 30
0.0
 40
0.02
 41
100.0
 71
1
 72
0
  1
S
  7
normallatin1
 50
0.0
 73
1
 44
1.0
  0
ENDBLK
  5
2FA
100
AcDbEntity
  8
0
100
AcDbBlockEnd
  0
BLOCK
  5
2FB
100
AcDbEntity
  8
0
100
AcDbBlockBegin
  2
JFET_SGD_V-
 70
0
 10
0.0
 20
0.0
 30
0.0
  3
JFET_SGD_V-
  1

  0
HATCH
  5
2FC
  8
V-
 62
256
370
-1
  6
ByLayer
100
AcDbEntity
100
AcDbHatch
 10
0.0
 20
0.0
 30
0.0
210
0.0
220
0.0
230
1.0
  2
kerpele
 70
0
 71
0
 91
1
 92
1
 93
4
 72
1
 10
0.0
 20
0.0
 11
0.2399999999999995
 21
0.0
 72
1
 10
0.2399999999999995
 20
0.0
 11
0.2399999999999995
 21
-0.0400000000000009
 72
1
 10
0.2399999999999995
 20
-0.0400000000000009
 11
-0.0000000000000004
 21
-0.0400000000000005
 72
1
 10
-0.0000000000000004
 20
-0.0400000000000005
 11
0.0
 21
0.0
 97
0
 75
0
 76
1
 52
0.0
 41
0.002
 77
0
 78
1
 53
45.0
 43
0.0
 44
0.0
 45
-0.0883883476483184
 46
0.0883883476483185
 79
0
 98
0
  0
LINE
  5
2FD
100
AcDbEntity
100
AcDbLine
  8
V-
 62
256
370
-1
  6
ByLayer
 10
0.0
 20
0.0
 30
0.0
 11
0.2399999999999995
 21
0.0
 31
0.0
  0
LINE
  5
2FE
100
AcDbEntity
100
AcDbLine
  8
V-
 62
256
370
-1
  6
ByLayer
 10
0.2399999999999995
 20
0.0
 30
0.0
 11
0.2399999999999995
 21
-0.0400000000000009
 31
0.0
  0
LINE
  5
2FF
100
AcDbEntity
100
AcDbLine
  8
V-
 62
256
370
-1
  6
ByLayer
 10
0.2399999999999995
 20
-0.0400000000000009
 30
0.0
 11
-0.0000000000000004
 21
-0.0400000000000005
 31
0.0
  0
LINE
  5
300
100
AcDbEntity
100
AcDbLine
  8
V-
 62
256
370
-1
  6
ByLayer
 10
-0.0000000000000004
 20
-0.0400000000000005
 30
0.0
 11
0.0
 21
0.0
 31
0.0
  0
MTEXT
  5
301
100
AcDbEntity
100
AcDbMText
  8
V-
 62
256
370
-1
  6
ByLayer
 10
0.1199999999999996
 20
-0.0500000000000003
 30
0.0
 40
0.02
 41
100.0
 71
1
 72
0
  1
G
  7
normallatin1
 50
0.0
 73
1
 44
1.0
  0
MTEXT
  5
302
100
AcDbEntity
100
AcDbMText
  8
V-
 62
256
370
-1
  6
ByLayer
 10
0.0199999999999996
 20
-0.0500000000000003
 30
0.0
 40
0.02
 41
100.0
 71
1
 72
0
  1
S
  7
normallatin1
 50
0.0
 73
1
 44
1.0
  0
MTEXT
  5
303
100
AcDbEntity
100
AcDbMText
  8
V-
 62
256
370
-1
  6
ByLayer
 10
0.2199999999999995
 20
-0.0500000000000003
 30
0.0
 40
0.02
 41
100.0
 71
1
 72
0
  1
D
  7
normallatin1
 50
0.0
 73
1
 44
1.0
  0
ENDBLK
  5
304
100
AcDbEntity
  8
0
100
AcDbBlockEnd
  0
ENDSEC
  0
SECTION
  2
ENTITIES
  0
INSERT
  5
305
100
AcDbEntity
100
AcDbBlockReference
  8
PC Board
 62
256
370
-1
  6
ByLayer
  2
PC Board
 10
-0.2000000000000002
 20
-0.2
 30
0.0
 44
1.0
 45
1.0
  0
LINE
  5
306
100
AcDbEntity
100
AcDbLine
  8
V-
 62
256
370
-1
  6
ByLayer
 10
-0.3
 20
-0.6
 30
0.0
 11
-0.16
 21
-0.6
 31
0.0
  0
LINE
  5
307
100
AcDbEntity
100
AcDbLine
  8
V-
 62
256
370
-1
  6
ByLayer
 10
-0.16
 20
-0.6
 30
0.0
 11
-0.16
 21
-0.5
 31
0.0
  0
LINE
  5
308
100
AcDbEntity
100
AcDbLine
  8
V-
 62
256
370
-1
  6
ByLayer
 10
-0.16
 20
-0.5
 30
0.0
 11
-0.1
 21
-0.5
 31
0.0
  0
LINE
  5
309
100
AcDbEntity
100
AcDbLine
  8
V-
 62
256
370
-1
  6
ByLayer
 10
0.1
 20
-0.5
 30
0.0
 11
0.33
 21
-0.5
 31
0.0
  0
LINE
  5
30A
100
AcDbEntity
100
AcDbLine
  8
V-
 62
256
370
-1
  6
ByLayer
 10
0.33
 20
-0.5
 30
0.0
 11
0.33
 21
-1.02
 31
0.0
  0
LINE
  5
30B
100
AcDbEntity
100
AcDbLine
  8
V-
 62
256
370
-1
  6
ByLayer
 10
0.33
 20
-1.02
 30
0.0
 11
0.6
 21
-1.02
 31
0.0
  0
LINE
  5
30C
100
AcDbEntity
100
AcDbLine
  8
V-
 62
256
370
-1
  6
ByLayer
 10
0.6
 20
-1.02
 30
0.0
 11
0.6
 21
-1.1000000000000001
 31
0.0
  0
LINE
  5
30D
100
AcDbEntity
100
AcDbLine
  8
V-
 62
256
370
-1
  6
ByLayer
 10
0.9
 20
-1.0
 30
0.0
 11
0.9
 21
-1.05
 31
0.0
  0
LINE
  5
30E
100
AcDbEntity
100
AcDbLine
  8
V-
 62
256
370
-1
  6
ByLayer
 10
0.9
 20
-1.05
 30
0.0
 11
0.5
 21
-1.05
 31
0.0
  0
LINE
  5
30F
100
AcDbEntity
100
AcDbLine
  8
V-
 62
256
370
-1
  6
ByLayer
 10
0.5
 20
-1.05
 30
0.0
 11
0.5
 21
-1.1000000000000001
 31
0.0
  0
LINE
  5
310
100
AcDbEntity
100
AcDbLine
  8
V- in (unregulated)
 62
256
370
-1
  6
ByLayer
 10
0.4
 20
-0.9
 30
0.0
 11
0.4
 21
-0.86
 31
0.0
  0
LINE
  5
311
100
AcDbEntity
100
AcDbLine
  8
V- in (unregulated)
 62
256
370
-1
  6
ByLayer
 10
0.4
 20
-0.86
 30
0.0
 11
-0.7
 21
-0.86
 31
0.0
  0
LINE
  5
312
100
AcDbEntity
100
AcDbLine
  8
V- in (unregulated)
 62
256
370
-1
  6
ByLayer
 10
0.5
 20
-0.9000000000000002
 30
0.0
 11
0.5
 21
-0.9299999999999999
 31
0.0
  0
LINE
  5
313
100
AcDbEntity
100
AcDbLine
  8
V- in (unregulated)
 62
256
370
-1
  6
ByLayer
 10
0.5
 20
-0.9299999999999999
 30
0.0
 11
0.45
 21
-0.9299999999999999
 31
0.0
  0
LINE
  5
314
100
AcDbEntity
100
AcDbLine
  8
V- in (unregulated)
 62
256
370
-1
  6
ByLayer
 10
0.45
 20
-0.9299999999999999
 30
0.0
 11
0.45
 21
-1.1699999999999999
 31
0.0
  0
LINE
  5
315
100
AcDbEntity
100
AcDbLine
  8
V- in (unregulated)
 62
256
370
-1
  6
ByLayer
 10
0.45
 20
-1.1699999999999999
 30
0.0
 11
0.5
 21
-1.1699999999999999
 31
0.0
  0
LINE
  5
316
100
AcDbEntity
100
AcDbLine
  8
V- in (unregulated)
 62
256
370
-1
  6
ByLayer
 10
0.5
 20
-1.1699999999999999
 30
0.0
 11
0.5
 21
-1.2
 31
0.0
  0
LINE
  5
317
100
AcDbEntity
100
AcDbLine
  8
V- in (unregulated)
 62
256
370
-1
  6
ByLayer
 10
1.0
 20
-0.8000000000000003
 30
0.0
 11
1.0
 21
-0.8500000000000001
 31
0.0
  0
LINE
  5
318
100
AcDbEntity
100
AcDbLine
  8
V- in (unregulated)
 62
256
370
-1
  6
ByLayer
 10
1.0
 20
-0.8500000000000001
 30
0.0
 11
0.63
 21
-0.85
 31
0.0
  0
LINE
  5
319
100
AcDbEntity
100
AcDbLine
  8
V- in (unregulated)
 62
256
370
-1
  6
ByLayer
 10
0.63
 20
-0.85
 30
0.0
 11
0.63
 21
-1.2
 31
0.0
  0
LINE
  5
31A
100
AcDbEntity
100
AcDbLine
  8
V- in (unregulated)
 62
256
370
-1
  6
ByLayer
 10
0.63
 20
-1.2
 30
0.0
 11
0.6
 21
-1.2
 31
0.0
  0
LINE
  5
31B
100
AcDbEntity
100
AcDbLine
  8
V- in (unregulated)
 62
256
370
-1
  6
ByLayer
 10
0.9
 20
-0.8
 30
0.0
 11
0.86
 21
-0.8
 31
0.0
  0
LINE
  5
31C
100
AcDbEntity
100
AcDbLine
  8
V- in (unregulated)
 62
256
370
-1
  6
ByLayer
 10
0.86
 20
-0.8
 30
0.0
 11
0.86
 21
-0.5
 31
0.0
  0
LINE
  5
31D
100
AcDbEntity
100
AcDbLine
  8
V- in (unregulated)
 62
256
370
-1
  6
ByLayer
 10
0.86
 20
-0.5
 30
0.0
 11
0.9
 21
-0.5
 31
0.0
  0
LINE
  5
31E
100
AcDbEntity
100
AcDbLine
  8
V- in (unregulated)
 62
256
370
-1
  6
ByLayer
 10
1.0
 20
-0.5
 30
0.0
 11
1.0
 21
-0.47
 31
0.0
  0
LINE
  5
31F
100
AcDbEntity
100
AcDbLine
  8
V- in (unregulated)
 62
256
370
-1
  6
ByLayer
 10
1.0
 20
-0.47
 30
0.0
 11
0.86
 21
-0.47
 31
0.0
  0
LINE
  5
320
100
AcDbEntity
100
AcDbLine
  8
V- in (unregulated)
 62
256
370
-1
  6
ByLayer
 10
0.86
 20
-0.47
 30
0.0
 11
0.86
 21
-0.2300000000000001
 31
0.0
  0
LINE
  5
321
100
AcDbEntity
100
AcDbLine
  8
V- in (unregulated)
 62
256
370
-1
  6
ByLayer
 10
0.86
 20
-0.2300000000000001
 30
0.0
 11
-0.16
 21
-0.23
 31
0.0
  0
LINE
  5
322
100
AcDbEntity
100
AcDbLine
  8
V- in (unregulated)
 62
256
370
-1
  6
ByLayer
 10
-0.16
 20
-0.23
 30
0.0
 11
-0.16
 21
-0.2
 31
0.0
  0
LINE
  5
323
100
AcDbEntity
100
AcDbLine
  8
V- in (unregulated)
 62
256
370
-1
  6
ByLayer
 10
-0.16
 20
-0.2
 30
0.0
 11
-0.2
 21
-0.2
 31
0.0
  0
LINE
  5
324
100
AcDbEntity
100
AcDbLine
  8
V-
 62
256
370
-1
  6
ByLayer
 10
0.7000000000000001
 20
-1.3
 30
0.0
 11
0.84
 21
-1.3
 31
0.0
  0
LINE
  5
325
100
AcDbEntity
100
AcDbLine
  8
V-
 62
256
370
-1
  6
ByLayer
 10
0.84
 20
-1.3
 30
0.0
 11
0.84
 21
-1.3499999999999999
 31
0.0
  0
LINE
  5
326
100
AcDbEntity
100
AcDbLine
  8
V-
 62
256
370
-1
  6
ByLayer
 10
0.84
 20
-1.3499999999999999
 30
0.0
 11
0.9
 21
-1.3499999999999999
 31
0.0
  0
LINE
  5
327
100
AcDbEntity
100
AcDbLine
  8
V-
 62
256
370
-1
  6
ByLayer
 10
0.9
 20
-1.3499999999999999
 30
0.0
 11
0.9
 21
-1.3999999999999999
 31
0.0
  0
LINE
  5
328
100
AcDbEntity
100
AcDbLine
  8
V-
 62
256
370
-1
  6
ByLayer
 10
0.7000000000000001
 20
-1.3999999999999999
 30
0.0
 11
0.74
 21
-1.3999999999999999
 31
0.0
  0
LINE
  5
329
100
AcDbEntity
100
AcDbLine
  8
V-
 62
256
370
-1
  6
ByLayer
 10
0.74
 20
-1.3999999999999999
 30
0.0
 11
0.74
 21
-1.45
 31
0.0
  0
LINE
  5
32A
100
AcDbEntity
100
AcDbLine
  8
V-
 62
256
370
-1
  6
ByLayer
 10
0.74
 20
-1.45
 30
0.0
 11
0.9
 21
-1.45
 31
0.0
  0
LINE
  5
32B
100
AcDbEntity
100
AcDbLine
  8
V-
 62
256
370
-1
  6
ByLayer
 10
0.9
 20
-1.45
 30
0.0
 11
0.9
 21
-1.5
 31
0.0
  0
LINE
  5
32C
100
AcDbEntity
100
AcDbLine
  8
V-
 62
256
370
-1
  6
ByLayer
 10
0.7
 20
-1.5
 30
0.0
 11
0.74
 21
-1.5
 31
0.0
  0
LINE
  5
32D
100
AcDbEntity
100
AcDbLine
  8
V-
 62
256
370
-1
  6
ByLayer
 10
0.74
 20
-1.5
 30
0.0
 11
0.74
 21
-1.8
 31
0.0
  0
LINE
  5
32E
100
AcDbEntity
100
AcDbLine
  8
V-
 62
256
370
-1
  6
ByLayer
 10
0.74
 20
-1.8
 30
0.0
 11
0.7
 21
-1.8
 31
0.0
  0
LINE
  5
32F
100
AcDbEntity
100
AcDbLine
  8
V- in (unregulated)
 62
256
370
-1
  6
ByLayer
 10
0.4
 20
-1.5999999999999999
 30
0.0
 11
0.1
 21
-1.5999999999999999
 31
0.0
  0
LINE
  5
330
100
AcDbEntity
100
AcDbLine
  8
V- in (unregulated)
 62
256
370
-1
  6
ByLayer
 10
0.5
 20
-1.6000000000000001
 30
0.0
 11
0.5
 21
-1.5700000000000001
 31
0.0
  0
LINE
  5
331
100
AcDbEntity
100
AcDbLine
  8
V- in (unregulated)
 62
256
370
-1
  6
ByLayer
 10
0.5
 20
-1.5700000000000001
 30
0.0
 11
0.44
 21
-1.5700000000000001
 31
0.0
  0
LINE
  5
332
100
AcDbEntity
100
AcDbLine
  8
V- in (unregulated)
 62
256
370
-1
  6
ByLayer
 10
0.44
 20
-1.5700000000000001
 30
0.0
 11
0.44
 21
-1.2000000000000002
 31
0.0
  0
LINE
  5
333
100
AcDbEntity
100
AcDbLine
  8
V- in (unregulated)
 62
256
370
-1
  6
ByLayer
 10
0.44
 20
-1.2000000000000002
 30
0.0
 11
0.4
 21
-1.2000000000000002
 31
0.0
  0
INSERT
  5
334
100
AcDbEntity
100
AcDbBlockReference
  8
V-
 62
256
370
-1
  6
ByLayer
  2
SolderV-
 10
-0.3
 20
-0.6000000000000001
 30
0.0
 44
1.0
 45
1.0
  0
INSERT
  5
335
100
AcDbEntity
100
AcDbBlockReference
  8
V-
 62
256
370
-1
  6
ByLayer
  2
SolderV-
 10
-0.1
 20
-0.5000000000000001
 30
0.0
 44
1.0
 45
1.0
  0
INSERT
  5
336
100
AcDbEntity
100
AcDbBlockReference
  8
V-
 62
256
370
-1
  6
ByLayer
  2
SolderV-
 10
0.1
 20
-0.5000000000000001
 30
0.0
 44
1.0
 45
1.0
  0
INSERT
  5
337
100
AcDbEntity
100
AcDbBlockReference
  8
V-
 62
256
370
-1
  6
ByLayer
  2
SolderV-
 10
0.6000000000000001
 20
-1.1000000000000001
 30
0.0
 44
1.0
 45
1.0
  0
INSERT
  5
338
100
AcDbEntity
100
AcDbBlockReference
  8
V-
 62
256
370
-1
  6
ByLayer
  2
SolderV-
 10
0.5
 20
-1.1000000000000001
 30
0.0
 44
1.0
 45
1.0
  0
INSERT
  5
339
100
AcDbEntity
100
AcDbBlockReference
  8
V-
 62
256
370
-1
  6
ByLayer
  2
SolderV-
 10
0.9
 20
-1.0000000000000002
 30
0.0
 44
1.0
 45
1.0
  0
INSERT
  5
33A
100
AcDbEntity
100
AcDbBlockReference
  8
V-
 62
256
370
-1
  6
ByLayer
  2
SolderV-
 10
0.9
 20
-1.4000000000000001
 30
0.0
 44
1.0
 45
1.0
  0
INSERT
  5
33B
100
AcDbEntity
100
AcDbBlockReference
  8
V-
 62
256
370
-1
  6
ByLayer
  2
SolderV-
 10
0.7000000000000001
 20
-1.3000000000000003
 30
0.0
 44
1.0
 45
1.0
  0
INSERT
  5
33C
100
AcDbEntity
100
AcDbBlockReference
  8
V-
 62
256
370
-1
  6
ByLayer
  2
SolderV-
 10
0.7000000000000001
 20
-1.4000000000000001
 30
0.0
 44
1.0
 45
1.0
  0
INSERT
  5
33D
100
AcDbEntity
100
AcDbBlockReference
  8
V-
 62
256
370
-1
  6
ByLayer
  2
SolderV-
 10
0.9
 20
-1.5000000000000002
 30
0.0
 44
1.0
 45
1.0
  0
INSERT
  5
33E
100
AcDbEntity
100
AcDbBlockReference
  8
V-
 62
256
370
-1
  6
ByLayer
  2
SolderV-
 10
0.7000000000000001
 20
-1.8
 30
0.0
 44
1.0
 45
1.0
  0
INSERT
  5
33F
100
AcDbEntity
100
AcDbBlockReference
  8
V-
 62
256
370
-1
  6
ByLayer
  2
DiodeV-
 10
0.9999999999999993
 20
-1.5999999999999994
 30
0.0
 41
1.0
 42
-1.0
 43
1.0
 44
1.0
 45
1.0
  0
INSERT
  5
340
100
AcDbEntity
100
AcDbBlockReference
  8
V-
 62
256
370
-1
  6
ByLayer
  2
DiodeV-
 10
0.8999999999999995
 20
-1.6999999999999993
 30
0.0
 41
1.0
 42
-1.0
 43
1.0
 44
1.0
 45
1.0
  0
INSERT
  5
341
100
AcDbEntity
100
AcDbBlockReference
  8
V-
 62
256
370
-1
  6
ByLayer
  2
SolderV-
 10
1.0
 20
-1.5
 30
0.0
 44
1.0
 45
1.0
  0
INSERT
  5
342
100
AcDbEntity
100
AcDbBlockReference
  8
V-
 62
256
370
-1
  6
ByLayer
  2
SolderV-
 10
1.0
 20
-1.6000000000000001
 30
0.0
 44
1.0
 45
1.0
  0
INSERT
  5
343
100
AcDbEntity
100
AcDbBlockReference
  8
V-
 62
256
370
-1
  6
ByLayer
  2
SolderV-
 10
0.9
 20
-1.6000000000000001
 30
0.0
 44
1.0
 45
1.0
  0
INSERT
  5
344
100
AcDbEntity
100
AcDbBlockReference
  8
V-
 62
256
370
-1
  6
ByLayer
  2
SolderV-
 10
0.9
 20
-1.7
 30
0.0
 44
1.0
 45
1.0
  0
INSERT
  5
345
100
AcDbEntity
100
AcDbBlockReference
  8
Ground
 62
256
370
-1
  6
ByLayer
  2
SolderGnd
 10
1.0
 20
-1.7
 30
0.0
  0
LINE
  5
346
100
AcDbEntity
100
AcDbLine
  8
Ground
 62
256
370
-1
  6
ByLayer
 10
1.0
 20
-1.7000000000000002
 30
0.0
 11
1.0
 21
-1.7500000000000002
 31
0.0
  0
LINE
  5
347
100
AcDbEntity
100
AcDbLine
  8
Ground
 62
256
370
-1
  6
ByLayer
 10
1.0
 20
-1.7500000000000002
 30
0.0
 11
0.3
 21
-1.7500000000000002
 31
0.0
  0
INSERT
  5
348
100
AcDbEntity
100
AcDbBlockReference
  8
Ground
 62
256
370
-1
  6
ByLayer
  2
SolderGnd
 10
0.3
 20
-1.7500000000000002
 30
0.0
 44
1.0
 45
1.0
  0
INSERT
  5
349
100
AcDbEntity
100
AcDbBlockReference
  8
Ground
 62
256
370
-1
  6
ByLayer
  2
SolderGnd
 10
1.0
 20
-1.8999999999999997
 30
0.0
 44
1.0
 45
1.0
  0
LINE
  5
34A
100
AcDbEntity
100
AcDbLine
  8
Ground
 62
256
370
-1
  6
ByLayer
 10
1.0
 20
-1.8999999999999997
 30
0.0
 11
1.0
 21
-1.8699999999999999
 31
0.0
  0
LINE
  5
34B
100
AcDbEntity
100
AcDbLine
  8
Ground
 62
256
370
-1
  6
ByLayer
 10
1.0
 20
-1.8699999999999999
 30
0.0
 11
0.3
 21
-1.8699999999999999
 31
0.0
  0
INSERT
  5
34C
100
AcDbEntity
100
AcDbBlockReference
  8
Ground
 62
256
370
-1
  6
ByLayer
  2
SolderGnd
 10
0.3
 20
-1.8699999999999999
 30
0.0
 44
1.0
 45
1.0
  0
INSERT
  5
34D
100
AcDbEntity
100
AcDbBlockReference
  8
Ground
 62
256
370
-1
  6
ByLayer
  2
ElectrolyticCapV+
 10
0.8
 20
-1.8999999999999999
 30
0.0
 50
90.0
 44
1.0
 45
1.0
  0
INSERT
  5
34E
100
AcDbEntity
100
AcDbBlockReference
  8
Ground
 62
256
370
-1
  6
ByLayer
  2
SolderV+
 10
0.8
 20
-1.8999999999999999
 30
0.0
 44
1.0
 45
1.0
  0
INSERT
  5
34F
100
AcDbEntity
100
AcDbBlockReference
  8
Ground
 62
256
370
-1
  6
ByLayer
  2
SolderGnd
 10
0.9
 20
-1.8999999999999999
 30
0.0
 44
1.0
 45
1.0
  0
LINE
  5
350
100
AcDbEntity
100
AcDbLine
  8
V+
 62
256
370
-1
  6
ByLayer
 10
0.8
 20
-2.0
 30
0.0
 11
0.8
 21
-2.1499999999999999
 31
0.0
  0
LINE
  5
351
100
AcDbEntity
100
AcDbLine
  8
V+
 62
256
370
-1
  6
ByLayer
 10
0.8
 20
-2.1499999999999999
 30
0.0
 11
0.16
 21
-2.1499999999999999
 31
0.0
  0
LINE
  5
352
100
AcDbEntity
100
AcDbLine
  8
V+
 62
256
370
-1
  6
ByLayer
 10
0.16
 20
-2.1499999999999999
 30
0.0
 11
0.16
 21
-2.3999999999999999
 31
0.0
  0
LINE
  5
353
100
AcDbEntity
100
AcDbLine
  8
V+
 62
256
370
-1
  6
ByLayer
 10
0.16
 20
-2.3999999999999999
 30
0.0
 11
0.1
 21
-2.3999999999999999
 31
0.0
  0
INSERT
  5
354
100
AcDbEntity
100
AcDbBlockReference
  8
V+
 62
256
370
-1
  6
ByLayer
  2
SolderV+
 10
0.1
 20
-2.3999999999999999
 30
0.0
 44
1.0
 45
1.0
  0
INSERT
  5
355
100
AcDbEntity
100
AcDbBlockReference
  8
V+
 62
256
370
-1
  6
ByLayer
  2
SolderV+
 10
0.8
 20
-2.0
 30
0.0
 44
1.0
 45
1.0
  0
LINE
  5
356
100
AcDbEntity
100
AcDbLine
  8
V+
 62
256
370
-1
  6
ByLayer
 10
-0.0
 20
-2.3999999999999999
 30
0.0
 11
-0.0
 21
-2.4399999999999999
 31
0.0
  0
LINE
  5
357
100
AcDbEntity
100
AcDbLine
  8
V+
 62
256
370
-1
  6
ByLayer
 10
-0.0
 20
-2.4399999999999999
 30
0.0
 11
-0.26
 21
-2.4399999999999999
 31
0.0
  0
LINE
  5
358
100
AcDbEntity
100
AcDbLine
  8
V+
 62
256
370
-1
  6
ByLayer
 10
-0.26
 20
-2.4399999999999999
 30
0.0
 11
-0.26
 21
-2.9300000000000002
 31
0.0
  0
INSERT
  5
359
100
AcDbEntity
100
AcDbBlockReference
  8
V+
 62
256
370
-1
  6
ByLayer
  2
SolderV+
 10
-0.0
 20
-2.3999999999999999
 30
0.0
 44
1.0
 45
1.0
  0
LINE
  5
35A
100
AcDbEntity
100
AcDbLine
  8
V+
 62
256
370
-1
  6
ByLayer
 10
-0.1
 20
-2.3999999999999995
 30
0.0
 11
-0.1
 21
-2.3499999999999996
 31
0.0
  0
LINE
  5
35B
100
AcDbEntity
100
AcDbLine
  8
V+
 62
256
370
-1
  6
ByLayer
 10
-0.1
 20
-2.3499999999999996
 30
0.0
 11
-0.3
 21
-2.3499999999999996
 31
0.0
  0
LINE
  5
35C
100
AcDbEntity
100
AcDbLine
  8
V+
 62
256
370
-1
  6
ByLayer
 10
-0.3
 20
-2.3499999999999996
 30
0.0
 11
-0.3
 21
-2.3099999999999996
 31
0.0
  0
LINE
  5
35D
100
AcDbEntity
100
AcDbLine
  8
V+
 62
256
370
-1
  6
ByLayer
 10
-0.3
 20
-2.3099999999999996
 30
0.0
 11
-0.3
 21
-2.2999999999999998
 31
0.0
  0
INSERT
  5
35E
100
AcDbEntity
100
AcDbBlockReference
  8
V+
 62
256
370
-1
  6
ByLayer
  2
SolderV+
 10
-0.1
 20
-2.3999999999999995
 30
0.0
 44
1.0
 45
1.0
  0
INSERT
  5
35F
100
AcDbEntity
100
AcDbBlockReference
  8
V+
 62
256
370
-1
  6
ByLayer
  2
SolderV+
 10
-0.3
 20
-2.2999999999999998
 30
0.0
 44
1.0
 45
1.0
  0
INSERT
  5
360
100
AcDbEntity
100
AcDbBlockReference
  8
V+
 62
256
370
-1
  6
ByLayer
  2
ResistorV+
 10
-0.2292893218813452
 20
-2.029289321881345
 30
0.0
 50
315.0
 44
1.0
 45
1.0
  0
LINE
  5
361
100
AcDbEntity
100
AcDbLine
  8
V+
 62
256
370
-1
  6
ByLayer
 10
-0.2292893218813452
 20
-2.029289321881345
 30
0.0
 11
-0.2
 21
-1.9999999999999996
 31
0.0
  0
INSERT
  5
362
100
AcDbEntity
100
AcDbBlockReference
  8
V+
 62
256
370
-1
  6
ByLayer
  2
SolderV+
 10
-0.3
 20
-2.0999999999999996
 30
0.0
 44
1.0
 45
1.0
  0
INSERT
  5
363
100
AcDbEntity
100
AcDbBlockReference
  8
V+
 62
256
370
-1
  6
ByLayer
  2
SolderV+
 10
-0.2
 20
-1.9999999999999996
 30
0.0
 44
1.0
 45
1.0
  0
LINE
  5
364
100
AcDbEntity
100
AcDbLine
  8
V+
 62
256
370
-1
  6
ByLayer
 10
-0.2
 20
-2.0999999999999996
 30
0.0
 11
-0.17
 21
-2.0999999999999996
 31
0.0
  0
LINE
  5
365
100
AcDbEntity
100
AcDbLine
  8
V+
 62
256
370
-1
  6
ByLayer
 10
-0.17
 20
-2.0999999999999996
 30
0.0
 11
-0.17
 21
-2.0599999999999996
 31
0.0
  0
LINE
  5
366
100
AcDbEntity
100
AcDbLine
  8
V+
 62
256
370
-1
  6
ByLayer
 10
-0.17
 20
-2.0599999999999996
 30
0.0
 11
-0.0
 21
-2.0599999999999996
 31
0.0
  0
LINE
  5
367
100
AcDbEntity
100
AcDbLine
  8
V+
 62
256
370
-1
  6
ByLayer
 10
-0.0
 20
-2.0599999999999996
 30
0.0
 11
-0.0
 21
-2.0999999999999996
 31
0.0
  0
INSERT
  5
368
100
AcDbEntity
100
AcDbBlockReference
  8
V+
 62
256
370
-1
  6
ByLayer
  2
SolderV+
 10
-0.0
 20
-2.0999999999999996
 30
0.0
 44
1.0
 45
1.0
  0
INSERT
  5
369
100
AcDbEntity
100
AcDbBlockReference
  8
V+
 62
256
370
-1
  6
ByLayer
  2
SolderV+
 10
-0.2
 20
-2.0999999999999996
 30
0.0
 44
1.0
 45
1.0
  0
LINE
  5
36A
100
AcDbEntity
100
AcDbLine
  8
V+
 62
256
370
-1
  6
ByLayer
 10
-0.1
 20
-2.0999999999999996
 30
0.0
 11
-0.1
 21
-2.0399999999999996
 31
0.0
  0
LINE
  5
36B
100
AcDbEntity
100
AcDbLine
  8
V+
 62
256
370
-1
  6
ByLayer
 10
-0.1
 20
-2.0399999999999996
 30
0.0
 11
-0.16
 21
-2.0399999999999996
 31
0.0
  0
LINE
  5
36C
100
AcDbEntity
100
AcDbLine
  8
V+
 62
256
370
-1
  6
ByLayer
 10
-0.16
 20
-2.0399999999999996
 30
0.0
 11
-0.16
 21
-1.8999999999999997
 31
0.0
  0
LINE
  5
36D
100
AcDbEntity
100
AcDbLine
  8
V+
 62
256
370
-1
  6
ByLayer
 10
-0.16
 20
-1.8999999999999997
 30
0.0
 11
-0.25
 21
-1.8999999999999997
 31
0.0
  0
LINE
  5
36E
100
AcDbEntity
100
AcDbLine
  8
V+
 62
256
370
-1
  6
ByLayer
 10
-0.25
 20
-1.8999999999999997
 30
0.0
 11
-0.2500000000000001
 21
-1.6000000000000001
 31
0.0
  0
LINE
  5
36F
100
AcDbEntity
100
AcDbLine
  8
V+
 62
256
370
-1
  6
ByLayer
 10
-0.2500000000000001
 20
-1.6000000000000001
 30
0.0
 11
-0.34
 21
-1.6000000000000001
 31
0.0
  0
LINE
  5
370
100
AcDbEntity
100
AcDbLine
  8
V+
 62
256
370
-1
  6
ByLayer
 10
-0.34
 20
-1.6000000000000001
 30
0.0
 11
-0.34
 21
-1.3
 31
0.0
  0
LINE
  5
371
100
AcDbEntity
100
AcDbLine
  8
V+
 62
256
370
-1
  6
ByLayer
 10
-0.34
 20
-1.3
 30
0.0
 11
-0.4
 21
-1.3
 31
0.0
  0
INSERT
  5
372
100
AcDbEntity
100
AcDbBlockReference
  8
V+
 62
256
370
-1
  6
ByLayer
  2
SolderV+
 10
-0.4
 20
-1.3
 30
0.0
 44
1.0
 45
1.0
  0
INSERT
  5
373
100
AcDbEntity
100
AcDbBlockReference
  8
V+
 62
256
370
-1
  6
ByLayer
  2
SolderV+
 10
-0.1
 20
-2.1000000000000005
 30
0.0
 44
1.0
 45
1.0
  0
LINE
  5
374
100
AcDbEntity
100
AcDbLine
  8
V+
 62
256
370
-1
  6
ByLayer
 10
-0.3
 20
-1.3
 30
0.0
 11
-0.3
 21
-1.27
 31
0.0
  0
LINE
  5
375
100
AcDbEntity
100
AcDbLine
  8
V+
 62
256
370
-1
  6
ByLayer
 10
-0.3
 20
-1.27
 30
0.0
 11
-0.3700000000000001
 21
-1.27
 31
0.0
  0
LINE
  5
376
100
AcDbEntity
100
AcDbLine
  8
V+
 62
256
370
-1
  6
ByLayer
 10
-0.3700000000000001
 20
-1.27
 30
0.0
 11
-0.3700000000000001
 21
-1.5
 31
0.0
  0
LINE
  5
377
100
AcDbEntity
100
AcDbLine
  8
V+
 62
256
370
-1
  6
ByLayer
 10
-0.3700000000000001
 20
-1.5
 30
0.0
 11
-0.4000000000000001
 21
-1.5
 31
0.0
  0
LINE
  5
378
100
AcDbEntity
100
AcDbLine
  8
V+
 62
256
370
-1
  6
ByLayer
 10
-0.3
 20
-1.4000000000000001
 30
0.0
 11
-0.2600000000000001
 21
-1.4000000000000001
 31
0.0
  0
LINE
  5
379
100
AcDbEntity
100
AcDbLine
  8
V+
 62
256
370
-1
  6
ByLayer
 10
-0.2600000000000001
 20
-1.4000000000000001
 30
0.0
 11
-0.2600000000000001
 21
-1.5700000000000001
 31
0.0
  0
LINE
  5
37A
100
AcDbEntity
100
AcDbLine
  8
V+
 62
256
370
-1
  6
ByLayer
 10
-0.2600000000000001
 20
-1.5700000000000001
 30
0.0
 11
-0.4000000000000001
 21
-1.5700000000000001
 31
0.0
  0
LINE
  5
37B
100
AcDbEntity
100
AcDbLine
  8
V+
 62
256
370
-1
  6
ByLayer
 10
-0.4000000000000001
 20
-1.5700000000000001
 30
0.0
 11
-0.4000000000000001
 21
-1.6000000000000001
 31
0.0
  0
INSERT
  5
37C
100
AcDbEntity
100
AcDbBlockReference
  8
V+
 62
256
370
-1
  6
ByLayer
  2
SolderV+
 10
-0.4000000000000001
 20
-1.5
 30
0.0
 44
1.0
 45
1.0
  0
INSERT
  5
37D
100
AcDbEntity
100
AcDbBlockReference
  8
V+
 62
256
370
-1
  6
ByLayer
  2
SolderV+
 10
-0.4000000000000001
 20
-1.6000000000000001
 30
0.0
 44
1.0
 45
1.0
  0
INSERT
  5
37E
100
AcDbEntity
100
AcDbBlockReference
  8
V+
 62
256
370
-1
  6
ByLayer
  2
SolderV+
 10
-0.3
 20
-1.4000000000000001
 30
0.0
 44
1.0
 45
1.0
  0
INSERT
  5
37F
100
AcDbEntity
100
AcDbBlockReference
  8
V+
 62
256
370
-1
  6
ByLayer
  2
SolderV+
 10
-0.3
 20
-1.3
 30
0.0
 44
1.0
 45
1.0
  0
LINE
  5
380
100
AcDbEntity
100
AcDbLine
  8
V+
 62
256
370
-1
  6
ByLayer
 10
-0.3
 20
-1.5
 30
0.0
 11
-0.24
 21
-1.5
 31
0.0
  0
LINE
  5
381
100
AcDbEntity
100
AcDbLine
  8
V+
 62
256
370
-1
  6
ByLayer
 10
-0.24
 20
-1.5
 30
0.0
 11
-0.24
 21
-1.7000000000000002
 31
0.0
  0
LINE
  5
382
100
AcDbEntity
100
AcDbLine
  8
V+
 62
256
370
-1
  6
ByLayer
 10
-0.24
 20
-1.7000000000000002
 30
0.0
 11
-0.2
 21
-1.7000000000000002
 31
0.0
  0
INSERT
  5
383
100
AcDbEntity
100
AcDbBlockReference
  8
V+
 62
256
370
-1
  6
ByLayer
  2
SolderV+
 10
-0.2
 20
-1.7000000000000002
 30
0.0
 44
1.0
 45
1.0
  0
INSERT
  5
384
100
AcDbEntity
100
AcDbBlockReference
  8
V+
 62
256
370
-1
  6
ByLayer
  2
SolderV+
 10
-0.3
 20
-1.5
 30
0.0
 44
1.0
 45
1.0
  0
INSERT
  5
385
100
AcDbEntity
100
AcDbBlockReference
  8
V+
 62
256
370
-1
  6
ByLayer
  2
DiodeV+
 10
-0.5
 20
-1.6000000000000001
 30
0.0
 44
1.0
 45
1.0
  0
INSERT
  5
386
100
AcDbEntity
100
AcDbBlockReference
  8
V+
 62
256
370
-1
  6
ByLayer
  2
DiodeV+
 10
-0.4
 20
-1.7000000000000002
 30
0.0
 44
1.0
 45
1.0
  0
INSERT
  5
387
100
AcDbEntity
100
AcDbBlockReference
  8
V+
 62
256
370
-1
  6
ByLayer
  2
SolderV+
 10
-0.5
 20
-1.6000000000000001
 30
0.0
 44
1.0
 45
1.0
  0
INSERT
  5
388
100
AcDbEntity
100
AcDbBlockReference
  8
V+
 62
256
370
-1
  6
ByLayer
  2
SolderV+
 10
-0.5
 20
-1.7000000000000002
 30
0.0
 44
1.0
 45
1.0
  0
INSERT
  5
389
100
AcDbEntity
100
AcDbBlockReference
  8
V+
 62
256
370
-1
  6
ByLayer
  2
SolderV+
 10
-0.4
 20
-1.7000000000000002
 30
0.0
 44
1.0
 45
1.0
  0
LINE
  5
38A
100
AcDbEntity
100
AcDbLine
  8
Ground
 62
256
370
-1
  6
ByLayer
 10
-0.5
 20
-1.7999999999999998
 30
0.0
 11
-0.5
 21
-1.8299999999999998
 31
0.0
  0
LINE
  5
38B
100
AcDbEntity
100
AcDbLine
  8
Ground
 62
256
370
-1
  6
ByLayer
 10
-0.5
 20
-1.8299999999999998
 30
0.0
 11
0.2
 21
-1.8299999999999998
 31
0.0
  0
INSERT
  5
38C
100
AcDbEntity
100
AcDbBlockReference
  8
Ground
 62
256
370
-1
  6
ByLayer
  2
SolderGnd
 10
0.2
 20
-1.8299999999999998
 30
0.0
 44
1.0
 45
1.0
  0
INSERT
  5
38D
100
AcDbEntity
100
AcDbBlockReference
  8
Ground
 62
256
370
-1
  6
ByLayer
  2
SolderGnd
 10
-0.5
 20
-1.7999999999999998
 30
0.0
 44
1.0
 45
1.0
  0
INSERT
  5
38E
100
AcDbEntity
100
AcDbBlockReference
  8
Ground
 62
256
370
-1
  6
ByLayer
  2
SolderGnd
 10
-0.4
 20
-1.7999999999999998
 30
0.0
 44
1.0
 45
1.0
  0
LINE
  5
38F
100
AcDbEntity
100
AcDbLine
  8
V+ in (unregulated)
 62
256
370
-1
  6
ByLayer
 10
-0.5
 20
-2.1999999999999997
 30
0.0
 11
-0.55
 21
-2.1999999999999997
 31
0.0
  0
LINE
  5
390
100
AcDbEntity
100
AcDbLine
  8
V+ in (unregulated)
 62
256
370
-1
  6
ByLayer
 10
-0.55
 20
-2.1999999999999997
 30
0.0
 11
-0.55
 21
-0.9500000000000001
 31
0.0
  0
LINE
  5
391
100
AcDbEntity
100
AcDbLine
  8
V+ in (unregulated)
 62
256
370
-1
  6
ByLayer
 10
-0.55
 20
-0.9500000000000001
 30
0.0
 11
-0.24
 21
-0.9500000000000001
 31
0.0
  0
LINE
  5
392
100
AcDbEntity
100
AcDbLine
  8
V+ in (unregulated)
 62
256
370
-1
  6
ByLayer
 10
-0.24
 20
-0.9500000000000001
 30
0.0
 11
-0.24
 21
-0.8000000000000002
 31
0.0
  0
LINE
  5
393
100
AcDbEntity
100
AcDbLine
  8
V+ in (unregulated)
 62
256
370
-1
  6
ByLayer
 10
-0.24
 20
-0.8000000000000002
 30
0.0
 11
-0.2
 21
-0.8000000000000002
 31
0.0
  0
LINE
  5
394
100
AcDbEntity
100
AcDbLine
  8
V+ in (unregulated)
 62
256
370
-1
  6
ByLayer
 10
-0.2
 20
-0.7000000000000001
 30
0.0
 11
-0.2500000000000001
 21
-0.7000000000000001
 31
0.0
  0
LINE
  5
395
100
AcDbEntity
100
AcDbLine
  8
V+ in (unregulated)
 62
256
370
-1
  6
ByLayer
 10
-0.2500000000000001
 20
-0.7000000000000001
 30
0.0
 11
-0.2500000000000001
 21
-0.74
 31
0.0
  0
LINE
  5
396
100
AcDbEntity
100
AcDbLine
  8
V+ in (unregulated)
 62
256
370
-1
  6
ByLayer
 10
-0.2500000000000001
 20
-0.74
 30
0.0
 11
-0.7000000000000001
 21
-0.74
 31
0.0
  0
LINE
  5
397
100
AcDbEntity
100
AcDbLine
  8
V+ in (unregulated)
 62
256
370
-1
  6
ByLayer
 10
-0.2
 20
-0.9
 30
0.0
 11
-0.15
 21
-0.9
 31
0.0
  0
LINE
  5
398
100
AcDbEntity
100
AcDbLine
  8
V+ in (unregulated)
 62
256
370
-1
  6
ByLayer
 10
-0.15
 20
-0.9
 30
0.0
 11
-0.15
 21
-0.9500000000000001
 31
0.0
  0
LINE
  5
399
100
AcDbEntity
100
AcDbLine
  8
V+ in (unregulated)
 62
256
370
-1
  6
ByLayer
 10
-0.15
 20
-0.9500000000000001
 30
0.0
 11
-0.0
 21
-0.9500000000000001
 31
0.0
  0
LINE
  5
39A
100
AcDbEntity
100
AcDbLine
  8
V+ in (unregulated)
 62
256
370
-1
  6
ByLayer
 10
-0.0
 20
-0.9500000000000001
 30
0.0
 11
-0.0
 21
-1.0
 31
0.0
  0
LINE
  5
39B
100
AcDbEntity
100
AcDbLine
  8
V+ in (unregulated)
 62
256
370
-1
  6
ByLayer
 10
0.1
 20
-1.0
 30
0.0
 11
0.1
 21
-1.04
 31
0.0
  0
LINE
  5
39C
100
AcDbEntity
100
AcDbLine
  8
V+ in (unregulated)
 62
256
370
-1
  6
ByLayer
 10
0.1
 20
-1.04
 30
0.0
 11
0.06
 21
-1.04
 31
0.0
  0
LINE
  5
39D
100
AcDbEntity
100
AcDbLine
  8
V+ in (unregulated)
 62
256
370
-1
  6
ByLayer
 10
0.06
 20
-1.04
 30
0.0
 11
0.06
 21
-1.45
 31
0.0
  0
LINE
  5
39E
100
AcDbEntity
100
AcDbLine
  8
V+ in (unregulated)
 62
256
370
-1
  6
ByLayer
 10
0.06
 20
-1.45
 30
0.0
 11
-0.0
 21
-1.45
 31
0.0
  0
LINE
  5
39F
100
AcDbEntity
100
AcDbLine
  8
V+ in (unregulated)
 62
256
370
-1
  6
ByLayer
 10
-0.0
 20
-1.45
 30
0.0
 11
-0.0
 21
-1.5
 31
0.0
  0
LINE
  5
3A0
100
AcDbEntity
100
AcDbLine
  8
V+ in (unregulated)
 62
256
370
-1
  6
ByLayer
 10
0.1000000000000001
 20
-1.5000000000000002
 30
0.0
 11
0.4000000000000001
 21
-1.5000000000000002
 31
0.0
  0
LINE
  5
3A1
100
AcDbEntity
100
AcDbLine
  8
V+ in (unregulated)
 62
256
370
-1
  6
ByLayer
 10
0.4
 20
-1.7000000000000002
 30
0.0
 11
0.4
 21
-1.6599999999999999
 31
0.0
  0
LINE
  5
3A2
100
AcDbEntity
100
AcDbLine
  8
V+ in (unregulated)
 62
256
370
-1
  6
ByLayer
 10
0.4
 20
-1.6599999999999999
 30
0.0
 11
0.5600000000000001
 21
-1.6599999999999999
 31
0.0
  0
LINE
  5
3A3
100
AcDbEntity
100
AcDbLine
  8
V+ in (unregulated)
 62
256
370
-1
  6
ByLayer
 10
0.5600000000000001
 20
-1.6599999999999999
 30
0.0
 11
0.5600000000000001
 21
-1.55
 31
0.0
  0
LINE
  5
3A4
100
AcDbEntity
100
AcDbLine
  8
V+ in (unregulated)
 62
256
370
-1
  6
ByLayer
 10
0.5600000000000001
 20
-1.55
 30
0.0
 11
0.6
 21
-1.55
 31
0.0
  0
LINE
  5
3A5
100
AcDbEntity
100
AcDbLine
  8
V+ in (unregulated)
 62
256
370
-1
  6
ByLayer
 10
0.6
 20
-1.55
 30
0.0
 11
0.6
 21
-1.5
 31
0.0
  0
INSERT
  5
3A6
100
AcDbEntity
100
AcDbBlockReference
  8
V+ in (unregulated)
 62
256
370
-1
  6
ByLayer
  2
SolderV+in
 10
-0.2
 20
-0.7000000000000001
 30
0.0
 44
1.0
 45
1.0
  0
INSERT
  5
3A7
100
AcDbEntity
100
AcDbBlockReference
  8
V+ in (unregulated)
 62
256
370
-1
  6
ByLayer
  2
SolderV+in
 10
-0.2
 20
-0.8
 30
0.0
 44
1.0
 45
1.0
  0
INSERT
  5
3A8
100
AcDbEntity
100
AcDbBlockReference
  8
V+ in (unregulated)
 62
256
370
-1
  6
ByLayer
  2
SolderV+in
 10
-0.2
 20
-0.9
 30
0.0
 44
1.0
 45
1.0
  0
INSERT
  5
3A9
100
AcDbEntity
100
AcDbBlockReference
  8
V+ in (unregulated)
 62
256
370
-1
  6
ByLayer
  2
SolderV+in
 10
0.0
 20
-1.0
 30
0.0
 44
1.0
 45
1.0
  0
INSERT
  5
3AA
100
AcDbEntity
100
AcDbBlockReference
  8
V+ in (unregulated)
 62
256
370
-1
  6
ByLayer
  2
SolderV+in
 10
0.1
 20
-1.0
 30
0.0
 44
1.0
 45
1.0
  0
INSERT
  5
3AB
100
AcDbEntity
100
AcDbBlockReference
  8
V+ in (unregulated)
 62
256
370
-1
  6
ByLayer
  2
SolderV+in
 10
0.0
 20
-1.5
 30
0.0
 44
1.0
 45
1.0
  0
INSERT
  5
3AC
100
AcDbEntity
100
AcDbBlockReference
  8
V+ in (unregulated)
 62
256
370
-1
  6
ByLayer
  2
SolderV+in
 10
0.1
 20
-1.5
 30
0.0
 44
1.0
 45
1.0
  0
INSERT
  5
3AD
100
AcDbEntity
100
AcDbBlockReference
  8
V+ in (unregulated)
 62
256
370
-1
  6
ByLayer
  2
SolderV+in
 10
0.4
 20
-1.5
 30
0.0
 44
1.0
 45
1.0
  0
INSERT
  5
3AE
100
AcDbEntity
100
AcDbBlockReference
  8
V+ in (unregulated)
 62
256
370
-1
  6
ByLayer
  2
SolderV+in
 10
0.6000000000000001
 20
-1.5
 30
0.0
 44
1.0
 45
1.0
  0
INSERT
  5
3AF
100
AcDbEntity
100
AcDbBlockReference
  8
V+ in (unregulated)
 62
256
370
-1
  6
ByLayer
  2
SolderV+in
 10
-0.5
 20
-2.2000000000000006
 30
0.0
 44
1.0
 45
1.0
  0
INSERT
  5
3B0
100
AcDbEntity
100
AcDbBlockReference
  8
V+ in (unregulated)
 62
256
370
-1
  6
ByLayer
  2
SolderV+in
 10
0.4
 20
-1.7000000000000002
 30
0.0
 44
1.0
 45
1.0
  0
INSERT
  5
3B1
100
AcDbEntity
100
AcDbBlockReference
  8
V- in (unregulated)
 62
256
370
-1
  6
ByLayer
  2
SolderV-in
 10
0.1
 20
-1.6000000000000003
 30
0.0
 44
1.0
 45
1.0
  0
INSERT
  5
3B2
100
AcDbEntity
100
AcDbBlockReference
  8
V- in (unregulated)
 62
256
370
-1
  6
ByLayer
  2
SolderV-in
 10
0.4
 20
-1.6000000000000003
 30
0.0
 44
1.0
 45
1.0
  0
INSERT
  5
3B3
100
AcDbEntity
100
AcDbBlockReference
  8
V- in (unregulated)
 62
256
370
-1
  6
ByLayer
  2
SolderV-in
 10
0.5
 20
-1.6000000000000003
 30
0.0
 44
1.0
 45
1.0
  0
INSERT
  5
3B4
100
AcDbEntity
100
AcDbBlockReference
  8
V- in (unregulated)
 62
256
370
-1
  6
ByLayer
  2
SolderV-in
 10
0.4
 20
-1.2000000000000002
 30
0.0
 44
1.0
 45
1.0
  0
INSERT
  5
3B5
100
AcDbEntity
100
AcDbBlockReference
  8
V- in (unregulated)
 62
256
370
-1
  6
ByLayer
  2
SolderV-in
 10
0.5
 20
-1.2000000000000002
 30
0.0
 44
1.0
 45
1.0
  0
INSERT
  5
3B6
100
AcDbEntity
100
AcDbBlockReference
  8
V- in (unregulated)
 62
256
370
-1
  6
ByLayer
  2
SolderV-in
 10
0.5
 20
-0.9000000000000001
 30
0.0
 44
1.0
 45
1.0
  0
INSERT
  5
3B7
100
AcDbEntity
100
AcDbBlockReference
  8
V- in (unregulated)
 62
256
370
-1
  6
ByLayer
  2
SolderV-in
 10
0.4
 20
-0.9000000000000001
 30
0.0
 44
1.0
 45
1.0
  0
INSERT
  5
3B8
100
AcDbEntity
100
AcDbBlockReference
  8
V- in (unregulated)
 62
256
370
-1
  6
ByLayer
  2
SolderV-in
 10
0.6000000000000001
 20
-1.2000000000000002
 30
0.0
 44
1.0
 45
1.0
  0
INSERT
  5
3B9
100
AcDbEntity
100
AcDbBlockReference
  8
V- in (unregulated)
 62
256
370
-1
  6
ByLayer
  2
SolderV-in
 10
1.0
 20
-0.8000000000000002
 30
0.0
 44
1.0
 45
1.0
  0
INSERT
  5
3BA
100
AcDbEntity
100
AcDbBlockReference
  8
V- in (unregulated)
 62
256
370
-1
  6
ByLayer
  2
SolderV-in
 10
0.9000000000000001
 20
-0.8000000000000002
 30
0.0
 44
1.0
 45
1.0
  0
INSERT
  5
3BB
100
AcDbEntity
100
AcDbBlockReference
  8
V- in (unregulated)
 62
256
370
-1
  6
ByLayer
  2
SolderV-in
 10
0.9
 20
-0.5000000000000002
 30
0.0
 44
1.0
 45
1.0
  0
INSERT
  5
3BC
100
AcDbEntity
100
AcDbBlockReference
  8
V- in (unregulated)
 62
256
370
-1
  6
ByLayer
  2
SolderV-in
 10
1.0
 20
-0.5000000000000002
 30
0.0
 44
1.0
 45
1.0
  0
INSERT
  5
3BD
100
AcDbEntity
100
AcDbBlockReference
  8
V- in (unregulated)
 62
256
370
-1
  6
ByLayer
  2
SolderV-in
 10
-0.2
 20
-0.2000000000000002
 30
0.0
 44
1.0
 45
1.0
  0
LINE
  5
3BE
100
AcDbEntity
100
AcDbLine
  8
V-
 62
256
370
-1
  6
ByLayer
 10
0.35
 20
-1.26
 30
0.0
 11
0.5
 21
-1.26
 31
0.0
  0
LINE
  5
3BF
100
AcDbEntity
100
AcDbLine
  8
V-
 62
256
370
-1
  6
ByLayer
 10
0.5
 20
-1.26
 30
0.0
 11
0.5
 21
-1.3
 31
0.0
  0
INSERT
  5
3C0
100
AcDbEntity
100
AcDbBlockReference
  8
V-
 62
256
370
-1
  6
ByLayer
  2
SolderV-
 10
0.5
 20
-1.3
 30
0.0
 44
1.0
 45
1.0
  0
LINE
  5
3C1
100
AcDbEntity
100
AcDbLine
  8
V-
 62
256
370
-1
  6
ByLayer
 10
0.1
 20
-0.4000000000000001
 30
0.0
 11
0.1
 21
-0.4400000000000001
 31
0.0
  0
LINE
  5
3C2
100
AcDbEntity
100
AcDbLine
  8
V-
 62
256
370
-1
  6
ByLayer
 10
0.1
 20
-0.4400000000000001
 30
0.0
 11
0.05
 21
-0.4400000000000001
 31
0.0
  0
LINE
  5
3C3
100
AcDbEntity
100
AcDbLine
  8
V-
 62
256
370
-1
  6
ByLayer
 10
0.05
 20
-0.4400000000000001
 30
0.0
 11
0.05
 21
-0.5600000000000001
 31
0.0
  0
LINE
  5
3C4
100
AcDbEntity
100
AcDbLine
  8
V-
 62
256
370
-1
  6
ByLayer
 10
0.05
 20
-0.5600000000000001
 30
0.0
 11
-0.0
 21
-0.5600000000000001
 31
0.0
  0
LINE
  5
3C5
100
AcDbEntity
100
AcDbLine
  8
V-
 62
256
370
-1
  6
ByLayer
 10
-0.0
 20
-0.5600000000000001
 30
0.0
 11
-0.0
 21
-0.6000000000000001
 31
0.0
  0
LINE
  5
3C6
100
AcDbEntity
100
AcDbLine
  8
V-
 62
256
370
-1
  6
ByLayer
 10
0.35
 20
-0.36
 30
0.0
 11
0.35
 21
-1.26
 31
0.0
  0
LINE
  5
3C7
100
AcDbEntity
100
AcDbLine
  8
V-
 62
256
370
-1
  6
ByLayer
 10
0.35
 20
-0.36
 30
0.0
 11
-0.0
 21
-0.36
 31
0.0
  0
LINE
  5
3C8
100
AcDbEntity
100
AcDbLine
  8
V-
 62
256
370
-1
  6
ByLayer
 10
-0.0
 20
-0.36
 30
0.0
 11
-0.0
 21
-0.4
 31
0.0
  0
INSERT
  5
3C9
100
AcDbEntity
100
AcDbBlockReference
  8
V-
 62
256
370
-1
  6
ByLayer
  2
SolderV-
 10
0.1
 20
-0.4
 30
0.0
 44
1.0
 45
1.0
  0
INSERT
  5
3CA
100
AcDbEntity
100
AcDbBlockReference
  8
V-
 62
256
370
-1
  6
ByLayer
  2
SolderV-
 10
-0.0
 20
-0.4
 30
0.0
 44
1.0
 45
1.0
  0
INSERT
  5
3CB
100
AcDbEntity
100
AcDbBlockReference
  8
V-
 62
256
370
-1
  6
ByLayer
  2
SolderV-
 10
-0.0
 20
-0.6
 30
0.0
 44
1.0
 45
1.0
  0
LINE
  5
3CC
100
AcDbEntity
100
AcDbLine
  8
V-
 62
256
370
-1
  6
ByLayer
 10
0.1
 20
-0.6000000000000001
 30
0.0
 11
0.16
 21
-0.6000000000000001
 31
0.0
  0
LINE
  5
3CD
100
AcDbEntity
100
AcDbLine
  8
V-
 62
256
370
-1
  6
ByLayer
 10
0.16
 20
-0.6000000000000001
 30
0.0
 11
0.16
 21
0.0
 31
0.0
  0
INSERT
  5
3CE
100
AcDbEntity
100
AcDbBlockReference
  8
Ground
 62
256
370
-1
  6
ByLayer
  2
SolderGnd
 10
-0.3
 20
-1.0000000000000002
 30
0.0
 44
1.0
 45
1.0
  0
LINE
  5
3CF
100
AcDbEntity
100
AcDbLine
  8
Ground
 62
256
370
-1
  6
ByLayer
 10
-0.3
 20
-1.0
 30
0.0
 11
-0.3
 21
-1.0700000000000001
 31
0.0
  0
LINE
  5
3D0
100
AcDbEntity
100
AcDbLine
  8
Ground
 62
256
370
-1
  6
ByLayer
 10
-0.3
 20
-1.0700000000000001
 30
0.0
 11
0.2
 21
-1.0700000000000001
 31
0.0
  0
INSERT
  5
3D1
100
AcDbEntity
100
AcDbBlockReference
  8
Ground
 62
256
370
-1
  6
ByLayer
  2
SolderGnd
 10
0.2
 20
-1.0700000000000001
 30
0.0
 44
1.0
 45
1.0
  0
INSERT
  5
3D2
100
AcDbEntity
100
AcDbBlockReference
  8
Ground
 62
256
370
-1
  6
ByLayer
  2
SolderGnd
 10
-0.3
 20
-0.8
 30
0.0
 44
1.0
 45
1.0
  0
LINE
  5
3D3
100
AcDbEntity
100
AcDbLine
  8
Ground
 62
256
370
-1
  6
ByLayer
 10
-0.3
 20
-0.8
 30
0.0
 11
-0.27
 21
-0.8
 31
0.0
  0
LINE
  5
3D4
100
AcDbEntity
100
AcDbLine
  8
Ground
 62
256
370
-1
  6
ByLayer
 10
-0.27
 20
-0.8
 30
0.0
 11
-0.27
 21
-1.1400000000000001
 31
0.0
  0
LINE
  5
3D5
100
AcDbEntity
100
AcDbLine
  8
Ground
 62
256
370
-1
  6
ByLayer
 10
-0.27
 20
-1.1400000000000001
 30
0.0
 11
-0.1
 21
-1.1400000000000001
 31
0.0
  0
LINE
  5
3D6
100
AcDbEntity
100
AcDbLine
  8
Ground
 62
256
370
-1
  6
ByLayer
 10
-0.1
 20
-1.1400000000000001
 30
0.0
 11
-0.1
 21
-1.2000000000000002
 31
0.0
  0
INSERT
  5
3D7
100
AcDbEntity
100
AcDbBlockReference
  8
Ground
 62
256
370
-1
  6
ByLayer
  2
SolderGnd
 10
-0.1
 20
-1.2000000000000002
 30
0.0
 44
1.0
 45
1.0
  0
LINE
  5
3D8
100
AcDbEntity
100
AcDbLine
  8
V-
 62
256
370
-1
  6
ByLayer
 10
-0.1
 20
-1.3000000000000003
 30
0.0
 11
-0.1
 21
-1.27
 31
0.0
  0
LINE
  5
3D9
100
AcDbEntity
100
AcDbLine
  8
V-
 62
256
370
-1
  6
ByLayer
 10
-0.1
 20
-1.27
 30
0.0
 11
-0.05
 21
-1.27
 31
0.0
  0
LINE
  5
3DA
100
AcDbEntity
100
AcDbLine
  8
V-
 62
256
370
-1
  6
ByLayer
 10
-0.05
 20
-1.27
 30
0.0
 11
-0.05
 21
-0.63
 31
0.0
  0
LINE
  5
3DB
100
AcDbEntity
100
AcDbLine
  8
V-
 62
256
370
-1
  6
ByLayer
 10
-0.05
 20
-0.63
 30
0.0
 11
-0.1
 21
-0.63
 31
0.0
  0
LINE
  5
3DC
100
AcDbEntity
100
AcDbLine
  8
V-
 62
256
370
-1
  6
ByLayer
 10
-0.1
 20
-0.63
 30
0.0
 11
-0.1
 21
-0.6000000000000001
 31
0.0
  0
INSERT
  5
3DD
100
AcDbEntity
100
AcDbBlockReference
  8
V-
 62
256
370
-1
  6
ByLayer
  2
SolderV-
 10
-0.1
 20
-0.6000000000000001
 30
0.0
 44
1.0
 45
1.0
  0
INSERT
  5
3DE
100
AcDbEntity
100
AcDbBlockReference
  8
V-
 62
256
370
-1
  6
ByLayer
  2
SolderV-
 10
-0.1
 20
-1.3
 30
0.0
 44
1.0
 45
1.0
  0
INSERT
  5
3DF
100
AcDbEntity
100
AcDbBlockReference
  8
V-
 62
256
370
-1
  6
ByLayer
  2
ElectrolyticCapV-
 10
0.0
 20
-1.2000000000000002
 30
0.0
 44
1.0
 45
1.0
  0
INSERT
  5
3E0
100
AcDbEntity
100
AcDbBlockReference
  8
V-
 62
256
370
-1
  6
ByLayer
  2
SolderV-
 10
0.0
 20
-1.3
 30
0.0
 44
1.0
 45
1.0
  0
INSERT
  5
3E1
100
AcDbEntity
100
AcDbBlockReference
  8
Ground
 62
256
370
-1
  6
ByLayer
  2
SolderGnd
 10
0.0
 20
-1.2000000000000002
 30
0.0
 44
1.0
 45
1.0
  0
LINE
  5
3E2
100
AcDbEntity
100
AcDbLine
  8
V+
 62
256
370
-1
  6
ByLayer
 10
-0.5
 20
-1.3
 30
0.0
 11
-0.7000000000000001
 21
-1.3
 31
0.0
  0
INSERT
  5
3E3
100
AcDbEntity
100
AcDbBlockReference
  8
V+
 62
256
370
-1
  6
ByLayer
  2
SolderV+
 10
-0.5
 20
-1.3
 30
0.0
 44
1.0
 45
1.0
  0
INSERT
  5
3E4
100
AcDbEntity
100
AcDbBlockReference
  8
V+
 62
256
370
-1
  6
ByLayer
  2
ResistorV+
 10
-0.7
 20
-1.3
 30
0.0
 44
1.0
 45
1.0
  0
LINE
  5
3E5
100
AcDbEntity
100
AcDbLine
  8
V+
 62
256
370
-1
  6
ByLayer
 10
-0.7300000000000001
 20
-1.3800000000000001
 30
0.0
 11
-0.67
 21
-1.3200000000000001
 31
0.0
  0
LINE
  5
3E6
100
AcDbEntity
100
AcDbLine
  8
V+
 62
256
370
-1
  6
ByLayer
 10
-0.67
 20
-1.3200000000000001
 30
0.0
 11
-0.67
 21
-1.3300000000000001
 31
0.0
  0
LINE
  5
3E7
100
AcDbEntity
100
AcDbLine
  8
V+
 62
256
370
-1
  6
ByLayer
 10
-0.67
 20
-1.3300000000000001
 30
0.0
 11
-0.67
 21
-1.3200000000000001
 31
0.0
  0
LINE
  5
3E8
100
AcDbEntity
100
AcDbLine
  8
V+
 62
256
370
-1
  6
ByLayer
 10
-0.67
 20
-1.3200000000000001
 30
0.0
 11
-0.68
 21
-1.3200000000000001
 31
0.0
  0
INSERT
  5
3E9
100
AcDbEntity
100
AcDbBlockReference
  8
V+
 62
256
370
-1
  6
ByLayer
  2
RegulatorIOA_V+
 10
-0.4199999999999999
 20
-2.1799999999999997
 30
0.0
  0
INSERT
  5
3EA
100
AcDbEntity
100
AcDbBlockReference
  8
V-
 62
256
370
-1
  6
ByLayer
  2
RegulatorAIO_V-
 10
-0.3200000000000001
 20
-0.38
 30
0.0
  0
INSERT
  5
3EB
100
AcDbEntity
100
AcDbBlockReference
  8
V- in (unregulated)
 62
256
370
-1
  6
ByLayer
  2
ResistorV-in
 10
0.5999999999999998
 20
-0.900000000000001
 30
0.0
 44
1.0
 45
1.0
  0
INSERT
  5
3EC
100
AcDbEntity
100
AcDbBlockReference
  8
V- in (unregulated)
 62
256
370
-1
  6
ByLayer
  2
SolderV-in
 10
0.5999999999999998
 20
-0.900000000000001
 30
0.0
 44
1.0
 45
1.0
  0
INSERT
  5
3ED
100
AcDbEntity
100
AcDbBlockReference
  8
Ground
 62
256
370
-1
  6
ByLayer
  2
SolderGnd
 10
0.5999999999999998
 20
-1.0000000000000011
 30
0.0
 44
1.0
 45
1.0
  0
INSERT
  5
3EE
100
AcDbEntity
100
AcDbBlockReference
  8
Ground
 62
256
370
-1
  6
ByLayer
  2
SolderGnd
 10
0.3999999999999998
 20
-1.0000000000000004
 30
0.0
 44
1.0
 45
1.0
  0
LINE
  5
3EF
100
AcDbEntity
100
AcDbLine
  8
Ground
 62
256
370
-1
  6
ByLayer
 10
0.3999999999999998
 20
-1.0000000000000004
 30
0.0
 11
0.3
 21
-0.9999999999999999
 31
0.0
  0
INSERT
  5
3F0
100
AcDbEntity
100
AcDbBlockReference
  8
Ground
 62
256
370
-1
  6
ByLayer
  2
SolderGnd
 10
0.3
 20
-0.9999999999999999
 30
0.0
 44
1.0
 45
1.0
  0
INSERT
  5
3F1
100
AcDbEntity
100
AcDbBlockReference
  8
V-
 62
256
370
-1
  6
ByLayer
  2
ResistorV-
 10
0.32
 20
-1.1400000000000001
 30
0.0
 44
1.0
 45
1.0
  0
LINE
  5
3F2
100
AcDbEntity
100
AcDbLine
  8
V-
 62
256
370
-1
  6
ByLayer
 10
0.32
 20
-1.1400000000000001
 30
0.0
 11
0.32
 21
-1.1000000000000001
 31
0.0
  0
LINE
  5
3F3
100
AcDbEntity
100
AcDbLine
  8
V-
 62
256
370
-1
  6
ByLayer
 10
0.32
 20
-1.1000000000000001
 30
0.0
 11
0.4
 21
-1.1000000000000001
 31
0.0
  0
LINE
  5
3F4
100
AcDbEntity
100
AcDbLine
  8
V-
 62
256
370
-1
  6
ByLayer
 10
0.32
 20
-1.2400000000000002
 30
0.0
 11
0.32
 21
-1.3
 31
0.0
  0
LINE
  5
3F5
100
AcDbEntity
100
AcDbLine
  8
V-
 62
256
370
-1
  6
ByLayer
 10
0.32
 20
-1.3
 30
0.0
 11
0.4
 21
-1.3
 31
0.0
  0
INSERT
  5
3F6
100
AcDbEntity
100
AcDbBlockReference
  8
V-
 62
256
370
-1
  6
ByLayer
  2
SolderV-
 10
0.4
 20
-1.1000000000000001
 30
0.0
 44
1.0
 45
1.0
  0
INSERT
  5
3F7
100
AcDbEntity
100
AcDbBlockReference
  8
V-
 62
256
370
-1
  6
ByLayer
  2
SolderV-
 10
0.4
 20
-1.3
 30
0.0
 44
1.0
 45
1.0
  0
INSERT
  5
3F8
100
AcDbEntity
100
AcDbBlockReference
  8
V-
 62
256
370
-1
  6
ByLayer
  2
SolderV-
 10
0.7
 20
-1.5000000000000002
 30
0.0
 44
1.0
 45
1.0
  0
LINE
  5
3F9
100
AcDbEntity
100
AcDbLine
  8
V-
 62
256
370
-1
  6
ByLayer
 10
1.0
 20
-1.0
 30
0.0
 11
1.1599999999999999
 21
-1.0
 31
0.0
  0
LINE
  5
3FA
100
AcDbEntity
100
AcDbLine
  8
V-
 62
256
370
-1
  6
ByLayer
 10
1.0
 20
-1.4000000000000001
 30
0.0
 11
1.2
 21
-1.4000000000000001
 31
0.0
  0
LINE
  5
3FB
100
AcDbEntity
100
AcDbLine
  8
V-
 62
256
370
-1
  6
ByLayer
 10
1.1599999999999999
 20
-1.0
 30
0.0
 11
1.2
 21
-1.0
 31
0.0
  0
INSERT
  5
3FC
100
AcDbEntity
100
AcDbBlockReference
  8
V-
 62
256
370
-1
  6
ByLayer
  2
SolderV-
 10
1.0
 20
-1.0
 30
0.0
 44
1.0
 45
1.0
  0
INSERT
  5
3FD
100
AcDbEntity
100
AcDbBlockReference
  8
V-
 62
256
370
-1
  6
ByLayer
  2
SolderV-
 10
1.0
 20
-1.4000000000000001
 30
0.0
 44
1.0
 45
1.0
  0
INSERT
  5
3FE
100
AcDbEntity
100
AcDbBlockReference
  8
V-
 62
256
370
-1
  6
ByLayer
  2
ResistorV-
 10
1.2
 20
-1.1500000000000001
 30
0.0
 44
1.0
 45
1.0
  0
LINE
  5
3FF
100
AcDbEntity
100
AcDbLine
  8
V-
 62
256
370
-1
  6
ByLayer
 10
1.2
 20
-1.0
 30
0.0
 11
1.2
 21
-1.1500000000000001
 31
0.0
  0
LINE
  5
400
100
AcDbEntity
100
AcDbLine
  8
V-
 62
256
370
-1
  6
ByLayer
 10
1.2
 20
-1.25
 30
0.0
 11
1.2
 21
-1.4000000000000001
 31
0.0
  0
LINE
  5
401
100
AcDbEntity
100
AcDbLine
  8
V-
 62
256
370
-1
  6
ByLayer
 10
1.1699999999999999
 20
-1.22
 30
0.0
 11
1.24
 21
-1.1700000000000002
 31
0.0
  0
LINE
  5
402
100
AcDbEntity
100
AcDbLine
  8
V-
 62
256
370
-1
  6
ByLayer
 10
1.24
 20
-1.1700000000000002
 30
0.0
 11
1.2270000000000001
 21
-1.1699999999999999
 31
0.0
  0
LINE
  5
403
100
AcDbEntity
100
AcDbLine
  8
V-
 62
256
370
-1
  6
ByLayer
 10
1.2400000000000002
 20
-1.1699999999999999
 30
0.0
 11
1.2390000000000001
 21
-1.181
 31
0.0
  0
MTEXT
  5
404
100
AcDbEntity
100
AcDbMText
  8
V+ in (unregulated)
 62
256
370
-1
  6
ByLayer
 10
-0.79
 20
-0.72
 30
0.0
 40
0.03
 41
100.0
 71
1
 72
0
  1
Vin+
  7
normallatin1
 50
0.0
 73
1
 44
1.0
  0
MTEXT
  5
405
100
AcDbEntity
100
AcDbMText
  8
V- in (unregulated)
 62
256
370
-1
  6
ByLayer
 10
-0.79
 20
-0.85
 30
0.0
 40
0.03
 41
100.0
 71
1
 72
0
  1
Vin-
  7
normallatin1
 50
0.0
 73
1
 44
1.0
  0
MTEXT
  5
406
100
AcDbEntity
100
AcDbMText
  8
V-
 62
256
370
-1
  6
ByLayer
 10
0.0999999999999999
 20
0.1000000000000001
 30
0.0
 40
0.03
 41
100.0
 71
1
 72
0
  1
Vout-
  7
normallatin1
 50
0.0
 73
1
 44
1.0
  0
MTEXT
  5
407
100
AcDbEntity
100
AcDbMText
  8
V+
 62
256
370
-1
  6
ByLayer
 10
-0.2999999999999999
 20
-2.9999999999999996
 30
0.0
 40
0.03
 41
100.0
 71
1
 72
0
  1
Vout+
  7
normallatin1
 50
0.0
 73
1
 44
1.0
  0
INSERT
  5
408
100
AcDbEntity
100
AcDbBlockReference
  8
V+ in (unregulated)
 62
256
370
-1
  6
ByLayer
  2
ResistorV+in
 10
-0.15
 20
-1.26
 30
0.0
 44
1.0
 45
1.0
  0
LINE
  5
409
100
AcDbEntity
100
AcDbLine
  8
V+ in (unregulated)
 62
256
370
-1
  6
ByLayer
 10
-0.15
 20
-1.3599999999999999
 30
0.0
 11
-0.15
 21
-1.5
 31
0.0
  0
LINE
  5
40A
100
AcDbEntity
100
AcDbLine
  8
V+ in (unregulated)
 62
256
370
-1
  6
ByLayer
 10
-0.15
 20
-1.5
 30
0.0
 11
-0.1
 21
-1.5
 31
0.0
  0
LINE
  5
40B
100
AcDbEntity
100
AcDbLine
  8
V+ in (unregulated)
 62
256
370
-1
  6
ByLayer
 10
-0.15
 20
-1.26
 30
0.0
 11
-0.15
 21
-0.96
 31
0.0
  0
LINE
  5
40C
100
AcDbEntity
100
AcDbLine
  8
V+ in (unregulated)
 62
256
370
-1
  6
ByLayer
 10
-0.15
 20
-0.96
 30
0.0
 11
-0.23
 21
-0.96
 31
0.0
  0
LINE
  5
40D
100
AcDbEntity
100
AcDbLine
  8
V+ in (unregulated)
 62
256
370
-1
  6
ByLayer
 10
-0.23
 20
-0.96
 30
0.0
 11
-0.23
 21
-0.9
 31
0.0
  0
LINE
  5
40E
100
AcDbEntity
100
AcDbLine
  8
V+ in (unregulated)
 62
256
370
-1
  6
ByLayer
 10
-0.23
 20
-0.9
 30
0.0
 11
-0.3
 21
-0.9
 31
0.0
  0
INSERT
  5
40F
100
AcDbEntity
100
AcDbBlockReference
  8
V+ in (unregulated)
 62
256
370
-1
  6
ByLayer
  2
SolderV+in
 10
-0.3
 20
-0.9000000000000001
 30
0.0
 44
1.0
 45
1.0
  0
INSERT
  5
410
100
AcDbEntity
100
AcDbBlockReference
  8
V+ in (unregulated)
 62
256
370
-1
  6
ByLayer
  2
SolderV+in
 10
-0.1
 20
-1.5000000000000002
 30
0.0
 44
1.0
 45
1.0
  0
LINE
  5
411
100
AcDbEntity
100
AcDbLine
  8
V+
 62
256
370
-1
  6
ByLayer
 10
-0.5
 20
-1.5
 30
0.0
 11
-0.7000000000000001
 21
-1.5
 31
0.0
  0
LINE
  5
412
100
AcDbEntity
100
AcDbLine
  8
V+
 62
256
370
-1
  6
ByLayer
 10
-0.7000000000000001
 20
-1.5
 30
0.0
 11
-0.7000000000000001
 21
-1.3999999999999999
 31
0.0
  0
INSERT
  5
413
100
AcDbEntity
100
AcDbBlockReference
  8
V+
 62
256
370
-1
  6
ByLayer
  2
SolderV+
 10
-0.5
 20
-1.5
 30
0.0
 44
1.0
 45
1.0
  0
INSERT
  5
414
100
AcDbEntity
100
AcDbBlockReference
  8
V-
 62
256
370
-1
  6
ByLayer
  2
JFET_DGS_V-
 10
0.48
 20
-1.6799999999999999
 30
0.0
 44
1.0
 45
1.0
  0
INSERT
  5
415
100
AcDbEntity
100
AcDbBlockReference
  8
V+
 62
256
370
-1
  6
ByLayer
  2
JFET_DGS_V+
 10
-0.22
 20
-1.5800000000000001
 30
0.0
 44
1.0
 45
1.0
  0
MTEXT
  5
416
100
AcDbEntity
100
AcDbMText
  8
V-
 62
256
370
-1
  6
ByLayer
 10
-0.2790442241821539
 20
-0.3351483539118991
 30
0.0
 40
0.025
 41
100.0
 71
1
 72
0
  1
U2
  7
normallatin1
 50
0.0
 73
1
 44
1.0
  0
INSERT
  5
417
100
AcDbEntity
100
AcDbBlockReference
  8
V-
 62
256
370
-1
  6
ByLayer
  2
SolderV-
 10
0.1000000000000001
 20
-0.6000000000000001
 30
0.0
 44
1.0
 45
1.0
  0
MTEXT
  5
418
100
AcDbEntity
100
AcDbMText
  8
V-
 62
256
370
-1
  6
ByLayer
 10
0.0224416518918981
 20
-1.2201171791753027
 30
0.0
 40
0.025
 41
100.0
 71
1
 72
0
  1
C6
  7
normallatin1
 50
0.0
 73
1
 44
1.0
  0
MTEXT
  5
419
100
AcDbEntity
100
AcDbMText
  8
V+ in (unregulated)
 62
256
370
-1
  6
ByLayer
 10
-0.139846925473723
 20
-1.2487952480140023
 30
0.0
 40
0.025
 41
100.0
 71
1
 72
0
  1
R1
  7
normallatin1
 50
0.0
 73
1
 44
1.0
  0
MTEXT
  5
41A
100
AcDbEntity
100
AcDbMText
  8
V+
 62
256
370
-1
  6
ByLayer
 10
-0.6367080512092811
 20
-1.3453917951639591
 30
0.0
 40
0.025
 41
100.0
 71
1
 72
0
  1
R3
  7
normallatin1
 50
0.0
 73
1
 44
1.0
  0
MTEXT
  5
41B
100
AcDbEntity
100
AcDbMText
  8
V+
 62
256
370
-1
  6
ByLayer
 10
-0.1262401975897935
 20
-1.5466314028066914
 30
0.0
 40
0.025
 41
100.0
 71
1
 72
0
  1
J1
  7
normallatin1
 50
0.0
 73
1
 44
1.0
  0
MTEXT
  5
41C
100
AcDbEntity
100
AcDbMText
  8
V+
 62
256
370
-1
  6
ByLayer
 10
-0.4611168893998445
 20
-1.6297836287640404
 30
0.0
 40
0.025
 41
100.0
 71
1
 72
0
  1
D1
  7
normallatin1
 50
0.0
 73
1
 44
1.0
  0
MTEXT
  5
41D
100
AcDbEntity
100
AcDbMText
  8
V+
 62
256
370
-1
  6
ByLayer
 10
-0.3658697942123356
 20
-1.7325900172203992
 30
0.0
 40
0.025
 41
100.0
 71
1
 72
0
  1
D2
  7
normallatin1
 50
0.0
 73
1
 44
1.0
  0
MTEXT
  5
41E
100
AcDbEntity
100
AcDbMText
  8
V+
 62
256
370
-1
  6
ByLayer
 10
-0.3600113419289772
 20
-2.1449494650361633
 30
0.0
 40
0.025
 41
100.0
 71
1
 72
0
  1
U1
  7
normallatin1
 50
0.0
 73
1
 44
1.0
  0
MTEXT
  5
41F
100
AcDbEntity
100
AcDbMText
  8
V+
 62
256
370
-1
  6
ByLayer
 10
-0.2929226141679342
 20
-2.0277804193689897
 30
0.0
 40
0.025
 41
100.0
 71
1
 72
0
  1
R6
  7
normallatin1
 50
0.0
 73
1
 44
1.0
  0
MTEXT
  5
420
100
AcDbEntity
100
AcDbMText
  8
V+
 62
256
370
-1
  6
ByLayer
 10
0.8443730581305369
 20
-1.9382027941331212
 30
0.0
 40
0.025
 41
100.0
 71
1
 72
0
  1
C4
  7
normallatin1
 50
0.0
 73
1
 44
1.0
  0
MTEXT
  5
421
100
AcDbEntity
100
AcDbMText
  8
V-
 62
256
370
-1
  6
ByLayer
 10
0.6255315179973328
 20
-1.6488708442678937
 30
0.0
 40
0.025
 41
100.0
 71
1
 72
0
  1
J2
  7
normallatin1
 50
0.0
 73
1
 44
1.0
  0
MTEXT
  5
422
100
AcDbEntity
100
AcDbMText
  8
V-
 62
256
370
-1
  6
ByLayer
 10
0.8456959344525873
 20
-1.6526504909023187
 30
0.0
 40
0.025
 41
100.0
 71
1
 72
0
  1
D4
  7
normallatin1
 50
0.0
 73
1
 44
1.0
  0
MTEXT
  5
423
100
AcDbEntity
100
AcDbMText
  8
V-
 62
256
370
-1
  6
ByLayer
 10
0.9401871003132116
 20
-1.5430407385039946
 30
0.0
 40
0.025
 41
100.0
 71
1
 72
0
  1
D3
  7
normallatin1
 50
0.0
 73
1
 44
1.0
  0
MTEXT
  5
424
100
AcDbEntity
100
AcDbMText
  8
V-
 62
256
370
-1
  6
ByLayer
 10
1.249055098720129
 20
-1.2032859402563891
 30
0.0
 40
0.025
 41
100.0
 71
1
 72
0
  1
R5
  7
normallatin1
 50
0.0
 73
1
 44
1.0
  0
MTEXT
  5
425
100
AcDbEntity
100
AcDbMText
  8
V-
 62
256
370
-1
  6
ByLayer
 10
0.2656033282943123
 20
-1.1557857036340839
 30
0.0
 40
0.025
 41
100.0
 71
1
 72
0
  1
R6
  7
normallatin1
 50
0.0
 73
1
 44
1.0
  0
MTEXT
  5
426
100
AcDbEntity
100
AcDbMText
  8
V- in (unregulated)
 62
256
370
-1
  6
ByLayer
 10
0.5370493997156598
 20
-0.9356840056901702
 30
0.0
 40
0.025
 41
100.0
 71
1
 72
0
  1
R2
  7
normallatin1
 50
0.0
 73
1
 44
1.0
  0
ENDSEC
  0
SECTION
  2
OBJECTS
  0
DICTIONARY
  5
C
100
AcDbDictionary
280
0
281
1
  3
ACAD_GROUP
350
D
  3
ACAD_LAYOUT
350
1A
  3
ACAD_MLINESTYLE
350
17
  3
ACAD_PLOTSETTINGS
350
19
  3
ACAD_PLOTSTYLENAME
350
E
  3
AcDbVariableDictionary
350
427
  0
DICTIONARY
  5
D
100
AcDbDictionary
280
0
281
1
  0
ACDBDICTIONARYWDFLT
  5
E
100
AcDbDictionary
281
1
  3
Normal
350
F
100
AcDbDictionaryWithDefault
340
F
  0
ACDBPLACEHOLDER
  5
F
  0
DICTIONARY
  5
17
100
AcDbDictionary
280
0
281
1
  3
Standard
350
18
  0
MLINESTYLE
  5
18
100
AcDbMlineStyle
  2
STANDARD
 70
0
  3

 62
256
 51
90.0
 52
90.0
 71
2
 49
0.5
 62
256
  6
BYLAYER
 49
-0.5
 62
256
  6
BYLAYER
  0
DICTIONARY
  5
19
100
AcDbDictionary
280
0
281
1
  0
DICTIONARY
  5
1A
100
AcDbDictionary
281
1
  3
Layout1
350
1E
  3
Layout2
350
26
  3
Model
350
22
  0
LAYOUT
  5
1E
100
AcDbPlotSettings
  1

  2
C:\Program Files\AutoCAD 2002\plotters\DWF ePlot (optimized for plotting).pc3
  4

  6

 40
0.0
 41
0.0
 42
0.0
 43
0.0
 44
0.0
 45
0.0
 46
0.0
 47
0.0
 48
0.0
 49
0.0
140
0.0
141
0.0
142
1.0
143
1.0
 70
688
 72
0
 73
0
 74
5
  7

 75
16
147
1.0
148
0.0
149
0.0
100
AcDbLayout
  1
Layout1
 70
1
 71
1
 10
0.0
 20
0.0
 11
420.0
 21
297.0
 12
0.0
 22
0.0
 32
0.0
 14
100000000000000000000.0
 24
100000000000000000000.0
 34
100000000000000000000.0
 15
-100000000000000000000.0
 25
-100000000000000000000.0
 35
-100000000000000000000.0
146
0.0
 13
0.0
 23
0.0
 33
0.0
 16
1.0
 26
0.0
 36
0.0
 17
0.0
 27
1.0
 37
0.0
 76
0
330
1B
  0
LAYOUT
  5
22
100
AcDbPlotSettings
  1

  2
C:\Program Files\AutoCAD 2002\plotters\DWF ePlot (optimized for plotting).pc3
  4

  6

 40
0.0
 41
0.0
 42
0.0
 43
0.0
 44
0.0
 45
0.0
 46
0.0
 47
0.0
 48
0.0
 49
0.0
140
0.0
141
0.0
142
1.0
143
1.0
 70
1712
 72
0
 73
0
 74
0
  7

 75
0
147
1.0
148
0.0
149
0.0
100
AcDbLayout
  1
Model
 70
1
 71
0
 10
0.0
 20
0.0
 11
12.0
 21
9.0
 12
0.0
 22
0.0
 32
0.0
 14
0.0
 24
0.0
 34
0.0
 15
0.0
 25
0.0
 35
0.0
146
0.0
 13
0.0
 23
0.0
 33
0.0
 16
1.0
 26
0.0
 36
0.0
 17
0.0
 27
1.0
 37
0.0
 76
0
330
1F
  0
LAYOUT
  5
26
100
AcDbPlotSettings
  1

  2
C:\Program Files\AutoCAD 2002\plotters\DWF ePlot (optimized for plotting).pc3
  4

  6

 40
0.0
 41
0.0
 42
0.0
 43
0.0
 44
0.0
 45
0.0
 46
0.0
 47
0.0
 48
0.0
 49
0.0
140
0.0
141
0.0
142
1.0
143
1.0
 70
688
 72
0
 73
0
 74
5
  7

 75
16
147
1.0
148
0.0
149
0.0
100
AcDbLayout
  1
Layout2
 70
1
 71
2
 10
0.0
 20
0.0
 11
12.0
 21
9.0
 12
0.0
 22
0.0
 32
0.0
 14
0.0
 24
0.0
 34
0.0
 15
0.0
 25
0.0
 35
0.0
146
0.0
 13
0.0
 23
0.0
 33
0.0
 16
1.0
 26
0.0
 36
0.0
 17
0.0
 27
1.0
 37
0.0
 76
0
330
23
  0
DICTIONARY
  5
427
100
AcDbDictionary
281
1
  3
DIMASSOC
350
429
  3
HIDETEXT
350
428
  0
DICTIONARYVAR
  5
428
100
DictionaryVariables
280
0
  1
2
  0
DICTIONARYVAR
  5
429
100
DictionaryVariables
280
0
  1
1
  0
ENDSEC
  0
EOF
