M48
INCH
T51C0.030
T50C0.028
%
T50
X002000Y008000
X002000Y007000
X002000Y006000
X002000Y005000
X002000Y004000
X002000Y003000
X002000Y002000
X005000Y008000
X005000Y007000
X005000Y006000
X005000Y005000
X005000Y004000
X005000Y003000
X005000Y002000
X007000Y008000
X007000Y007000
X007000Y006000
X007000Y005000
X007000Y004000
X007000Y003000
X007000Y002000
X010000Y008000
X010000Y007000
X010000Y006000
X010000Y005000
X010000Y004000
X010000Y003000
X010000Y002000
X012000Y008000
X012000Y007000
X012000Y006000
X012000Y005000
X012000Y004000
X012000Y003000
X012000Y002000
X015000Y008000
X015000Y007000
X015000Y006000
X015000Y005000
X015000Y004000
X015000Y003000
X015000Y002000
T51
X001000Y009000
X001000Y001000
X019000Y007000
X019000Y006000
X019000Y005000
X019000Y004000
X019000Y003000
X019000Y002000
M30
