G04 start of page 5 for group 3 idx 3 *
G04 Title: (unknown), signal3 *
G04 Creator: pcb 20140316 *
G04 CreationDate: Sat 19 Jun 2021 08:46:57 PM GMT UTC *
G04 For: steve *
G04 Format: Gerber/RS-274X *
G04 PCB-Dimensions (mil): 2000.00 1000.00 *
G04 PCB-Coordinate-Origin: lower left *
%MOIN*%
%FSLAX25Y25*%
%LNGROUP3*%
%ADD32C,0.0280*%
%ADD31C,0.0300*%
%ADD30C,0.0660*%
%ADD29C,0.0600*%
%ADD28C,0.0001*%
G54D28*G36*
X17000Y83000D02*Y77000D01*
X23000D01*
Y83000D01*
X17000D01*
G37*
G54D29*X20000Y70000D03*
Y60000D03*
X50000Y40000D03*
Y50000D03*
Y60000D03*
Y70000D03*
Y80000D03*
G54D28*G36*
X67000Y83000D02*Y77000D01*
X73000D01*
Y83000D01*
X67000D01*
G37*
G54D29*X70000Y70000D03*
Y60000D03*
Y50000D03*
Y40000D03*
Y30000D03*
Y20000D03*
X20000Y50000D03*
Y40000D03*
Y30000D03*
Y20000D03*
X50000D03*
Y30000D03*
X100000Y20000D03*
X150000D03*
X100000Y30000D03*
X150000D03*
Y40000D03*
X100000D03*
Y50000D03*
Y60000D03*
Y70000D03*
Y80000D03*
G54D28*G36*
X117000Y83000D02*Y77000D01*
X123000D01*
Y83000D01*
X117000D01*
G37*
G54D29*X120000Y70000D03*
Y60000D03*
Y50000D03*
X150000D03*
Y60000D03*
Y70000D03*
Y80000D03*
X120000Y40000D03*
Y30000D03*
Y20000D03*
G54D30*X10000Y90000D03*
X190000Y40000D03*
Y30000D03*
Y50000D03*
Y60000D03*
Y70000D03*
Y20000D03*
X10000Y10000D03*
G54D31*G54D32*M02*
