G04 start of page 11 for group -4063 idx -4063 *
G04 Title: (unknown), componentmask *
G04 Creator: pcb 20140316 *
G04 CreationDate: Sat 19 Jun 2021 08:46:57 PM GMT UTC *
G04 For: steve *
G04 Format: Gerber/RS-274X *
G04 PCB-Dimensions (mil): 2000.00 1000.00 *
G04 PCB-Coordinate-Origin: lower left *
%MOIN*%
%FSLAX25Y25*%
%LNTOPMASK*%
%ADD53C,0.0660*%
%ADD52C,0.0001*%
G54D52*G36*
X16700Y83300D02*Y76700D01*
X23300D01*
Y83300D01*
X16700D01*
G37*
G54D53*X20000Y70000D03*
Y60000D03*
X50000Y40000D03*
Y50000D03*
Y60000D03*
Y70000D03*
Y80000D03*
G54D52*G36*
X66700Y83300D02*Y76700D01*
X73300D01*
Y83300D01*
X66700D01*
G37*
G54D53*X70000Y70000D03*
Y60000D03*
Y50000D03*
Y40000D03*
Y30000D03*
Y20000D03*
X20000Y50000D03*
Y40000D03*
Y30000D03*
Y20000D03*
X50000D03*
Y30000D03*
X100000Y20000D03*
X150000D03*
X100000Y30000D03*
X150000D03*
Y40000D03*
X100000D03*
Y50000D03*
Y60000D03*
Y70000D03*
Y80000D03*
G54D52*G36*
X116700Y83300D02*Y76700D01*
X123300D01*
Y83300D01*
X116700D01*
G37*
G54D53*X120000Y70000D03*
Y60000D03*
Y50000D03*
X150000D03*
Y60000D03*
Y70000D03*
Y80000D03*
X120000Y40000D03*
Y30000D03*
Y20000D03*
M02*
