G04 start of page 3 for group 1 idx 1 *
G04 Title: (unknown), ground *
G04 Creator: pcb 20140316 *
G04 CreationDate: Sat 19 Jun 2021 08:46:57 PM GMT UTC *
G04 For: steve *
G04 Format: Gerber/RS-274X *
G04 PCB-Dimensions (mil): 2000.00 1000.00 *
G04 PCB-Coordinate-Origin: lower left *
%MOIN*%
%FSLAX25Y25*%
%LNGROUP1*%
%ADD22C,0.0280*%
%ADD21C,0.0300*%
%ADD20C,0.0660*%
%ADD19C,0.0600*%
%ADD18C,0.0001*%
%ADD17C,0.0100*%
G54D17*X50000Y9000D02*Y5000D01*
Y9000D02*X51500Y7000D01*
X53000Y9000D01*
Y5000D01*
X54200Y8500D02*Y5500D01*
Y8500D02*X54700Y9000D01*
X55700D01*
X56200Y8500D01*
Y5500D01*
X55700Y5000D02*X56200Y5500D01*
X54700Y5000D02*X55700D01*
X54200Y5500D02*X54700Y5000D01*
X57900Y9000D02*Y5000D01*
X59200Y9000D02*X59900Y8300D01*
Y5700D01*
X59200Y5000D02*X59900Y5700D01*
X57400Y5000D02*X59200D01*
X57400Y9000D02*X59200D01*
X61100Y7200D02*X62600D01*
X61100Y5000D02*X63100D01*
X61100Y9000D02*Y5000D01*
Y9000D02*X63100D01*
X66300D02*X66800Y8500D01*
X64800Y9000D02*X66300D01*
X64300Y8500D02*X64800Y9000D01*
X64300Y8500D02*Y7500D01*
X64800Y7000D01*
X66300D01*
X66800Y6500D01*
Y5500D01*
X66300Y5000D02*X66800Y5500D01*
X64800Y5000D02*X66300D01*
X64300Y5500D02*X64800Y5000D01*
X68000Y7200D02*X69500D01*
X68000Y5000D02*X70000D01*
X68000Y9000D02*Y5000D01*
Y9000D02*X70000D01*
X71200D02*Y5000D01*
X73200D01*
X74400Y7200D02*X75900D01*
X74400Y5000D02*X76400D01*
X74400Y9000D02*Y5000D01*
Y9000D02*X76400D01*
X78300Y5000D02*X79600D01*
X77600Y5700D02*X78300Y5000D01*
X77600Y8300D02*Y5700D01*
Y8300D02*X78300Y9000D01*
X79600D01*
X80800D02*X82800D01*
X81800D02*Y5000D01*
X86300Y9000D02*Y5000D01*
X87600Y9000D02*X88300Y8300D01*
Y5700D01*
X87600Y5000D02*X88300Y5700D01*
X85800Y5000D02*X87600D01*
X85800Y9000D02*X87600D01*
X89500D02*X90500D01*
X90000D02*Y5000D01*
X89500D02*X90500D01*
X93700Y9000D02*X94200Y8500D01*
X92200Y9000D02*X93700D01*
X91700Y8500D02*X92200Y9000D01*
X91700Y8500D02*Y7500D01*
X92200Y7000D01*
X93700D01*
X94200Y6500D01*
Y5500D01*
X93700Y5000D02*X94200Y5500D01*
X92200Y5000D02*X93700D01*
X91700Y5500D02*X92200Y5000D01*
X95900Y9000D02*Y5000D01*
X95400Y9000D02*X97400D01*
X97900Y8500D01*
Y7500D01*
X97400Y7000D02*X97900Y7500D01*
X95900Y7000D02*X97400D01*
X99100Y9000D02*Y5000D01*
X101100D01*
X102300Y8000D02*Y5000D01*
Y8000D02*X103000Y9000D01*
X104100D01*
X104800Y8000D01*
Y5000D01*
X102300Y7000D02*X104800D01*
X106000Y9000D02*X107000Y7000D01*
X108000Y9000D01*
X107000Y7000D02*Y5000D01*
G54D18*G36*
X17000Y83000D02*Y77000D01*
X23000D01*
Y83000D01*
X17000D01*
G37*
G54D19*X20000Y70000D03*
Y60000D03*
X50000Y40000D03*
Y50000D03*
Y60000D03*
Y70000D03*
Y80000D03*
G54D18*G36*
X67000Y83000D02*Y77000D01*
X73000D01*
Y83000D01*
X67000D01*
G37*
G54D19*X70000Y70000D03*
Y60000D03*
Y50000D03*
Y40000D03*
Y30000D03*
Y20000D03*
X20000Y50000D03*
Y40000D03*
Y30000D03*
Y20000D03*
X50000D03*
Y30000D03*
X100000Y20000D03*
X150000D03*
X100000Y30000D03*
X150000D03*
Y40000D03*
X100000D03*
Y50000D03*
Y60000D03*
Y70000D03*
Y80000D03*
G54D18*G36*
X117000Y83000D02*Y77000D01*
X123000D01*
Y83000D01*
X117000D01*
G37*
G54D19*X120000Y70000D03*
Y60000D03*
Y50000D03*
X150000D03*
Y60000D03*
Y70000D03*
Y80000D03*
X120000Y40000D03*
Y30000D03*
Y20000D03*
G54D20*X10000Y90000D03*
X190000Y40000D03*
Y30000D03*
Y50000D03*
Y60000D03*
Y70000D03*
Y20000D03*
X10000Y10000D03*
G54D21*G54D22*M02*
