G04 start of page 2 for group 0 idx 0 *
G04 Title: (unknown), top *
G04 Creator: pcb 20140316 *
G04 CreationDate: Mon 05 Jul 2021 10:39:17 PM GMT UTC *
G04 For: steve *
G04 Format: Gerber/RS-274X *
G04 PCB-Dimensions (mil): 2200.00 1000.00 *
G04 PCB-Coordinate-Origin: lower left *
%MOIN*%
%FSLAX25Y25*%
%LNTOP*%
%ADD18C,0.0380*%
%ADD17C,0.0280*%
%ADD16C,0.0300*%
%ADD15C,0.0660*%
%ADD14C,0.0700*%
%ADD13C,0.0600*%
%ADD12C,0.0001*%
%ADD11C,0.0100*%
G54D11*X0Y0D02*Y100000D01*
Y0D02*X2000Y2000D01*
X0Y100000D02*X218000D01*
X170000Y84500D02*X110000D01*
Y80000D01*
X140000Y80000D02*Y75500D01*
X205000Y80000D02*Y75500D01*
X210000Y80000D02*X205000D01*
X210000Y65500D02*X140000D01*
X30000Y80000D02*Y74500D01*
X103500Y74500D02*X30000D01*
X205000Y75500D02*X140000D01*
X105500Y80000D02*X80000D01*
X220000Y100000D02*Y0D01*
X218000Y100000D02*Y2000D01*
X215000Y40000D02*Y25000D01*
X210000Y70000D02*Y65500D01*
X215000Y40000D02*X210000D01*
X205000Y50000D02*Y30000D01*
X210000Y50000D02*X205000D01*
X210000Y55500D02*X165500D01*
X210000Y60000D02*Y55500D01*
X170000Y84500D02*Y80000D01*
X205000Y30000D02*X170000D01*
X2000Y2000D02*X218000D01*
X140000Y25000D02*Y20000D01*
Y20000D02*Y15500D01*
X215000Y25000D02*X140000D01*
X80000Y20000D02*X64500D01*
X140000Y15500D02*X80000D01*
Y20000D02*Y15500D01*
X140000Y30000D02*X135500D01*
X116500Y25500D02*X84500D01*
X64500Y45500D02*Y20000D01*
X80000Y64500D02*Y60000D01*
X64500Y45500D02*X30000D01*
Y50000D02*Y45500D01*
Y70000D02*Y64500D01*
X80000Y64500D02*X30000D01*
X84500Y70000D02*Y37750D01*
X84500Y70000D02*X80000D01*
X84500Y50000D02*Y25500D01*
X84500Y50000D02*X80000D01*
X103500Y74500D02*Y35500D01*
X105500Y80000D02*Y40000D01*
X114500Y70000D02*Y55500D01*
X135500Y45500D02*Y30000D01*
X140000Y65500D02*Y60000D01*
X144500Y45500D02*X135500D01*
X165500Y40000D02*X140000D01*
X165500Y55500D02*Y40000D01*
X144500Y55500D02*Y45500D01*
X144500Y55500D02*X114500D01*
X140000Y50000D02*X116500D01*
X114500Y35500D02*X103500D01*
X114500Y50000D02*Y35500D01*
X114500Y50000D02*X110000D01*
X110000Y40000D02*X105500D01*
X116500Y50000D02*Y25500D01*
X114500Y70000D02*X110000D01*
G54D12*G36*
X137000Y83000D02*Y77000D01*
X143000D01*
Y83000D01*
X137000D01*
G37*
G54D13*X140000Y70000D03*
Y60000D03*
Y50000D03*
G54D12*G36*
X205500Y84500D02*Y75500D01*
X214500D01*
Y84500D01*
X205500D01*
G37*
G54D14*X210000Y70000D03*
Y60000D03*
Y50000D03*
Y40000D03*
Y30000D03*
G54D13*X140000Y40000D03*
Y30000D03*
Y20000D03*
X170000D03*
Y30000D03*
Y40000D03*
Y50000D03*
Y60000D03*
Y70000D03*
Y80000D03*
G54D12*G36*
X27000Y83000D02*Y77000D01*
X33000D01*
Y83000D01*
X27000D01*
G37*
G54D13*X30000Y70000D03*
Y60000D03*
Y50000D03*
X60000Y60000D03*
X80000D03*
X60000Y70000D03*
Y80000D03*
G54D12*G36*
X77000Y83000D02*Y77000D01*
X83000D01*
Y83000D01*
X77000D01*
G37*
G54D13*X80000Y70000D03*
X30000Y40000D03*
Y30000D03*
Y20000D03*
X60000D03*
Y30000D03*
Y40000D03*
Y50000D03*
X80000D03*
Y40000D03*
Y30000D03*
Y20000D03*
X110000D03*
Y30000D03*
Y40000D03*
Y50000D03*
Y60000D03*
Y70000D03*
Y80000D03*
G54D15*X190000Y90000D03*
Y10000D03*
X10000D03*
Y90000D03*
G54D16*G54D17*G54D18*G54D17*M02*
