G04 start of page 13 for group -4079 idx -4079 *
G04 Title: (unknown), topsilk *
G04 Creator: pcb 20140316 *
G04 CreationDate: Mon 05 Jul 2021 10:39:17 PM GMT UTC *
G04 For: steve *
G04 Format: Gerber/RS-274X *
G04 PCB-Dimensions (mil): 2200.00 1000.00 *
G04 PCB-Coordinate-Origin: lower left *
%MOIN*%
%FSLAX25Y25*%
%LNTOPSILK*%
%ADD73C,0.0100*%
G54D73*X0Y100000D02*Y0D01*
Y100000D02*X220000D01*
X0Y0D02*X220000D01*
Y100000D02*Y0D01*
X205000Y85000D02*Y25000D01*
X215000D01*
Y85000D01*
X205000D01*
Y75000D02*X215000D01*
Y85000D01*
X135000D02*Y15000D01*
X175000D01*
Y85000D01*
X135000D02*X150000D01*
X160000D02*X175000D01*
X150000D02*G75*G03X160000Y85000I5000J0D01*G01*
X25000D02*Y15000D01*
X65000D01*
Y85000D01*
X25000D02*X40000D01*
X50000D02*X65000D01*
X40000D02*G75*G03X50000Y85000I5000J0D01*G01*
X75000D02*Y15000D01*
X115000D01*
Y85000D01*
X75000D02*X90000D01*
X100000D02*X115000D01*
X90000D02*G75*G03X100000Y85000I5000J0D01*G01*
X201150Y84461D02*Y83460D01*
X201689Y85000D02*X201150Y84461D01*
X201689Y85000D02*X203691D01*
X204230Y84461D01*
Y83460D01*
X201535Y82536D02*X203845D01*
X204230Y82151D01*
Y81381D01*
X203845Y80996D01*
X201535D02*X203845D01*
X201150Y81381D02*X201535Y80996D01*
X201150Y82151D02*Y81381D01*
X201535Y82536D02*X201150Y82151D01*
Y80072D02*X204230D01*
X201150Y78147D01*
X204230D01*
X201150Y77223D02*X204230D01*
X201150Y75298D01*
X204230D01*
X203614Y74374D02*X204230Y73758D01*
X201150D02*X204230D01*
X201150Y74374D02*Y73219D01*
X130500Y85000D02*X134000D01*
X130500D02*X130000Y84500D01*
Y83500D01*
X130500Y83000D01*
X134000D01*
X133200Y81800D02*X134000Y81000D01*
X130000D02*X134000D01*
X130000Y81800D02*Y80300D01*
X20000Y84500D02*X24000D01*
Y83200D02*X23300Y82500D01*
X20700D02*X23300D01*
X20000Y83200D02*X20700Y82500D01*
X20000Y85000D02*Y83200D01*
X24000Y85000D02*Y83200D01*
X23200Y81300D02*X24000Y80500D01*
X20000D02*X24000D01*
X20000Y81300D02*Y79800D01*
X70500Y85000D02*X74000D01*
X70500D02*X70000Y84500D01*
Y83500D01*
X70500Y83000D01*
X74000D01*
X73500Y81800D02*X74000Y81300D01*
Y79800D01*
X73500Y79300D01*
X72500D02*X73500D01*
X70000Y81800D02*X72500Y79300D01*
X70000Y81800D02*Y79300D01*
M02*
