G04 start of page 11 for group -4063 idx -4063 *
G04 Title: (unknown), componentmask *
G04 Creator: pcb 20140316 *
G04 CreationDate: Mon 05 Jul 2021 10:39:17 PM GMT UTC *
G04 For: steve *
G04 Format: Gerber/RS-274X *
G04 PCB-Dimensions (mil): 2200.00 1000.00 *
G04 PCB-Coordinate-Origin: lower left *
%MOIN*%
%FSLAX25Y25*%
%LNTOPMASK*%
%ADD69C,0.0760*%
%ADD68C,0.0660*%
%ADD67C,0.0001*%
G54D67*G36*
X136700Y83300D02*Y76700D01*
X143300D01*
Y83300D01*
X136700D01*
G37*
G54D68*X140000Y70000D03*
Y60000D03*
Y50000D03*
G54D67*G36*
X205200Y84800D02*Y75200D01*
X214800D01*
Y84800D01*
X205200D01*
G37*
G54D69*X210000Y70000D03*
Y60000D03*
Y50000D03*
Y40000D03*
Y30000D03*
G54D68*X140000Y40000D03*
Y30000D03*
Y20000D03*
X170000D03*
Y30000D03*
Y40000D03*
Y50000D03*
Y60000D03*
Y70000D03*
Y80000D03*
G54D67*G36*
X26700Y83300D02*Y76700D01*
X33300D01*
Y83300D01*
X26700D01*
G37*
G54D68*X30000Y70000D03*
Y60000D03*
Y50000D03*
X60000Y60000D03*
X80000D03*
X60000Y70000D03*
Y80000D03*
G54D67*G36*
X76700Y83300D02*Y76700D01*
X83300D01*
Y83300D01*
X76700D01*
G37*
G54D68*X80000Y70000D03*
X30000Y40000D03*
Y30000D03*
Y20000D03*
X60000D03*
Y30000D03*
Y40000D03*
Y50000D03*
X80000D03*
Y40000D03*
Y30000D03*
Y20000D03*
X110000D03*
Y30000D03*
Y40000D03*
Y50000D03*
Y60000D03*
Y70000D03*
Y80000D03*
M02*
