G04 start of page 4 for group 2 idx 2 *
G04 Title: (unknown), signal2 *
G04 Creator: pcb 20140316 *
G04 CreationDate: Mon 05 Jul 2021 10:39:17 PM GMT UTC *
G04 For: steve *
G04 Format: Gerber/RS-274X *
G04 PCB-Dimensions (mil): 2200.00 1000.00 *
G04 PCB-Coordinate-Origin: lower left *
%MOIN*%
%FSLAX25Y25*%
%LNGROUP2*%
%ADD33C,0.0380*%
%ADD32C,0.0280*%
%ADD31C,0.0300*%
%ADD30C,0.0660*%
%ADD29C,0.0700*%
%ADD28C,0.0600*%
%ADD27C,0.0001*%
G54D27*G36*
X137000Y83000D02*Y77000D01*
X143000D01*
Y83000D01*
X137000D01*
G37*
G54D28*X140000Y70000D03*
Y60000D03*
Y50000D03*
G54D27*G36*
X205500Y84500D02*Y75500D01*
X214500D01*
Y84500D01*
X205500D01*
G37*
G54D29*X210000Y70000D03*
Y60000D03*
Y50000D03*
Y40000D03*
Y30000D03*
G54D28*X140000Y40000D03*
Y30000D03*
Y20000D03*
X170000D03*
Y30000D03*
Y40000D03*
Y50000D03*
Y60000D03*
Y70000D03*
Y80000D03*
G54D27*G36*
X27000Y83000D02*Y77000D01*
X33000D01*
Y83000D01*
X27000D01*
G37*
G54D28*X30000Y70000D03*
Y60000D03*
Y50000D03*
X60000Y60000D03*
X80000D03*
X60000Y70000D03*
Y80000D03*
G54D27*G36*
X77000Y83000D02*Y77000D01*
X83000D01*
Y83000D01*
X77000D01*
G37*
G54D28*X80000Y70000D03*
X30000Y40000D03*
Y30000D03*
Y20000D03*
X60000D03*
Y30000D03*
Y40000D03*
Y50000D03*
X80000D03*
Y40000D03*
Y30000D03*
Y20000D03*
X110000D03*
Y30000D03*
Y40000D03*
Y50000D03*
Y60000D03*
Y70000D03*
Y80000D03*
G54D30*X190000Y90000D03*
Y10000D03*
X10000D03*
Y90000D03*
G54D31*G54D32*G54D33*G54D32*M02*
