G04 start of page 17 for group -3984 idx -3984 *
G04 Title: (unknown), fab *
G04 Creator: pcb 20140316 *
G04 CreationDate: Mon 05 Jul 2021 10:39:17 PM GMT UTC *
G04 For: steve *
G04 Format: Gerber/RS-274X *
G04 PCB-Dimensions (mil): 2200.00 1000.00 *
G04 PCB-Coordinate-Origin: lower left *
%MOIN*%
%FSLAX25Y25*%
%LNFAB*%
%ADD78C,0.0100*%
%ADD77C,0.0075*%
%ADD76C,0.0060*%
%ADD75C,0.0080*%
G54D75*X208800Y81200D02*X211200Y78800D01*
X208800D02*X211200Y81200D01*
X208800Y71200D02*X211200Y68800D01*
X208800D02*X211200Y71200D01*
X208800Y61200D02*X211200Y58800D01*
X208800D02*X211200Y61200D01*
X208800Y51200D02*X211200Y48800D01*
X208800D02*X211200Y51200D01*
X208800Y41200D02*X211200Y38800D01*
X208800D02*X211200Y41200D01*
X208800Y31200D02*X211200Y28800D01*
X208800D02*X211200Y31200D01*
X13800Y127450D02*X16200Y125050D01*
X13800D02*X16200Y127450D01*
G54D76*X135000Y128500D02*X136500Y125500D01*
X138000Y128500D01*
X136500Y125500D02*Y122500D01*
X139800Y125800D02*X142050D01*
X139800Y122500D02*X142800D01*
X139800Y128500D02*Y122500D01*
Y128500D02*X142800D01*
X147600D02*X148350Y127750D01*
X145350Y128500D02*X147600D01*
X144600Y127750D02*X145350Y128500D01*
X144600Y127750D02*Y126250D01*
X145350Y125500D01*
X147600D01*
X148350Y124750D01*
Y123250D01*
X147600Y122500D02*X148350Y123250D01*
X145350Y122500D02*X147600D01*
X144600Y123250D02*X145350Y122500D01*
X100250Y128500D02*X101000Y127750D01*
X98750Y128500D02*X100250D01*
X98000Y127750D02*X98750Y128500D01*
X98000Y127750D02*Y123250D01*
X98750Y122500D01*
X100250Y125800D02*X101000Y125050D01*
X98000Y125800D02*X100250D01*
X98750Y122500D02*X100250D01*
X101000Y123250D01*
Y125050D02*Y123250D01*
X45000D02*X45750Y122500D01*
X45000Y127750D02*Y123250D01*
Y127750D02*X45750Y128500D01*
X47250D01*
X48000Y127750D01*
Y123250D01*
X47250Y122500D02*X48000Y123250D01*
X45750Y122500D02*X47250D01*
X45000Y124000D02*X48000Y127000D01*
X49800Y122500D02*X50550D01*
X52350Y123250D02*X53100Y122500D01*
X52350Y127750D02*Y123250D01*
Y127750D02*X53100Y128500D01*
X54600D01*
X55350Y127750D01*
Y123250D01*
X54600Y122500D02*X55350Y123250D01*
X53100Y122500D02*X54600D01*
X52350Y124000D02*X55350Y127000D01*
X57150Y127750D02*X57900Y128500D01*
X59400D01*
X60150Y127750D01*
X59400Y122500D02*X60150Y123250D01*
X57900Y122500D02*X59400D01*
X57150Y123250D02*X57900Y122500D01*
Y125800D02*X59400D01*
X60150Y127750D02*Y126550D01*
Y125050D02*Y123250D01*
Y125050D02*X59400Y125800D01*
X60150Y126550D02*X59400Y125800D01*
X61950Y123250D02*X62700Y122500D01*
X61950Y124450D02*Y123250D01*
Y124450D02*X63000Y125500D01*
X63900D01*
X64950Y124450D01*
Y123250D01*
X64200Y122500D02*X64950Y123250D01*
X62700Y122500D02*X64200D01*
X61950Y126550D02*X63000Y125500D01*
X61950Y127750D02*Y126550D01*
Y127750D02*X62700Y128500D01*
X64200D01*
X64950Y127750D01*
Y126550D01*
X63900Y125500D02*X64950Y126550D01*
X10000Y91600D02*Y88400D01*
X8400Y90000D02*X11600D01*
X190000Y91600D02*Y88400D01*
X188400Y90000D02*X191600D01*
X190000Y11600D02*Y8400D01*
X188400Y10000D02*X191600D01*
X10000Y11600D02*Y8400D01*
X8400Y10000D02*X11600D01*
X15000Y142850D02*Y139650D01*
X13400Y141250D02*X16600D01*
X135000Y143500D02*X136500Y140500D01*
X138000Y143500D01*
X136500Y140500D02*Y137500D01*
X139800Y140800D02*X142050D01*
X139800Y137500D02*X142800D01*
X139800Y143500D02*Y137500D01*
Y143500D02*X142800D01*
X147600D02*X148350Y142750D01*
X145350Y143500D02*X147600D01*
X144600Y142750D02*X145350Y143500D01*
X144600Y142750D02*Y141250D01*
X145350Y140500D01*
X147600D01*
X148350Y139750D01*
Y138250D01*
X147600Y137500D02*X148350Y138250D01*
X145350Y137500D02*X147600D01*
X144600Y138250D02*X145350Y137500D01*
X98000Y139750D02*X101000Y143500D01*
X98000Y139750D02*X101750D01*
X101000Y143500D02*Y137500D01*
X45000Y138250D02*X45750Y137500D01*
X45000Y142750D02*Y138250D01*
Y142750D02*X45750Y143500D01*
X47250D01*
X48000Y142750D01*
Y138250D01*
X47250Y137500D02*X48000Y138250D01*
X45750Y137500D02*X47250D01*
X45000Y139000D02*X48000Y142000D01*
X49800Y137500D02*X50550D01*
X52350Y138250D02*X53100Y137500D01*
X52350Y142750D02*Y138250D01*
Y142750D02*X53100Y143500D01*
X54600D01*
X55350Y142750D01*
Y138250D01*
X54600Y137500D02*X55350Y138250D01*
X53100Y137500D02*X54600D01*
X52350Y139000D02*X55350Y142000D01*
X57150Y142750D02*X57900Y143500D01*
X59400D01*
X60150Y142750D01*
X59400Y137500D02*X60150Y138250D01*
X57900Y137500D02*X59400D01*
X57150Y138250D02*X57900Y137500D01*
Y140800D02*X59400D01*
X60150Y142750D02*Y141550D01*
Y140050D02*Y138250D01*
Y140050D02*X59400Y140800D01*
X60150Y141550D02*X59400Y140800D01*
X61950Y138250D02*X62700Y137500D01*
X61950Y142750D02*Y138250D01*
Y142750D02*X62700Y143500D01*
X64200D01*
X64950Y142750D01*
Y138250D01*
X64200Y137500D02*X64950Y138250D01*
X62700Y137500D02*X64200D01*
X61950Y139000D02*X64950Y142000D01*
X140000Y80000D02*Y78400D01*
Y80000D02*X141387Y80800D01*
X140000Y80000D02*X138613Y80800D01*
X140000Y70000D02*Y68400D01*
Y70000D02*X141387Y70800D01*
X140000Y70000D02*X138613Y70800D01*
X140000Y60000D02*Y58400D01*
Y60000D02*X141387Y60800D01*
X140000Y60000D02*X138613Y60800D01*
X140000Y50000D02*Y48400D01*
Y50000D02*X141387Y50800D01*
X140000Y50000D02*X138613Y50800D01*
X140000Y40000D02*Y38400D01*
Y40000D02*X141387Y40800D01*
X140000Y40000D02*X138613Y40800D01*
X140000Y30000D02*Y28400D01*
Y30000D02*X141387Y30800D01*
X140000Y30000D02*X138613Y30800D01*
X140000Y20000D02*Y18400D01*
Y20000D02*X141387Y20800D01*
X140000Y20000D02*X138613Y20800D01*
X170000Y20000D02*Y18400D01*
Y20000D02*X171387Y20800D01*
X170000Y20000D02*X168613Y20800D01*
X170000Y30000D02*Y28400D01*
Y30000D02*X171387Y30800D01*
X170000Y30000D02*X168613Y30800D01*
X170000Y40000D02*Y38400D01*
Y40000D02*X171387Y40800D01*
X170000Y40000D02*X168613Y40800D01*
X170000Y50000D02*Y48400D01*
Y50000D02*X171387Y50800D01*
X170000Y50000D02*X168613Y50800D01*
X170000Y60000D02*Y58400D01*
Y60000D02*X171387Y60800D01*
X170000Y60000D02*X168613Y60800D01*
X170000Y70000D02*Y68400D01*
Y70000D02*X171387Y70800D01*
X170000Y70000D02*X168613Y70800D01*
X170000Y80000D02*Y78400D01*
Y80000D02*X171387Y80800D01*
X170000Y80000D02*X168613Y80800D01*
X30000Y80000D02*Y78400D01*
Y80000D02*X31387Y80800D01*
X30000Y80000D02*X28613Y80800D01*
X30000Y70000D02*Y68400D01*
Y70000D02*X31387Y70800D01*
X30000Y70000D02*X28613Y70800D01*
X30000Y60000D02*Y58400D01*
Y60000D02*X31387Y60800D01*
X30000Y60000D02*X28613Y60800D01*
X30000Y50000D02*Y48400D01*
Y50000D02*X31387Y50800D01*
X30000Y50000D02*X28613Y50800D01*
X30000Y40000D02*Y38400D01*
Y40000D02*X31387Y40800D01*
X30000Y40000D02*X28613Y40800D01*
X30000Y30000D02*Y28400D01*
Y30000D02*X31387Y30800D01*
X30000Y30000D02*X28613Y30800D01*
X30000Y20000D02*Y18400D01*
Y20000D02*X31387Y20800D01*
X30000Y20000D02*X28613Y20800D01*
X60000Y20000D02*Y18400D01*
Y20000D02*X61387Y20800D01*
X60000Y20000D02*X58613Y20800D01*
X60000Y30000D02*Y28400D01*
Y30000D02*X61387Y30800D01*
X60000Y30000D02*X58613Y30800D01*
X60000Y40000D02*Y38400D01*
Y40000D02*X61387Y40800D01*
X60000Y40000D02*X58613Y40800D01*
X60000Y50000D02*Y48400D01*
Y50000D02*X61387Y50800D01*
X60000Y50000D02*X58613Y50800D01*
X60000Y60000D02*Y58400D01*
Y60000D02*X61387Y60800D01*
X60000Y60000D02*X58613Y60800D01*
X60000Y70000D02*Y68400D01*
Y70000D02*X61387Y70800D01*
X60000Y70000D02*X58613Y70800D01*
X60000Y80000D02*Y78400D01*
Y80000D02*X61387Y80800D01*
X60000Y80000D02*X58613Y80800D01*
X80000Y80000D02*Y78400D01*
Y80000D02*X81387Y80800D01*
X80000Y80000D02*X78613Y80800D01*
X80000Y70000D02*Y68400D01*
Y70000D02*X81387Y70800D01*
X80000Y70000D02*X78613Y70800D01*
X80000Y60000D02*Y58400D01*
Y60000D02*X81387Y60800D01*
X80000Y60000D02*X78613Y60800D01*
X80000Y50000D02*Y48400D01*
Y50000D02*X81387Y50800D01*
X80000Y50000D02*X78613Y50800D01*
X80000Y40000D02*Y38400D01*
Y40000D02*X81387Y40800D01*
X80000Y40000D02*X78613Y40800D01*
X80000Y30000D02*Y28400D01*
Y30000D02*X81387Y30800D01*
X80000Y30000D02*X78613Y30800D01*
X80000Y20000D02*Y18400D01*
Y20000D02*X81387Y20800D01*
X80000Y20000D02*X78613Y20800D01*
X110000Y20000D02*Y18400D01*
Y20000D02*X111387Y20800D01*
X110000Y20000D02*X108613Y20800D01*
X110000Y30000D02*Y28400D01*
Y30000D02*X111387Y30800D01*
X110000Y30000D02*X108613Y30800D01*
X110000Y40000D02*Y38400D01*
Y40000D02*X111387Y40800D01*
X110000Y40000D02*X108613Y40800D01*
X110000Y50000D02*Y48400D01*
Y50000D02*X111387Y50800D01*
X110000Y50000D02*X108613Y50800D01*
X110000Y60000D02*Y58400D01*
Y60000D02*X111387Y60800D01*
X110000Y60000D02*X108613Y60800D01*
X110000Y70000D02*Y68400D01*
Y70000D02*X111387Y70800D01*
X110000Y70000D02*X108613Y70800D01*
X110000Y80000D02*Y78400D01*
Y80000D02*X111387Y80800D01*
X110000Y80000D02*X108613Y80800D01*
X15000Y156250D02*Y154650D01*
Y156250D02*X16387Y157050D01*
X15000Y156250D02*X13613Y157050D01*
X135000Y158500D02*X136500Y155500D01*
X138000Y158500D01*
X136500Y155500D02*Y152500D01*
X139800Y155800D02*X142050D01*
X139800Y152500D02*X142800D01*
X139800Y158500D02*Y152500D01*
Y158500D02*X142800D01*
X147600D02*X148350Y157750D01*
X145350Y158500D02*X147600D01*
X144600Y157750D02*X145350Y158500D01*
X144600Y157750D02*Y156250D01*
X145350Y155500D01*
X147600D01*
X148350Y154750D01*
Y153250D01*
X147600Y152500D02*X148350Y153250D01*
X145350Y152500D02*X147600D01*
X144600Y153250D02*X145350Y152500D01*
X98000Y154750D02*X101000Y158500D01*
X98000Y154750D02*X101750D01*
X101000Y158500D02*Y152500D01*
X103550Y157750D02*X104300Y158500D01*
X106550D01*
X107300Y157750D01*
Y156250D01*
X103550Y152500D02*X107300Y156250D01*
X103550Y152500D02*X107300D01*
X45000Y153250D02*X45750Y152500D01*
X45000Y157750D02*Y153250D01*
Y157750D02*X45750Y158500D01*
X47250D01*
X48000Y157750D01*
Y153250D01*
X47250Y152500D02*X48000Y153250D01*
X45750Y152500D02*X47250D01*
X45000Y154000D02*X48000Y157000D01*
X49800Y152500D02*X50550D01*
X52350Y153250D02*X53100Y152500D01*
X52350Y157750D02*Y153250D01*
Y157750D02*X53100Y158500D01*
X54600D01*
X55350Y157750D01*
Y153250D01*
X54600Y152500D02*X55350Y153250D01*
X53100Y152500D02*X54600D01*
X52350Y154000D02*X55350Y157000D01*
X57150Y157750D02*X57900Y158500D01*
X60150D01*
X60900Y157750D01*
Y156250D01*
X57150Y152500D02*X60900Y156250D01*
X57150Y152500D02*X60900D01*
X62700Y153250D02*X63450Y152500D01*
X62700Y154450D02*Y153250D01*
Y154450D02*X63750Y155500D01*
X64650D01*
X65700Y154450D01*
Y153250D01*
X64950Y152500D02*X65700Y153250D01*
X63450Y152500D02*X64950D01*
X62700Y156550D02*X63750Y155500D01*
X62700Y157750D02*Y156550D01*
Y157750D02*X63450Y158500D01*
X64950D01*
X65700Y157750D01*
Y156550D01*
X64650Y155500D02*X65700Y156550D01*
X3000Y173500D02*X3750Y172750D01*
X750Y173500D02*X3000D01*
X0Y172750D02*X750Y173500D01*
X0Y172750D02*Y171250D01*
X750Y170500D01*
X3000D01*
X3750Y169750D01*
Y168250D01*
X3000Y167500D02*X3750Y168250D01*
X750Y167500D02*X3000D01*
X0Y168250D02*X750Y167500D01*
X5550Y170500D02*Y168250D01*
X6300Y167500D01*
X8550Y170500D02*Y166000D01*
X7800Y165250D02*X8550Y166000D01*
X6300Y165250D02*X7800D01*
X5550Y166000D02*X6300Y165250D01*
Y167500D02*X7800D01*
X8550Y168250D01*
X11100Y169750D02*Y167500D01*
Y169750D02*X11850Y170500D01*
X12600D01*
X13350Y169750D01*
Y167500D01*
Y169750D02*X14100Y170500D01*
X14850D01*
X15600Y169750D01*
Y167500D01*
X10350Y170500D02*X11100Y169750D01*
X17400Y173500D02*Y167500D01*
Y168250D02*X18150Y167500D01*
X19650D01*
X20400Y168250D01*
Y169750D02*Y168250D01*
X19650Y170500D02*X20400Y169750D01*
X18150Y170500D02*X19650D01*
X17400Y169750D02*X18150Y170500D01*
X22200Y169750D02*Y168250D01*
Y169750D02*X22950Y170500D01*
X24450D01*
X25200Y169750D01*
Y168250D01*
X24450Y167500D02*X25200Y168250D01*
X22950Y167500D02*X24450D01*
X22200Y168250D02*X22950Y167500D01*
X27000Y173500D02*Y168250D01*
X27750Y167500D01*
X0Y164250D02*X29250D01*
X41750Y173500D02*Y167500D01*
X43700Y173500D02*X44750Y172450D01*
Y168550D01*
X43700Y167500D02*X44750Y168550D01*
X41000Y167500D02*X43700D01*
X41000Y173500D02*X43700D01*
G54D77*X46550Y172000D02*Y171850D01*
G54D76*Y169750D02*Y167500D01*
X50300Y170500D02*X51050Y169750D01*
X48800Y170500D02*X50300D01*
X48050Y169750D02*X48800Y170500D01*
X48050Y169750D02*Y168250D01*
X48800Y167500D01*
X51050Y170500D02*Y168250D01*
X51800Y167500D01*
X48800D02*X50300D01*
X51050Y168250D01*
X54350Y169750D02*Y167500D01*
Y169750D02*X55100Y170500D01*
X55850D01*
X56600Y169750D01*
Y167500D01*
Y169750D02*X57350Y170500D01*
X58100D01*
X58850Y169750D01*
Y167500D01*
X53600Y170500D02*X54350Y169750D01*
X60650Y167500D02*X61400D01*
X65900Y168250D02*X66650Y167500D01*
X65900Y172750D02*X66650Y173500D01*
X65900Y172750D02*Y168250D01*
X68450Y173500D02*X69950D01*
X69200D02*Y167500D01*
X68450D02*X69950D01*
X72500Y169750D02*Y167500D01*
Y169750D02*X73250Y170500D01*
X74000D01*
X74750Y169750D01*
Y167500D01*
X71750Y170500D02*X72500Y169750D01*
X77300Y170500D02*X79550D01*
X76550Y169750D02*X77300Y170500D01*
X76550Y169750D02*Y168250D01*
X77300Y167500D01*
X79550D01*
X81350Y173500D02*Y167500D01*
Y169750D02*X82100Y170500D01*
X83600D01*
X84350Y169750D01*
Y167500D01*
X86150Y173500D02*X86900Y172750D01*
Y168250D01*
X86150Y167500D02*X86900Y168250D01*
X41000Y164250D02*X88700D01*
X96050Y167500D02*X98000D01*
X95000Y168550D02*X96050Y167500D01*
X95000Y172450D02*Y168550D01*
Y172450D02*X96050Y173500D01*
X98000D01*
X99800Y169750D02*Y168250D01*
Y169750D02*X100550Y170500D01*
X102050D01*
X102800Y169750D01*
Y168250D01*
X102050Y167500D02*X102800Y168250D01*
X100550Y167500D02*X102050D01*
X99800Y168250D02*X100550Y167500D01*
X104600Y170500D02*Y168250D01*
X105350Y167500D01*
X106850D01*
X107600Y168250D01*
Y170500D02*Y168250D01*
X110150Y169750D02*Y167500D01*
Y169750D02*X110900Y170500D01*
X111650D01*
X112400Y169750D01*
Y167500D01*
X109400Y170500D02*X110150Y169750D01*
X114950Y173500D02*Y168250D01*
X115700Y167500D01*
X114200Y171250D02*X115700D01*
X95000Y164250D02*X117200D01*
X130750Y173500D02*Y167500D01*
X130000Y173500D02*X133000D01*
X133750Y172750D01*
Y171250D01*
X133000Y170500D02*X133750Y171250D01*
X130750Y170500D02*X133000D01*
X135550Y173500D02*Y168250D01*
X136300Y167500D01*
X140050Y170500D02*X140800Y169750D01*
X138550Y170500D02*X140050D01*
X137800Y169750D02*X138550Y170500D01*
X137800Y169750D02*Y168250D01*
X138550Y167500D01*
X140800Y170500D02*Y168250D01*
X141550Y167500D01*
X138550D02*X140050D01*
X140800Y168250D01*
X144100Y173500D02*Y168250D01*
X144850Y167500D01*
X143350Y171250D02*X144850D01*
X147100Y167500D02*X149350D01*
X146350Y168250D02*X147100Y167500D01*
X146350Y169750D02*Y168250D01*
Y169750D02*X147100Y170500D01*
X148600D01*
X149350Y169750D01*
X146350Y169000D02*X149350D01*
Y169750D02*Y169000D01*
X154150Y173500D02*Y167500D01*
X153400D02*X154150Y168250D01*
X151900Y167500D02*X153400D01*
X151150Y168250D02*X151900Y167500D01*
X151150Y169750D02*Y168250D01*
Y169750D02*X151900Y170500D01*
X153400D01*
X154150Y169750D01*
X157450Y170500D02*Y169750D01*
Y168250D02*Y167500D01*
X155950Y172750D02*Y172000D01*
Y172750D02*X156700Y173500D01*
X158200D01*
X158950Y172750D01*
Y172000D01*
X157450Y170500D02*X158950Y172000D01*
X130000Y164250D02*X160750D01*
X0Y188500D02*X3000D01*
X1500D02*Y182500D01*
X4800Y188500D02*Y182500D01*
Y184750D02*X5550Y185500D01*
X7050D01*
X7800Y184750D01*
Y182500D01*
X10350D02*X12600D01*
X9600Y183250D02*X10350Y182500D01*
X9600Y184750D02*Y183250D01*
Y184750D02*X10350Y185500D01*
X11850D01*
X12600Y184750D01*
X9600Y184000D02*X12600D01*
Y184750D02*Y184000D01*
X15150Y184750D02*Y182500D01*
Y184750D02*X15900Y185500D01*
X17400D01*
X14400D02*X15150Y184750D01*
X19950Y182500D02*X22200D01*
X19200Y183250D02*X19950Y182500D01*
X19200Y184750D02*Y183250D01*
Y184750D02*X19950Y185500D01*
X21450D01*
X22200Y184750D01*
X19200Y184000D02*X22200D01*
Y184750D02*Y184000D01*
X28950Y185500D02*X29700Y184750D01*
X27450Y185500D02*X28950D01*
X26700Y184750D02*X27450Y185500D01*
X26700Y184750D02*Y183250D01*
X27450Y182500D01*
X29700Y185500D02*Y183250D01*
X30450Y182500D01*
X27450D02*X28950D01*
X29700Y183250D01*
X33000Y184750D02*Y182500D01*
Y184750D02*X33750Y185500D01*
X35250D01*
X32250D02*X33000Y184750D01*
X37800Y182500D02*X40050D01*
X37050Y183250D02*X37800Y182500D01*
X37050Y184750D02*Y183250D01*
Y184750D02*X37800Y185500D01*
X39300D01*
X40050Y184750D01*
X37050Y184000D02*X40050D01*
Y184750D02*Y184000D01*
X44550Y187750D02*X45300Y188500D01*
X46800D01*
X47550Y187750D01*
X46800Y182500D02*X47550Y183250D01*
X45300Y182500D02*X46800D01*
X44550Y183250D02*X45300Y182500D01*
Y185800D02*X46800D01*
X47550Y187750D02*Y186550D01*
Y185050D02*Y183250D01*
Y185050D02*X46800Y185800D01*
X47550Y186550D02*X46800Y185800D01*
X55050Y188500D02*Y182500D01*
X54300D02*X55050Y183250D01*
X52800Y182500D02*X54300D01*
X52050Y183250D02*X52800Y182500D01*
X52050Y184750D02*Y183250D01*
Y184750D02*X52800Y185500D01*
X54300D01*
X55050Y184750D01*
G54D77*X56850Y187000D02*Y186850D01*
G54D76*Y184750D02*Y182500D01*
X59100Y187750D02*Y182500D01*
Y187750D02*X59850Y188500D01*
X60600D01*
X58350Y185500D02*X59850D01*
X62850Y187750D02*Y182500D01*
Y187750D02*X63600Y188500D01*
X64350D01*
X62100Y185500D02*X63600D01*
X66600Y182500D02*X68850D01*
X65850Y183250D02*X66600Y182500D01*
X65850Y184750D02*Y183250D01*
Y184750D02*X66600Y185500D01*
X68100D01*
X68850Y184750D01*
X65850Y184000D02*X68850D01*
Y184750D02*Y184000D01*
X71400Y184750D02*Y182500D01*
Y184750D02*X72150Y185500D01*
X73650D01*
X70650D02*X71400Y184750D01*
X76200Y182500D02*X78450D01*
X75450Y183250D02*X76200Y182500D01*
X75450Y184750D02*Y183250D01*
Y184750D02*X76200Y185500D01*
X77700D01*
X78450Y184750D01*
X75450Y184000D02*X78450D01*
Y184750D02*Y184000D01*
X81000Y184750D02*Y182500D01*
Y184750D02*X81750Y185500D01*
X82500D01*
X83250Y184750D01*
Y182500D01*
X80250Y185500D02*X81000Y184750D01*
X85800Y188500D02*Y183250D01*
X86550Y182500D01*
X85050Y186250D02*X86550D01*
X93750Y188500D02*Y182500D01*
X93000D02*X93750Y183250D01*
X91500Y182500D02*X93000D01*
X90750Y183250D02*X91500Y182500D01*
X90750Y184750D02*Y183250D01*
Y184750D02*X91500Y185500D01*
X93000D01*
X93750Y184750D01*
X96300D02*Y182500D01*
Y184750D02*X97050Y185500D01*
X98550D01*
X95550D02*X96300Y184750D01*
G54D77*X100350Y187000D02*Y186850D01*
G54D76*Y184750D02*Y182500D01*
X101850Y188500D02*Y183250D01*
X102600Y182500D01*
X104100Y188500D02*Y183250D01*
X104850Y182500D01*
X109800D02*X112050D01*
X112800Y183250D01*
X112050Y184000D02*X112800Y183250D01*
X109800Y184000D02*X112050D01*
X109050Y184750D02*X109800Y184000D01*
X109050Y184750D02*X109800Y185500D01*
X112050D01*
X112800Y184750D01*
X109050Y183250D02*X109800Y182500D01*
G54D77*X114600Y187000D02*Y186850D01*
G54D76*Y184750D02*Y182500D01*
X116100Y185500D02*X119100D01*
X116100Y182500D02*X119100Y185500D01*
X116100Y182500D02*X119100D01*
X121650D02*X123900D01*
X120900Y183250D02*X121650Y182500D01*
X120900Y184750D02*Y183250D01*
Y184750D02*X121650Y185500D01*
X123150D01*
X123900Y184750D01*
X120900Y184000D02*X123900D01*
Y184750D02*Y184000D01*
X126450Y182500D02*X128700D01*
X129450Y183250D01*
X128700Y184000D02*X129450Y183250D01*
X126450Y184000D02*X128700D01*
X125700Y184750D02*X126450Y184000D01*
X125700Y184750D02*X126450Y185500D01*
X128700D01*
X129450Y184750D01*
X125700Y183250D02*X126450Y182500D01*
X133950Y185500D02*Y183250D01*
X134700Y182500D01*
X136200D01*
X136950Y183250D01*
Y185500D02*Y183250D01*
X139500Y182500D02*X141750D01*
X142500Y183250D01*
X141750Y184000D02*X142500Y183250D01*
X139500Y184000D02*X141750D01*
X138750Y184750D02*X139500Y184000D01*
X138750Y184750D02*X139500Y185500D01*
X141750D01*
X142500Y184750D01*
X138750Y183250D02*X139500Y182500D01*
X145050D02*X147300D01*
X144300Y183250D02*X145050Y182500D01*
X144300Y184750D02*Y183250D01*
Y184750D02*X145050Y185500D01*
X146550D01*
X147300Y184750D01*
X144300Y184000D02*X147300D01*
Y184750D02*Y184000D01*
X152100Y188500D02*Y182500D01*
X151350D02*X152100Y183250D01*
X149850Y182500D02*X151350D01*
X149100Y183250D02*X149850Y182500D01*
X149100Y184750D02*Y183250D01*
Y184750D02*X149850Y185500D01*
X151350D01*
X152100Y184750D01*
G54D77*X156600Y187000D02*Y186850D01*
G54D76*Y184750D02*Y182500D01*
X158850Y184750D02*Y182500D01*
Y184750D02*X159600Y185500D01*
X160350D01*
X161100Y184750D01*
Y182500D01*
X158100Y185500D02*X158850Y184750D01*
X166350Y188500D02*Y183250D01*
X167100Y182500D01*
X165600Y186250D02*X167100D01*
X168600Y188500D02*Y182500D01*
Y184750D02*X169350Y185500D01*
X170850D01*
X171600Y184750D01*
Y182500D01*
G54D77*X173400Y187000D02*Y186850D01*
G54D76*Y184750D02*Y182500D01*
X175650D02*X177900D01*
X178650Y183250D01*
X177900Y184000D02*X178650Y183250D01*
X175650Y184000D02*X177900D01*
X174900Y184750D02*X175650Y184000D01*
X174900Y184750D02*X175650Y185500D01*
X177900D01*
X178650Y184750D01*
X174900Y183250D02*X175650Y182500D01*
X183150Y188500D02*Y183250D01*
X183900Y182500D01*
X187650Y185500D02*X188400Y184750D01*
X186150Y185500D02*X187650D01*
X185400Y184750D02*X186150Y185500D01*
X185400Y184750D02*Y183250D01*
X186150Y182500D01*
X188400Y185500D02*Y183250D01*
X189150Y182500D01*
X186150D02*X187650D01*
X188400Y183250D01*
X190950Y185500D02*Y183250D01*
X191700Y182500D01*
X193950Y185500D02*Y181000D01*
X193200Y180250D02*X193950Y181000D01*
X191700Y180250D02*X193200D01*
X190950Y181000D02*X191700Y180250D01*
Y182500D02*X193200D01*
X193950Y183250D01*
X195750Y184750D02*Y183250D01*
Y184750D02*X196500Y185500D01*
X198000D01*
X198750Y184750D01*
Y183250D01*
X198000Y182500D02*X198750Y183250D01*
X196500Y182500D02*X198000D01*
X195750Y183250D02*X196500Y182500D01*
X200550Y185500D02*Y183250D01*
X201300Y182500D01*
X202800D01*
X203550Y183250D01*
Y185500D02*Y183250D01*
X206100Y188500D02*Y183250D01*
X206850Y182500D01*
X205350Y186250D02*X206850D01*
X208350Y181000D02*X209850Y182500D01*
X214350Y188500D02*X217350D01*
X214350D02*Y185500D01*
X215100Y186250D01*
X216600D01*
X217350Y185500D01*
Y183250D01*
X216600Y182500D02*X217350Y183250D01*
X215100Y182500D02*X216600D01*
X214350Y183250D02*X215100Y182500D01*
X219150Y187750D02*X219900Y188500D01*
X222150D01*
X222900Y187750D01*
Y186250D01*
X219150Y182500D02*X222900Y186250D01*
X219150Y182500D02*X222900D01*
X227400Y188500D02*Y182500D01*
Y184750D02*X228150Y185500D01*
X229650D01*
X230400Y184750D01*
Y182500D01*
X232200Y184750D02*Y183250D01*
Y184750D02*X232950Y185500D01*
X234450D01*
X235200Y184750D01*
Y183250D01*
X234450Y182500D02*X235200Y183250D01*
X232950Y182500D02*X234450D01*
X232200Y183250D02*X232950Y182500D01*
X237000Y188500D02*Y183250D01*
X237750Y182500D01*
X240000D02*X242250D01*
X239250Y183250D02*X240000Y182500D01*
X239250Y184750D02*Y183250D01*
Y184750D02*X240000Y185500D01*
X241500D01*
X242250Y184750D01*
X239250Y184000D02*X242250D01*
Y184750D02*Y184000D01*
X244800Y182500D02*X247050D01*
X247800Y183250D01*
X247050Y184000D02*X247800Y183250D01*
X244800Y184000D02*X247050D01*
X244050Y184750D02*X244800Y184000D01*
X244050Y184750D02*X244800Y185500D01*
X247050D01*
X247800Y184750D01*
X244050Y183250D02*X244800Y182500D01*
X253050Y188500D02*Y183250D01*
X253800Y182500D01*
X252300Y186250D02*X253800D01*
X255300Y184750D02*Y183250D01*
Y184750D02*X256050Y185500D01*
X257550D01*
X258300Y184750D01*
Y183250D01*
X257550Y182500D02*X258300Y183250D01*
X256050Y182500D02*X257550D01*
X255300Y183250D02*X256050Y182500D01*
X260850Y188500D02*Y183250D01*
X261600Y182500D01*
X260100Y186250D02*X261600D01*
X265350Y185500D02*X266100Y184750D01*
X263850Y185500D02*X265350D01*
X263100Y184750D02*X263850Y185500D01*
X263100Y184750D02*Y183250D01*
X263850Y182500D01*
X266100Y185500D02*Y183250D01*
X266850Y182500D01*
X263850D02*X265350D01*
X266100Y183250D01*
X268650Y188500D02*Y183250D01*
X269400Y182500D01*
G54D78*X0Y100000D02*X220000D01*
X0D02*Y0D01*
X220000Y100000D02*Y0D01*
X0D02*X220000D01*
G54D76*X200000Y113500D02*Y107500D01*
Y113500D02*X202250Y110500D01*
X204500Y113500D01*
Y107500D01*
X208550Y110500D02*X209300Y109750D01*
X207050Y110500D02*X208550D01*
X206300Y109750D02*X207050Y110500D01*
X206300Y109750D02*Y108250D01*
X207050Y107500D01*
X209300Y110500D02*Y108250D01*
X210050Y107500D01*
X207050D02*X208550D01*
X209300Y108250D01*
X211850Y110500D02*X214850Y107500D01*
X211850D02*X214850Y110500D01*
G54D77*X216650Y112000D02*Y111850D01*
G54D76*Y109750D02*Y107500D01*
X218900Y109750D02*Y107500D01*
Y109750D02*X219650Y110500D01*
X220400D01*
X221150Y109750D01*
Y107500D01*
Y109750D02*X221900Y110500D01*
X222650D01*
X223400Y109750D01*
Y107500D01*
X218150Y110500D02*X218900Y109750D01*
X225200Y110500D02*Y108250D01*
X225950Y107500D01*
X227450D01*
X228200Y108250D01*
Y110500D02*Y108250D01*
X230750Y109750D02*Y107500D01*
Y109750D02*X231500Y110500D01*
X232250D01*
X233000Y109750D01*
Y107500D01*
Y109750D02*X233750Y110500D01*
X234500D01*
X235250Y109750D01*
Y107500D01*
X230000Y110500D02*X230750Y109750D01*
X240500Y113500D02*Y107500D01*
X242450Y113500D02*X243500Y112450D01*
Y108550D01*
X242450Y107500D02*X243500Y108550D01*
X239750Y107500D02*X242450D01*
X239750Y113500D02*X242450D01*
G54D77*X245300Y112000D02*Y111850D01*
G54D76*Y109750D02*Y107500D01*
X247550Y109750D02*Y107500D01*
Y109750D02*X248300Y110500D01*
X249050D01*
X249800Y109750D01*
Y107500D01*
Y109750D02*X250550Y110500D01*
X251300D01*
X252050Y109750D01*
Y107500D01*
X246800Y110500D02*X247550Y109750D01*
X254600Y107500D02*X256850D01*
X253850Y108250D02*X254600Y107500D01*
X253850Y109750D02*Y108250D01*
Y109750D02*X254600Y110500D01*
X256100D01*
X256850Y109750D01*
X253850Y109000D02*X256850D01*
Y109750D02*Y109000D01*
X259400Y109750D02*Y107500D01*
Y109750D02*X260150Y110500D01*
X260900D01*
X261650Y109750D01*
Y107500D01*
X258650Y110500D02*X259400Y109750D01*
X264200Y107500D02*X266450D01*
X267200Y108250D01*
X266450Y109000D02*X267200Y108250D01*
X264200Y109000D02*X266450D01*
X263450Y109750D02*X264200Y109000D01*
X263450Y109750D02*X264200Y110500D01*
X266450D01*
X267200Y109750D01*
X263450Y108250D02*X264200Y107500D01*
G54D77*X269000Y112000D02*Y111850D01*
G54D76*Y109750D02*Y107500D01*
X270500Y109750D02*Y108250D01*
Y109750D02*X271250Y110500D01*
X272750D01*
X273500Y109750D01*
Y108250D01*
X272750Y107500D02*X273500Y108250D01*
X271250Y107500D02*X272750D01*
X270500Y108250D02*X271250Y107500D01*
X276050Y109750D02*Y107500D01*
Y109750D02*X276800Y110500D01*
X277550D01*
X278300Y109750D01*
Y107500D01*
X275300Y110500D02*X276050Y109750D01*
X280850Y107500D02*X283100D01*
X283850Y108250D01*
X283100Y109000D02*X283850Y108250D01*
X280850Y109000D02*X283100D01*
X280100Y109750D02*X280850Y109000D01*
X280100Y109750D02*X280850Y110500D01*
X283100D01*
X283850Y109750D01*
X280100Y108250D02*X280850Y107500D01*
X285650Y111250D02*X286400D01*
X285650Y109750D02*X286400D01*
X290900Y112750D02*X291650Y113500D01*
X293900D01*
X294650Y112750D01*
Y111250D01*
X290900Y107500D02*X294650Y111250D01*
X290900Y107500D02*X294650D01*
X296450Y112750D02*X297200Y113500D01*
X299450D01*
X300200Y112750D01*
Y111250D01*
X296450Y107500D02*X300200Y111250D01*
X296450Y107500D02*X300200D01*
X302000Y108250D02*X302750Y107500D01*
X302000Y112750D02*Y108250D01*
Y112750D02*X302750Y113500D01*
X304250D01*
X305000Y112750D01*
Y108250D01*
X304250Y107500D02*X305000Y108250D01*
X302750Y107500D02*X304250D01*
X302000Y109000D02*X305000Y112000D01*
X306800Y108250D02*X307550Y107500D01*
X306800Y112750D02*Y108250D01*
Y112750D02*X307550Y113500D01*
X309050D01*
X309800Y112750D01*
Y108250D01*
X309050Y107500D02*X309800Y108250D01*
X307550Y107500D02*X309050D01*
X306800Y109000D02*X309800Y112000D01*
X311600Y107500D02*X312350D01*
X314150Y108250D02*X314900Y107500D01*
X314150Y112750D02*Y108250D01*
Y112750D02*X314900Y113500D01*
X316400D01*
X317150Y112750D01*
Y108250D01*
X316400Y107500D02*X317150Y108250D01*
X314900Y107500D02*X316400D01*
X314150Y109000D02*X317150Y112000D01*
X318950Y108250D02*X319700Y107500D01*
X318950Y112750D02*Y108250D01*
Y112750D02*X319700Y113500D01*
X321200D01*
X321950Y112750D01*
Y108250D01*
X321200Y107500D02*X321950Y108250D01*
X319700Y107500D02*X321200D01*
X318950Y109000D02*X321950Y112000D01*
X323750Y108250D02*X324500Y107500D01*
X323750Y112750D02*Y108250D01*
Y112750D02*X324500Y113500D01*
X326000D01*
X326750Y112750D01*
Y108250D01*
X326000Y107500D02*X326750Y108250D01*
X324500Y107500D02*X326000D01*
X323750Y109000D02*X326750Y112000D01*
X328550Y108250D02*X329300Y107500D01*
X328550Y112750D02*Y108250D01*
Y112750D02*X329300Y113500D01*
X330800D01*
X331550Y112750D01*
Y108250D01*
X330800Y107500D02*X331550Y108250D01*
X329300Y107500D02*X330800D01*
X328550Y109000D02*X331550Y112000D01*
X333350Y108250D02*X334100Y107500D01*
X333350Y112750D02*Y108250D01*
Y112750D02*X334100Y113500D01*
X335600D01*
X336350Y112750D01*
Y108250D01*
X335600Y107500D02*X336350Y108250D01*
X334100Y107500D02*X335600D01*
X333350Y109000D02*X336350Y112000D01*
X338150Y108250D02*X338900Y107500D01*
X338150Y112750D02*Y108250D01*
Y112750D02*X338900Y113500D01*
X340400D01*
X341150Y112750D01*
Y108250D01*
X340400Y107500D02*X341150Y108250D01*
X338900Y107500D02*X340400D01*
X338150Y109000D02*X341150Y112000D01*
X346400Y109750D02*Y107500D01*
Y109750D02*X347150Y110500D01*
X347900D01*
X348650Y109750D01*
Y107500D01*
Y109750D02*X349400Y110500D01*
X350150D01*
X350900Y109750D01*
Y107500D01*
X345650Y110500D02*X346400Y109750D01*
G54D77*X352700Y112000D02*Y111850D01*
G54D76*Y109750D02*Y107500D01*
X354200Y113500D02*Y108250D01*
X354950Y107500D01*
X357200D02*X359450D01*
X360200Y108250D01*
X359450Y109000D02*X360200Y108250D01*
X357200Y109000D02*X359450D01*
X356450Y109750D02*X357200Y109000D01*
X356450Y109750D02*X357200Y110500D01*
X359450D01*
X360200Y109750D01*
X356450Y108250D02*X357200Y107500D01*
X364700Y110500D02*Y108250D01*
X365450Y107500D01*
X366200D01*
X366950Y108250D01*
Y110500D02*Y108250D01*
X367700Y107500D01*
X368450D01*
X369200Y108250D01*
Y110500D02*Y108250D01*
G54D77*X371000Y112000D02*Y111850D01*
G54D76*Y109750D02*Y107500D01*
X375500Y113500D02*Y107500D01*
X374750D02*X375500Y108250D01*
X373250Y107500D02*X374750D01*
X372500Y108250D02*X373250Y107500D01*
X372500Y109750D02*Y108250D01*
Y109750D02*X373250Y110500D01*
X374750D01*
X375500Y109750D01*
X378050Y107500D02*X380300D01*
X377300Y108250D02*X378050Y107500D01*
X377300Y109750D02*Y108250D01*
Y109750D02*X378050Y110500D01*
X379550D01*
X380300Y109750D01*
X377300Y109000D02*X380300D01*
Y109750D02*Y109000D01*
X382100Y106000D02*X383600Y107500D01*
X388100Y112300D02*X389300Y113500D01*
Y107500D01*
X388100D02*X390350D01*
X392150Y108250D02*X392900Y107500D01*
X392150Y112750D02*Y108250D01*
Y112750D02*X392900Y113500D01*
X394400D01*
X395150Y112750D01*
Y108250D01*
X394400Y107500D02*X395150Y108250D01*
X392900Y107500D02*X394400D01*
X392150Y109000D02*X395150Y112000D01*
X396950Y108250D02*X397700Y107500D01*
X396950Y112750D02*Y108250D01*
Y112750D02*X397700Y113500D01*
X399200D01*
X399950Y112750D01*
Y108250D01*
X399200Y107500D02*X399950Y108250D01*
X397700Y107500D02*X399200D01*
X396950Y109000D02*X399950Y112000D01*
X401750Y108250D02*X402500Y107500D01*
X401750Y112750D02*Y108250D01*
Y112750D02*X402500Y113500D01*
X404000D01*
X404750Y112750D01*
Y108250D01*
X404000Y107500D02*X404750Y108250D01*
X402500Y107500D02*X404000D01*
X401750Y109000D02*X404750Y112000D01*
X406550Y107500D02*X407300D01*
X409100Y108250D02*X409850Y107500D01*
X409100Y112750D02*Y108250D01*
Y112750D02*X409850Y113500D01*
X411350D01*
X412100Y112750D01*
Y108250D01*
X411350Y107500D02*X412100Y108250D01*
X409850Y107500D02*X411350D01*
X409100Y109000D02*X412100Y112000D01*
X413900Y108250D02*X414650Y107500D01*
X413900Y112750D02*Y108250D01*
Y112750D02*X414650Y113500D01*
X416150D01*
X416900Y112750D01*
Y108250D01*
X416150Y107500D02*X416900Y108250D01*
X414650Y107500D02*X416150D01*
X413900Y109000D02*X416900Y112000D01*
X418700Y108250D02*X419450Y107500D01*
X418700Y112750D02*Y108250D01*
Y112750D02*X419450Y113500D01*
X420950D01*
X421700Y112750D01*
Y108250D01*
X420950Y107500D02*X421700Y108250D01*
X419450Y107500D02*X420950D01*
X418700Y109000D02*X421700Y112000D01*
X423500Y108250D02*X424250Y107500D01*
X423500Y112750D02*Y108250D01*
Y112750D02*X424250Y113500D01*
X425750D01*
X426500Y112750D01*
Y108250D01*
X425750Y107500D02*X426500Y108250D01*
X424250Y107500D02*X425750D01*
X423500Y109000D02*X426500Y112000D01*
X428300Y108250D02*X429050Y107500D01*
X428300Y112750D02*Y108250D01*
Y112750D02*X429050Y113500D01*
X430550D01*
X431300Y112750D01*
Y108250D01*
X430550Y107500D02*X431300Y108250D01*
X429050Y107500D02*X430550D01*
X428300Y109000D02*X431300Y112000D01*
X433100Y108250D02*X433850Y107500D01*
X433100Y112750D02*Y108250D01*
Y112750D02*X433850Y113500D01*
X435350D01*
X436100Y112750D01*
Y108250D01*
X435350Y107500D02*X436100Y108250D01*
X433850Y107500D02*X435350D01*
X433100Y109000D02*X436100Y112000D01*
X441350Y109750D02*Y107500D01*
Y109750D02*X442100Y110500D01*
X442850D01*
X443600Y109750D01*
Y107500D01*
Y109750D02*X444350Y110500D01*
X445100D01*
X445850Y109750D01*
Y107500D01*
X440600Y110500D02*X441350Y109750D01*
G54D77*X447650Y112000D02*Y111850D01*
G54D76*Y109750D02*Y107500D01*
X449150Y113500D02*Y108250D01*
X449900Y107500D01*
X452150D02*X454400D01*
X455150Y108250D01*
X454400Y109000D02*X455150Y108250D01*
X452150Y109000D02*X454400D01*
X451400Y109750D02*X452150Y109000D01*
X451400Y109750D02*X452150Y110500D01*
X454400D01*
X455150Y109750D01*
X451400Y108250D02*X452150Y107500D01*
X459650Y113500D02*Y107500D01*
Y109750D02*X460400Y110500D01*
X461900D01*
X462650Y109750D01*
Y107500D01*
G54D77*X464450Y112000D02*Y111850D01*
G54D76*Y109750D02*Y107500D01*
X468200Y110500D02*X468950Y109750D01*
X466700Y110500D02*X468200D01*
X465950Y109750D02*X466700Y110500D01*
X465950Y109750D02*Y108250D01*
X466700Y107500D01*
X468200D01*
X468950Y108250D01*
X465950Y106000D02*X466700Y105250D01*
X468200D01*
X468950Y106000D01*
Y110500D02*Y106000D01*
X470750Y113500D02*Y107500D01*
Y109750D02*X471500Y110500D01*
X473000D01*
X473750Y109750D01*
Y107500D01*
X0Y-9500D02*X3000D01*
X3750Y-8750D01*
Y-6950D02*Y-8750D01*
X3000Y-6200D02*X3750Y-6950D01*
X750Y-6200D02*X3000D01*
X750Y-3500D02*Y-9500D01*
X0Y-3500D02*X3000D01*
X3750Y-4250D01*
Y-5450D01*
X3000Y-6200D02*X3750Y-5450D01*
X5550Y-7250D02*Y-8750D01*
Y-7250D02*X6300Y-6500D01*
X7800D01*
X8550Y-7250D01*
Y-8750D01*
X7800Y-9500D02*X8550Y-8750D01*
X6300Y-9500D02*X7800D01*
X5550Y-8750D02*X6300Y-9500D01*
X12600Y-6500D02*X13350Y-7250D01*
X11100Y-6500D02*X12600D01*
X10350Y-7250D02*X11100Y-6500D01*
X10350Y-7250D02*Y-8750D01*
X11100Y-9500D01*
X13350Y-6500D02*Y-8750D01*
X14100Y-9500D01*
X11100D02*X12600D01*
X13350Y-8750D01*
X16650Y-7250D02*Y-9500D01*
Y-7250D02*X17400Y-6500D01*
X18900D01*
X15900D02*X16650Y-7250D01*
X23700Y-3500D02*Y-9500D01*
X22950D02*X23700Y-8750D01*
X21450Y-9500D02*X22950D01*
X20700Y-8750D02*X21450Y-9500D01*
X20700Y-7250D02*Y-8750D01*
Y-7250D02*X21450Y-6500D01*
X22950D01*
X23700Y-7250D01*
X28200D02*Y-8750D01*
Y-7250D02*X28950Y-6500D01*
X30450D01*
X31200Y-7250D01*
Y-8750D01*
X30450Y-9500D02*X31200Y-8750D01*
X28950Y-9500D02*X30450D01*
X28200Y-8750D02*X28950Y-9500D01*
X33000Y-6500D02*Y-8750D01*
X33750Y-9500D01*
X35250D01*
X36000Y-8750D01*
Y-6500D02*Y-8750D01*
X38550Y-3500D02*Y-8750D01*
X39300Y-9500D01*
X37800Y-5750D02*X39300D01*
X40800Y-3500D02*Y-8750D01*
X41550Y-9500D01*
G54D77*X43050Y-5000D02*Y-5150D01*
G54D76*Y-7250D02*Y-9500D01*
X45300Y-7250D02*Y-9500D01*
Y-7250D02*X46050Y-6500D01*
X46800D01*
X47550Y-7250D01*
Y-9500D01*
X44550Y-6500D02*X45300Y-7250D01*
X50100Y-9500D02*X52350D01*
X49350Y-8750D02*X50100Y-9500D01*
X49350Y-7250D02*Y-8750D01*
Y-7250D02*X50100Y-6500D01*
X51600D01*
X52350Y-7250D01*
X49350Y-8000D02*X52350D01*
Y-7250D02*Y-8000D01*
G54D77*X56850Y-5000D02*Y-5150D01*
G54D76*Y-7250D02*Y-9500D01*
X59100D02*X61350D01*
X62100Y-8750D01*
X61350Y-8000D02*X62100Y-8750D01*
X59100Y-8000D02*X61350D01*
X58350Y-7250D02*X59100Y-8000D01*
X58350Y-7250D02*X59100Y-6500D01*
X61350D01*
X62100Y-7250D01*
X58350Y-8750D02*X59100Y-9500D01*
X67350Y-3500D02*Y-8750D01*
X68100Y-9500D01*
X66600Y-5750D02*X68100D01*
X69600Y-3500D02*Y-9500D01*
Y-7250D02*X70350Y-6500D01*
X71850D01*
X72600Y-7250D01*
Y-9500D01*
X75150D02*X77400D01*
X74400Y-8750D02*X75150Y-9500D01*
X74400Y-7250D02*Y-8750D01*
Y-7250D02*X75150Y-6500D01*
X76650D01*
X77400Y-7250D01*
X74400Y-8000D02*X77400D01*
Y-7250D02*Y-8000D01*
X82650Y-6500D02*X84900D01*
X81900Y-7250D02*X82650Y-6500D01*
X81900Y-7250D02*Y-8750D01*
X82650Y-9500D01*
X84900D01*
X87450D02*X89700D01*
X86700Y-8750D02*X87450Y-9500D01*
X86700Y-7250D02*Y-8750D01*
Y-7250D02*X87450Y-6500D01*
X88950D01*
X89700Y-7250D01*
X86700Y-8000D02*X89700D01*
Y-7250D02*Y-8000D01*
X92250Y-7250D02*Y-9500D01*
Y-7250D02*X93000Y-6500D01*
X93750D01*
X94500Y-7250D01*
Y-9500D01*
X91500Y-6500D02*X92250Y-7250D01*
X97050Y-3500D02*Y-8750D01*
X97800Y-9500D01*
X96300Y-5750D02*X97800D01*
X100050Y-9500D02*X102300D01*
X99300Y-8750D02*X100050Y-9500D01*
X99300Y-7250D02*Y-8750D01*
Y-7250D02*X100050Y-6500D01*
X101550D01*
X102300Y-7250D01*
X99300Y-8000D02*X102300D01*
Y-7250D02*Y-8000D01*
X104850Y-7250D02*Y-9500D01*
Y-7250D02*X105600Y-6500D01*
X107100D01*
X104100D02*X104850Y-7250D01*
X108900Y-3500D02*Y-8750D01*
X109650Y-9500D01*
G54D77*X111150Y-5000D02*Y-5150D01*
G54D76*Y-7250D02*Y-9500D01*
X113400Y-7250D02*Y-9500D01*
Y-7250D02*X114150Y-6500D01*
X114900D01*
X115650Y-7250D01*
Y-9500D01*
X112650Y-6500D02*X113400Y-7250D01*
X118200Y-9500D02*X120450D01*
X117450Y-8750D02*X118200Y-9500D01*
X117450Y-7250D02*Y-8750D01*
Y-7250D02*X118200Y-6500D01*
X119700D01*
X120450Y-7250D01*
X117450Y-8000D02*X120450D01*
Y-7250D02*Y-8000D01*
X124950Y-7250D02*Y-8750D01*
Y-7250D02*X125700Y-6500D01*
X127200D01*
X127950Y-7250D01*
Y-8750D01*
X127200Y-9500D02*X127950Y-8750D01*
X125700Y-9500D02*X127200D01*
X124950Y-8750D02*X125700Y-9500D01*
X130500Y-4250D02*Y-9500D01*
Y-4250D02*X131250Y-3500D01*
X132000D01*
X129750Y-6500D02*X131250D01*
X136950Y-3500D02*Y-8750D01*
X137700Y-9500D01*
X136200Y-5750D02*X137700D01*
X139200Y-3500D02*Y-9500D01*
Y-7250D02*X139950Y-6500D01*
X141450D01*
X142200Y-7250D01*
Y-9500D01*
G54D77*X144000Y-5000D02*Y-5150D01*
G54D76*Y-7250D02*Y-9500D01*
X146250D02*X148500D01*
X149250Y-8750D01*
X148500Y-8000D02*X149250Y-8750D01*
X146250Y-8000D02*X148500D01*
X145500Y-7250D02*X146250Y-8000D01*
X145500Y-7250D02*X146250Y-6500D01*
X148500D01*
X149250Y-7250D01*
X145500Y-8750D02*X146250Y-9500D01*
X153750Y-8750D02*X154500Y-9500D01*
X153750Y-7550D02*Y-8750D01*
Y-7550D02*X154800Y-6500D01*
X155700D01*
X156750Y-7550D01*
Y-8750D01*
X156000Y-9500D02*X156750Y-8750D01*
X154500Y-9500D02*X156000D01*
X153750Y-5450D02*X154800Y-6500D01*
X153750Y-4250D02*Y-5450D01*
Y-4250D02*X154500Y-3500D01*
X156000D01*
X156750Y-4250D01*
Y-5450D01*
X155700Y-6500D02*X156750Y-5450D01*
X158550Y-9500D02*X159300D01*
X161100Y-8750D02*X161850Y-9500D01*
X161100Y-4250D02*Y-8750D01*
Y-4250D02*X161850Y-3500D01*
X163350D01*
X164100Y-4250D01*
Y-8750D01*
X163350Y-9500D02*X164100Y-8750D01*
X161850Y-9500D02*X163350D01*
X161100Y-8000D02*X164100Y-5000D01*
X165900Y-8750D02*X166650Y-9500D01*
X165900Y-4250D02*Y-8750D01*
Y-4250D02*X166650Y-3500D01*
X168150D01*
X168900Y-4250D01*
Y-8750D01*
X168150Y-9500D02*X168900Y-8750D01*
X166650Y-9500D02*X168150D01*
X165900Y-8000D02*X168900Y-5000D01*
X170700Y-8750D02*X171450Y-9500D01*
X170700Y-4250D02*Y-8750D01*
Y-4250D02*X171450Y-3500D01*
X172950D01*
X173700Y-4250D01*
Y-8750D01*
X172950Y-9500D02*X173700Y-8750D01*
X171450Y-9500D02*X172950D01*
X170700Y-8000D02*X173700Y-5000D01*
X175500Y-8750D02*X176250Y-9500D01*
X175500Y-4250D02*Y-8750D01*
Y-4250D02*X176250Y-3500D01*
X177750D01*
X178500Y-4250D01*
Y-8750D01*
X177750Y-9500D02*X178500Y-8750D01*
X176250Y-9500D02*X177750D01*
X175500Y-8000D02*X178500Y-5000D01*
X180300Y-8750D02*X181050Y-9500D01*
X180300Y-4250D02*Y-8750D01*
Y-4250D02*X181050Y-3500D01*
X182550D01*
X183300Y-4250D01*
Y-8750D01*
X182550Y-9500D02*X183300Y-8750D01*
X181050Y-9500D02*X182550D01*
X180300Y-8000D02*X183300Y-5000D01*
X185100Y-8750D02*X185850Y-9500D01*
X185100Y-4250D02*Y-8750D01*
Y-4250D02*X185850Y-3500D01*
X187350D01*
X188100Y-4250D01*
Y-8750D01*
X187350Y-9500D02*X188100Y-8750D01*
X185850Y-9500D02*X187350D01*
X185100Y-8000D02*X188100Y-5000D01*
X193350Y-7250D02*Y-9500D01*
Y-7250D02*X194100Y-6500D01*
X194850D01*
X195600Y-7250D01*
Y-9500D01*
Y-7250D02*X196350Y-6500D01*
X197100D01*
X197850Y-7250D01*
Y-9500D01*
X192600Y-6500D02*X193350Y-7250D01*
G54D77*X199650Y-5000D02*Y-5150D01*
G54D76*Y-7250D02*Y-9500D01*
X201150Y-3500D02*Y-8750D01*
X201900Y-9500D01*
X206850Y-7250D02*Y-9500D01*
Y-7250D02*X207600Y-6500D01*
X209100D01*
X206100D02*X206850Y-7250D01*
X211650Y-9500D02*X213900D01*
X210900Y-8750D02*X211650Y-9500D01*
X210900Y-7250D02*Y-8750D01*
Y-7250D02*X211650Y-6500D01*
X213150D01*
X213900Y-7250D01*
X210900Y-8000D02*X213900D01*
Y-7250D02*Y-8000D01*
X216450Y-6500D02*X218700D01*
X215700Y-7250D02*X216450Y-6500D01*
X215700Y-7250D02*Y-8750D01*
X216450Y-9500D01*
X218700D01*
X221250Y-3500D02*Y-8750D01*
X222000Y-9500D01*
X220500Y-5750D02*X222000D01*
X225750Y-6500D02*X226500Y-7250D01*
X224250Y-6500D02*X225750D01*
X223500Y-7250D02*X224250Y-6500D01*
X223500Y-7250D02*Y-8750D01*
X224250Y-9500D01*
X226500Y-6500D02*Y-8750D01*
X227250Y-9500D01*
X224250D02*X225750D01*
X226500Y-8750D01*
X229800Y-7250D02*Y-9500D01*
Y-7250D02*X230550Y-6500D01*
X231300D01*
X232050Y-7250D01*
Y-9500D01*
X229050Y-6500D02*X229800Y-7250D01*
X236100Y-6500D02*X236850Y-7250D01*
X234600Y-6500D02*X236100D01*
X233850Y-7250D02*X234600Y-6500D01*
X233850Y-7250D02*Y-8750D01*
X234600Y-9500D01*
X236100D01*
X236850Y-8750D01*
X233850Y-11000D02*X234600Y-11750D01*
X236100D01*
X236850Y-11000D01*
Y-6500D02*Y-11000D01*
X238650Y-3500D02*Y-8750D01*
X239400Y-9500D01*
X241650D02*X243900D01*
X240900Y-8750D02*X241650Y-9500D01*
X240900Y-7250D02*Y-8750D01*
Y-7250D02*X241650Y-6500D01*
X243150D01*
X243900Y-7250D01*
X240900Y-8000D02*X243900D01*
Y-7250D02*Y-8000D01*
X248400Y-6500D02*X251400D01*
X255900Y-8750D02*X256650Y-9500D01*
X255900Y-4250D02*Y-8750D01*
Y-4250D02*X256650Y-3500D01*
X258150D01*
X258900Y-4250D01*
Y-8750D01*
X258150Y-9500D02*X258900Y-8750D01*
X256650Y-9500D02*X258150D01*
X255900Y-8000D02*X258900Y-5000D01*
X260700Y-11000D02*X262200Y-9500D01*
X264000Y-8750D02*X264750Y-9500D01*
X264000Y-4250D02*Y-8750D01*
Y-4250D02*X264750Y-3500D01*
X266250D01*
X267000Y-4250D01*
Y-8750D01*
X266250Y-9500D02*X267000Y-8750D01*
X264750Y-9500D02*X266250D01*
X264000Y-8000D02*X267000Y-5000D01*
X272250Y-3500D02*Y-8750D01*
X273000Y-9500D01*
X271500Y-5750D02*X273000D01*
X274500Y-7250D02*Y-8750D01*
Y-7250D02*X275250Y-6500D01*
X276750D01*
X277500Y-7250D01*
Y-8750D01*
X276750Y-9500D02*X277500Y-8750D01*
X275250Y-9500D02*X276750D01*
X274500Y-8750D02*X275250Y-9500D01*
X282000Y-4250D02*X282750Y-3500D01*
X285000D01*
X285750Y-4250D01*
Y-5750D01*
X282000Y-9500D02*X285750Y-5750D01*
X282000Y-9500D02*X285750D01*
X287550Y-4250D02*X288300Y-3500D01*
X290550D01*
X291300Y-4250D01*
Y-5750D01*
X287550Y-9500D02*X291300Y-5750D01*
X287550Y-9500D02*X291300D01*
X293100Y-8750D02*X293850Y-9500D01*
X293100Y-4250D02*Y-8750D01*
Y-4250D02*X293850Y-3500D01*
X295350D01*
X296100Y-4250D01*
Y-8750D01*
X295350Y-9500D02*X296100Y-8750D01*
X293850Y-9500D02*X295350D01*
X293100Y-8000D02*X296100Y-5000D01*
X297900Y-8750D02*X298650Y-9500D01*
X297900Y-4250D02*Y-8750D01*
Y-4250D02*X298650Y-3500D01*
X300150D01*
X300900Y-4250D01*
Y-8750D01*
X300150Y-9500D02*X300900Y-8750D01*
X298650Y-9500D02*X300150D01*
X297900Y-8000D02*X300900Y-5000D01*
X302700Y-9500D02*X303450D01*
X305250Y-8750D02*X306000Y-9500D01*
X305250Y-4250D02*Y-8750D01*
Y-4250D02*X306000Y-3500D01*
X307500D01*
X308250Y-4250D01*
Y-8750D01*
X307500Y-9500D02*X308250Y-8750D01*
X306000Y-9500D02*X307500D01*
X305250Y-8000D02*X308250Y-5000D01*
X310050Y-8750D02*X310800Y-9500D01*
X310050Y-4250D02*Y-8750D01*
Y-4250D02*X310800Y-3500D01*
X312300D01*
X313050Y-4250D01*
Y-8750D01*
X312300Y-9500D02*X313050Y-8750D01*
X310800Y-9500D02*X312300D01*
X310050Y-8000D02*X313050Y-5000D01*
X314850Y-8750D02*X315600Y-9500D01*
X314850Y-4250D02*Y-8750D01*
Y-4250D02*X315600Y-3500D01*
X317100D01*
X317850Y-4250D01*
Y-8750D01*
X317100Y-9500D02*X317850Y-8750D01*
X315600Y-9500D02*X317100D01*
X314850Y-8000D02*X317850Y-5000D01*
X319650Y-8750D02*X320400Y-9500D01*
X319650Y-4250D02*Y-8750D01*
Y-4250D02*X320400Y-3500D01*
X321900D01*
X322650Y-4250D01*
Y-8750D01*
X321900Y-9500D02*X322650Y-8750D01*
X320400Y-9500D02*X321900D01*
X319650Y-8000D02*X322650Y-5000D01*
X324450Y-8750D02*X325200Y-9500D01*
X324450Y-4250D02*Y-8750D01*
Y-4250D02*X325200Y-3500D01*
X326700D01*
X327450Y-4250D01*
Y-8750D01*
X326700Y-9500D02*X327450Y-8750D01*
X325200Y-9500D02*X326700D01*
X324450Y-8000D02*X327450Y-5000D01*
X329250Y-8750D02*X330000Y-9500D01*
X329250Y-4250D02*Y-8750D01*
Y-4250D02*X330000Y-3500D01*
X331500D01*
X332250Y-4250D01*
Y-8750D01*
X331500Y-9500D02*X332250Y-8750D01*
X330000Y-9500D02*X331500D01*
X329250Y-8000D02*X332250Y-5000D01*
X334050Y-11000D02*X335550Y-9500D01*
X337350Y-4700D02*X338550Y-3500D01*
Y-9500D01*
X337350D02*X339600D01*
X341400Y-8750D02*X342150Y-9500D01*
X341400Y-4250D02*Y-8750D01*
Y-4250D02*X342150Y-3500D01*
X343650D01*
X344400Y-4250D01*
Y-8750D01*
X343650Y-9500D02*X344400Y-8750D01*
X342150Y-9500D02*X343650D01*
X341400Y-8000D02*X344400Y-5000D01*
X346200Y-8750D02*X346950Y-9500D01*
X346200Y-4250D02*Y-8750D01*
Y-4250D02*X346950Y-3500D01*
X348450D01*
X349200Y-4250D01*
Y-8750D01*
X348450Y-9500D02*X349200Y-8750D01*
X346950Y-9500D02*X348450D01*
X346200Y-8000D02*X349200Y-5000D01*
X351000Y-8750D02*X351750Y-9500D01*
X351000Y-4250D02*Y-8750D01*
Y-4250D02*X351750Y-3500D01*
X353250D01*
X354000Y-4250D01*
Y-8750D01*
X353250Y-9500D02*X354000Y-8750D01*
X351750Y-9500D02*X353250D01*
X351000Y-8000D02*X354000Y-5000D01*
X355800Y-9500D02*X356550D01*
X358350Y-8750D02*X359100Y-9500D01*
X358350Y-4250D02*Y-8750D01*
Y-4250D02*X359100Y-3500D01*
X360600D01*
X361350Y-4250D01*
Y-8750D01*
X360600Y-9500D02*X361350Y-8750D01*
X359100Y-9500D02*X360600D01*
X358350Y-8000D02*X361350Y-5000D01*
X363150Y-8750D02*X363900Y-9500D01*
X363150Y-4250D02*Y-8750D01*
Y-4250D02*X363900Y-3500D01*
X365400D01*
X366150Y-4250D01*
Y-8750D01*
X365400Y-9500D02*X366150Y-8750D01*
X363900Y-9500D02*X365400D01*
X363150Y-8000D02*X366150Y-5000D01*
X367950Y-8750D02*X368700Y-9500D01*
X367950Y-4250D02*Y-8750D01*
Y-4250D02*X368700Y-3500D01*
X370200D01*
X370950Y-4250D01*
Y-8750D01*
X370200Y-9500D02*X370950Y-8750D01*
X368700Y-9500D02*X370200D01*
X367950Y-8000D02*X370950Y-5000D01*
X372750Y-8750D02*X373500Y-9500D01*
X372750Y-4250D02*Y-8750D01*
Y-4250D02*X373500Y-3500D01*
X375000D01*
X375750Y-4250D01*
Y-8750D01*
X375000Y-9500D02*X375750Y-8750D01*
X373500Y-9500D02*X375000D01*
X372750Y-8000D02*X375750Y-5000D01*
X377550Y-8750D02*X378300Y-9500D01*
X377550Y-4250D02*Y-8750D01*
Y-4250D02*X378300Y-3500D01*
X379800D01*
X380550Y-4250D01*
Y-8750D01*
X379800Y-9500D02*X380550Y-8750D01*
X378300Y-9500D02*X379800D01*
X377550Y-8000D02*X380550Y-5000D01*
X382350Y-8750D02*X383100Y-9500D01*
X382350Y-4250D02*Y-8750D01*
Y-4250D02*X383100Y-3500D01*
X384600D01*
X385350Y-4250D01*
Y-8750D01*
X384600Y-9500D02*X385350Y-8750D01*
X383100Y-9500D02*X384600D01*
X382350Y-8000D02*X385350Y-5000D01*
X390600Y-7250D02*Y-9500D01*
Y-7250D02*X391350Y-6500D01*
X392100D01*
X392850Y-7250D01*
Y-9500D01*
Y-7250D02*X393600Y-6500D01*
X394350D01*
X395100Y-7250D01*
Y-9500D01*
X389850Y-6500D02*X390600Y-7250D01*
G54D77*X396900Y-5000D02*Y-5150D01*
G54D76*Y-7250D02*Y-9500D01*
X398400Y-3500D02*Y-8750D01*
X399150Y-9500D01*
X401400D02*X403650D01*
X404400Y-8750D01*
X403650Y-8000D02*X404400Y-8750D01*
X401400Y-8000D02*X403650D01*
X400650Y-7250D02*X401400Y-8000D01*
X400650Y-7250D02*X401400Y-6500D01*
X403650D01*
X404400Y-7250D01*
X400650Y-8750D02*X401400Y-9500D01*
X200750Y128500D02*Y122500D01*
X202700Y128500D02*X203750Y127450D01*
Y123550D01*
X202700Y122500D02*X203750Y123550D01*
X200000Y122500D02*X202700D01*
X200000Y128500D02*X202700D01*
X207800Y125500D02*X208550Y124750D01*
X206300Y125500D02*X207800D01*
X205550Y124750D02*X206300Y125500D01*
X205550Y124750D02*Y123250D01*
X206300Y122500D01*
X208550Y125500D02*Y123250D01*
X209300Y122500D01*
X206300D02*X207800D01*
X208550Y123250D01*
X211850Y128500D02*Y123250D01*
X212600Y122500D01*
X211100Y126250D02*X212600D01*
X214850Y122500D02*X217100D01*
X214100Y123250D02*X214850Y122500D01*
X214100Y124750D02*Y123250D01*
Y124750D02*X214850Y125500D01*
X216350D01*
X217100Y124750D01*
X214100Y124000D02*X217100D01*
Y124750D02*Y124000D01*
X218900Y126250D02*X219650D01*
X218900Y124750D02*X219650D01*
X224150Y128500D02*Y122500D01*
Y128500D02*X226400Y125500D01*
X228650Y128500D01*
Y122500D01*
X230450Y124750D02*Y123250D01*
Y124750D02*X231200Y125500D01*
X232700D01*
X233450Y124750D01*
Y123250D01*
X232700Y122500D02*X233450Y123250D01*
X231200Y122500D02*X232700D01*
X230450Y123250D02*X231200Y122500D01*
X236000Y124750D02*Y122500D01*
Y124750D02*X236750Y125500D01*
X237500D01*
X238250Y124750D01*
Y122500D01*
X235250Y125500D02*X236000Y124750D01*
X242750Y123250D02*X243500Y122500D01*
X242750Y127750D02*Y123250D01*
Y127750D02*X243500Y128500D01*
X245000D01*
X245750Y127750D01*
Y123250D01*
X245000Y122500D02*X245750Y123250D01*
X243500Y122500D02*X245000D01*
X242750Y124000D02*X245750Y127000D01*
X247550Y128500D02*X250550D01*
X247550D02*Y125500D01*
X248300Y126250D01*
X249800D01*
X250550Y125500D01*
Y123250D01*
X249800Y122500D02*X250550Y123250D01*
X248300Y122500D02*X249800D01*
X247550Y123250D02*X248300Y122500D01*
X256100Y128500D02*X257300D01*
Y123250D01*
X256550Y122500D02*X257300Y123250D01*
X255800Y122500D02*X256550D01*
X255050Y123250D02*X255800Y122500D01*
X255050Y124000D02*Y123250D01*
X259100Y125500D02*Y123250D01*
X259850Y122500D01*
X261350D01*
X262100Y123250D01*
Y125500D02*Y123250D01*
X263900Y128500D02*Y123250D01*
X264650Y122500D01*
X268850Y127750D02*X269600Y128500D01*
X271850D01*
X272600Y127750D01*
Y126250D01*
X268850Y122500D02*X272600Y126250D01*
X268850Y122500D02*X272600D01*
X274400Y123250D02*X275150Y122500D01*
X274400Y127750D02*Y123250D01*
Y127750D02*X275150Y128500D01*
X276650D01*
X277400Y127750D01*
Y123250D01*
X276650Y122500D02*X277400Y123250D01*
X275150Y122500D02*X276650D01*
X274400Y124000D02*X277400Y127000D01*
X279200Y127750D02*X279950Y128500D01*
X282200D01*
X282950Y127750D01*
Y126250D01*
X279200Y122500D02*X282950Y126250D01*
X279200Y122500D02*X282950D01*
X284750Y127300D02*X285950Y128500D01*
Y122500D01*
X284750D02*X287000D01*
X291500Y127300D02*X292700Y128500D01*
Y122500D01*
X291500D02*X293750D01*
X295550Y123250D02*X296300Y122500D01*
X295550Y127750D02*Y123250D01*
Y127750D02*X296300Y128500D01*
X297800D01*
X298550Y127750D01*
Y123250D01*
X297800Y122500D02*X298550Y123250D01*
X296300Y122500D02*X297800D01*
X295550Y124000D02*X298550Y127000D01*
X300350Y126250D02*X301100D01*
X300350Y124750D02*X301100D01*
X302900Y127750D02*X303650Y128500D01*
X305150D01*
X305900Y127750D01*
X305150Y122500D02*X305900Y123250D01*
X303650Y122500D02*X305150D01*
X302900Y123250D02*X303650Y122500D01*
Y125800D02*X305150D01*
X305900Y127750D02*Y126550D01*
Y125050D02*Y123250D01*
Y125050D02*X305150Y125800D01*
X305900Y126550D02*X305150Y125800D01*
X308450Y122500D02*X310700Y125500D01*
Y127750D02*Y125500D01*
X309950Y128500D02*X310700Y127750D01*
X308450Y128500D02*X309950D01*
X307700Y127750D02*X308450Y128500D01*
X307700Y127750D02*Y126250D01*
X308450Y125500D01*
X310700D01*
X312500Y126250D02*X313250D01*
X312500Y124750D02*X313250D01*
X315050Y127300D02*X316250Y128500D01*
Y122500D01*
X315050D02*X317300D01*
X319850D02*X322850Y128500D01*
X319100D02*X322850D01*
X328100D02*Y122500D01*
X327350Y128500D02*X330350D01*
X331100Y127750D01*
Y126250D01*
X330350Y125500D02*X331100Y126250D01*
X328100Y125500D02*X330350D01*
X332900Y128500D02*Y122500D01*
Y128500D02*X335150Y125500D01*
X337400Y128500D01*
Y122500D01*
X344900Y128500D02*X345650Y127750D01*
X342650Y128500D02*X344900D01*
X341900Y127750D02*X342650Y128500D01*
X341900Y127750D02*Y123250D01*
X342650Y122500D01*
X344900D01*
X345650Y123250D01*
Y124750D02*Y123250D01*
X344900Y125500D02*X345650Y124750D01*
X343400Y125500D02*X344900D01*
X347450Y128500D02*Y122500D01*
Y128500D02*X349700Y125500D01*
X351950Y128500D01*
Y122500D01*
X353750Y128500D02*X356750D01*
X355250D02*Y122500D01*
X361250Y128500D02*Y123250D01*
X362000Y122500D01*
X363500D01*
X364250Y123250D01*
Y128500D02*Y123250D01*
X366050Y128500D02*X369050D01*
X367550D02*Y122500D01*
X371900D02*X373850D01*
X370850Y123550D02*X371900Y122500D01*
X370850Y127450D02*Y123550D01*
Y127450D02*X371900Y128500D01*
X373850D01*
X200000Y142000D02*Y137500D01*
Y142000D02*X201050Y143500D01*
X202700D01*
X203750Y142000D01*
Y137500D01*
X200000Y140500D02*X203750D01*
X205550D02*Y138250D01*
X206300Y137500D01*
X207800D01*
X208550Y138250D01*
Y140500D02*Y138250D01*
X211100Y143500D02*Y138250D01*
X211850Y137500D01*
X210350Y141250D02*X211850D01*
X213350Y143500D02*Y137500D01*
Y139750D02*X214100Y140500D01*
X215600D01*
X216350Y139750D01*
Y137500D01*
X218150Y139750D02*Y138250D01*
Y139750D02*X218900Y140500D01*
X220400D01*
X221150Y139750D01*
Y138250D01*
X220400Y137500D02*X221150Y138250D01*
X218900Y137500D02*X220400D01*
X218150Y138250D02*X218900Y137500D01*
X223700Y139750D02*Y137500D01*
Y139750D02*X224450Y140500D01*
X225950D01*
X222950D02*X223700Y139750D01*
X227750Y141250D02*X228500D01*
X227750Y139750D02*X228500D01*
X236000Y143500D02*X236750Y142750D01*
X233750Y143500D02*X236000D01*
X233000Y142750D02*X233750Y143500D01*
X233000Y142750D02*Y141250D01*
X233750Y140500D01*
X236000D01*
X236750Y139750D01*
Y138250D01*
X236000Y137500D02*X236750Y138250D01*
X233750Y137500D02*X236000D01*
X233000Y138250D02*X233750Y137500D01*
X239300Y143500D02*Y138250D01*
X240050Y137500D01*
X238550Y141250D02*X240050D01*
X242300Y137500D02*X244550D01*
X241550Y138250D02*X242300Y137500D01*
X241550Y139750D02*Y138250D01*
Y139750D02*X242300Y140500D01*
X243800D01*
X244550Y139750D01*
X241550Y139000D02*X244550D01*
Y139750D02*Y139000D01*
X246350Y140500D02*X247850Y137500D01*
X249350Y140500D02*X247850Y137500D01*
X251900D02*X254150D01*
X251150Y138250D02*X251900Y137500D01*
X251150Y139750D02*Y138250D01*
Y139750D02*X251900Y140500D01*
X253400D01*
X254150Y139750D01*
X251150Y139000D02*X254150D01*
Y139750D02*Y139000D01*
X200000Y158500D02*X203000D01*
X201500D02*Y152500D01*
G54D77*X204800Y157000D02*Y156850D01*
G54D76*Y154750D02*Y152500D01*
X207050Y158500D02*Y153250D01*
X207800Y152500D01*
X206300Y156250D02*X207800D01*
X209300Y158500D02*Y153250D01*
X210050Y152500D01*
X212300D02*X214550D01*
X211550Y153250D02*X212300Y152500D01*
X211550Y154750D02*Y153250D01*
Y154750D02*X212300Y155500D01*
X213800D01*
X214550Y154750D01*
X211550Y154000D02*X214550D01*
Y154750D02*Y154000D01*
X216350Y156250D02*X217100D01*
X216350Y154750D02*X217100D01*
X221600Y153250D02*X222350Y152500D01*
X221600Y157750D02*X222350Y158500D01*
X221600Y157750D02*Y153250D01*
X224150Y155500D02*Y153250D01*
X224900Y152500D01*
X226400D01*
X227150Y153250D01*
Y155500D02*Y153250D01*
X229700Y154750D02*Y152500D01*
Y154750D02*X230450Y155500D01*
X231200D01*
X231950Y154750D01*
Y152500D01*
X228950Y155500D02*X229700Y154750D01*
X233750Y158500D02*Y152500D01*
Y154750D02*X236000Y152500D01*
X233750Y154750D02*X235250Y156250D01*
X238550Y154750D02*Y152500D01*
Y154750D02*X239300Y155500D01*
X240050D01*
X240800Y154750D01*
Y152500D01*
X237800Y155500D02*X238550Y154750D01*
X242600D02*Y153250D01*
Y154750D02*X243350Y155500D01*
X244850D01*
X245600Y154750D01*
Y153250D01*
X244850Y152500D02*X245600Y153250D01*
X243350Y152500D02*X244850D01*
X242600Y153250D02*X243350Y152500D01*
X247400Y155500D02*Y153250D01*
X248150Y152500D01*
X248900D01*
X249650Y153250D01*
Y155500D02*Y153250D01*
X250400Y152500D01*
X251150D01*
X251900Y153250D01*
Y155500D02*Y153250D01*
X254450Y154750D02*Y152500D01*
Y154750D02*X255200Y155500D01*
X255950D01*
X256700Y154750D01*
Y152500D01*
X253700Y155500D02*X254450Y154750D01*
X258500Y158500D02*X259250Y157750D01*
Y153250D01*
X258500Y152500D02*X259250Y153250D01*
X263750Y155500D02*X266750D01*
X271250Y158500D02*Y152500D01*
Y158500D02*X274250D01*
X271250Y155800D02*X273500D01*
X278300Y155500D02*X279050Y154750D01*
X276800Y155500D02*X278300D01*
X276050Y154750D02*X276800Y155500D01*
X276050Y154750D02*Y153250D01*
X276800Y152500D01*
X279050Y155500D02*Y153250D01*
X279800Y152500D01*
X276800D02*X278300D01*
X279050Y153250D01*
X281600Y158500D02*Y152500D01*
Y153250D02*X282350Y152500D01*
X283850D01*
X284600Y153250D01*
Y154750D02*Y153250D01*
X283850Y155500D02*X284600Y154750D01*
X282350Y155500D02*X283850D01*
X281600Y154750D02*X282350Y155500D01*
X287150Y154750D02*Y152500D01*
Y154750D02*X287900Y155500D01*
X289400D01*
X286400D02*X287150Y154750D01*
G54D77*X291200Y157000D02*Y156850D01*
G54D76*Y154750D02*Y152500D01*
X293450Y155500D02*X295700D01*
X292700Y154750D02*X293450Y155500D01*
X292700Y154750D02*Y153250D01*
X293450Y152500D01*
X295700D01*
X299750Y155500D02*X300500Y154750D01*
X298250Y155500D02*X299750D01*
X297500Y154750D02*X298250Y155500D01*
X297500Y154750D02*Y153250D01*
X298250Y152500D01*
X300500Y155500D02*Y153250D01*
X301250Y152500D01*
X298250D02*X299750D01*
X300500Y153250D01*
X303800Y158500D02*Y153250D01*
X304550Y152500D01*
X303050Y156250D02*X304550D01*
G54D77*X306050Y157000D02*Y156850D01*
G54D76*Y154750D02*Y152500D01*
X307550Y154750D02*Y153250D01*
Y154750D02*X308300Y155500D01*
X309800D01*
X310550Y154750D01*
Y153250D01*
X309800Y152500D02*X310550Y153250D01*
X308300Y152500D02*X309800D01*
X307550Y153250D02*X308300Y152500D01*
X313100Y154750D02*Y152500D01*
Y154750D02*X313850Y155500D01*
X314600D01*
X315350Y154750D01*
Y152500D01*
X312350Y155500D02*X313100Y154750D01*
X320600Y158500D02*Y152500D01*
X322550Y158500D02*X323600Y157450D01*
Y153550D01*
X322550Y152500D02*X323600Y153550D01*
X319850Y152500D02*X322550D01*
X319850Y158500D02*X322550D01*
X326150Y154750D02*Y152500D01*
Y154750D02*X326900Y155500D01*
X328400D01*
X325400D02*X326150Y154750D01*
X332450Y155500D02*X333200Y154750D01*
X330950Y155500D02*X332450D01*
X330200Y154750D02*X330950Y155500D01*
X330200Y154750D02*Y153250D01*
X330950Y152500D01*
X333200Y155500D02*Y153250D01*
X333950Y152500D01*
X330950D02*X332450D01*
X333200Y153250D01*
X335750Y155500D02*Y153250D01*
X336500Y152500D01*
X337250D01*
X338000Y153250D01*
Y155500D02*Y153250D01*
X338750Y152500D01*
X339500D01*
X340250Y153250D01*
Y155500D02*Y153250D01*
G54D77*X342050Y157000D02*Y156850D01*
G54D76*Y154750D02*Y152500D01*
X344300Y154750D02*Y152500D01*
Y154750D02*X345050Y155500D01*
X345800D01*
X346550Y154750D01*
Y152500D01*
X343550Y155500D02*X344300Y154750D01*
X350600Y155500D02*X351350Y154750D01*
X349100Y155500D02*X350600D01*
X348350Y154750D02*X349100Y155500D01*
X348350Y154750D02*Y153250D01*
X349100Y152500D01*
X350600D01*
X351350Y153250D01*
X348350Y151000D02*X349100Y150250D01*
X350600D01*
X351350Y151000D01*
Y155500D02*Y151000D01*
M02*
