G04 start of page 6 for group 4 idx 4 *
G04 Title: (unknown), power *
G04 Creator: pcb 20140316 *
G04 CreationDate: Mon 05 Jul 2021 10:39:17 PM GMT UTC *
G04 For: steve *
G04 Format: Gerber/RS-274X *
G04 PCB-Dimensions (mil): 2200.00 1000.00 *
G04 PCB-Coordinate-Origin: lower left *
%MOIN*%
%FSLAX25Y25*%
%LNGROUP4*%
%ADD47C,0.0380*%
%ADD46C,0.0280*%
%ADD45C,0.0300*%
%ADD44C,0.0660*%
%ADD43C,0.0700*%
%ADD42C,0.0600*%
%ADD41C,0.0001*%
G54D41*G36*
X137000Y83000D02*Y77000D01*
X143000D01*
Y83000D01*
X137000D01*
G37*
G54D42*X140000Y70000D03*
Y60000D03*
Y50000D03*
G54D41*G36*
X205500Y84500D02*Y75500D01*
X214500D01*
Y84500D01*
X205500D01*
G37*
G54D43*X210000Y70000D03*
Y60000D03*
Y50000D03*
Y40000D03*
Y30000D03*
G54D42*X140000Y40000D03*
Y30000D03*
Y20000D03*
X170000D03*
Y30000D03*
Y40000D03*
Y50000D03*
Y60000D03*
Y70000D03*
Y80000D03*
G54D41*G36*
X27000Y83000D02*Y77000D01*
X33000D01*
Y83000D01*
X27000D01*
G37*
G54D42*X30000Y70000D03*
Y60000D03*
Y50000D03*
X60000Y60000D03*
X80000D03*
X60000Y70000D03*
Y80000D03*
G54D41*G36*
X77000Y83000D02*Y77000D01*
X83000D01*
Y83000D01*
X77000D01*
G37*
G54D42*X80000Y70000D03*
X30000Y40000D03*
Y30000D03*
Y20000D03*
X60000D03*
Y30000D03*
Y40000D03*
Y50000D03*
X80000D03*
Y40000D03*
Y30000D03*
Y20000D03*
X110000D03*
Y30000D03*
Y40000D03*
Y50000D03*
Y60000D03*
Y70000D03*
Y80000D03*
G54D44*X190000Y90000D03*
Y10000D03*
X10000D03*
Y90000D03*
G54D45*G54D46*G54D47*G54D46*M02*
