G04 start of page 13 for group -4079 idx -4079 *
G04 Title: (unknown), topsilk *
G04 Creator: pcb 4.2.2 *
G04 CreationDate: Sun Aug 11 23:19:42 2024 UTC *
G04 For: electronics *
G04 Format: Gerber/RS-274X *
G04 PCB-Dimensions (mil): 2500.00 1000.00 *
G04 PCB-Coordinate-Origin: lower left *
%MOIN*%
%FSLAX25Y25*%
%LNTOPSILK*%
%ADD71C,0.0200*%
%ADD70C,0.0100*%
G54D70*X0Y100000D02*Y0D01*
Y100000D02*X250000D01*
X0Y0D02*X250000D01*
Y100000D02*Y0D01*
Y100000D02*Y0D01*
X0D01*
X967Y505D02*Y100505D01*
X500Y99500D02*X250500D01*
X60000Y9000D02*Y5000D01*
Y9000D02*X61500Y7000D01*
X63000Y9000D01*
Y5000D01*
X64200Y8500D02*Y5500D01*
Y8500D02*X64700Y9000D01*
X65700D01*
X66200Y8500D01*
Y5500D01*
X65700Y5000D02*X66200Y5500D01*
X64700Y5000D02*X65700D01*
X64200Y5500D02*X64700Y5000D01*
X67900Y9000D02*Y5000D01*
X69200Y9000D02*X69900Y8300D01*
Y5700D01*
X69200Y5000D02*X69900Y5700D01*
X67400Y5000D02*X69200D01*
X67400Y9000D02*X69200D01*
X71100Y7200D02*X72600D01*
X71100Y5000D02*X73100D01*
X71100Y9000D02*Y5000D01*
Y9000D02*X73100D01*
X76300D02*X76800Y8500D01*
X74800Y9000D02*X76300D01*
X74300Y8500D02*X74800Y9000D01*
X74300Y8500D02*Y7500D01*
X74800Y7000D01*
X76300D01*
X76800Y6500D01*
Y5500D01*
X76300Y5000D02*X76800Y5500D01*
X74800Y5000D02*X76300D01*
X74300Y5500D02*X74800Y5000D01*
X78000Y7200D02*X79500D01*
X78000Y5000D02*X80000D01*
X78000Y9000D02*Y5000D01*
Y9000D02*X80000D01*
X81200D02*Y5000D01*
X83200D01*
X84400Y7200D02*X85900D01*
X84400Y5000D02*X86400D01*
X84400Y9000D02*Y5000D01*
Y9000D02*X86400D01*
X88300Y5000D02*X89600D01*
X87600Y5700D02*X88300Y5000D01*
X87600Y8300D02*Y5700D01*
Y8300D02*X88300Y9000D01*
X89600D01*
X90800D02*X92800D01*
X91800D02*Y5000D01*
X96300Y9000D02*Y5000D01*
X97600Y9000D02*X98300Y8300D01*
Y5700D01*
X97600Y5000D02*X98300Y5700D01*
X95800Y5000D02*X97600D01*
X95800Y9000D02*X97600D01*
X99500D02*X100500D01*
X100000D02*Y5000D01*
X99500D02*X100500D01*
X103700Y9000D02*X104200Y8500D01*
X102200Y9000D02*X103700D01*
X101700Y8500D02*X102200Y9000D01*
X101700Y8500D02*Y7500D01*
X102200Y7000D01*
X103700D01*
X104200Y6500D01*
Y5500D01*
X103700Y5000D02*X104200Y5500D01*
X102200Y5000D02*X103700D01*
X101700Y5500D02*X102200Y5000D01*
X105900Y9000D02*Y5000D01*
X105400Y9000D02*X107400D01*
X107900Y8500D01*
Y7500D01*
X107400Y7000D02*X107900Y7500D01*
X105900Y7000D02*X107400D01*
X109100Y9000D02*Y5000D01*
X111100D01*
X112300Y8000D02*Y5000D01*
Y8000D02*X113000Y9000D01*
X114100D01*
X114800Y8000D01*
Y5000D01*
X112300Y7000D02*X114800D01*
X116000Y9000D02*X117000Y7000D01*
X118000Y9000D01*
X117000Y7000D02*Y5000D01*
X121000Y9000D02*X122000Y5000D01*
X123000Y9000D01*
X124200Y8500D02*X124700Y9000D01*
X126200D01*
X126700Y8500D01*
Y7500D01*
X124200Y5000D02*X126700Y7500D01*
X124200Y5000D02*X126700D01*
X212000Y39000D02*X212500Y38500D01*
X210500Y39000D02*X212000D01*
X210000Y38500D02*X210500Y39000D01*
X210000Y38500D02*Y35500D01*
X210500Y35000D01*
X212000D01*
X212500Y35500D01*
Y36500D02*Y35500D01*
X212000Y37000D02*X212500Y36500D01*
X211000Y37000D02*X212000D01*
X213700Y39000D02*Y35000D01*
Y39000D02*X216200Y35000D01*
Y39000D02*Y35000D01*
X217900Y39000D02*Y35000D01*
X219200Y39000D02*X219900Y38300D01*
Y35700D01*
X219200Y35000D02*X219900Y35700D01*
X217400Y35000D02*X219200D01*
X217400Y39000D02*X219200D01*
X210000Y29000D02*X211000Y25000D01*
X212000Y29000D01*
X213900Y25000D02*X215200D01*
X213200Y25700D02*X213900Y25000D01*
X213200Y28300D02*Y25700D01*
Y28300D02*X213900Y29000D01*
X215200D01*
X217100Y25000D02*X218400D01*
X216400Y25700D02*X217100Y25000D01*
X216400Y28300D02*Y25700D01*
Y28300D02*X217100Y29000D01*
X218400D01*
G54D71*X15000Y80000D02*Y10000D01*
X25000Y80000D02*Y10000D01*
G54D70*X15000Y75000D02*X25000D01*
G54D71*Y80000D02*G75*G03X15000Y80000I-5000J0D01*G01*
Y10000D02*G75*G03X25000Y10000I5000J0D01*G01*
G54D70*X225000Y85000D02*Y25000D01*
X235000D01*
Y85000D01*
X225000D01*
Y75000D02*X235000D01*
Y85000D01*
X55000D02*Y15000D01*
X95000D01*
Y85000D01*
X55000D02*X70000D01*
X80000D02*X95000D01*
X70000D02*G75*G03X80000Y85000I5000J0D01*G01*
X105000D02*Y15000D01*
X145000D01*
Y85000D01*
X105000D02*X120000D01*
X130000D02*X145000D01*
X120000D02*G75*G03X130000Y85000I5000J0D01*G01*
X155000D02*Y15000D01*
X195000D01*
Y85000D01*
X155000D02*X170000D01*
X180000D02*X195000D01*
X170000D02*G75*G03X180000Y85000I5000J0D01*G01*
X14000D02*Y83000D01*
X13500Y82500D01*
X12500D02*X13500D01*
X12000Y83000D02*X12500Y82500D01*
X12000Y84500D02*Y83000D01*
X10000Y84500D02*X14000D01*
X12000Y83700D02*X10000Y82500D01*
X13200Y81300D02*X14000Y80500D01*
X10000D02*X14000D01*
X10000Y81300D02*Y79800D01*
X220000Y84300D02*Y83000D01*
X220700Y85000D02*X220000Y84300D01*
X220700Y85000D02*X223300D01*
X224000Y84300D01*
Y83000D01*
X220500Y81800D02*X223500D01*
X224000Y81300D01*
Y80300D01*
X223500Y79800D01*
X220500D02*X223500D01*
X220000Y80300D02*X220500Y79800D01*
X220000Y81300D02*Y80300D01*
X220500Y81800D02*X220000Y81300D01*
Y78600D02*X224000D01*
X220000Y76100D01*
X224000D01*
X220000Y74900D02*X224000D01*
X220000Y72400D01*
X224000D01*
X223200Y71200D02*X224000Y70400D01*
X220000D02*X224000D01*
X220000Y71200D02*Y69700D01*
X50000Y84500D02*X54000D01*
Y83200D02*X53300Y82500D01*
X50700D02*X53300D01*
X50000Y83200D02*X50700Y82500D01*
X50000Y85000D02*Y83200D01*
X54000Y85000D02*Y83200D01*
X53200Y81300D02*X54000Y80500D01*
X50000D02*X54000D01*
X50000Y81300D02*Y79800D01*
X100500Y85000D02*X104000D01*
X100500D02*X100000Y84500D01*
Y83500D01*
X100500Y83000D01*
X104000D01*
X103500Y81800D02*X104000Y81300D01*
Y79800D01*
X103500Y79300D01*
X102500D02*X103500D01*
X100000Y81800D02*X102500Y79300D01*
X100000Y81800D02*Y79300D01*
X150500Y85000D02*X154000D01*
X150500D02*X150000Y84500D01*
Y83500D01*
X150500Y83000D01*
X154000D01*
X153200Y81800D02*X154000Y81000D01*
X150000D02*X154000D01*
X150000Y81800D02*Y80300D01*
M02*
