G04 start of page 2 for group 0 idx 0 *
G04 Title: (unknown), top *
G04 Creator: pcb 4.2.2 *
G04 CreationDate: Sun Aug 11 23:19:42 2024 UTC *
G04 For: electronics *
G04 Format: Gerber/RS-274X *
G04 PCB-Dimensions (mil): 2500.00 1000.00 *
G04 PCB-Coordinate-Origin: lower left *
%MOIN*%
%FSLAX25Y25*%
%LNTOP*%
%ADD17C,0.0280*%
%ADD16C,0.0380*%
%ADD15C,0.1100*%
%ADD14C,0.1160*%
%ADD13C,0.0600*%
%ADD12C,0.0001*%
%ADD11C,0.0100*%
G54D11*X0Y100000D02*Y0D01*
Y100000D02*X250000D01*
X0Y0D02*X250000D01*
Y100000D02*Y0D01*
X60000Y55500D02*Y50000D01*
X64500Y70000D02*X60000D01*
X64500D02*Y34500D01*
X83500Y30000D02*X60000D01*
X83500Y80000D02*Y30000D01*
X60000Y30000D02*Y20000D01*
X60000Y55500D02*X15500D01*
X64500Y34500D02*X24500D01*
X60000Y80000D02*X26500D01*
X24500Y70000D02*X20000D01*
X24500Y34500D02*Y10000D01*
X24500Y10000D02*X20000D01*
X15500Y80000D02*Y55500D01*
X20000Y80000D02*X15500D01*
X26500D02*Y60000D01*
X26500Y60000D02*X20000D01*
X24500Y84500D02*Y70000D01*
X86750Y84500D02*X24500D01*
X160000Y20000D02*Y15500D01*
X160000Y15500D02*X110000D01*
Y20000D02*Y15500D01*
X90000Y20000D02*X85500D01*
Y45500D02*Y20000D01*
X160000Y30000D02*X144500D01*
X160000Y40000D02*Y35500D01*
X144500Y35000D02*Y30000D01*
X144500Y35000D02*X110000D01*
Y40000D02*Y35000D01*
X230000Y40000D02*X196500D01*
X234500Y30000D02*X230000D01*
X190000Y50000D02*Y45500D01*
X196500Y40000D02*Y24500D01*
X190000Y84500D02*Y80000D01*
X194500Y60000D02*Y35500D01*
X234500Y84500D02*Y30000D01*
X234500Y84500D02*X190000D01*
X230000Y80000D02*Y75500D01*
X230000Y60000D02*X194500D01*
X230000Y70000D02*Y64500D01*
X196500Y24500D02*X160000D01*
Y20000D01*
X190000Y45500D02*X85500D01*
X194500Y35500D02*X160000D01*
X140000Y84500D02*Y80000D01*
X190000Y84500D02*X140000D01*
X160000Y70000D02*X146500D01*
Y75500D02*Y70000D01*
X160000Y80000D02*Y75500D01*
X160000Y50000D02*X144500D01*
Y65500D02*Y50000D01*
X160000Y64500D02*Y60000D01*
X146500Y75500D02*X110000D01*
X230000D02*X160000D01*
X110000Y70000D02*Y65500D01*
X230000Y64500D02*X160000D01*
X90000Y80000D02*X83500D01*
X140000Y84500D02*X94500D01*
Y70000D01*
X94500Y70000D02*X90000D01*
X86750Y84500D02*Y80000D01*
X110000Y77750D02*X105500D01*
X110000Y80000D02*Y75500D01*
X105500Y77750D02*Y50000D01*
X110000Y50000D02*X105500D01*
X144500Y65500D02*X110000D01*
G54D12*G36*
X227000Y83000D02*Y77000D01*
X233000D01*
Y83000D01*
X227000D01*
G37*
G54D13*X230000Y70000D03*
Y60000D03*
Y50000D03*
Y40000D03*
Y30000D03*
X20000Y50000D03*
Y40000D03*
Y30000D03*
Y20000D03*
G54D12*G36*
X17000Y83000D02*Y77000D01*
X23000D01*
Y83000D01*
X17000D01*
G37*
G54D13*X20000Y70000D03*
Y60000D03*
Y10000D03*
G54D12*G36*
X57000Y83000D02*Y77000D01*
X63000D01*
Y83000D01*
X57000D01*
G37*
G54D13*X60000Y70000D03*
Y60000D03*
Y50000D03*
X90000D03*
Y60000D03*
Y70000D03*
Y80000D03*
G54D12*G36*
X107000Y83000D02*Y77000D01*
X113000D01*
Y83000D01*
X107000D01*
G37*
G54D13*X110000Y70000D03*
X60000Y40000D03*
X90000D03*
X140000D03*
Y50000D03*
X60000Y30000D03*
Y20000D03*
X90000D03*
Y30000D03*
X140000Y20000D03*
Y30000D03*
X110000Y50000D03*
Y40000D03*
Y30000D03*
Y20000D03*
X190000D03*
Y30000D03*
Y40000D03*
Y50000D03*
Y60000D03*
Y70000D03*
Y80000D03*
X110000Y60000D03*
X140000D03*
Y70000D03*
Y80000D03*
G54D12*G36*
X157000Y83000D02*Y77000D01*
X163000D01*
Y83000D01*
X157000D01*
G37*
G54D13*X160000Y70000D03*
Y60000D03*
Y50000D03*
Y40000D03*
Y30000D03*
Y20000D03*
G54D14*X222170Y92069D03*
X222791Y10457D03*
X41464Y10679D03*
Y92132D03*
G54D15*G54D16*G54D17*M02*
