G04 start of page 7 for group 5 idx 5 *
G04 Title: (unknown), bottom *
G04 Creator: pcb 4.2.2 *
G04 CreationDate: Mon Nov 25 01:58:05 2024 UTC *
G04 For: electronics *
G04 Format: Gerber/RS-274X *
G04 PCB-Dimensions (mil): 2500.00 1000.00 *
G04 PCB-Coordinate-Origin: lower left *
%MOIN*%
%FSLAX25Y25*%
%LNBOTTOM*%
%ADD48C,0.0280*%
%ADD47C,0.0380*%
%ADD46C,0.1100*%
%ADD45C,0.1160*%
%ADD44C,0.0600*%
%ADD43C,0.0001*%
%ADD42C,0.0100*%
G54D42*X160000Y20000D02*Y15500D01*
X160000Y15500D02*X110000D01*
X190000Y20000D02*X164500D01*
Y65500D02*Y20000D01*
X114500Y50000D02*X110000D01*
X230000D02*X194500D01*
Y30000D01*
X194500Y30000D02*X190000D01*
X164500Y65500D02*X140000D01*
Y70000D02*Y65500D01*
X140000Y48000D02*X135500D01*
X140000Y50000D02*Y48000D01*
X110000Y20000D02*Y15500D01*
X135500Y48000D02*Y25500D01*
X110000Y34500D02*Y30000D01*
X90000Y25500D02*Y20000D01*
X135500Y25500D02*X90000D01*
X72750Y34500D02*Y30000D01*
X110000Y34500D02*X72750D01*
X85500Y30000D02*X60000D01*
X85500Y80000D02*Y30000D01*
X90000Y80000D02*X85500D01*
X114500D02*X110000D01*
X114500D02*Y50000D01*
G54D43*G36*
X227000Y83000D02*Y77000D01*
X233000D01*
Y83000D01*
X227000D01*
G37*
G54D44*X230000Y70000D03*
Y60000D03*
Y50000D03*
Y40000D03*
Y30000D03*
X20000Y50000D03*
Y40000D03*
Y30000D03*
Y20000D03*
G54D43*G36*
X17000Y83000D02*Y77000D01*
X23000D01*
Y83000D01*
X17000D01*
G37*
G54D44*X20000Y70000D03*
Y60000D03*
Y10000D03*
G54D43*G36*
X57000Y83000D02*Y77000D01*
X63000D01*
Y83000D01*
X57000D01*
G37*
G54D44*X60000Y70000D03*
Y60000D03*
Y50000D03*
X90000D03*
Y60000D03*
Y70000D03*
Y80000D03*
G54D43*G36*
X107000Y83000D02*Y77000D01*
X113000D01*
Y83000D01*
X107000D01*
G37*
G54D44*X110000Y70000D03*
X60000Y40000D03*
X90000D03*
X140000D03*
Y50000D03*
X60000Y30000D03*
Y20000D03*
X90000D03*
Y30000D03*
X140000Y20000D03*
Y30000D03*
X110000Y50000D03*
Y40000D03*
Y30000D03*
Y20000D03*
X190000D03*
Y30000D03*
Y40000D03*
Y50000D03*
Y60000D03*
Y70000D03*
Y80000D03*
X110000Y60000D03*
X140000D03*
Y70000D03*
Y80000D03*
G54D43*G36*
X157000Y83000D02*Y77000D01*
X163000D01*
Y83000D01*
X157000D01*
G37*
G54D44*X160000Y70000D03*
Y60000D03*
Y50000D03*
Y40000D03*
Y30000D03*
Y20000D03*
G54D45*X222170Y92069D03*
X222791Y10457D03*
X41464Y10679D03*
Y92132D03*
G54D46*G54D47*G54D48*M02*
