G04 start of page 5 for group 3 idx 3 *
G04 Title: (unknown), signal3 *
G04 Creator: pcb 4.2.2 *
G04 CreationDate: Mon Nov 25 01:58:05 2024 UTC *
G04 For: electronics *
G04 Format: Gerber/RS-274X *
G04 PCB-Dimensions (mil): 2500.00 1000.00 *
G04 PCB-Coordinate-Origin: lower left *
%MOIN*%
%FSLAX25Y25*%
%LNGROUP3*%
%ADD35C,0.0280*%
%ADD34C,0.0380*%
%ADD33C,0.1100*%
%ADD32C,0.1160*%
%ADD31C,0.0600*%
%ADD30C,0.0001*%
G54D30*G36*
X227000Y83000D02*Y77000D01*
X233000D01*
Y83000D01*
X227000D01*
G37*
G54D31*X230000Y70000D03*
Y60000D03*
Y50000D03*
Y40000D03*
Y30000D03*
X20000Y50000D03*
Y40000D03*
Y30000D03*
Y20000D03*
G54D30*G36*
X17000Y83000D02*Y77000D01*
X23000D01*
Y83000D01*
X17000D01*
G37*
G54D31*X20000Y70000D03*
Y60000D03*
Y10000D03*
G54D30*G36*
X57000Y83000D02*Y77000D01*
X63000D01*
Y83000D01*
X57000D01*
G37*
G54D31*X60000Y70000D03*
Y60000D03*
Y50000D03*
X90000D03*
Y60000D03*
Y70000D03*
Y80000D03*
G54D30*G36*
X107000Y83000D02*Y77000D01*
X113000D01*
Y83000D01*
X107000D01*
G37*
G54D31*X110000Y70000D03*
X60000Y40000D03*
X90000D03*
X140000D03*
Y50000D03*
X60000Y30000D03*
Y20000D03*
X90000D03*
Y30000D03*
X140000Y20000D03*
Y30000D03*
X110000Y50000D03*
Y40000D03*
Y30000D03*
Y20000D03*
X190000D03*
Y30000D03*
Y40000D03*
Y50000D03*
Y60000D03*
Y70000D03*
Y80000D03*
X110000Y60000D03*
X140000D03*
Y70000D03*
Y80000D03*
G54D30*G36*
X157000Y83000D02*Y77000D01*
X163000D01*
Y83000D01*
X157000D01*
G37*
G54D31*X160000Y70000D03*
Y60000D03*
Y50000D03*
Y40000D03*
Y30000D03*
Y20000D03*
G54D32*X222170Y92069D03*
X222791Y10457D03*
X41464Y10679D03*
Y92132D03*
G54D33*G54D34*G54D35*M02*
