G04 start of page 13 for group -4079 idx -4079 *
G04 Title: (unknown), topsilk *
G04 Creator: pcb 4.2.2 *
G04 CreationDate: Mon Nov 25 01:58:05 2024 UTC *
G04 For: electronics *
G04 Format: Gerber/RS-274X *
G04 PCB-Dimensions (mil): 2500.00 1000.00 *
G04 PCB-Coordinate-Origin: lower left *
%MOIN*%
%FSLAX25Y25*%
%LNTOPSILK*%
%ADD66C,0.0200*%
%ADD65C,0.0100*%
G54D65*X250000Y100000D02*Y0D01*
X967Y505D02*Y100505D01*
X500Y99500D02*X250500D01*
X237957Y78477D02*X238457Y77977D01*
X237957Y79277D02*Y78477D01*
Y79277D02*X238657Y79977D01*
X239257D01*
X239957Y79277D01*
Y78477D01*
X239457Y77977D02*X239957Y78477D01*
X238457Y77977D02*X239457D01*
X237957Y80677D02*X238657Y79977D01*
X237957Y81477D02*Y80677D01*
Y81477D02*X238457Y81977D01*
X239457D01*
X239957Y81477D01*
Y80677D01*
X239257Y79977D02*X239957Y80677D01*
X237957Y69477D02*X239957Y71977D01*
X237957Y69477D02*X240457D01*
X239957Y71977D02*Y67977D01*
X237957Y62477D02*X238457Y62977D01*
X239957D01*
X240457Y62477D01*
Y61477D01*
X237957Y58977D02*X240457Y61477D01*
X237957Y58977D02*X240457D01*
X238957Y51177D02*X239757Y51977D01*
Y47977D01*
X238957D02*X240457D01*
X213000Y43000D02*X213500Y42500D01*
X211500Y43000D02*X213000D01*
X211000Y42500D02*X211500Y43000D01*
X211000Y42500D02*Y39500D01*
X211500Y39000D01*
X213000D01*
X213500Y39500D01*
Y40500D02*Y39500D01*
X213000Y41000D02*X213500Y40500D01*
X212000Y41000D02*X213000D01*
X214700Y43000D02*Y39000D01*
Y43000D02*X217200Y39000D01*
Y43000D02*Y39000D01*
X218900Y43000D02*Y39000D01*
X220200Y43000D02*X220900Y42300D01*
Y39700D01*
X220200Y39000D02*X220900Y39700D01*
X218400Y39000D02*X220200D01*
X218400Y43000D02*X220200D01*
X212000Y33000D02*X213000Y29000D01*
X214000Y33000D01*
X215900Y29000D02*X217200D01*
X215200Y29700D02*X215900Y29000D01*
X215200Y32300D02*Y29700D01*
Y32300D02*X215900Y33000D01*
X217200D01*
X219100Y29000D02*X220400D01*
X218400Y29700D02*X219100Y29000D01*
X218400Y32300D02*Y29700D01*
Y32300D02*X219100Y33000D01*
X220400D01*
X60000Y9000D02*Y5000D01*
Y9000D02*X61500Y7000D01*
X63000Y9000D01*
Y5000D01*
X64200Y8500D02*Y5500D01*
Y8500D02*X64700Y9000D01*
X65700D01*
X66200Y8500D01*
Y5500D01*
X65700Y5000D02*X66200Y5500D01*
X64700Y5000D02*X65700D01*
X64200Y5500D02*X64700Y5000D01*
X67900Y9000D02*Y5000D01*
X69200Y9000D02*X69900Y8300D01*
Y5700D01*
X69200Y5000D02*X69900Y5700D01*
X67400Y5000D02*X69200D01*
X67400Y9000D02*X69200D01*
X71100Y7200D02*X72600D01*
X71100Y5000D02*X73100D01*
X71100Y9000D02*Y5000D01*
Y9000D02*X73100D01*
X76300D02*X76800Y8500D01*
X74800Y9000D02*X76300D01*
X74300Y8500D02*X74800Y9000D01*
X74300Y8500D02*Y7500D01*
X74800Y7000D01*
X76300D01*
X76800Y6500D01*
Y5500D01*
X76300Y5000D02*X76800Y5500D01*
X74800Y5000D02*X76300D01*
X74300Y5500D02*X74800Y5000D01*
X78000Y7200D02*X79500D01*
X78000Y5000D02*X80000D01*
X78000Y9000D02*Y5000D01*
Y9000D02*X80000D01*
X81200D02*Y5000D01*
X83200D01*
X84400Y7200D02*X85900D01*
X84400Y5000D02*X86400D01*
X84400Y9000D02*Y5000D01*
Y9000D02*X86400D01*
X88300Y5000D02*X89600D01*
X87600Y5700D02*X88300Y5000D01*
X87600Y8300D02*Y5700D01*
Y8300D02*X88300Y9000D01*
X89600D01*
X90800D02*X92800D01*
X91800D02*Y5000D01*
X96300Y9000D02*Y5000D01*
X97600Y9000D02*X98300Y8300D01*
Y5700D01*
X97600Y5000D02*X98300Y5700D01*
X95800Y5000D02*X97600D01*
X95800Y9000D02*X97600D01*
X99500D02*X100500D01*
X100000D02*Y5000D01*
X99500D02*X100500D01*
X103700Y9000D02*X104200Y8500D01*
X102200Y9000D02*X103700D01*
X101700Y8500D02*X102200Y9000D01*
X101700Y8500D02*Y7500D01*
X102200Y7000D01*
X103700D01*
X104200Y6500D01*
Y5500D01*
X103700Y5000D02*X104200Y5500D01*
X102200Y5000D02*X103700D01*
X101700Y5500D02*X102200Y5000D01*
X105900Y9000D02*Y5000D01*
X105400Y9000D02*X107400D01*
X107900Y8500D01*
Y7500D01*
X107400Y7000D02*X107900Y7500D01*
X105900Y7000D02*X107400D01*
X109100Y9000D02*Y5000D01*
X111100D01*
X112300Y8000D02*Y5000D01*
Y8000D02*X113000Y9000D01*
X114100D01*
X114800Y8000D01*
Y5000D01*
X112300Y7000D02*X114800D01*
X116000Y9000D02*X117000Y7000D01*
X118000Y9000D01*
X117000Y7000D02*Y5000D01*
X121000Y9000D02*X122000Y5000D01*
X123000Y9000D01*
X124200Y8500D02*X124700Y9000D01*
X125700D01*
X126200Y8500D01*
X125700Y5000D02*X126200Y5500D01*
X124700Y5000D02*X125700D01*
X124200Y5500D02*X124700Y5000D01*
Y7200D02*X125700D01*
X126200Y8500D02*Y7700D01*
Y6700D02*Y5500D01*
Y6700D02*X125700Y7200D01*
X126200Y7700D02*X125700Y7200D01*
G54D66*X15000Y80000D02*Y10000D01*
X25000Y80000D02*Y10000D01*
G54D65*X15000Y75000D02*X25000D01*
G54D66*Y80000D02*G75*G03X15000Y80000I-5000J0D01*G01*
Y10000D02*G75*G03X25000Y10000I5000J0D01*G01*
G54D65*X225000Y85000D02*Y25000D01*
X235000D01*
Y85000D01*
X225000D01*
Y75000D02*X235000D01*
Y85000D01*
X55000D02*Y15000D01*
X95000D01*
Y85000D01*
X55000D02*X70000D01*
X80000D02*X95000D01*
X70000D02*G75*G03X80000Y85000I5000J0D01*G01*
X105000D02*Y15000D01*
X145000D01*
Y85000D01*
X105000D02*X120000D01*
X130000D02*X145000D01*
X120000D02*G75*G03X130000Y85000I5000J0D01*G01*
X155000D02*Y15000D01*
X195000D01*
Y85000D01*
X155000D02*X170000D01*
X180000D02*X195000D01*
X170000D02*G75*G03X180000Y85000I5000J0D01*G01*
X14000D02*Y83000D01*
X13500Y82500D01*
X12500D02*X13500D01*
X12000Y83000D02*X12500Y82500D01*
X12000Y84500D02*Y83000D01*
X10000Y84500D02*X14000D01*
X12000Y83700D02*X10000Y82500D01*
X13200Y81300D02*X14000Y80500D01*
X10000D02*X14000D01*
X10000Y81300D02*Y79800D01*
X50000Y84500D02*X54000D01*
Y83200D02*X53300Y82500D01*
X50700D02*X53300D01*
X50000Y83200D02*X50700Y82500D01*
X50000Y85000D02*Y83200D01*
X54000Y85000D02*Y83200D01*
X53200Y81300D02*X54000Y80500D01*
X50000D02*X54000D01*
X50000Y81300D02*Y79800D01*
X100500Y85000D02*X104000D01*
X100500D02*X100000Y84500D01*
Y83500D01*
X100500Y83000D01*
X104000D01*
X103500Y81800D02*X104000Y81300D01*
Y79800D01*
X103500Y79300D01*
X102500D02*X103500D01*
X100000Y81800D02*X102500Y79300D01*
X100000Y81800D02*Y79300D01*
X150500Y85000D02*X154000D01*
X150500D02*X150000Y84500D01*
Y83500D01*
X150500Y83000D01*
X154000D01*
X153200Y81800D02*X154000Y81000D01*
X150000D02*X154000D01*
X150000Y81800D02*Y80300D01*
X221000Y83300D02*Y82000D01*
X221700Y84000D02*X221000Y83300D01*
X221700Y84000D02*X224300D01*
X225000Y83300D01*
Y82000D01*
X221500Y80800D02*X224500D01*
X225000Y80300D01*
Y79300D01*
X224500Y78800D01*
X221500D02*X224500D01*
X221000Y79300D02*X221500Y78800D01*
X221000Y80300D02*Y79300D01*
X221500Y80800D02*X221000Y80300D01*
Y77600D02*X225000D01*
X221000Y75100D01*
X225000D01*
X221000Y73900D02*X225000D01*
X221000Y71400D01*
X225000D01*
X224200Y70200D02*X225000Y69400D01*
X221000D02*X225000D01*
X221000Y70200D02*Y68700D01*
M02*
