G04 start of page 12 for group -4062 idx -4062 *
G04 Title: (unknown), soldermask *
G04 Creator: pcb 4.2.2 *
G04 CreationDate: Mon Nov 25 01:58:05 2024 UTC *
G04 For: electronics *
G04 Format: Gerber/RS-274X *
G04 PCB-Dimensions (mil): 2500.00 1000.00 *
G04 PCB-Coordinate-Origin: lower left *
%MOIN*%
%FSLAX25Y25*%
%LNBOTTOMMASK*%
%ADD64C,0.0660*%
%ADD63C,0.0001*%
%ADD62C,0.0100*%
G54D62*X0Y100000D02*Y0D01*
Y100000D02*X250000D01*
X0Y0D02*X250000D01*
Y100000D02*Y0D01*
G54D63*G36*
X226700Y83300D02*Y76700D01*
X233300D01*
Y83300D01*
X226700D01*
G37*
G54D64*X230000Y70000D03*
Y60000D03*
Y50000D03*
Y40000D03*
Y30000D03*
X20000Y50000D03*
Y40000D03*
Y30000D03*
Y20000D03*
G54D63*G36*
X16700Y83300D02*Y76700D01*
X23300D01*
Y83300D01*
X16700D01*
G37*
G54D64*X20000Y70000D03*
Y60000D03*
Y10000D03*
G54D63*G36*
X56700Y83300D02*Y76700D01*
X63300D01*
Y83300D01*
X56700D01*
G37*
G54D64*X60000Y70000D03*
Y60000D03*
Y50000D03*
X90000D03*
Y60000D03*
Y70000D03*
Y80000D03*
G54D63*G36*
X106700Y83300D02*Y76700D01*
X113300D01*
Y83300D01*
X106700D01*
G37*
G54D64*X110000Y70000D03*
X60000Y40000D03*
X90000D03*
X140000D03*
Y50000D03*
X60000Y30000D03*
Y20000D03*
X90000D03*
Y30000D03*
X140000Y20000D03*
Y30000D03*
X110000Y50000D03*
Y40000D03*
Y30000D03*
Y20000D03*
X190000D03*
Y30000D03*
Y40000D03*
Y50000D03*
Y60000D03*
Y70000D03*
Y80000D03*
X110000Y60000D03*
X140000D03*
Y70000D03*
Y80000D03*
G54D63*G36*
X156700Y83300D02*Y76700D01*
X163300D01*
Y83300D01*
X156700D01*
G37*
G54D64*X160000Y70000D03*
Y60000D03*
Y50000D03*
Y40000D03*
Y30000D03*
Y20000D03*
M02*
