M48
INCH
T63C0.030
T62C0.028
T61C0.038
%
T62
X002000Y008000
X002000Y007000
X002000Y006000
X002000Y005000
X002000Y004000
X002000Y003000
X002000Y002000
X002000Y001000
X006000Y008000
X006000Y007000
X006000Y006000
X006000Y005000
X006000Y004000
X006000Y003000
X006000Y002000
X009000Y008000
X009000Y007000
X009000Y006000
X009000Y005000
X009000Y004000
X009000Y003000
X009000Y002000
X011000Y008000
X011000Y007000
X011000Y006000
X011000Y005000
X011000Y004000
X011000Y003000
X011000Y002000
X014000Y008000
X014000Y007000
X014000Y006000
X014000Y005000
X014000Y004000
X014000Y003000
X014000Y002000
X016000Y008000
X016000Y007000
X016000Y006000
X016000Y005000
X016000Y004000
X016000Y003000
X016000Y002000
X019000Y008000
X019000Y007000
X019000Y006000
X019000Y005000
X019000Y004000
X019000Y003000
X019000Y002000
T63
X004100Y008900
X004100Y000800
X022200Y008900
X022200Y000800
T61
X023000Y008000
X023000Y007000
X023000Y006000
X023000Y005000
X023000Y004000
X023000Y003000
M30
