G04 start of page 5 for group 3 idx 3 *
G04 Title: (unknown), signal3 *
G04 Creator: pcb 20140316 *
G04 CreationDate: Sun 25 Jul 2021 09:28:08 PM GMT UTC *
G04 For: steve *
G04 Format: Gerber/RS-274X *
G04 PCB-Dimensions (mil): 2200.00 1000.00 *
G04 PCB-Coordinate-Origin: lower left *
%MOIN*%
%FSLAX25Y25*%
%LNGROUP3*%
%ADD39C,0.0380*%
%ADD38C,0.0280*%
%ADD37C,0.0934*%
%ADD36C,0.1240*%
%ADD35C,0.0700*%
%ADD34C,0.0600*%
%ADD33C,0.0001*%
G54D33*G36*
X27000Y83000D02*Y77000D01*
X33000D01*
Y83000D01*
X27000D01*
G37*
G54D34*X60000Y80000D03*
G54D33*G36*
X77000Y83000D02*Y77000D01*
X83000D01*
Y83000D01*
X77000D01*
G37*
G54D34*X110000Y80000D03*
G54D33*G36*
X137000Y83000D02*Y77000D01*
X143000D01*
Y83000D01*
X137000D01*
G37*
G54D34*X30000Y70000D03*
X60000D03*
X80000D03*
X110000D03*
X140000D03*
X30000Y60000D03*
X60000D03*
X80000D03*
X110000D03*
X140000D03*
X170000D03*
Y70000D03*
Y80000D03*
G54D33*G36*
X205500Y84500D02*Y75500D01*
X214500D01*
Y84500D01*
X205500D01*
G37*
G54D35*X210000Y70000D03*
Y60000D03*
Y50000D03*
Y40000D03*
Y30000D03*
G54D34*X140000Y40000D03*
Y30000D03*
X170000D03*
Y40000D03*
X140000Y50000D03*
Y20000D03*
G54D35*X170000D03*
G54D34*Y50000D03*
X30000D03*
Y40000D03*
Y30000D03*
Y20000D03*
X60000D03*
Y30000D03*
Y40000D03*
Y50000D03*
X80000D03*
Y40000D03*
Y30000D03*
Y20000D03*
X110000D03*
Y30000D03*
Y40000D03*
Y50000D03*
G54D36*X190000Y10000D03*
Y90000D03*
X10000D03*
Y10000D03*
G54D37*G54D38*G54D39*G54D38*M02*
