M48
INCH
T65C0.093
T64C0.038
T63C0.028
%
T63
X003000Y008000
X003000Y007000
X003000Y006000
X003000Y005000
X003000Y004000
X003000Y003000
X003000Y002000
X006000Y008000
X006000Y007000
X006000Y006000
X006000Y005000
X006000Y004000
X006000Y003000
X006000Y002000
X008000Y008000
X008000Y007000
X008000Y006000
X008000Y005000
X008000Y004000
X008000Y003000
X008000Y002000
X011000Y008000
X011000Y007000
X011000Y006000
X011000Y005000
X011000Y004000
X011000Y003000
X011000Y002000
X014000Y008000
X014000Y007000
X014000Y006000
X014000Y005000
X014000Y004000
X014000Y003000
X014000Y002000
X017000Y008000
X017000Y007000
X017000Y006000
X017000Y005000
X017000Y004000
X017000Y003000
X017000Y002000
T64
X021000Y008000
X021000Y007000
X021000Y006000
X021000Y005000
X021000Y004000
X021000Y003000
T65
X001000Y009000
X001000Y001000
X019000Y009000
X019000Y001000
M30
