G04 start of page 13 for group -4079 idx -4079 *
G04 Title: (unknown), topsilk *
G04 Creator: pcb 20140316 *
G04 CreationDate: Sun 25 Jul 2021 09:28:08 PM GMT UTC *
G04 For: steve *
G04 Format: Gerber/RS-274X *
G04 PCB-Dimensions (mil): 2200.00 1000.00 *
G04 PCB-Coordinate-Origin: lower left *
%MOIN*%
%FSLAX25Y25*%
%LNTOPSILK*%
%ADD72C,0.0100*%
G54D72*X0Y100000D02*Y0D01*
Y100000D02*X220000D01*
X0Y0D02*X220000D01*
Y100000D02*Y0D01*
X40000Y9000D02*Y5000D01*
Y9000D02*X41500Y7000D01*
X43000Y9000D01*
Y5000D01*
X44200Y8500D02*Y5500D01*
Y8500D02*X44700Y9000D01*
X45700D01*
X46200Y8500D01*
Y5500D01*
X45700Y5000D02*X46200Y5500D01*
X44700Y5000D02*X45700D01*
X44200Y5500D02*X44700Y5000D01*
X47900Y9000D02*Y5000D01*
X49200Y9000D02*X49900Y8300D01*
Y5700D01*
X49200Y5000D02*X49900Y5700D01*
X47400Y5000D02*X49200D01*
X47400Y9000D02*X49200D01*
X51100Y7200D02*X52600D01*
X51100Y5000D02*X53100D01*
X51100Y9000D02*Y5000D01*
Y9000D02*X53100D01*
X56300D02*X56800Y8500D01*
X54800Y9000D02*X56300D01*
X54300Y8500D02*X54800Y9000D01*
X54300Y8500D02*Y7500D01*
X54800Y7000D01*
X56300D01*
X56800Y6500D01*
Y5500D01*
X56300Y5000D02*X56800Y5500D01*
X54800Y5000D02*X56300D01*
X54300Y5500D02*X54800Y5000D01*
X58000Y7200D02*X59500D01*
X58000Y5000D02*X60000D01*
X58000Y9000D02*Y5000D01*
Y9000D02*X60000D01*
X61200D02*Y5000D01*
X63200D01*
X64400Y7200D02*X65900D01*
X64400Y5000D02*X66400D01*
X64400Y9000D02*Y5000D01*
Y9000D02*X66400D01*
X68300Y5000D02*X69600D01*
X67600Y5700D02*X68300Y5000D01*
X67600Y8300D02*Y5700D01*
Y8300D02*X68300Y9000D01*
X69600D01*
X70800D02*X72800D01*
X71800D02*Y5000D01*
X76300Y9000D02*Y5000D01*
X77600Y9000D02*X78300Y8300D01*
Y5700D01*
X77600Y5000D02*X78300Y5700D01*
X75800Y5000D02*X77600D01*
X75800Y9000D02*X77600D01*
X79500D02*X80500D01*
X80000D02*Y5000D01*
X79500D02*X80500D01*
X83700Y9000D02*X84200Y8500D01*
X82200Y9000D02*X83700D01*
X81700Y8500D02*X82200Y9000D01*
X81700Y8500D02*Y7500D01*
X82200Y7000D01*
X83700D01*
X84200Y6500D01*
Y5500D01*
X83700Y5000D02*X84200Y5500D01*
X82200Y5000D02*X83700D01*
X81700Y5500D02*X82200Y5000D01*
X85900Y9000D02*Y5000D01*
X85400Y9000D02*X87400D01*
X87900Y8500D01*
Y7500D01*
X87400Y7000D02*X87900Y7500D01*
X85900Y7000D02*X87400D01*
X89100Y9000D02*Y5000D01*
X91100D01*
X92300Y8000D02*Y5000D01*
Y8000D02*X93000Y9000D01*
X94100D01*
X94800Y8000D01*
Y5000D01*
X92300Y7000D02*X94800D01*
X96000Y9000D02*X97000Y7000D01*
X98000Y9000D01*
X97000Y7000D02*Y5000D01*
X192000Y42000D02*X192500Y41500D01*
X190500Y42000D02*X192000D01*
X190000Y41500D02*X190500Y42000D01*
X190000Y41500D02*Y38500D01*
X190500Y38000D01*
X192000D01*
X192500Y38500D01*
Y39500D02*Y38500D01*
X192000Y40000D02*X192500Y39500D01*
X191000Y40000D02*X192000D01*
X193700Y42000D02*Y38000D01*
Y42000D02*X196200Y38000D01*
Y42000D02*Y38000D01*
X197900Y42000D02*Y38000D01*
X199200Y42000D02*X199900Y41300D01*
Y38700D01*
X199200Y38000D02*X199900Y38700D01*
X197400Y38000D02*X199200D01*
X197400Y42000D02*X199200D01*
X191000Y33000D02*X192000Y29000D01*
X193000Y33000D01*
X194900Y29000D02*X196200D01*
X194200Y29700D02*X194900Y29000D01*
X194200Y32300D02*Y29700D01*
Y32300D02*X194900Y33000D01*
X196200D01*
X198100Y29000D02*X199400D01*
X197400Y29700D02*X198100Y29000D01*
X197400Y32300D02*Y29700D01*
Y32300D02*X198100Y33000D01*
X199400D01*
X205000Y85000D02*Y25000D01*
X215000D01*
Y85000D01*
X205000D01*
Y75000D02*X215000D01*
Y85000D01*
X25000D02*Y15000D01*
X65000D01*
Y85000D01*
X25000D02*X40000D01*
X50000D02*X65000D01*
X40000D02*G75*G03X50000Y85000I5000J0D01*G01*
X75000D02*Y15000D01*
X115000D01*
Y85000D01*
X75000D02*X90000D01*
X100000D02*X115000D01*
X90000D02*G75*G03X100000Y85000I5000J0D01*G01*
X135000D02*Y15000D01*
X175000D01*
Y85000D01*
X135000D02*X150000D01*
X160000D02*X175000D01*
X150000D02*G75*G03X160000Y85000I5000J0D01*G01*
X201150Y84461D02*Y83460D01*
X201689Y85000D02*X201150Y84461D01*
X201689Y85000D02*X203691D01*
X204230Y84461D01*
Y83460D01*
X201535Y82536D02*X203845D01*
X204230Y82151D01*
Y81381D01*
X203845Y80996D01*
X201535D02*X203845D01*
X201150Y81381D02*X201535Y80996D01*
X201150Y82151D02*Y81381D01*
X201535Y82536D02*X201150Y82151D01*
Y80072D02*X204230D01*
X201150Y78147D01*
X204230D01*
X201150Y77223D02*X204230D01*
X201150Y75298D01*
X204230D01*
X203614Y74374D02*X204230Y73758D01*
X201150D02*X204230D01*
X201150Y74374D02*Y73219D01*
X20000Y84500D02*X24000D01*
Y83200D02*X23300Y82500D01*
X20700D02*X23300D01*
X20000Y83200D02*X20700Y82500D01*
X20000Y85000D02*Y83200D01*
X24000Y85000D02*Y83200D01*
X23200Y81300D02*X24000Y80500D01*
X20000D02*X24000D01*
X20000Y81300D02*Y79800D01*
X70500Y85000D02*X74000D01*
X70500D02*X70000Y84500D01*
Y83500D01*
X70500Y83000D01*
X74000D01*
X73500Y81800D02*X74000Y81300D01*
Y79800D01*
X73500Y79300D01*
X72500D02*X73500D01*
X70000Y81800D02*X72500Y79300D01*
X70000Y81800D02*Y79300D01*
X130500Y85000D02*X134000D01*
X130500D02*X130000Y84500D01*
Y83500D01*
X130500Y83000D01*
X134000D01*
X133200Y81800D02*X134000Y81000D01*
X130000D02*X134000D01*
X130000Y81800D02*Y80300D01*
M02*
