G04 start of page 7 for group 5 idx 5 *
G04 Title: (unknown), bottom *
G04 Creator: pcb 4.2.2 *
G04 CreationDate: Mon Jan 20 03:02:52 2025 UTC *
G04 For: electronics *
G04 Format: Gerber/RS-274X *
G04 PCB-Dimensions (mil): 2500.00 1500.00 *
G04 PCB-Coordinate-Origin: lower left *
%MOIN*%
%FSLAX25Y25*%
%LNGBL*%
%ADD58C,0.0280*%
%ADD57C,0.0380*%
%ADD56C,0.1200*%
%ADD55C,0.1460*%
%ADD54C,0.0600*%
%ADD53C,0.0680*%
%ADD52C,0.0001*%
%ADD51C,0.0100*%
G54D51*X0Y150000D02*Y0D01*
Y150000D02*X250000D01*
X0Y0D02*X250000D01*
Y150000D02*Y0D01*
X0D02*Y150000D01*
X250000Y149000D02*Y0D01*
X0D01*
X92500Y20000D02*X80000D01*
X190000D02*X178500D01*
X137500Y103500D02*Y23400D01*
X137500Y23400D02*X133400D01*
Y20000D01*
X133400Y20000D02*X130000D01*
X135500Y69000D02*X131000D01*
X135500Y99000D02*X131000D01*
X131000Y89000D02*X101000D01*
X178500Y119000D02*Y20000D01*
X135500Y99000D02*Y69000D01*
X0Y150000D02*X249000D01*
X250000Y149000D01*
X101000Y69000D02*X92500D01*
X101000Y103500D02*Y99000D01*
X137500Y103500D02*X101000D01*
X178500Y119000D02*X153000D01*
X101000Y89000D02*X82500D01*
X92500Y69000D02*Y20000D01*
X78000Y47500D02*Y43000D01*
X82500Y89000D02*Y24900D01*
X37000Y69000D02*Y47500D01*
X78000Y47500D02*X37000D01*
X82500Y24900D02*X30000D01*
Y20000D01*
G54D52*G36*
X126600Y23400D02*Y16600D01*
X133400D01*
Y23400D01*
X126600D01*
G37*
G36*
X76600D02*Y16600D01*
X83400D01*
Y23400D01*
X76600D01*
G37*
G54D53*X120000Y20000D03*
G54D52*G36*
X26600Y23400D02*Y16600D01*
X33400D01*
Y23400D01*
X26600D01*
G37*
G54D53*X70000Y20000D03*
G54D52*G36*
X128000Y72000D02*Y66000D01*
X134000D01*
Y72000D01*
X128000D01*
G37*
G54D54*X131000Y79000D03*
Y89000D03*
Y99000D03*
Y109000D03*
Y119000D03*
G54D52*G36*
X115000Y46000D02*Y40000D01*
X121000D01*
Y46000D01*
X115000D01*
G37*
G54D54*X108000Y43000D03*
X98000D03*
X88000D03*
X78000D03*
X68000D03*
X58000D03*
X48000D03*
X131000Y129000D03*
X101000D03*
Y119000D03*
Y109000D03*
Y99000D03*
Y89000D03*
X67000D03*
X101000Y79000D03*
Y69000D03*
G54D52*G36*
X64000Y72000D02*Y66000D01*
X70000D01*
Y72000D01*
X64000D01*
G37*
G54D54*X67000Y79000D03*
Y99000D03*
Y109000D03*
Y119000D03*
Y129000D03*
X37000D03*
Y119000D03*
Y109000D03*
Y99000D03*
Y89000D03*
Y79000D03*
Y69000D03*
G54D52*G36*
X186600Y23400D02*Y16600D01*
X193400D01*
Y23400D01*
X186600D01*
G37*
G54D53*X230000Y20000D03*
X170000D03*
G54D52*G36*
X234000Y74000D02*Y68000D01*
X240000D01*
Y74000D01*
X234000D01*
G37*
G54D54*X237000Y81000D03*
Y91000D03*
Y101000D03*
Y111000D03*
Y121000D03*
G54D52*G36*
X180000Y72000D02*Y66000D01*
X186000D01*
Y72000D01*
X180000D01*
G37*
G54D54*X153000Y69000D03*
X183000Y79000D03*
X153000D03*
X183000Y89000D03*
X153000D03*
X183000Y99000D03*
X153000D03*
X183000Y109000D03*
Y119000D03*
Y129000D03*
X153000D03*
Y119000D03*
Y109000D03*
G54D55*X20000Y139000D03*
X201000D03*
Y58000D03*
X20000D03*
G54D56*G54D57*G54D58*G54D57*G54D58*M02*
