G04 start of page 12 for group -4062 idx -4062 *
G04 Title: (unknown), soldermask *
G04 Creator: pcb 4.2.2 *
G04 CreationDate: Mon Jan 20 03:02:52 2025 UTC *
G04 For: electronics *
G04 Format: Gerber/RS-274X *
G04 PCB-Dimensions (mil): 2500.00 1500.00 *
G04 PCB-Coordinate-Origin: lower left *
%MOIN*%
%FSLAX25Y25*%
%LNGBS*%
%ADD78C,0.0660*%
%ADD77C,0.0740*%
%ADD76C,0.0001*%
%ADD75C,0.0100*%
G54D75*X0Y150000D02*Y0D01*
Y150000D02*X250000D01*
X0Y0D02*X250000D01*
Y150000D02*Y0D01*
G54D76*G36*
X126300Y23700D02*Y16300D01*
X133700D01*
Y23700D01*
X126300D01*
G37*
G36*
X76300D02*Y16300D01*
X83700D01*
Y23700D01*
X76300D01*
G37*
G54D77*X120000Y20000D03*
G54D76*G36*
X26300Y23700D02*Y16300D01*
X33700D01*
Y23700D01*
X26300D01*
G37*
G54D77*X70000Y20000D03*
G54D76*G36*
X127700Y72300D02*Y65700D01*
X134300D01*
Y72300D01*
X127700D01*
G37*
G54D78*X131000Y79000D03*
Y89000D03*
Y99000D03*
Y109000D03*
Y119000D03*
G54D76*G36*
X114700Y46300D02*Y39700D01*
X121300D01*
Y46300D01*
X114700D01*
G37*
G54D78*X108000Y43000D03*
X98000D03*
X88000D03*
X78000D03*
X68000D03*
X58000D03*
X48000D03*
X131000Y129000D03*
X101000D03*
Y119000D03*
Y109000D03*
Y99000D03*
Y89000D03*
X67000D03*
X101000Y79000D03*
Y69000D03*
G54D76*G36*
X63700Y72300D02*Y65700D01*
X70300D01*
Y72300D01*
X63700D01*
G37*
G54D78*X67000Y79000D03*
Y99000D03*
Y109000D03*
Y119000D03*
Y129000D03*
X37000D03*
Y119000D03*
Y109000D03*
Y99000D03*
Y89000D03*
Y79000D03*
Y69000D03*
G54D76*G36*
X186300Y23700D02*Y16300D01*
X193700D01*
Y23700D01*
X186300D01*
G37*
G54D77*X230000Y20000D03*
X170000D03*
G54D76*G36*
X233700Y74300D02*Y67700D01*
X240300D01*
Y74300D01*
X233700D01*
G37*
G54D78*X237000Y81000D03*
Y91000D03*
Y101000D03*
Y111000D03*
Y121000D03*
G54D76*G36*
X179700Y72300D02*Y65700D01*
X186300D01*
Y72300D01*
X179700D01*
G37*
G54D78*X153000Y69000D03*
X183000Y79000D03*
X153000D03*
X183000Y89000D03*
X153000D03*
X183000Y99000D03*
X153000D03*
X183000Y109000D03*
Y119000D03*
Y129000D03*
X153000D03*
Y119000D03*
Y109000D03*
M02*
