G04 start of page 6 for group 4 idx 4 *
G04 Title: (unknown), power *
G04 Creator: pcb 4.2.2 *
G04 CreationDate: Mon Jan 20 03:02:52 2025 UTC *
G04 For: electronics *
G04 Format: Gerber/RS-274X *
G04 PCB-Dimensions (mil): 2500.00 1500.00 *
G04 PCB-Coordinate-Origin: lower left *
%MOIN*%
%FSLAX25Y25*%
%LNG4L*%
%ADD50C,0.0280*%
%ADD49C,0.0380*%
%ADD48C,0.1200*%
%ADD47C,0.1460*%
%ADD46C,0.0600*%
%ADD45C,0.0680*%
%ADD44C,0.0001*%
%ADD43C,0.0100*%
G54D43*X0Y150000D02*Y0D01*
Y150000D02*X250000D01*
X0Y0D02*X250000D01*
Y150000D02*Y0D01*
G54D44*G36*
X126600Y23400D02*Y16600D01*
X133400D01*
Y23400D01*
X126600D01*
G37*
G36*
X76600D02*Y16600D01*
X83400D01*
Y23400D01*
X76600D01*
G37*
G54D45*X120000Y20000D03*
G54D44*G36*
X26600Y23400D02*Y16600D01*
X33400D01*
Y23400D01*
X26600D01*
G37*
G54D45*X70000Y20000D03*
G54D44*G36*
X128000Y72000D02*Y66000D01*
X134000D01*
Y72000D01*
X128000D01*
G37*
G54D46*X131000Y79000D03*
Y89000D03*
Y99000D03*
Y109000D03*
Y119000D03*
G54D44*G36*
X115000Y46000D02*Y40000D01*
X121000D01*
Y46000D01*
X115000D01*
G37*
G54D46*X108000Y43000D03*
X98000D03*
X88000D03*
X78000D03*
X68000D03*
X58000D03*
X48000D03*
X131000Y129000D03*
X101000D03*
Y119000D03*
Y109000D03*
Y99000D03*
Y89000D03*
X67000D03*
X101000Y79000D03*
Y69000D03*
G54D44*G36*
X64000Y72000D02*Y66000D01*
X70000D01*
Y72000D01*
X64000D01*
G37*
G54D46*X67000Y79000D03*
Y99000D03*
Y109000D03*
Y119000D03*
Y129000D03*
X37000D03*
Y119000D03*
Y109000D03*
Y99000D03*
Y89000D03*
Y79000D03*
Y69000D03*
G54D44*G36*
X186600Y23400D02*Y16600D01*
X193400D01*
Y23400D01*
X186600D01*
G37*
G54D45*X230000Y20000D03*
X170000D03*
G54D44*G36*
X234000Y74000D02*Y68000D01*
X240000D01*
Y74000D01*
X234000D01*
G37*
G54D46*X237000Y81000D03*
Y91000D03*
Y101000D03*
Y111000D03*
Y121000D03*
G54D44*G36*
X180000Y72000D02*Y66000D01*
X186000D01*
Y72000D01*
X180000D01*
G37*
G54D46*X153000Y69000D03*
X183000Y79000D03*
X153000D03*
X183000Y89000D03*
X153000D03*
X183000Y99000D03*
X153000D03*
X183000Y109000D03*
Y119000D03*
Y129000D03*
X153000D03*
Y119000D03*
Y109000D03*
G54D47*X20000Y139000D03*
X201000D03*
Y58000D03*
X20000D03*
G54D48*G54D49*G54D50*G54D49*G54D50*M02*
