G04 start of page 2 for group 0 idx 0 *
G04 Title: (unknown), top *
G04 Creator: pcb 4.2.2 *
G04 CreationDate: Mon Jan 20 03:02:52 2025 UTC *
G04 For: electronics *
G04 Format: Gerber/RS-274X *
G04 PCB-Dimensions (mil): 2500.00 1500.00 *
G04 PCB-Coordinate-Origin: lower left *
%MOIN*%
%FSLAX25Y25*%
%LNGTL*%
%ADD18C,0.0280*%
%ADD17C,0.0380*%
%ADD16C,0.1200*%
%ADD15C,0.1460*%
%ADD14C,0.0600*%
%ADD13C,0.0680*%
%ADD12C,0.0001*%
%ADD11C,0.0100*%
G54D11*X0Y150000D02*Y0D01*
Y150000D02*X250000D01*
X0Y0D02*X250000D01*
Y150000D02*Y0D01*
X237000Y111000D02*X192000D01*
X183000Y113500D02*X131000D01*
Y109000D01*
X187500Y109000D02*X183000D01*
X192000Y126000D02*Y111000D01*
X190000Y123500D02*Y101000D01*
X183000Y119000D02*Y113500D01*
X241500Y121000D02*X237000D01*
X190000Y123500D02*X155000D01*
Y122000D01*
X155000Y122000D02*X153000D01*
Y119000D01*
X241500Y121000D02*Y66500D01*
X237000Y71000D02*Y69000D01*
Y96500D02*Y91000D01*
Y86000D02*Y81000D01*
X237000Y101000D02*X190000D01*
X237000Y96500D02*X187500D01*
X237000Y86000D02*X186000D01*
X183000Y79000D02*Y73500D01*
X187500Y109000D02*Y96500D01*
X186000Y86500D02*Y86000D01*
X186000Y86500D02*X183000D01*
Y89000D02*Y86500D01*
X157000Y135500D02*X60500D01*
X153000Y129000D02*X135500D01*
Y124000D01*
X135500Y124000D02*X105500D01*
X96500Y133500D02*X62500D01*
X88000Y129000D02*X67000D01*
X157000Y135500D02*Y133500D01*
X183000Y133500D02*Y129000D01*
X183000Y133500D02*X131000D01*
Y129000D01*
X192000Y126000D02*X183000D01*
Y129000D02*Y126000D01*
X41500Y129000D02*X37000D01*
X153000Y69000D02*Y38500D01*
X153000Y38500D02*X112500D01*
X153000Y69000D02*Y64500D01*
X126500Y43000D02*X118000D01*
X230000Y24900D02*X83500D01*
X170000Y13100D02*X53500D01*
X170000Y20000D02*Y13100D01*
X120000Y15100D02*X63500D01*
X120000Y20000D02*Y15100D01*
X230000Y24900D02*Y20000D01*
X63500Y49500D02*Y15100D01*
X183000Y73500D02*X131000D01*
Y69000D01*
X105500Y124000D02*Y79000D01*
X126500Y119000D02*Y43000D01*
X131000Y119000D02*X126500D01*
X105500Y79000D02*X101000D01*
X83500D02*X67000D01*
X62500D02*X37000D01*
X60500Y135500D02*Y99000D01*
X67000Y99000D02*X60500D01*
X67000Y119000D02*X62500D01*
Y133500D02*Y119000D01*
X96500Y133500D02*Y47500D01*
X88000Y129000D02*Y43000D01*
X41500Y129000D02*Y83500D01*
X41500Y83500D02*X32500D01*
Y47500D01*
X53500Y47500D02*X32500D01*
X112500Y66000D02*Y38500D01*
X112500Y66000D02*X104000D01*
Y69000D02*Y66000D01*
X104000Y69000D02*X101000D01*
X108000Y47500D02*X96500D01*
X108000D02*Y43000D01*
X83500Y79000D02*Y24900D01*
X72500Y69000D02*X67000D01*
X62500Y79000D02*Y49500D01*
X72500Y69000D02*Y23400D01*
X72500Y23400D02*X70000D01*
Y20000D01*
X53500Y47500D02*Y13100D01*
X63500Y49500D02*X62500D01*
X241500Y66500D02*X232000D01*
Y66800D02*Y66500D01*
X232000Y66800D02*X187500D01*
Y64500D01*
X187500Y64500D02*X153000D01*
X237000Y69000D02*X183000D01*
X183000Y99000D02*X157500D01*
Y83500D01*
X157500Y83500D02*X131000D01*
Y79000D01*
G54D12*G36*
X126600Y23400D02*Y16600D01*
X133400D01*
Y23400D01*
X126600D01*
G37*
G36*
X76600D02*Y16600D01*
X83400D01*
Y23400D01*
X76600D01*
G37*
G54D13*X120000Y20000D03*
G54D12*G36*
X26600Y23400D02*Y16600D01*
X33400D01*
Y23400D01*
X26600D01*
G37*
G54D13*X70000Y20000D03*
G54D12*G36*
X128000Y72000D02*Y66000D01*
X134000D01*
Y72000D01*
X128000D01*
G37*
G54D14*X131000Y79000D03*
Y89000D03*
Y99000D03*
Y109000D03*
Y119000D03*
G54D12*G36*
X115000Y46000D02*Y40000D01*
X121000D01*
Y46000D01*
X115000D01*
G37*
G54D14*X108000Y43000D03*
X98000D03*
X88000D03*
X78000D03*
X68000D03*
X58000D03*
X48000D03*
X131000Y129000D03*
X101000D03*
Y119000D03*
Y109000D03*
Y99000D03*
Y89000D03*
X67000D03*
X101000Y79000D03*
Y69000D03*
G54D12*G36*
X64000Y72000D02*Y66000D01*
X70000D01*
Y72000D01*
X64000D01*
G37*
G54D14*X67000Y79000D03*
Y99000D03*
Y109000D03*
Y119000D03*
Y129000D03*
X37000D03*
Y119000D03*
Y109000D03*
Y99000D03*
Y89000D03*
Y79000D03*
Y69000D03*
G54D12*G36*
X186600Y23400D02*Y16600D01*
X193400D01*
Y23400D01*
X186600D01*
G37*
G54D13*X230000Y20000D03*
X170000D03*
G54D12*G36*
X234000Y74000D02*Y68000D01*
X240000D01*
Y74000D01*
X234000D01*
G37*
G54D14*X237000Y81000D03*
Y91000D03*
Y101000D03*
Y111000D03*
Y121000D03*
G54D12*G36*
X180000Y72000D02*Y66000D01*
X186000D01*
Y72000D01*
X180000D01*
G37*
G54D14*X153000Y69000D03*
X183000Y79000D03*
X153000D03*
X183000Y89000D03*
X153000D03*
X183000Y99000D03*
X153000D03*
X183000Y109000D03*
Y119000D03*
Y129000D03*
X153000D03*
Y119000D03*
Y109000D03*
G54D15*X20000Y139000D03*
X201000D03*
Y58000D03*
X20000D03*
G54D16*G54D17*G54D18*G54D17*G54D18*M02*
