G04 start of page 17 for group -3984 idx -3984 *
G04 Title: (unknown), fab *
G04 Creator: pcb 4.2.2 *
G04 CreationDate: Mon Jan 20 03:02:52 2025 UTC *
G04 For: electronics *
G04 Format: Gerber/RS-274X *
G04 PCB-Dimensions (mil): 2500.00 1500.00 *
G04 PCB-Coordinate-Origin: lower left *
%MOIN*%
%FSLAX25Y25*%
%LNFAB*%
%ADD85C,0.0075*%
%ADD84C,0.0060*%
%ADD83C,0.0080*%
%ADD82C,0.0100*%
G54D82*X0Y150000D02*Y0D01*
Y150000D02*X250000D01*
X0Y0D02*X250000D01*
Y150000D02*Y0D01*
G54D83*X18800Y140200D02*X21200Y137800D01*
X18800D02*X21200Y140200D01*
X199800D02*X202200Y137800D01*
X199800D02*X202200Y140200D01*
X199800Y59200D02*X202200Y56800D01*
X199800D02*X202200Y59200D01*
X18800D02*X21200Y56800D01*
X18800D02*X21200Y59200D01*
X13800Y177450D02*X16200Y175050D01*
X13800D02*X16200Y177450D01*
G54D84*X135000Y178500D02*X136500Y175500D01*
X138000Y178500D01*
X136500Y175500D02*Y172500D01*
X139800Y175800D02*X142050D01*
X139800Y172500D02*X142800D01*
X139800Y178500D02*Y172500D01*
Y178500D02*X142800D01*
X147600D02*X148350Y177750D01*
X145350Y178500D02*X147600D01*
X144600Y177750D02*X145350Y178500D01*
X144600Y177750D02*Y176250D01*
X145350Y175500D01*
X147600D01*
X148350Y174750D01*
Y173250D01*
X147600Y172500D02*X148350Y173250D01*
X145350Y172500D02*X147600D01*
X144600Y173250D02*X145350Y172500D01*
X98000Y174750D02*X101000Y178500D01*
X98000Y174750D02*X101750D01*
X101000Y178500D02*Y172500D01*
X45000Y173250D02*X45750Y172500D01*
X45000Y177750D02*Y173250D01*
Y177750D02*X45750Y178500D01*
X47250D01*
X48000Y177750D01*
Y173250D01*
X47250Y172500D02*X48000Y173250D01*
X45750Y172500D02*X47250D01*
X45000Y174000D02*X48000Y177000D01*
X49800Y172500D02*X50550D01*
X52350Y177300D02*X53550Y178500D01*
Y172500D01*
X52350D02*X54600D01*
X56400Y177750D02*X57150Y178500D01*
X59400D01*
X60150Y177750D01*
Y176250D01*
X56400Y172500D02*X60150Y176250D01*
X56400Y172500D02*X60150D01*
X61950Y173250D02*X62700Y172500D01*
X61950Y177750D02*Y173250D01*
Y177750D02*X62700Y178500D01*
X64200D01*
X64950Y177750D01*
Y173250D01*
X64200Y172500D02*X64950Y173250D01*
X62700Y172500D02*X64200D01*
X61950Y174000D02*X64950Y177000D01*
X190000Y21600D02*Y18400D01*
X188400Y20000D02*X191600D01*
X230000Y21600D02*Y18400D01*
X228400Y20000D02*X231600D01*
X130000Y21600D02*Y18400D01*
X128400Y20000D02*X131600D01*
X170000Y21600D02*Y18400D01*
X168400Y20000D02*X171600D01*
X80000Y21600D02*Y18400D01*
X78400Y20000D02*X81600D01*
X120000Y21600D02*Y18400D01*
X118400Y20000D02*X121600D01*
X30000Y21600D02*Y18400D01*
X28400Y20000D02*X31600D01*
X70000Y21600D02*Y18400D01*
X68400Y20000D02*X71600D01*
X237000Y72600D02*Y69400D01*
X235400Y71000D02*X238600D01*
X237000Y82600D02*Y79400D01*
X235400Y81000D02*X238600D01*
X237000Y92600D02*Y89400D01*
X235400Y91000D02*X238600D01*
X237000Y102600D02*Y99400D01*
X235400Y101000D02*X238600D01*
X237000Y112600D02*Y109400D01*
X235400Y111000D02*X238600D01*
X237000Y122600D02*Y119400D01*
X235400Y121000D02*X238600D01*
X15000Y192850D02*Y189650D01*
X13400Y191250D02*X16600D01*
X135000Y193500D02*X136500Y190500D01*
X138000Y193500D01*
X136500Y190500D02*Y187500D01*
X139800Y190800D02*X142050D01*
X139800Y187500D02*X142800D01*
X139800Y193500D02*Y187500D01*
Y193500D02*X142800D01*
X147600D02*X148350Y192750D01*
X145350Y193500D02*X147600D01*
X144600Y192750D02*X145350Y193500D01*
X144600Y192750D02*Y191250D01*
X145350Y190500D01*
X147600D01*
X148350Y189750D01*
Y188250D01*
X147600Y187500D02*X148350Y188250D01*
X145350Y187500D02*X147600D01*
X144600Y188250D02*X145350Y187500D01*
X98000Y192300D02*X99200Y193500D01*
Y187500D01*
X98000D02*X100250D01*
X102050Y189750D02*X105050Y193500D01*
X102050Y189750D02*X105800D01*
X105050Y193500D02*Y187500D01*
X45000Y188250D02*X45750Y187500D01*
X45000Y192750D02*Y188250D01*
Y192750D02*X45750Y193500D01*
X47250D01*
X48000Y192750D01*
Y188250D01*
X47250Y187500D02*X48000Y188250D01*
X45750Y187500D02*X47250D01*
X45000Y189000D02*X48000Y192000D01*
X49800Y187500D02*X50550D01*
X52350Y188250D02*X53100Y187500D01*
X52350Y192750D02*Y188250D01*
Y192750D02*X53100Y193500D01*
X54600D01*
X55350Y192750D01*
Y188250D01*
X54600Y187500D02*X55350Y188250D01*
X53100Y187500D02*X54600D01*
X52350Y189000D02*X55350Y192000D01*
X57150Y192750D02*X57900Y193500D01*
X59400D01*
X60150Y192750D01*
X59400Y187500D02*X60150Y188250D01*
X57900Y187500D02*X59400D01*
X57150Y188250D02*X57900Y187500D01*
Y190800D02*X59400D01*
X60150Y192750D02*Y191550D01*
Y190050D02*Y188250D01*
Y190050D02*X59400Y190800D01*
X60150Y191550D02*X59400Y190800D01*
X61950Y188250D02*X62700Y187500D01*
X61950Y189450D02*Y188250D01*
Y189450D02*X63000Y190500D01*
X63900D01*
X64950Y189450D01*
Y188250D01*
X64200Y187500D02*X64950Y188250D01*
X62700Y187500D02*X64200D01*
X61950Y191550D02*X63000Y190500D01*
X61950Y192750D02*Y191550D01*
Y192750D02*X62700Y193500D01*
X64200D01*
X64950Y192750D01*
Y191550D01*
X63900Y190500D02*X64950Y191550D01*
X131000Y69000D02*Y67400D01*
Y69000D02*X132387Y69800D01*
X131000Y69000D02*X129613Y69800D01*
X131000Y79000D02*Y77400D01*
Y79000D02*X132387Y79800D01*
X131000Y79000D02*X129613Y79800D01*
X131000Y89000D02*Y87400D01*
Y89000D02*X132387Y89800D01*
X131000Y89000D02*X129613Y89800D01*
X131000Y99000D02*Y97400D01*
Y99000D02*X132387Y99800D01*
X131000Y99000D02*X129613Y99800D01*
X131000Y109000D02*Y107400D01*
Y109000D02*X132387Y109800D01*
X131000Y109000D02*X129613Y109800D01*
X131000Y119000D02*Y117400D01*
Y119000D02*X132387Y119800D01*
X131000Y119000D02*X129613Y119800D01*
X131000Y129000D02*Y127400D01*
Y129000D02*X132387Y129800D01*
X131000Y129000D02*X129613Y129800D01*
X101000Y129000D02*Y127400D01*
Y129000D02*X102387Y129800D01*
X101000Y129000D02*X99613Y129800D01*
X101000Y119000D02*Y117400D01*
Y119000D02*X102387Y119800D01*
X101000Y119000D02*X99613Y119800D01*
X101000Y109000D02*Y107400D01*
Y109000D02*X102387Y109800D01*
X101000Y109000D02*X99613Y109800D01*
X101000Y99000D02*Y97400D01*
Y99000D02*X102387Y99800D01*
X101000Y99000D02*X99613Y99800D01*
X101000Y89000D02*Y87400D01*
Y89000D02*X102387Y89800D01*
X101000Y89000D02*X99613Y89800D01*
X101000Y79000D02*Y77400D01*
Y79000D02*X102387Y79800D01*
X101000Y79000D02*X99613Y79800D01*
X101000Y69000D02*Y67400D01*
Y69000D02*X102387Y69800D01*
X101000Y69000D02*X99613Y69800D01*
X67000Y69000D02*Y67400D01*
Y69000D02*X68387Y69800D01*
X67000Y69000D02*X65613Y69800D01*
X67000Y79000D02*Y77400D01*
Y79000D02*X68387Y79800D01*
X67000Y79000D02*X65613Y79800D01*
X67000Y89000D02*Y87400D01*
Y89000D02*X68387Y89800D01*
X67000Y89000D02*X65613Y89800D01*
X67000Y99000D02*Y97400D01*
Y99000D02*X68387Y99800D01*
X67000Y99000D02*X65613Y99800D01*
X67000Y109000D02*Y107400D01*
Y109000D02*X68387Y109800D01*
X67000Y109000D02*X65613Y109800D01*
X67000Y119000D02*Y117400D01*
Y119000D02*X68387Y119800D01*
X67000Y119000D02*X65613Y119800D01*
X67000Y129000D02*Y127400D01*
Y129000D02*X68387Y129800D01*
X67000Y129000D02*X65613Y129800D01*
X37000Y129000D02*Y127400D01*
Y129000D02*X38387Y129800D01*
X37000Y129000D02*X35613Y129800D01*
X37000Y119000D02*Y117400D01*
Y119000D02*X38387Y119800D01*
X37000Y119000D02*X35613Y119800D01*
X37000Y109000D02*Y107400D01*
Y109000D02*X38387Y109800D01*
X37000Y109000D02*X35613Y109800D01*
X37000Y99000D02*Y97400D01*
Y99000D02*X38387Y99800D01*
X37000Y99000D02*X35613Y99800D01*
X37000Y89000D02*Y87400D01*
Y89000D02*X38387Y89800D01*
X37000Y89000D02*X35613Y89800D01*
X37000Y79000D02*Y77400D01*
Y79000D02*X38387Y79800D01*
X37000Y79000D02*X35613Y79800D01*
X37000Y69000D02*Y67400D01*
Y69000D02*X38387Y69800D01*
X37000Y69000D02*X35613Y69800D01*
X183000Y69000D02*Y67400D01*
Y69000D02*X184387Y69800D01*
X183000Y69000D02*X181613Y69800D01*
X183000Y79000D02*Y77400D01*
Y79000D02*X184387Y79800D01*
X183000Y79000D02*X181613Y79800D01*
X183000Y89000D02*Y87400D01*
Y89000D02*X184387Y89800D01*
X183000Y89000D02*X181613Y89800D01*
X183000Y99000D02*Y97400D01*
Y99000D02*X184387Y99800D01*
X183000Y99000D02*X181613Y99800D01*
X183000Y109000D02*Y107400D01*
Y109000D02*X184387Y109800D01*
X183000Y109000D02*X181613Y109800D01*
X183000Y119000D02*Y117400D01*
Y119000D02*X184387Y119800D01*
X183000Y119000D02*X181613Y119800D01*
X183000Y129000D02*Y127400D01*
Y129000D02*X184387Y129800D01*
X183000Y129000D02*X181613Y129800D01*
X153000Y129000D02*Y127400D01*
Y129000D02*X154387Y129800D01*
X153000Y129000D02*X151613Y129800D01*
X153000Y119000D02*Y117400D01*
Y119000D02*X154387Y119800D01*
X153000Y119000D02*X151613Y119800D01*
X153000Y109000D02*Y107400D01*
Y109000D02*X154387Y109800D01*
X153000Y109000D02*X151613Y109800D01*
X153000Y99000D02*Y97400D01*
Y99000D02*X154387Y99800D01*
X153000Y99000D02*X151613Y99800D01*
X153000Y89000D02*Y87400D01*
Y89000D02*X154387Y89800D01*
X153000Y89000D02*X151613Y89800D01*
X153000Y79000D02*Y77400D01*
Y79000D02*X154387Y79800D01*
X153000Y79000D02*X151613Y79800D01*
X153000Y69000D02*Y67400D01*
Y69000D02*X154387Y69800D01*
X153000Y69000D02*X151613Y69800D01*
X118000Y43000D02*Y41400D01*
Y43000D02*X119387Y43800D01*
X118000Y43000D02*X116613Y43800D01*
X108000Y43000D02*Y41400D01*
Y43000D02*X109387Y43800D01*
X108000Y43000D02*X106613Y43800D01*
X98000Y43000D02*Y41400D01*
Y43000D02*X99387Y43800D01*
X98000Y43000D02*X96613Y43800D01*
X88000Y43000D02*Y41400D01*
Y43000D02*X89387Y43800D01*
X88000Y43000D02*X86613Y43800D01*
X78000Y43000D02*Y41400D01*
Y43000D02*X79387Y43800D01*
X78000Y43000D02*X76613Y43800D01*
X68000Y43000D02*Y41400D01*
Y43000D02*X69387Y43800D01*
X68000Y43000D02*X66613Y43800D01*
X58000Y43000D02*Y41400D01*
Y43000D02*X59387Y43800D01*
X58000Y43000D02*X56613Y43800D01*
X48000Y43000D02*Y41400D01*
Y43000D02*X49387Y43800D01*
X48000Y43000D02*X46613Y43800D01*
X15000Y206250D02*Y204650D01*
Y206250D02*X16387Y207050D01*
X15000Y206250D02*X13613Y207050D01*
X135000Y208500D02*X136500Y205500D01*
X138000Y208500D01*
X136500Y205500D02*Y202500D01*
X139800Y205800D02*X142050D01*
X139800Y202500D02*X142800D01*
X139800Y208500D02*Y202500D01*
Y208500D02*X142800D01*
X147600D02*X148350Y207750D01*
X145350Y208500D02*X147600D01*
X144600Y207750D02*X145350Y208500D01*
X144600Y207750D02*Y206250D01*
X145350Y205500D01*
X147600D01*
X148350Y204750D01*
Y203250D01*
X147600Y202500D02*X148350Y203250D01*
X145350Y202500D02*X147600D01*
X144600Y203250D02*X145350Y202500D01*
X98000Y208500D02*X101000D01*
X98000D02*Y205500D01*
X98750Y206250D01*
X100250D01*
X101000Y205500D01*
Y203250D01*
X100250Y202500D02*X101000Y203250D01*
X98750Y202500D02*X100250D01*
X98000Y203250D02*X98750Y202500D01*
X102800Y203250D02*X103550Y202500D01*
X102800Y207750D02*Y203250D01*
Y207750D02*X103550Y208500D01*
X105050D01*
X105800Y207750D01*
Y203250D01*
X105050Y202500D02*X105800Y203250D01*
X103550Y202500D02*X105050D01*
X102800Y204000D02*X105800Y207000D01*
X45000Y203250D02*X45750Y202500D01*
X45000Y207750D02*Y203250D01*
Y207750D02*X45750Y208500D01*
X47250D01*
X48000Y207750D01*
Y203250D01*
X47250Y202500D02*X48000Y203250D01*
X45750Y202500D02*X47250D01*
X45000Y204000D02*X48000Y207000D01*
X49800Y202500D02*X50550D01*
X52350Y203250D02*X53100Y202500D01*
X52350Y207750D02*Y203250D01*
Y207750D02*X53100Y208500D01*
X54600D01*
X55350Y207750D01*
Y203250D01*
X54600Y202500D02*X55350Y203250D01*
X53100Y202500D02*X54600D01*
X52350Y204000D02*X55350Y207000D01*
X57150Y207750D02*X57900Y208500D01*
X60150D01*
X60900Y207750D01*
Y206250D01*
X57150Y202500D02*X60900Y206250D01*
X57150Y202500D02*X60900D01*
X62700Y203250D02*X63450Y202500D01*
X62700Y204450D02*Y203250D01*
Y204450D02*X63750Y205500D01*
X64650D01*
X65700Y204450D01*
Y203250D01*
X64950Y202500D02*X65700Y203250D01*
X63450Y202500D02*X64950D01*
X62700Y206550D02*X63750Y205500D01*
X62700Y207750D02*Y206550D01*
Y207750D02*X63450Y208500D01*
X64950D01*
X65700Y207750D01*
Y206550D01*
X64650Y205500D02*X65700Y206550D01*
X3000Y223500D02*X3750Y222750D01*
X750Y223500D02*X3000D01*
X0Y222750D02*X750Y223500D01*
X0Y222750D02*Y221250D01*
X750Y220500D01*
X3000D01*
X3750Y219750D01*
Y218250D01*
X3000Y217500D02*X3750Y218250D01*
X750Y217500D02*X3000D01*
X0Y218250D02*X750Y217500D01*
X5550Y220500D02*Y218250D01*
X6300Y217500D01*
X8550Y220500D02*Y216000D01*
X7800Y215250D02*X8550Y216000D01*
X6300Y215250D02*X7800D01*
X5550Y216000D02*X6300Y215250D01*
Y217500D02*X7800D01*
X8550Y218250D01*
X11100Y219750D02*Y217500D01*
Y219750D02*X11850Y220500D01*
X12600D01*
X13350Y219750D01*
Y217500D01*
Y219750D02*X14100Y220500D01*
X14850D01*
X15600Y219750D01*
Y217500D01*
X10350Y220500D02*X11100Y219750D01*
X17400Y223500D02*Y217500D01*
Y218250D02*X18150Y217500D01*
X19650D01*
X20400Y218250D01*
Y219750D02*Y218250D01*
X19650Y220500D02*X20400Y219750D01*
X18150Y220500D02*X19650D01*
X17400Y219750D02*X18150Y220500D01*
X22200Y219750D02*Y218250D01*
Y219750D02*X22950Y220500D01*
X24450D01*
X25200Y219750D01*
Y218250D01*
X24450Y217500D02*X25200Y218250D01*
X22950Y217500D02*X24450D01*
X22200Y218250D02*X22950Y217500D01*
X27000Y223500D02*Y218250D01*
X27750Y217500D01*
X0Y214250D02*X29250D01*
X41750Y223500D02*Y217500D01*
X43700Y223500D02*X44750Y222450D01*
Y218550D01*
X43700Y217500D02*X44750Y218550D01*
X41000Y217500D02*X43700D01*
X41000Y223500D02*X43700D01*
G54D85*X46550Y222000D02*Y221850D01*
G54D84*Y219750D02*Y217500D01*
X50300Y220500D02*X51050Y219750D01*
X48800Y220500D02*X50300D01*
X48050Y219750D02*X48800Y220500D01*
X48050Y219750D02*Y218250D01*
X48800Y217500D01*
X51050Y220500D02*Y218250D01*
X51800Y217500D01*
X48800D02*X50300D01*
X51050Y218250D01*
X54350Y219750D02*Y217500D01*
Y219750D02*X55100Y220500D01*
X55850D01*
X56600Y219750D01*
Y217500D01*
Y219750D02*X57350Y220500D01*
X58100D01*
X58850Y219750D01*
Y217500D01*
X53600Y220500D02*X54350Y219750D01*
X60650Y217500D02*X61400D01*
X65900Y218250D02*X66650Y217500D01*
X65900Y222750D02*X66650Y223500D01*
X65900Y222750D02*Y218250D01*
X68450Y223500D02*X69950D01*
X69200D02*Y217500D01*
X68450D02*X69950D01*
X72500Y219750D02*Y217500D01*
Y219750D02*X73250Y220500D01*
X74000D01*
X74750Y219750D01*
Y217500D01*
X71750Y220500D02*X72500Y219750D01*
X77300Y220500D02*X79550D01*
X76550Y219750D02*X77300Y220500D01*
X76550Y219750D02*Y218250D01*
X77300Y217500D01*
X79550D01*
X81350Y223500D02*Y217500D01*
Y219750D02*X82100Y220500D01*
X83600D01*
X84350Y219750D01*
Y217500D01*
X86150Y223500D02*X86900Y222750D01*
Y218250D01*
X86150Y217500D02*X86900Y218250D01*
X41000Y214250D02*X88700D01*
X96050Y217500D02*X98000D01*
X95000Y218550D02*X96050Y217500D01*
X95000Y222450D02*Y218550D01*
Y222450D02*X96050Y223500D01*
X98000D01*
X99800Y219750D02*Y218250D01*
Y219750D02*X100550Y220500D01*
X102050D01*
X102800Y219750D01*
Y218250D01*
X102050Y217500D02*X102800Y218250D01*
X100550Y217500D02*X102050D01*
X99800Y218250D02*X100550Y217500D01*
X104600Y220500D02*Y218250D01*
X105350Y217500D01*
X106850D01*
X107600Y218250D01*
Y220500D02*Y218250D01*
X110150Y219750D02*Y217500D01*
Y219750D02*X110900Y220500D01*
X111650D01*
X112400Y219750D01*
Y217500D01*
X109400Y220500D02*X110150Y219750D01*
X114950Y223500D02*Y218250D01*
X115700Y217500D01*
X114200Y221250D02*X115700D01*
X95000Y214250D02*X117200D01*
X130750Y223500D02*Y217500D01*
X130000Y223500D02*X133000D01*
X133750Y222750D01*
Y221250D01*
X133000Y220500D02*X133750Y221250D01*
X130750Y220500D02*X133000D01*
X135550Y223500D02*Y218250D01*
X136300Y217500D01*
X140050Y220500D02*X140800Y219750D01*
X138550Y220500D02*X140050D01*
X137800Y219750D02*X138550Y220500D01*
X137800Y219750D02*Y218250D01*
X138550Y217500D01*
X140800Y220500D02*Y218250D01*
X141550Y217500D01*
X138550D02*X140050D01*
X140800Y218250D01*
X144100Y223500D02*Y218250D01*
X144850Y217500D01*
X143350Y221250D02*X144850D01*
X147100Y217500D02*X149350D01*
X146350Y218250D02*X147100Y217500D01*
X146350Y219750D02*Y218250D01*
Y219750D02*X147100Y220500D01*
X148600D01*
X149350Y219750D01*
X146350Y219000D02*X149350D01*
Y219750D02*Y219000D01*
X154150Y223500D02*Y217500D01*
X153400D02*X154150Y218250D01*
X151900Y217500D02*X153400D01*
X151150Y218250D02*X151900Y217500D01*
X151150Y219750D02*Y218250D01*
Y219750D02*X151900Y220500D01*
X153400D01*
X154150Y219750D01*
X157450Y220500D02*Y219750D01*
Y218250D02*Y217500D01*
X155950Y222750D02*Y222000D01*
Y222750D02*X156700Y223500D01*
X158200D01*
X158950Y222750D01*
Y222000D01*
X157450Y220500D02*X158950Y222000D01*
X130000Y214250D02*X160750D01*
X0Y238500D02*X3000D01*
X1500D02*Y232500D01*
X4800Y238500D02*Y232500D01*
Y234750D02*X5550Y235500D01*
X7050D01*
X7800Y234750D01*
Y232500D01*
X10350D02*X12600D01*
X9600Y233250D02*X10350Y232500D01*
X9600Y234750D02*Y233250D01*
Y234750D02*X10350Y235500D01*
X11850D01*
X12600Y234750D01*
X9600Y234000D02*X12600D01*
Y234750D02*Y234000D01*
X15150Y234750D02*Y232500D01*
Y234750D02*X15900Y235500D01*
X17400D01*
X14400D02*X15150Y234750D01*
X19950Y232500D02*X22200D01*
X19200Y233250D02*X19950Y232500D01*
X19200Y234750D02*Y233250D01*
Y234750D02*X19950Y235500D01*
X21450D01*
X22200Y234750D01*
X19200Y234000D02*X22200D01*
Y234750D02*Y234000D01*
X28950Y235500D02*X29700Y234750D01*
X27450Y235500D02*X28950D01*
X26700Y234750D02*X27450Y235500D01*
X26700Y234750D02*Y233250D01*
X27450Y232500D01*
X29700Y235500D02*Y233250D01*
X30450Y232500D01*
X27450D02*X28950D01*
X29700Y233250D01*
X33000Y234750D02*Y232500D01*
Y234750D02*X33750Y235500D01*
X35250D01*
X32250D02*X33000Y234750D01*
X37800Y232500D02*X40050D01*
X37050Y233250D02*X37800Y232500D01*
X37050Y234750D02*Y233250D01*
Y234750D02*X37800Y235500D01*
X39300D01*
X40050Y234750D01*
X37050Y234000D02*X40050D01*
Y234750D02*Y234000D01*
X44550Y237750D02*X45300Y238500D01*
X46800D01*
X47550Y237750D01*
X46800Y232500D02*X47550Y233250D01*
X45300Y232500D02*X46800D01*
X44550Y233250D02*X45300Y232500D01*
Y235800D02*X46800D01*
X47550Y237750D02*Y236550D01*
Y235050D02*Y233250D01*
Y235050D02*X46800Y235800D01*
X47550Y236550D02*X46800Y235800D01*
X55050Y238500D02*Y232500D01*
X54300D02*X55050Y233250D01*
X52800Y232500D02*X54300D01*
X52050Y233250D02*X52800Y232500D01*
X52050Y234750D02*Y233250D01*
Y234750D02*X52800Y235500D01*
X54300D01*
X55050Y234750D01*
G54D85*X56850Y237000D02*Y236850D01*
G54D84*Y234750D02*Y232500D01*
X59100Y237750D02*Y232500D01*
Y237750D02*X59850Y238500D01*
X60600D01*
X58350Y235500D02*X59850D01*
X62850Y237750D02*Y232500D01*
Y237750D02*X63600Y238500D01*
X64350D01*
X62100Y235500D02*X63600D01*
X66600Y232500D02*X68850D01*
X65850Y233250D02*X66600Y232500D01*
X65850Y234750D02*Y233250D01*
Y234750D02*X66600Y235500D01*
X68100D01*
X68850Y234750D01*
X65850Y234000D02*X68850D01*
Y234750D02*Y234000D01*
X71400Y234750D02*Y232500D01*
Y234750D02*X72150Y235500D01*
X73650D01*
X70650D02*X71400Y234750D01*
X76200Y232500D02*X78450D01*
X75450Y233250D02*X76200Y232500D01*
X75450Y234750D02*Y233250D01*
Y234750D02*X76200Y235500D01*
X77700D01*
X78450Y234750D01*
X75450Y234000D02*X78450D01*
Y234750D02*Y234000D01*
X81000Y234750D02*Y232500D01*
Y234750D02*X81750Y235500D01*
X82500D01*
X83250Y234750D01*
Y232500D01*
X80250Y235500D02*X81000Y234750D01*
X85800Y238500D02*Y233250D01*
X86550Y232500D01*
X85050Y236250D02*X86550D01*
X93750Y238500D02*Y232500D01*
X93000D02*X93750Y233250D01*
X91500Y232500D02*X93000D01*
X90750Y233250D02*X91500Y232500D01*
X90750Y234750D02*Y233250D01*
Y234750D02*X91500Y235500D01*
X93000D01*
X93750Y234750D01*
X96300D02*Y232500D01*
Y234750D02*X97050Y235500D01*
X98550D01*
X95550D02*X96300Y234750D01*
G54D85*X100350Y237000D02*Y236850D01*
G54D84*Y234750D02*Y232500D01*
X101850Y238500D02*Y233250D01*
X102600Y232500D01*
X104100Y238500D02*Y233250D01*
X104850Y232500D01*
X109800D02*X112050D01*
X112800Y233250D01*
X112050Y234000D02*X112800Y233250D01*
X109800Y234000D02*X112050D01*
X109050Y234750D02*X109800Y234000D01*
X109050Y234750D02*X109800Y235500D01*
X112050D01*
X112800Y234750D01*
X109050Y233250D02*X109800Y232500D01*
G54D85*X114600Y237000D02*Y236850D01*
G54D84*Y234750D02*Y232500D01*
X116100Y235500D02*X119100D01*
X116100Y232500D02*X119100Y235500D01*
X116100Y232500D02*X119100D01*
X121650D02*X123900D01*
X120900Y233250D02*X121650Y232500D01*
X120900Y234750D02*Y233250D01*
Y234750D02*X121650Y235500D01*
X123150D01*
X123900Y234750D01*
X120900Y234000D02*X123900D01*
Y234750D02*Y234000D01*
X126450Y232500D02*X128700D01*
X129450Y233250D01*
X128700Y234000D02*X129450Y233250D01*
X126450Y234000D02*X128700D01*
X125700Y234750D02*X126450Y234000D01*
X125700Y234750D02*X126450Y235500D01*
X128700D01*
X129450Y234750D01*
X125700Y233250D02*X126450Y232500D01*
X133950Y235500D02*Y233250D01*
X134700Y232500D01*
X136200D01*
X136950Y233250D01*
Y235500D02*Y233250D01*
X139500Y232500D02*X141750D01*
X142500Y233250D01*
X141750Y234000D02*X142500Y233250D01*
X139500Y234000D02*X141750D01*
X138750Y234750D02*X139500Y234000D01*
X138750Y234750D02*X139500Y235500D01*
X141750D01*
X142500Y234750D01*
X138750Y233250D02*X139500Y232500D01*
X145050D02*X147300D01*
X144300Y233250D02*X145050Y232500D01*
X144300Y234750D02*Y233250D01*
Y234750D02*X145050Y235500D01*
X146550D01*
X147300Y234750D01*
X144300Y234000D02*X147300D01*
Y234750D02*Y234000D01*
X152100Y238500D02*Y232500D01*
X151350D02*X152100Y233250D01*
X149850Y232500D02*X151350D01*
X149100Y233250D02*X149850Y232500D01*
X149100Y234750D02*Y233250D01*
Y234750D02*X149850Y235500D01*
X151350D01*
X152100Y234750D01*
G54D85*X156600Y237000D02*Y236850D01*
G54D84*Y234750D02*Y232500D01*
X158850Y234750D02*Y232500D01*
Y234750D02*X159600Y235500D01*
X160350D01*
X161100Y234750D01*
Y232500D01*
X158100Y235500D02*X158850Y234750D01*
X166350Y238500D02*Y233250D01*
X167100Y232500D01*
X165600Y236250D02*X167100D01*
X168600Y238500D02*Y232500D01*
Y234750D02*X169350Y235500D01*
X170850D01*
X171600Y234750D01*
Y232500D01*
G54D85*X173400Y237000D02*Y236850D01*
G54D84*Y234750D02*Y232500D01*
X175650D02*X177900D01*
X178650Y233250D01*
X177900Y234000D02*X178650Y233250D01*
X175650Y234000D02*X177900D01*
X174900Y234750D02*X175650Y234000D01*
X174900Y234750D02*X175650Y235500D01*
X177900D01*
X178650Y234750D01*
X174900Y233250D02*X175650Y232500D01*
X183150Y238500D02*Y233250D01*
X183900Y232500D01*
X187650Y235500D02*X188400Y234750D01*
X186150Y235500D02*X187650D01*
X185400Y234750D02*X186150Y235500D01*
X185400Y234750D02*Y233250D01*
X186150Y232500D01*
X188400Y235500D02*Y233250D01*
X189150Y232500D01*
X186150D02*X187650D01*
X188400Y233250D01*
X190950Y235500D02*Y233250D01*
X191700Y232500D01*
X193950Y235500D02*Y231000D01*
X193200Y230250D02*X193950Y231000D01*
X191700Y230250D02*X193200D01*
X190950Y231000D02*X191700Y230250D01*
Y232500D02*X193200D01*
X193950Y233250D01*
X195750Y234750D02*Y233250D01*
Y234750D02*X196500Y235500D01*
X198000D01*
X198750Y234750D01*
Y233250D01*
X198000Y232500D02*X198750Y233250D01*
X196500Y232500D02*X198000D01*
X195750Y233250D02*X196500Y232500D01*
X200550Y235500D02*Y233250D01*
X201300Y232500D01*
X202800D01*
X203550Y233250D01*
Y235500D02*Y233250D01*
X206100Y238500D02*Y233250D01*
X206850Y232500D01*
X205350Y236250D02*X206850D01*
X208350Y231000D02*X209850Y232500D01*
X216600Y238500D02*X217350Y237750D01*
X215100Y238500D02*X216600D01*
X214350Y237750D02*X215100Y238500D01*
X214350Y237750D02*Y233250D01*
X215100Y232500D01*
X216600Y235800D02*X217350Y235050D01*
X214350Y235800D02*X216600D01*
X215100Y232500D02*X216600D01*
X217350Y233250D01*
Y235050D02*Y233250D01*
X219150D02*X219900Y232500D01*
X219150Y234450D02*Y233250D01*
Y234450D02*X220200Y235500D01*
X221100D01*
X222150Y234450D01*
Y233250D01*
X221400Y232500D02*X222150Y233250D01*
X219900Y232500D02*X221400D01*
X219150Y236550D02*X220200Y235500D01*
X219150Y237750D02*Y236550D01*
Y237750D02*X219900Y238500D01*
X221400D01*
X222150Y237750D01*
Y236550D01*
X221100Y235500D02*X222150Y236550D01*
X226650Y238500D02*Y232500D01*
Y234750D02*X227400Y235500D01*
X228900D01*
X229650Y234750D01*
Y232500D01*
X231450Y234750D02*Y233250D01*
Y234750D02*X232200Y235500D01*
X233700D01*
X234450Y234750D01*
Y233250D01*
X233700Y232500D02*X234450Y233250D01*
X232200Y232500D02*X233700D01*
X231450Y233250D02*X232200Y232500D01*
X236250Y238500D02*Y233250D01*
X237000Y232500D01*
X239250D02*X241500D01*
X238500Y233250D02*X239250Y232500D01*
X238500Y234750D02*Y233250D01*
Y234750D02*X239250Y235500D01*
X240750D01*
X241500Y234750D01*
X238500Y234000D02*X241500D01*
Y234750D02*Y234000D01*
X244050Y232500D02*X246300D01*
X247050Y233250D01*
X246300Y234000D02*X247050Y233250D01*
X244050Y234000D02*X246300D01*
X243300Y234750D02*X244050Y234000D01*
X243300Y234750D02*X244050Y235500D01*
X246300D01*
X247050Y234750D01*
X243300Y233250D02*X244050Y232500D01*
X252300Y238500D02*Y233250D01*
X253050Y232500D01*
X251550Y236250D02*X253050D01*
X254550Y234750D02*Y233250D01*
Y234750D02*X255300Y235500D01*
X256800D01*
X257550Y234750D01*
Y233250D01*
X256800Y232500D02*X257550Y233250D01*
X255300Y232500D02*X256800D01*
X254550Y233250D02*X255300Y232500D01*
X260100Y238500D02*Y233250D01*
X260850Y232500D01*
X259350Y236250D02*X260850D01*
X264600Y235500D02*X265350Y234750D01*
X263100Y235500D02*X264600D01*
X262350Y234750D02*X263100Y235500D01*
X262350Y234750D02*Y233250D01*
X263100Y232500D01*
X265350Y235500D02*Y233250D01*
X266100Y232500D01*
X263100D02*X264600D01*
X265350Y233250D01*
X267900Y238500D02*Y233250D01*
X268650Y232500D01*
G54D82*X0Y150000D02*X250000D01*
X0D02*Y0D01*
X250000Y150000D02*Y0D01*
X0D02*X250000D01*
G54D84*X200000Y163500D02*Y157500D01*
Y163500D02*X202250Y160500D01*
X204500Y163500D01*
Y157500D01*
X208550Y160500D02*X209300Y159750D01*
X207050Y160500D02*X208550D01*
X206300Y159750D02*X207050Y160500D01*
X206300Y159750D02*Y158250D01*
X207050Y157500D01*
X209300Y160500D02*Y158250D01*
X210050Y157500D01*
X207050D02*X208550D01*
X209300Y158250D01*
X211850Y160500D02*X214850Y157500D01*
X211850D02*X214850Y160500D01*
G54D85*X216650Y162000D02*Y161850D01*
G54D84*Y159750D02*Y157500D01*
X218900Y159750D02*Y157500D01*
Y159750D02*X219650Y160500D01*
X220400D01*
X221150Y159750D01*
Y157500D01*
Y159750D02*X221900Y160500D01*
X222650D01*
X223400Y159750D01*
Y157500D01*
X218150Y160500D02*X218900Y159750D01*
X225200Y160500D02*Y158250D01*
X225950Y157500D01*
X227450D01*
X228200Y158250D01*
Y160500D02*Y158250D01*
X230750Y159750D02*Y157500D01*
Y159750D02*X231500Y160500D01*
X232250D01*
X233000Y159750D01*
Y157500D01*
Y159750D02*X233750Y160500D01*
X234500D01*
X235250Y159750D01*
Y157500D01*
X230000Y160500D02*X230750Y159750D01*
X240500Y163500D02*Y157500D01*
X242450Y163500D02*X243500Y162450D01*
Y158550D01*
X242450Y157500D02*X243500Y158550D01*
X239750Y157500D02*X242450D01*
X239750Y163500D02*X242450D01*
G54D85*X245300Y162000D02*Y161850D01*
G54D84*Y159750D02*Y157500D01*
X247550Y159750D02*Y157500D01*
Y159750D02*X248300Y160500D01*
X249050D01*
X249800Y159750D01*
Y157500D01*
Y159750D02*X250550Y160500D01*
X251300D01*
X252050Y159750D01*
Y157500D01*
X246800Y160500D02*X247550Y159750D01*
X254600Y157500D02*X256850D01*
X253850Y158250D02*X254600Y157500D01*
X253850Y159750D02*Y158250D01*
Y159750D02*X254600Y160500D01*
X256100D01*
X256850Y159750D01*
X253850Y159000D02*X256850D01*
Y159750D02*Y159000D01*
X259400Y159750D02*Y157500D01*
Y159750D02*X260150Y160500D01*
X260900D01*
X261650Y159750D01*
Y157500D01*
X258650Y160500D02*X259400Y159750D01*
X264200Y157500D02*X266450D01*
X267200Y158250D01*
X266450Y159000D02*X267200Y158250D01*
X264200Y159000D02*X266450D01*
X263450Y159750D02*X264200Y159000D01*
X263450Y159750D02*X264200Y160500D01*
X266450D01*
X267200Y159750D01*
X263450Y158250D02*X264200Y157500D01*
G54D85*X269000Y162000D02*Y161850D01*
G54D84*Y159750D02*Y157500D01*
X270500Y159750D02*Y158250D01*
Y159750D02*X271250Y160500D01*
X272750D01*
X273500Y159750D01*
Y158250D01*
X272750Y157500D02*X273500Y158250D01*
X271250Y157500D02*X272750D01*
X270500Y158250D02*X271250Y157500D01*
X276050Y159750D02*Y157500D01*
Y159750D02*X276800Y160500D01*
X277550D01*
X278300Y159750D01*
Y157500D01*
X275300Y160500D02*X276050Y159750D01*
X280850Y157500D02*X283100D01*
X283850Y158250D01*
X283100Y159000D02*X283850Y158250D01*
X280850Y159000D02*X283100D01*
X280100Y159750D02*X280850Y159000D01*
X280100Y159750D02*X280850Y160500D01*
X283100D01*
X283850Y159750D01*
X280100Y158250D02*X280850Y157500D01*
X285650Y161250D02*X286400D01*
X285650Y159750D02*X286400D01*
X290900Y162750D02*X291650Y163500D01*
X293900D01*
X294650Y162750D01*
Y161250D01*
X290900Y157500D02*X294650Y161250D01*
X290900Y157500D02*X294650D01*
X296450Y163500D02*X299450D01*
X296450D02*Y160500D01*
X297200Y161250D01*
X298700D01*
X299450Y160500D01*
Y158250D01*
X298700Y157500D02*X299450Y158250D01*
X297200Y157500D02*X298700D01*
X296450Y158250D02*X297200Y157500D01*
X301250Y158250D02*X302000Y157500D01*
X301250Y162750D02*Y158250D01*
Y162750D02*X302000Y163500D01*
X303500D01*
X304250Y162750D01*
Y158250D01*
X303500Y157500D02*X304250Y158250D01*
X302000Y157500D02*X303500D01*
X301250Y159000D02*X304250Y162000D01*
X306050Y158250D02*X306800Y157500D01*
X306050Y162750D02*Y158250D01*
Y162750D02*X306800Y163500D01*
X308300D01*
X309050Y162750D01*
Y158250D01*
X308300Y157500D02*X309050Y158250D01*
X306800Y157500D02*X308300D01*
X306050Y159000D02*X309050Y162000D01*
X310850Y157500D02*X311600D01*
X313400Y158250D02*X314150Y157500D01*
X313400Y162750D02*Y158250D01*
Y162750D02*X314150Y163500D01*
X315650D01*
X316400Y162750D01*
Y158250D01*
X315650Y157500D02*X316400Y158250D01*
X314150Y157500D02*X315650D01*
X313400Y159000D02*X316400Y162000D01*
X318200Y158250D02*X318950Y157500D01*
X318200Y162750D02*Y158250D01*
Y162750D02*X318950Y163500D01*
X320450D01*
X321200Y162750D01*
Y158250D01*
X320450Y157500D02*X321200Y158250D01*
X318950Y157500D02*X320450D01*
X318200Y159000D02*X321200Y162000D01*
X323000Y158250D02*X323750Y157500D01*
X323000Y162750D02*Y158250D01*
Y162750D02*X323750Y163500D01*
X325250D01*
X326000Y162750D01*
Y158250D01*
X325250Y157500D02*X326000Y158250D01*
X323750Y157500D02*X325250D01*
X323000Y159000D02*X326000Y162000D01*
X327800Y158250D02*X328550Y157500D01*
X327800Y162750D02*Y158250D01*
Y162750D02*X328550Y163500D01*
X330050D01*
X330800Y162750D01*
Y158250D01*
X330050Y157500D02*X330800Y158250D01*
X328550Y157500D02*X330050D01*
X327800Y159000D02*X330800Y162000D01*
X332600Y158250D02*X333350Y157500D01*
X332600Y162750D02*Y158250D01*
Y162750D02*X333350Y163500D01*
X334850D01*
X335600Y162750D01*
Y158250D01*
X334850Y157500D02*X335600Y158250D01*
X333350Y157500D02*X334850D01*
X332600Y159000D02*X335600Y162000D01*
X337400Y158250D02*X338150Y157500D01*
X337400Y162750D02*Y158250D01*
Y162750D02*X338150Y163500D01*
X339650D01*
X340400Y162750D01*
Y158250D01*
X339650Y157500D02*X340400Y158250D01*
X338150Y157500D02*X339650D01*
X337400Y159000D02*X340400Y162000D01*
X345650Y159750D02*Y157500D01*
Y159750D02*X346400Y160500D01*
X347150D01*
X347900Y159750D01*
Y157500D01*
Y159750D02*X348650Y160500D01*
X349400D01*
X350150Y159750D01*
Y157500D01*
X344900Y160500D02*X345650Y159750D01*
G54D85*X351950Y162000D02*Y161850D01*
G54D84*Y159750D02*Y157500D01*
X353450Y163500D02*Y158250D01*
X354200Y157500D01*
X356450D02*X358700D01*
X359450Y158250D01*
X358700Y159000D02*X359450Y158250D01*
X356450Y159000D02*X358700D01*
X355700Y159750D02*X356450Y159000D01*
X355700Y159750D02*X356450Y160500D01*
X358700D01*
X359450Y159750D01*
X355700Y158250D02*X356450Y157500D01*
X363950Y160500D02*Y158250D01*
X364700Y157500D01*
X365450D01*
X366200Y158250D01*
Y160500D02*Y158250D01*
X366950Y157500D01*
X367700D01*
X368450Y158250D01*
Y160500D02*Y158250D01*
G54D85*X370250Y162000D02*Y161850D01*
G54D84*Y159750D02*Y157500D01*
X374750Y163500D02*Y157500D01*
X374000D02*X374750Y158250D01*
X372500Y157500D02*X374000D01*
X371750Y158250D02*X372500Y157500D01*
X371750Y159750D02*Y158250D01*
Y159750D02*X372500Y160500D01*
X374000D01*
X374750Y159750D01*
X377300Y157500D02*X379550D01*
X376550Y158250D02*X377300Y157500D01*
X376550Y159750D02*Y158250D01*
Y159750D02*X377300Y160500D01*
X378800D01*
X379550Y159750D01*
X376550Y159000D02*X379550D01*
Y159750D02*Y159000D01*
X381350Y156000D02*X382850Y157500D01*
X387350Y162300D02*X388550Y163500D01*
Y157500D01*
X387350D02*X389600D01*
X391400Y163500D02*X394400D01*
X391400D02*Y160500D01*
X392150Y161250D01*
X393650D01*
X394400Y160500D01*
Y158250D01*
X393650Y157500D02*X394400Y158250D01*
X392150Y157500D02*X393650D01*
X391400Y158250D02*X392150Y157500D01*
X396200Y158250D02*X396950Y157500D01*
X396200Y162750D02*Y158250D01*
Y162750D02*X396950Y163500D01*
X398450D01*
X399200Y162750D01*
Y158250D01*
X398450Y157500D02*X399200Y158250D01*
X396950Y157500D02*X398450D01*
X396200Y159000D02*X399200Y162000D01*
X401000Y158250D02*X401750Y157500D01*
X401000Y162750D02*Y158250D01*
Y162750D02*X401750Y163500D01*
X403250D01*
X404000Y162750D01*
Y158250D01*
X403250Y157500D02*X404000Y158250D01*
X401750Y157500D02*X403250D01*
X401000Y159000D02*X404000Y162000D01*
X405800Y157500D02*X406550D01*
X408350Y158250D02*X409100Y157500D01*
X408350Y162750D02*Y158250D01*
Y162750D02*X409100Y163500D01*
X410600D01*
X411350Y162750D01*
Y158250D01*
X410600Y157500D02*X411350Y158250D01*
X409100Y157500D02*X410600D01*
X408350Y159000D02*X411350Y162000D01*
X413150Y158250D02*X413900Y157500D01*
X413150Y162750D02*Y158250D01*
Y162750D02*X413900Y163500D01*
X415400D01*
X416150Y162750D01*
Y158250D01*
X415400Y157500D02*X416150Y158250D01*
X413900Y157500D02*X415400D01*
X413150Y159000D02*X416150Y162000D01*
X417950Y158250D02*X418700Y157500D01*
X417950Y162750D02*Y158250D01*
Y162750D02*X418700Y163500D01*
X420200D01*
X420950Y162750D01*
Y158250D01*
X420200Y157500D02*X420950Y158250D01*
X418700Y157500D02*X420200D01*
X417950Y159000D02*X420950Y162000D01*
X422750Y158250D02*X423500Y157500D01*
X422750Y162750D02*Y158250D01*
Y162750D02*X423500Y163500D01*
X425000D01*
X425750Y162750D01*
Y158250D01*
X425000Y157500D02*X425750Y158250D01*
X423500Y157500D02*X425000D01*
X422750Y159000D02*X425750Y162000D01*
X427550Y158250D02*X428300Y157500D01*
X427550Y162750D02*Y158250D01*
Y162750D02*X428300Y163500D01*
X429800D01*
X430550Y162750D01*
Y158250D01*
X429800Y157500D02*X430550Y158250D01*
X428300Y157500D02*X429800D01*
X427550Y159000D02*X430550Y162000D01*
X432350Y158250D02*X433100Y157500D01*
X432350Y162750D02*Y158250D01*
Y162750D02*X433100Y163500D01*
X434600D01*
X435350Y162750D01*
Y158250D01*
X434600Y157500D02*X435350Y158250D01*
X433100Y157500D02*X434600D01*
X432350Y159000D02*X435350Y162000D01*
X440600Y159750D02*Y157500D01*
Y159750D02*X441350Y160500D01*
X442100D01*
X442850Y159750D01*
Y157500D01*
Y159750D02*X443600Y160500D01*
X444350D01*
X445100Y159750D01*
Y157500D01*
X439850Y160500D02*X440600Y159750D01*
G54D85*X446900Y162000D02*Y161850D01*
G54D84*Y159750D02*Y157500D01*
X448400Y163500D02*Y158250D01*
X449150Y157500D01*
X451400D02*X453650D01*
X454400Y158250D01*
X453650Y159000D02*X454400Y158250D01*
X451400Y159000D02*X453650D01*
X450650Y159750D02*X451400Y159000D01*
X450650Y159750D02*X451400Y160500D01*
X453650D01*
X454400Y159750D01*
X450650Y158250D02*X451400Y157500D01*
X458900Y163500D02*Y157500D01*
Y159750D02*X459650Y160500D01*
X461150D01*
X461900Y159750D01*
Y157500D01*
G54D85*X463700Y162000D02*Y161850D01*
G54D84*Y159750D02*Y157500D01*
X467450Y160500D02*X468200Y159750D01*
X465950Y160500D02*X467450D01*
X465200Y159750D02*X465950Y160500D01*
X465200Y159750D02*Y158250D01*
X465950Y157500D01*
X467450D01*
X468200Y158250D01*
X465200Y156000D02*X465950Y155250D01*
X467450D01*
X468200Y156000D01*
Y160500D02*Y156000D01*
X470000Y163500D02*Y157500D01*
Y159750D02*X470750Y160500D01*
X472250D01*
X473000Y159750D01*
Y157500D01*
X0Y-9500D02*X3000D01*
X3750Y-8750D01*
Y-6950D02*Y-8750D01*
X3000Y-6200D02*X3750Y-6950D01*
X750Y-6200D02*X3000D01*
X750Y-3500D02*Y-9500D01*
X0Y-3500D02*X3000D01*
X3750Y-4250D01*
Y-5450D01*
X3000Y-6200D02*X3750Y-5450D01*
X5550Y-7250D02*Y-8750D01*
Y-7250D02*X6300Y-6500D01*
X7800D01*
X8550Y-7250D01*
Y-8750D01*
X7800Y-9500D02*X8550Y-8750D01*
X6300Y-9500D02*X7800D01*
X5550Y-8750D02*X6300Y-9500D01*
X12600Y-6500D02*X13350Y-7250D01*
X11100Y-6500D02*X12600D01*
X10350Y-7250D02*X11100Y-6500D01*
X10350Y-7250D02*Y-8750D01*
X11100Y-9500D01*
X13350Y-6500D02*Y-8750D01*
X14100Y-9500D01*
X11100D02*X12600D01*
X13350Y-8750D01*
X16650Y-7250D02*Y-9500D01*
Y-7250D02*X17400Y-6500D01*
X18900D01*
X15900D02*X16650Y-7250D01*
X23700Y-3500D02*Y-9500D01*
X22950D02*X23700Y-8750D01*
X21450Y-9500D02*X22950D01*
X20700Y-8750D02*X21450Y-9500D01*
X20700Y-7250D02*Y-8750D01*
Y-7250D02*X21450Y-6500D01*
X22950D01*
X23700Y-7250D01*
X28200D02*Y-8750D01*
Y-7250D02*X28950Y-6500D01*
X30450D01*
X31200Y-7250D01*
Y-8750D01*
X30450Y-9500D02*X31200Y-8750D01*
X28950Y-9500D02*X30450D01*
X28200Y-8750D02*X28950Y-9500D01*
X33000Y-6500D02*Y-8750D01*
X33750Y-9500D01*
X35250D01*
X36000Y-8750D01*
Y-6500D02*Y-8750D01*
X38550Y-3500D02*Y-8750D01*
X39300Y-9500D01*
X37800Y-5750D02*X39300D01*
X40800Y-3500D02*Y-8750D01*
X41550Y-9500D01*
G54D85*X43050Y-5000D02*Y-5150D01*
G54D84*Y-7250D02*Y-9500D01*
X45300Y-7250D02*Y-9500D01*
Y-7250D02*X46050Y-6500D01*
X46800D01*
X47550Y-7250D01*
Y-9500D01*
X44550Y-6500D02*X45300Y-7250D01*
X50100Y-9500D02*X52350D01*
X49350Y-8750D02*X50100Y-9500D01*
X49350Y-7250D02*Y-8750D01*
Y-7250D02*X50100Y-6500D01*
X51600D01*
X52350Y-7250D01*
X49350Y-8000D02*X52350D01*
Y-7250D02*Y-8000D01*
G54D85*X56850Y-5000D02*Y-5150D01*
G54D84*Y-7250D02*Y-9500D01*
X59100D02*X61350D01*
X62100Y-8750D01*
X61350Y-8000D02*X62100Y-8750D01*
X59100Y-8000D02*X61350D01*
X58350Y-7250D02*X59100Y-8000D01*
X58350Y-7250D02*X59100Y-6500D01*
X61350D01*
X62100Y-7250D01*
X58350Y-8750D02*X59100Y-9500D01*
X67350Y-3500D02*Y-8750D01*
X68100Y-9500D01*
X66600Y-5750D02*X68100D01*
X69600Y-3500D02*Y-9500D01*
Y-7250D02*X70350Y-6500D01*
X71850D01*
X72600Y-7250D01*
Y-9500D01*
X75150D02*X77400D01*
X74400Y-8750D02*X75150Y-9500D01*
X74400Y-7250D02*Y-8750D01*
Y-7250D02*X75150Y-6500D01*
X76650D01*
X77400Y-7250D01*
X74400Y-8000D02*X77400D01*
Y-7250D02*Y-8000D01*
X82650Y-6500D02*X84900D01*
X81900Y-7250D02*X82650Y-6500D01*
X81900Y-7250D02*Y-8750D01*
X82650Y-9500D01*
X84900D01*
X87450D02*X89700D01*
X86700Y-8750D02*X87450Y-9500D01*
X86700Y-7250D02*Y-8750D01*
Y-7250D02*X87450Y-6500D01*
X88950D01*
X89700Y-7250D01*
X86700Y-8000D02*X89700D01*
Y-7250D02*Y-8000D01*
X92250Y-7250D02*Y-9500D01*
Y-7250D02*X93000Y-6500D01*
X93750D01*
X94500Y-7250D01*
Y-9500D01*
X91500Y-6500D02*X92250Y-7250D01*
X97050Y-3500D02*Y-8750D01*
X97800Y-9500D01*
X96300Y-5750D02*X97800D01*
X100050Y-9500D02*X102300D01*
X99300Y-8750D02*X100050Y-9500D01*
X99300Y-7250D02*Y-8750D01*
Y-7250D02*X100050Y-6500D01*
X101550D01*
X102300Y-7250D01*
X99300Y-8000D02*X102300D01*
Y-7250D02*Y-8000D01*
X104850Y-7250D02*Y-9500D01*
Y-7250D02*X105600Y-6500D01*
X107100D01*
X104100D02*X104850Y-7250D01*
X108900Y-3500D02*Y-8750D01*
X109650Y-9500D01*
G54D85*X111150Y-5000D02*Y-5150D01*
G54D84*Y-7250D02*Y-9500D01*
X113400Y-7250D02*Y-9500D01*
Y-7250D02*X114150Y-6500D01*
X114900D01*
X115650Y-7250D01*
Y-9500D01*
X112650Y-6500D02*X113400Y-7250D01*
X118200Y-9500D02*X120450D01*
X117450Y-8750D02*X118200Y-9500D01*
X117450Y-7250D02*Y-8750D01*
Y-7250D02*X118200Y-6500D01*
X119700D01*
X120450Y-7250D01*
X117450Y-8000D02*X120450D01*
Y-7250D02*Y-8000D01*
X124950Y-7250D02*Y-8750D01*
Y-7250D02*X125700Y-6500D01*
X127200D01*
X127950Y-7250D01*
Y-8750D01*
X127200Y-9500D02*X127950Y-8750D01*
X125700Y-9500D02*X127200D01*
X124950Y-8750D02*X125700Y-9500D01*
X130500Y-4250D02*Y-9500D01*
Y-4250D02*X131250Y-3500D01*
X132000D01*
X129750Y-6500D02*X131250D01*
X136950Y-3500D02*Y-8750D01*
X137700Y-9500D01*
X136200Y-5750D02*X137700D01*
X139200Y-3500D02*Y-9500D01*
Y-7250D02*X139950Y-6500D01*
X141450D01*
X142200Y-7250D01*
Y-9500D01*
G54D85*X144000Y-5000D02*Y-5150D01*
G54D84*Y-7250D02*Y-9500D01*
X146250D02*X148500D01*
X149250Y-8750D01*
X148500Y-8000D02*X149250Y-8750D01*
X146250Y-8000D02*X148500D01*
X145500Y-7250D02*X146250Y-8000D01*
X145500Y-7250D02*X146250Y-6500D01*
X148500D01*
X149250Y-7250D01*
X145500Y-8750D02*X146250Y-9500D01*
X153750Y-8750D02*X154500Y-9500D01*
X153750Y-7550D02*Y-8750D01*
Y-7550D02*X154800Y-6500D01*
X155700D01*
X156750Y-7550D01*
Y-8750D01*
X156000Y-9500D02*X156750Y-8750D01*
X154500Y-9500D02*X156000D01*
X153750Y-5450D02*X154800Y-6500D01*
X153750Y-4250D02*Y-5450D01*
Y-4250D02*X154500Y-3500D01*
X156000D01*
X156750Y-4250D01*
Y-5450D01*
X155700Y-6500D02*X156750Y-5450D01*
X158550Y-9500D02*X159300D01*
X161100Y-8750D02*X161850Y-9500D01*
X161100Y-4250D02*Y-8750D01*
Y-4250D02*X161850Y-3500D01*
X163350D01*
X164100Y-4250D01*
Y-8750D01*
X163350Y-9500D02*X164100Y-8750D01*
X161850Y-9500D02*X163350D01*
X161100Y-8000D02*X164100Y-5000D01*
X165900Y-8750D02*X166650Y-9500D01*
X165900Y-4250D02*Y-8750D01*
Y-4250D02*X166650Y-3500D01*
X168150D01*
X168900Y-4250D01*
Y-8750D01*
X168150Y-9500D02*X168900Y-8750D01*
X166650Y-9500D02*X168150D01*
X165900Y-8000D02*X168900Y-5000D01*
X170700Y-8750D02*X171450Y-9500D01*
X170700Y-4250D02*Y-8750D01*
Y-4250D02*X171450Y-3500D01*
X172950D01*
X173700Y-4250D01*
Y-8750D01*
X172950Y-9500D02*X173700Y-8750D01*
X171450Y-9500D02*X172950D01*
X170700Y-8000D02*X173700Y-5000D01*
X175500Y-8750D02*X176250Y-9500D01*
X175500Y-4250D02*Y-8750D01*
Y-4250D02*X176250Y-3500D01*
X177750D01*
X178500Y-4250D01*
Y-8750D01*
X177750Y-9500D02*X178500Y-8750D01*
X176250Y-9500D02*X177750D01*
X175500Y-8000D02*X178500Y-5000D01*
X180300Y-8750D02*X181050Y-9500D01*
X180300Y-4250D02*Y-8750D01*
Y-4250D02*X181050Y-3500D01*
X182550D01*
X183300Y-4250D01*
Y-8750D01*
X182550Y-9500D02*X183300Y-8750D01*
X181050Y-9500D02*X182550D01*
X180300Y-8000D02*X183300Y-5000D01*
X185100Y-8750D02*X185850Y-9500D01*
X185100Y-4250D02*Y-8750D01*
Y-4250D02*X185850Y-3500D01*
X187350D01*
X188100Y-4250D01*
Y-8750D01*
X187350Y-9500D02*X188100Y-8750D01*
X185850Y-9500D02*X187350D01*
X185100Y-8000D02*X188100Y-5000D01*
X193350Y-7250D02*Y-9500D01*
Y-7250D02*X194100Y-6500D01*
X194850D01*
X195600Y-7250D01*
Y-9500D01*
Y-7250D02*X196350Y-6500D01*
X197100D01*
X197850Y-7250D01*
Y-9500D01*
X192600Y-6500D02*X193350Y-7250D01*
G54D85*X199650Y-5000D02*Y-5150D01*
G54D84*Y-7250D02*Y-9500D01*
X201150Y-3500D02*Y-8750D01*
X201900Y-9500D01*
X206850Y-7250D02*Y-9500D01*
Y-7250D02*X207600Y-6500D01*
X209100D01*
X206100D02*X206850Y-7250D01*
X211650Y-9500D02*X213900D01*
X210900Y-8750D02*X211650Y-9500D01*
X210900Y-7250D02*Y-8750D01*
Y-7250D02*X211650Y-6500D01*
X213150D01*
X213900Y-7250D01*
X210900Y-8000D02*X213900D01*
Y-7250D02*Y-8000D01*
X216450Y-6500D02*X218700D01*
X215700Y-7250D02*X216450Y-6500D01*
X215700Y-7250D02*Y-8750D01*
X216450Y-9500D01*
X218700D01*
X221250Y-3500D02*Y-8750D01*
X222000Y-9500D01*
X220500Y-5750D02*X222000D01*
X225750Y-6500D02*X226500Y-7250D01*
X224250Y-6500D02*X225750D01*
X223500Y-7250D02*X224250Y-6500D01*
X223500Y-7250D02*Y-8750D01*
X224250Y-9500D01*
X226500Y-6500D02*Y-8750D01*
X227250Y-9500D01*
X224250D02*X225750D01*
X226500Y-8750D01*
X229800Y-7250D02*Y-9500D01*
Y-7250D02*X230550Y-6500D01*
X231300D01*
X232050Y-7250D01*
Y-9500D01*
X229050Y-6500D02*X229800Y-7250D01*
X236100Y-6500D02*X236850Y-7250D01*
X234600Y-6500D02*X236100D01*
X233850Y-7250D02*X234600Y-6500D01*
X233850Y-7250D02*Y-8750D01*
X234600Y-9500D01*
X236100D01*
X236850Y-8750D01*
X233850Y-11000D02*X234600Y-11750D01*
X236100D01*
X236850Y-11000D01*
Y-6500D02*Y-11000D01*
X238650Y-3500D02*Y-8750D01*
X239400Y-9500D01*
X241650D02*X243900D01*
X240900Y-8750D02*X241650Y-9500D01*
X240900Y-7250D02*Y-8750D01*
Y-7250D02*X241650Y-6500D01*
X243150D01*
X243900Y-7250D01*
X240900Y-8000D02*X243900D01*
Y-7250D02*Y-8000D01*
X248400Y-6500D02*X251400D01*
X255900Y-8750D02*X256650Y-9500D01*
X255900Y-4250D02*Y-8750D01*
Y-4250D02*X256650Y-3500D01*
X258150D01*
X258900Y-4250D01*
Y-8750D01*
X258150Y-9500D02*X258900Y-8750D01*
X256650Y-9500D02*X258150D01*
X255900Y-8000D02*X258900Y-5000D01*
X260700Y-11000D02*X262200Y-9500D01*
X264000Y-8750D02*X264750Y-9500D01*
X264000Y-4250D02*Y-8750D01*
Y-4250D02*X264750Y-3500D01*
X266250D01*
X267000Y-4250D01*
Y-8750D01*
X266250Y-9500D02*X267000Y-8750D01*
X264750Y-9500D02*X266250D01*
X264000Y-8000D02*X267000Y-5000D01*
X272250Y-3500D02*Y-8750D01*
X273000Y-9500D01*
X271500Y-5750D02*X273000D01*
X274500Y-7250D02*Y-8750D01*
Y-7250D02*X275250Y-6500D01*
X276750D01*
X277500Y-7250D01*
Y-8750D01*
X276750Y-9500D02*X277500Y-8750D01*
X275250Y-9500D02*X276750D01*
X274500Y-8750D02*X275250Y-9500D01*
X282000Y-4250D02*X282750Y-3500D01*
X285000D01*
X285750Y-4250D01*
Y-5750D01*
X282000Y-9500D02*X285750Y-5750D01*
X282000Y-9500D02*X285750D01*
X287550Y-3500D02*X290550D01*
X287550D02*Y-6500D01*
X288300Y-5750D01*
X289800D01*
X290550Y-6500D01*
Y-8750D01*
X289800Y-9500D02*X290550Y-8750D01*
X288300Y-9500D02*X289800D01*
X287550Y-8750D02*X288300Y-9500D01*
X292350Y-8750D02*X293100Y-9500D01*
X292350Y-4250D02*Y-8750D01*
Y-4250D02*X293100Y-3500D01*
X294600D01*
X295350Y-4250D01*
Y-8750D01*
X294600Y-9500D02*X295350Y-8750D01*
X293100Y-9500D02*X294600D01*
X292350Y-8000D02*X295350Y-5000D01*
X297150Y-8750D02*X297900Y-9500D01*
X297150Y-4250D02*Y-8750D01*
Y-4250D02*X297900Y-3500D01*
X299400D01*
X300150Y-4250D01*
Y-8750D01*
X299400Y-9500D02*X300150Y-8750D01*
X297900Y-9500D02*X299400D01*
X297150Y-8000D02*X300150Y-5000D01*
X301950Y-9500D02*X302700D01*
X304500Y-8750D02*X305250Y-9500D01*
X304500Y-4250D02*Y-8750D01*
Y-4250D02*X305250Y-3500D01*
X306750D01*
X307500Y-4250D01*
Y-8750D01*
X306750Y-9500D02*X307500Y-8750D01*
X305250Y-9500D02*X306750D01*
X304500Y-8000D02*X307500Y-5000D01*
X309300Y-8750D02*X310050Y-9500D01*
X309300Y-4250D02*Y-8750D01*
Y-4250D02*X310050Y-3500D01*
X311550D01*
X312300Y-4250D01*
Y-8750D01*
X311550Y-9500D02*X312300Y-8750D01*
X310050Y-9500D02*X311550D01*
X309300Y-8000D02*X312300Y-5000D01*
X314100Y-8750D02*X314850Y-9500D01*
X314100Y-4250D02*Y-8750D01*
Y-4250D02*X314850Y-3500D01*
X316350D01*
X317100Y-4250D01*
Y-8750D01*
X316350Y-9500D02*X317100Y-8750D01*
X314850Y-9500D02*X316350D01*
X314100Y-8000D02*X317100Y-5000D01*
X318900Y-8750D02*X319650Y-9500D01*
X318900Y-4250D02*Y-8750D01*
Y-4250D02*X319650Y-3500D01*
X321150D01*
X321900Y-4250D01*
Y-8750D01*
X321150Y-9500D02*X321900Y-8750D01*
X319650Y-9500D02*X321150D01*
X318900Y-8000D02*X321900Y-5000D01*
X323700Y-8750D02*X324450Y-9500D01*
X323700Y-4250D02*Y-8750D01*
Y-4250D02*X324450Y-3500D01*
X325950D01*
X326700Y-4250D01*
Y-8750D01*
X325950Y-9500D02*X326700Y-8750D01*
X324450Y-9500D02*X325950D01*
X323700Y-8000D02*X326700Y-5000D01*
X328500Y-8750D02*X329250Y-9500D01*
X328500Y-4250D02*Y-8750D01*
Y-4250D02*X329250Y-3500D01*
X330750D01*
X331500Y-4250D01*
Y-8750D01*
X330750Y-9500D02*X331500Y-8750D01*
X329250Y-9500D02*X330750D01*
X328500Y-8000D02*X331500Y-5000D01*
X333300Y-11000D02*X334800Y-9500D01*
X336600Y-4700D02*X337800Y-3500D01*
Y-9500D01*
X336600D02*X338850D01*
X340650Y-3500D02*X343650D01*
X340650D02*Y-6500D01*
X341400Y-5750D01*
X342900D01*
X343650Y-6500D01*
Y-8750D01*
X342900Y-9500D02*X343650Y-8750D01*
X341400Y-9500D02*X342900D01*
X340650Y-8750D02*X341400Y-9500D01*
X345450Y-8750D02*X346200Y-9500D01*
X345450Y-4250D02*Y-8750D01*
Y-4250D02*X346200Y-3500D01*
X347700D01*
X348450Y-4250D01*
Y-8750D01*
X347700Y-9500D02*X348450Y-8750D01*
X346200Y-9500D02*X347700D01*
X345450Y-8000D02*X348450Y-5000D01*
X350250Y-8750D02*X351000Y-9500D01*
X350250Y-4250D02*Y-8750D01*
Y-4250D02*X351000Y-3500D01*
X352500D01*
X353250Y-4250D01*
Y-8750D01*
X352500Y-9500D02*X353250Y-8750D01*
X351000Y-9500D02*X352500D01*
X350250Y-8000D02*X353250Y-5000D01*
X355050Y-9500D02*X355800D01*
X357600Y-8750D02*X358350Y-9500D01*
X357600Y-4250D02*Y-8750D01*
Y-4250D02*X358350Y-3500D01*
X359850D01*
X360600Y-4250D01*
Y-8750D01*
X359850Y-9500D02*X360600Y-8750D01*
X358350Y-9500D02*X359850D01*
X357600Y-8000D02*X360600Y-5000D01*
X362400Y-8750D02*X363150Y-9500D01*
X362400Y-4250D02*Y-8750D01*
Y-4250D02*X363150Y-3500D01*
X364650D01*
X365400Y-4250D01*
Y-8750D01*
X364650Y-9500D02*X365400Y-8750D01*
X363150Y-9500D02*X364650D01*
X362400Y-8000D02*X365400Y-5000D01*
X367200Y-8750D02*X367950Y-9500D01*
X367200Y-4250D02*Y-8750D01*
Y-4250D02*X367950Y-3500D01*
X369450D01*
X370200Y-4250D01*
Y-8750D01*
X369450Y-9500D02*X370200Y-8750D01*
X367950Y-9500D02*X369450D01*
X367200Y-8000D02*X370200Y-5000D01*
X372000Y-8750D02*X372750Y-9500D01*
X372000Y-4250D02*Y-8750D01*
Y-4250D02*X372750Y-3500D01*
X374250D01*
X375000Y-4250D01*
Y-8750D01*
X374250Y-9500D02*X375000Y-8750D01*
X372750Y-9500D02*X374250D01*
X372000Y-8000D02*X375000Y-5000D01*
X376800Y-8750D02*X377550Y-9500D01*
X376800Y-4250D02*Y-8750D01*
Y-4250D02*X377550Y-3500D01*
X379050D01*
X379800Y-4250D01*
Y-8750D01*
X379050Y-9500D02*X379800Y-8750D01*
X377550Y-9500D02*X379050D01*
X376800Y-8000D02*X379800Y-5000D01*
X381600Y-8750D02*X382350Y-9500D01*
X381600Y-4250D02*Y-8750D01*
Y-4250D02*X382350Y-3500D01*
X383850D01*
X384600Y-4250D01*
Y-8750D01*
X383850Y-9500D02*X384600Y-8750D01*
X382350Y-9500D02*X383850D01*
X381600Y-8000D02*X384600Y-5000D01*
X389850Y-7250D02*Y-9500D01*
Y-7250D02*X390600Y-6500D01*
X391350D01*
X392100Y-7250D01*
Y-9500D01*
Y-7250D02*X392850Y-6500D01*
X393600D01*
X394350Y-7250D01*
Y-9500D01*
X389100Y-6500D02*X389850Y-7250D01*
G54D85*X396150Y-5000D02*Y-5150D01*
G54D84*Y-7250D02*Y-9500D01*
X397650Y-3500D02*Y-8750D01*
X398400Y-9500D01*
X400650D02*X402900D01*
X403650Y-8750D01*
X402900Y-8000D02*X403650Y-8750D01*
X400650Y-8000D02*X402900D01*
X399900Y-7250D02*X400650Y-8000D01*
X399900Y-7250D02*X400650Y-6500D01*
X402900D01*
X403650Y-7250D01*
X399900Y-8750D02*X400650Y-9500D01*
X200750Y178500D02*Y172500D01*
X202700Y178500D02*X203750Y177450D01*
Y173550D01*
X202700Y172500D02*X203750Y173550D01*
X200000Y172500D02*X202700D01*
X200000Y178500D02*X202700D01*
X207800Y175500D02*X208550Y174750D01*
X206300Y175500D02*X207800D01*
X205550Y174750D02*X206300Y175500D01*
X205550Y174750D02*Y173250D01*
X206300Y172500D01*
X208550Y175500D02*Y173250D01*
X209300Y172500D01*
X206300D02*X207800D01*
X208550Y173250D01*
X211850Y178500D02*Y173250D01*
X212600Y172500D01*
X211100Y176250D02*X212600D01*
X214850Y172500D02*X217100D01*
X214100Y173250D02*X214850Y172500D01*
X214100Y174750D02*Y173250D01*
Y174750D02*X214850Y175500D01*
X216350D01*
X217100Y174750D01*
X214100Y174000D02*X217100D01*
Y174750D02*Y174000D01*
X218900Y176250D02*X219650D01*
X218900Y174750D02*X219650D01*
X224150Y178500D02*Y172500D01*
Y178500D02*X226400Y175500D01*
X228650Y178500D01*
Y172500D01*
X230450Y174750D02*Y173250D01*
Y174750D02*X231200Y175500D01*
X232700D01*
X233450Y174750D01*
Y173250D01*
X232700Y172500D02*X233450Y173250D01*
X231200Y172500D02*X232700D01*
X230450Y173250D02*X231200Y172500D01*
X236000Y174750D02*Y172500D01*
Y174750D02*X236750Y175500D01*
X237500D01*
X238250Y174750D01*
Y172500D01*
X235250Y175500D02*X236000Y174750D01*
X243800Y178500D02*X245000D01*
Y173250D01*
X244250Y172500D02*X245000Y173250D01*
X243500Y172500D02*X244250D01*
X242750Y173250D02*X243500Y172500D01*
X242750Y174000D02*Y173250D01*
X249050Y175500D02*X249800Y174750D01*
X247550Y175500D02*X249050D01*
X246800Y174750D02*X247550Y175500D01*
X246800Y174750D02*Y173250D01*
X247550Y172500D01*
X249800Y175500D02*Y173250D01*
X250550Y172500D01*
X247550D02*X249050D01*
X249800Y173250D01*
X253100Y174750D02*Y172500D01*
Y174750D02*X253850Y175500D01*
X254600D01*
X255350Y174750D01*
Y172500D01*
X252350Y175500D02*X253100Y174750D01*
X259850Y177750D02*X260600Y178500D01*
X262850D01*
X263600Y177750D01*
Y176250D01*
X259850Y172500D02*X263600Y176250D01*
X259850Y172500D02*X263600D01*
X265400Y173250D02*X266150Y172500D01*
X265400Y177750D02*Y173250D01*
Y177750D02*X266150Y178500D01*
X267650D01*
X268400Y177750D01*
Y173250D01*
X267650Y172500D02*X268400Y173250D01*
X266150Y172500D02*X267650D01*
X265400Y174000D02*X268400Y177000D01*
X272900Y173250D02*X273650Y172500D01*
X272900Y177750D02*Y173250D01*
Y177750D02*X273650Y178500D01*
X275150D01*
X275900Y177750D01*
Y173250D01*
X275150Y172500D02*X275900Y173250D01*
X273650Y172500D02*X275150D01*
X272900Y174000D02*X275900Y177000D01*
X277700Y177750D02*X278450Y178500D01*
X279950D01*
X280700Y177750D01*
X279950Y172500D02*X280700Y173250D01*
X278450Y172500D02*X279950D01*
X277700Y173250D02*X278450Y172500D01*
Y175800D02*X279950D01*
X280700Y177750D02*Y176550D01*
Y175050D02*Y173250D01*
Y175050D02*X279950Y175800D01*
X280700Y176550D02*X279950Y175800D01*
X282500Y176250D02*X283250D01*
X282500Y174750D02*X283250D01*
X285050Y173250D02*X285800Y172500D01*
X285050Y177750D02*Y173250D01*
Y177750D02*X285800Y178500D01*
X287300D01*
X288050Y177750D01*
Y173250D01*
X287300Y172500D02*X288050Y173250D01*
X285800Y172500D02*X287300D01*
X285050Y174000D02*X288050Y177000D01*
X289850Y177750D02*X290600Y178500D01*
X292850D01*
X293600Y177750D01*
Y176250D01*
X289850Y172500D02*X293600Y176250D01*
X289850Y172500D02*X293600D01*
X295400Y176250D02*X296150D01*
X295400Y174750D02*X296150D01*
X297950Y178500D02*X300950D01*
X297950D02*Y175500D01*
X298700Y176250D01*
X300200D01*
X300950Y175500D01*
Y173250D01*
X300200Y172500D02*X300950Y173250D01*
X298700Y172500D02*X300200D01*
X297950Y173250D02*X298700Y172500D01*
X302750Y177750D02*X303500Y178500D01*
X305750D01*
X306500Y177750D01*
Y176250D01*
X302750Y172500D02*X306500Y176250D01*
X302750Y172500D02*X306500D01*
X311000Y177750D02*X311750Y178500D01*
X314000D01*
X314750Y177750D01*
Y176250D01*
X311000Y172500D02*X314750Y176250D01*
X311000Y172500D02*X314750D01*
X316550Y173250D02*X317300Y172500D01*
X316550Y177750D02*Y173250D01*
Y177750D02*X317300Y178500D01*
X318800D01*
X319550Y177750D01*
Y173250D01*
X318800Y172500D02*X319550Y173250D01*
X317300Y172500D02*X318800D01*
X316550Y174000D02*X319550Y177000D01*
X321350Y177750D02*X322100Y178500D01*
X324350D01*
X325100Y177750D01*
Y176250D01*
X321350Y172500D02*X325100Y176250D01*
X321350Y172500D02*X325100D01*
X326900Y178500D02*X329900D01*
X326900D02*Y175500D01*
X327650Y176250D01*
X329150D01*
X329900Y175500D01*
Y173250D01*
X329150Y172500D02*X329900Y173250D01*
X327650Y172500D02*X329150D01*
X326900Y173250D02*X327650Y172500D01*
X334400Y178500D02*Y173250D01*
X335150Y172500D01*
X336650D01*
X337400Y173250D01*
Y178500D02*Y173250D01*
X339200Y178500D02*X342200D01*
X340700D02*Y172500D01*
X345050D02*X347000D01*
X344000Y173550D02*X345050Y172500D01*
X344000Y177450D02*Y173550D01*
Y177450D02*X345050Y178500D01*
X347000D01*
X200000Y192000D02*Y187500D01*
Y192000D02*X201050Y193500D01*
X202700D01*
X203750Y192000D01*
Y187500D01*
X200000Y190500D02*X203750D01*
X205550D02*Y188250D01*
X206300Y187500D01*
X207800D01*
X208550Y188250D01*
Y190500D02*Y188250D01*
X211100Y193500D02*Y188250D01*
X211850Y187500D01*
X210350Y191250D02*X211850D01*
X213350Y193500D02*Y187500D01*
Y189750D02*X214100Y190500D01*
X215600D01*
X216350Y189750D01*
Y187500D01*
X218150Y189750D02*Y188250D01*
Y189750D02*X218900Y190500D01*
X220400D01*
X221150Y189750D01*
Y188250D01*
X220400Y187500D02*X221150Y188250D01*
X218900Y187500D02*X220400D01*
X218150Y188250D02*X218900Y187500D01*
X223700Y189750D02*Y187500D01*
Y189750D02*X224450Y190500D01*
X225950D01*
X222950D02*X223700Y189750D01*
X227750Y191250D02*X228500D01*
X227750Y189750D02*X228500D01*
X233000Y190800D02*X235250D01*
X233000Y187500D02*X236000D01*
X233000Y193500D02*Y187500D01*
Y193500D02*X236000D01*
X237800D02*Y188250D01*
X238550Y187500D01*
X240800D02*X243050D01*
X240050Y188250D02*X240800Y187500D01*
X240050Y189750D02*Y188250D01*
Y189750D02*X240800Y190500D01*
X242300D01*
X243050Y189750D01*
X240050Y189000D02*X243050D01*
Y189750D02*Y189000D01*
X245600Y190500D02*X247850D01*
X244850Y189750D02*X245600Y190500D01*
X244850Y189750D02*Y188250D01*
X245600Y187500D01*
X247850D01*
X250400Y193500D02*Y188250D01*
X251150Y187500D01*
X249650Y191250D02*X251150D01*
X253400Y189750D02*Y187500D01*
Y189750D02*X254150Y190500D01*
X255650D01*
X252650D02*X253400Y189750D01*
X257450D02*Y188250D01*
Y189750D02*X258200Y190500D01*
X259700D01*
X260450Y189750D01*
Y188250D01*
X259700Y187500D02*X260450Y188250D01*
X258200Y187500D02*X259700D01*
X257450Y188250D02*X258200Y187500D01*
X263000Y189750D02*Y187500D01*
Y189750D02*X263750Y190500D01*
X264500D01*
X265250Y189750D01*
Y187500D01*
X262250Y190500D02*X263000Y189750D01*
G54D85*X267050Y192000D02*Y191850D01*
G54D84*Y189750D02*Y187500D01*
X269300Y190500D02*X271550D01*
X268550Y189750D02*X269300Y190500D01*
X268550Y189750D02*Y188250D01*
X269300Y187500D01*
X271550D01*
X274100D02*X276350D01*
X277100Y188250D01*
X276350Y189000D02*X277100Y188250D01*
X274100Y189000D02*X276350D01*
X273350Y189750D02*X274100Y189000D01*
X273350Y189750D02*X274100Y190500D01*
X276350D01*
X277100Y189750D01*
X273350Y188250D02*X274100Y187500D01*
X200000Y208500D02*X203000D01*
X201500D02*Y202500D01*
G54D85*X204800Y207000D02*Y206850D01*
G54D84*Y204750D02*Y202500D01*
X207050Y208500D02*Y203250D01*
X207800Y202500D01*
X206300Y206250D02*X207800D01*
X209300Y208500D02*Y203250D01*
X210050Y202500D01*
X212300D02*X214550D01*
X211550Y203250D02*X212300Y202500D01*
X211550Y204750D02*Y203250D01*
Y204750D02*X212300Y205500D01*
X213800D01*
X214550Y204750D01*
X211550Y204000D02*X214550D01*
Y204750D02*Y204000D01*
X216350Y206250D02*X217100D01*
X216350Y204750D02*X217100D01*
X221600Y203250D02*X222350Y202500D01*
X221600Y207750D02*X222350Y208500D01*
X221600Y207750D02*Y203250D01*
X224150Y205500D02*Y203250D01*
X224900Y202500D01*
X226400D01*
X227150Y203250D01*
Y205500D02*Y203250D01*
X229700Y204750D02*Y202500D01*
Y204750D02*X230450Y205500D01*
X231200D01*
X231950Y204750D01*
Y202500D01*
X228950Y205500D02*X229700Y204750D01*
X233750Y208500D02*Y202500D01*
Y204750D02*X236000Y202500D01*
X233750Y204750D02*X235250Y206250D01*
X238550Y204750D02*Y202500D01*
Y204750D02*X239300Y205500D01*
X240050D01*
X240800Y204750D01*
Y202500D01*
X237800Y205500D02*X238550Y204750D01*
X242600D02*Y203250D01*
Y204750D02*X243350Y205500D01*
X244850D01*
X245600Y204750D01*
Y203250D01*
X244850Y202500D02*X245600Y203250D01*
X243350Y202500D02*X244850D01*
X242600Y203250D02*X243350Y202500D01*
X247400Y205500D02*Y203250D01*
X248150Y202500D01*
X248900D01*
X249650Y203250D01*
Y205500D02*Y203250D01*
X250400Y202500D01*
X251150D01*
X251900Y203250D01*
Y205500D02*Y203250D01*
X254450Y204750D02*Y202500D01*
Y204750D02*X255200Y205500D01*
X255950D01*
X256700Y204750D01*
Y202500D01*
X253700Y205500D02*X254450Y204750D01*
X258500Y208500D02*X259250Y207750D01*
Y203250D01*
X258500Y202500D02*X259250Y203250D01*
X263750Y205500D02*X266750D01*
X271250Y208500D02*Y202500D01*
Y208500D02*X274250D01*
X271250Y205800D02*X273500D01*
X278300Y205500D02*X279050Y204750D01*
X276800Y205500D02*X278300D01*
X276050Y204750D02*X276800Y205500D01*
X276050Y204750D02*Y203250D01*
X276800Y202500D01*
X279050Y205500D02*Y203250D01*
X279800Y202500D01*
X276800D02*X278300D01*
X279050Y203250D01*
X281600Y208500D02*Y202500D01*
Y203250D02*X282350Y202500D01*
X283850D01*
X284600Y203250D01*
Y204750D02*Y203250D01*
X283850Y205500D02*X284600Y204750D01*
X282350Y205500D02*X283850D01*
X281600Y204750D02*X282350Y205500D01*
X287150Y204750D02*Y202500D01*
Y204750D02*X287900Y205500D01*
X289400D01*
X286400D02*X287150Y204750D01*
G54D85*X291200Y207000D02*Y206850D01*
G54D84*Y204750D02*Y202500D01*
X293450Y205500D02*X295700D01*
X292700Y204750D02*X293450Y205500D01*
X292700Y204750D02*Y203250D01*
X293450Y202500D01*
X295700D01*
X299750Y205500D02*X300500Y204750D01*
X298250Y205500D02*X299750D01*
X297500Y204750D02*X298250Y205500D01*
X297500Y204750D02*Y203250D01*
X298250Y202500D01*
X300500Y205500D02*Y203250D01*
X301250Y202500D01*
X298250D02*X299750D01*
X300500Y203250D01*
X303800Y208500D02*Y203250D01*
X304550Y202500D01*
X303050Y206250D02*X304550D01*
G54D85*X306050Y207000D02*Y206850D01*
G54D84*Y204750D02*Y202500D01*
X307550Y204750D02*Y203250D01*
Y204750D02*X308300Y205500D01*
X309800D01*
X310550Y204750D01*
Y203250D01*
X309800Y202500D02*X310550Y203250D01*
X308300Y202500D02*X309800D01*
X307550Y203250D02*X308300Y202500D01*
X313100Y204750D02*Y202500D01*
Y204750D02*X313850Y205500D01*
X314600D01*
X315350Y204750D01*
Y202500D01*
X312350Y205500D02*X313100Y204750D01*
X320600Y208500D02*Y202500D01*
X322550Y208500D02*X323600Y207450D01*
Y203550D01*
X322550Y202500D02*X323600Y203550D01*
X319850Y202500D02*X322550D01*
X319850Y208500D02*X322550D01*
X326150Y204750D02*Y202500D01*
Y204750D02*X326900Y205500D01*
X328400D01*
X325400D02*X326150Y204750D01*
X332450Y205500D02*X333200Y204750D01*
X330950Y205500D02*X332450D01*
X330200Y204750D02*X330950Y205500D01*
X330200Y204750D02*Y203250D01*
X330950Y202500D01*
X333200Y205500D02*Y203250D01*
X333950Y202500D01*
X330950D02*X332450D01*
X333200Y203250D01*
X335750Y205500D02*Y203250D01*
X336500Y202500D01*
X337250D01*
X338000Y203250D01*
Y205500D02*Y203250D01*
X338750Y202500D01*
X339500D01*
X340250Y203250D01*
Y205500D02*Y203250D01*
G54D85*X342050Y207000D02*Y206850D01*
G54D84*Y204750D02*Y202500D01*
X344300Y204750D02*Y202500D01*
Y204750D02*X345050Y205500D01*
X345800D01*
X346550Y204750D01*
Y202500D01*
X343550Y205500D02*X344300Y204750D01*
X350600Y205500D02*X351350Y204750D01*
X349100Y205500D02*X350600D01*
X348350Y204750D02*X349100Y205500D01*
X348350Y204750D02*Y203250D01*
X349100Y202500D01*
X350600D01*
X351350Y203250D01*
X348350Y201000D02*X349100Y200250D01*
X350600D01*
X351350Y201000D01*
Y205500D02*Y201000D01*
M02*
