G04 start of page 6 for group 4 idx 4 *
G04 Title: (unknown), power *
G04 Creator: pcb 4.2.2 *
G04 CreationDate: Sat Jan  4 21:18:30 2025 UTC *
G04 For: electronics *
G04 Format: Gerber/RS-274X *
G04 PCB-Dimensions (mil): 2500.00 1500.00 *
G04 PCB-Coordinate-Origin: lower left *
%MOIN*%
%FSLAX25Y25*%
%LNGROUP4*%
%ADD46C,0.0280*%
%ADD45C,0.0380*%
%ADD44C,0.1200*%
%ADD43C,0.1460*%
%ADD42C,0.0600*%
%ADD41C,0.0001*%
%ADD40C,0.0680*%
G54D40*X230000Y20000D03*
G54D41*G36*
X219000Y66000D02*Y60000D01*
X225000D01*
Y66000D01*
X219000D01*
G37*
G54D42*X222000Y73000D03*
Y83000D03*
Y93000D03*
Y103000D03*
Y113000D03*
Y123000D03*
Y133000D03*
G54D41*G36*
X126600Y23400D02*Y16600D01*
X133400D01*
Y23400D01*
X126600D01*
G37*
G54D40*X170000Y20000D03*
X120000D03*
G54D41*G36*
X186600Y23400D02*Y16600D01*
X193400D01*
Y23400D01*
X186600D01*
G37*
G36*
X181000Y71000D02*Y65000D01*
X187000D01*
Y71000D01*
X181000D01*
G37*
G54D42*X184000Y78000D03*
Y88000D03*
Y98000D03*
Y108000D03*
Y118000D03*
Y128000D03*
X154000D03*
X101000Y129000D03*
X154000Y118000D03*
X101000Y119000D03*
Y109000D03*
Y99000D03*
Y89000D03*
X154000Y108000D03*
Y98000D03*
Y88000D03*
Y78000D03*
Y68000D03*
G54D41*G36*
X128000Y72000D02*Y66000D01*
X134000D01*
Y72000D01*
X128000D01*
G37*
G54D42*X101000Y69000D03*
X131000Y79000D03*
X101000D03*
X131000Y89000D03*
Y99000D03*
Y109000D03*
Y119000D03*
Y129000D03*
G54D41*G36*
X26600Y23400D02*Y16600D01*
X33400D01*
Y23400D01*
X26600D01*
G37*
G36*
X76600D02*Y16600D01*
X83400D01*
Y23400D01*
X76600D01*
G37*
G54D40*X70000Y20000D03*
G54D41*G36*
X72000Y72000D02*Y66000D01*
X78000D01*
Y72000D01*
X72000D01*
G37*
G54D42*X75000Y79000D03*
Y89000D03*
Y99000D03*
Y109000D03*
Y119000D03*
Y129000D03*
G54D41*G36*
X12000Y77000D02*Y71000D01*
X18000D01*
Y77000D01*
X12000D01*
G37*
G54D42*X15000Y84000D03*
Y94000D03*
Y104000D03*
Y114000D03*
Y124000D03*
X45000Y129000D03*
Y119000D03*
Y109000D03*
Y99000D03*
Y89000D03*
Y79000D03*
Y69000D03*
G54D43*X201000Y58000D03*
Y139000D03*
X20000D03*
Y58000D03*
G54D44*G54D45*G54D46*G54D45*G54D46*G54D45*G54D46*G54D45*G54D46*M02*
