M48
INCH
T65C0.120
T64C0.028
T63C0.038
%
T64
X004500Y012900
X004500Y011900
X004500Y010900
X004500Y009900
X004500Y008900
X004500Y007900
X004500Y006900
X007500Y012900
X007500Y011900
X007500Y010900
X007500Y009900
X007500Y008900
X007500Y007900
X007500Y006900
X010100Y012900
X010100Y011900
X010100Y010900
X010100Y009900
X010100Y008900
X010100Y007900
X010100Y006900
X013100Y012900
X013100Y011900
X013100Y010900
X013100Y009900
X013100Y008900
X013100Y007900
X013100Y006900
X015400Y012800
X015400Y011800
X015400Y010800
X015400Y009800
X015400Y008800
X015400Y007800
X015400Y006800
X018400Y012800
X018400Y011800
X018400Y010800
X018400Y009800
X018400Y008800
X018400Y007800
X018400Y006800
X022200Y013300
X022200Y012300
X022200Y011300
X022200Y010300
X022200Y009300
X022200Y008300
X022200Y007300
X022200Y006300
T63
X001500Y012400
X001500Y011400
X001500Y010400
X001500Y009400
X001500Y008400
X001500Y007400
X003000Y002000
X007000Y002000
X008000Y002000
X012000Y002000
X013000Y002000
X017000Y002000
X019000Y002000
X023000Y002000
T65
X002000Y013900
X002000Y005800
X020100Y013900
X020100Y005800
M30
