G04 start of page 13 for group -4079 idx -4079 *
G04 Title: (unknown), topsilk *
G04 Creator: pcb 4.2.2 *
G04 CreationDate: Sat Jan  4 21:18:30 2025 UTC *
G04 For: electronics *
G04 Format: Gerber/RS-274X *
G04 PCB-Dimensions (mil): 2500.00 1500.00 *
G04 PCB-Coordinate-Origin: lower left *
%MOIN*%
%FSLAX25Y25*%
%LNTOPSILK*%
%ADD73C,0.0200*%
%ADD72C,0.0100*%
G54D72*X0Y150000D02*Y0D01*
Y150000D02*X250000D01*
X0Y0D02*X250000D01*
Y150000D02*Y0D01*
X24000Y115000D02*X24500Y114500D01*
X22500Y115000D02*X24000D01*
X22000Y114500D02*X22500Y115000D01*
X22000Y114500D02*Y111500D01*
X22500Y111000D01*
X24000D01*
X24500Y111500D01*
Y112500D02*Y111500D01*
X24000Y113000D02*X24500Y112500D01*
X23000Y113000D02*X24000D01*
X25700Y115000D02*Y111000D01*
Y115000D02*X28200Y111000D01*
Y115000D02*Y111000D01*
X29900Y115000D02*Y111000D01*
X31200Y115000D02*X31900Y114300D01*
Y111700D01*
X31200Y111000D02*X31900Y111700D01*
X29400Y111000D02*X31200D01*
X29400Y115000D02*X31200D01*
X22000Y126000D02*X23000Y122000D01*
X24000Y126000D01*
X25900Y122000D02*X27200D01*
X25200Y122700D02*X25900Y122000D01*
X25200Y125300D02*Y122700D01*
Y125300D02*X25900Y126000D01*
X27200D01*
X29100Y122000D02*X30400D01*
X28400Y122700D02*X29100Y122000D01*
X28400Y125300D02*Y122700D01*
Y125300D02*X29100Y126000D01*
X30400D01*
X31000Y7000D02*Y3000D01*
Y7000D02*X32500Y5000D01*
X34000Y7000D01*
Y3000D01*
X35200Y6500D02*Y3500D01*
Y6500D02*X35700Y7000D01*
X36700D01*
X37200Y6500D01*
Y3500D01*
X36700Y3000D02*X37200Y3500D01*
X35700Y3000D02*X36700D01*
X35200Y3500D02*X35700Y3000D01*
X38900Y7000D02*Y3000D01*
X40200Y7000D02*X40900Y6300D01*
Y3700D01*
X40200Y3000D02*X40900Y3700D01*
X38400Y3000D02*X40200D01*
X38400Y7000D02*X40200D01*
X42100Y5200D02*X43600D01*
X42100Y3000D02*X44100D01*
X42100Y7000D02*Y3000D01*
Y7000D02*X44100D01*
X47300D02*X47800Y6500D01*
X45800Y7000D02*X47300D01*
X45300Y6500D02*X45800Y7000D01*
X45300Y6500D02*Y5500D01*
X45800Y5000D01*
X47300D01*
X47800Y4500D01*
Y3500D01*
X47300Y3000D02*X47800Y3500D01*
X45800Y3000D02*X47300D01*
X45300Y3500D02*X45800Y3000D01*
X49000Y5200D02*X50500D01*
X49000Y3000D02*X51000D01*
X49000Y7000D02*Y3000D01*
Y7000D02*X51000D01*
X52200D02*Y3000D01*
X54200D01*
X55400Y5200D02*X56900D01*
X55400Y3000D02*X57400D01*
X55400Y7000D02*Y3000D01*
Y7000D02*X57400D01*
X59300Y3000D02*X60600D01*
X58600Y3700D02*X59300Y3000D01*
X58600Y6300D02*Y3700D01*
Y6300D02*X59300Y7000D01*
X60600D01*
X61800D02*X63800D01*
X62800D02*Y3000D01*
X67300Y7000D02*Y3000D01*
X68600Y7000D02*X69300Y6300D01*
Y3700D01*
X68600Y3000D02*X69300Y3700D01*
X66800Y3000D02*X68600D01*
X66800Y7000D02*X68600D01*
X70500D02*X71500D01*
X71000D02*Y3000D01*
X70500D02*X71500D01*
X74700Y7000D02*X75200Y6500D01*
X73200Y7000D02*X74700D01*
X72700Y6500D02*X73200Y7000D01*
X72700Y6500D02*Y5500D01*
X73200Y5000D01*
X74700D01*
X75200Y4500D01*
Y3500D01*
X74700Y3000D02*X75200Y3500D01*
X73200Y3000D02*X74700D01*
X72700Y3500D02*X73200Y3000D01*
X76900Y7000D02*Y3000D01*
X76400Y7000D02*X78400D01*
X78900Y6500D01*
Y5500D01*
X78400Y5000D02*X78900Y5500D01*
X76900Y5000D02*X78400D01*
X80100Y7000D02*Y3000D01*
X82100D01*
X83300Y6000D02*Y3000D01*
Y6000D02*X84000Y7000D01*
X85100D01*
X85800Y6000D01*
Y3000D01*
X83300Y5000D02*X85800D01*
X87000Y7000D02*X88000Y5000D01*
X89000Y7000D01*
X88000Y5000D02*Y3000D01*
X92000Y7000D02*X93000Y3000D01*
X94000Y7000D01*
X95200Y4500D02*X97200Y7000D01*
X95200Y4500D02*X97700D01*
X97200Y7000D02*Y3000D01*
X5000Y73500D02*X5500Y73000D01*
X5000Y74300D02*Y73500D01*
Y74300D02*X5700Y75000D01*
X6300D01*
X7000Y74300D01*
Y73500D01*
X6500Y73000D02*X7000Y73500D01*
X5500Y73000D02*X6500D01*
X5000Y75700D02*X5700Y75000D01*
X5000Y76500D02*Y75700D01*
Y76500D02*X5500Y77000D01*
X6500D01*
X7000Y76500D01*
Y75700D01*
X6300Y75000D02*X7000Y75700D01*
X5000Y82500D02*X7000Y85000D01*
X5000Y82500D02*X7500D01*
X7000Y85000D02*Y81000D01*
X5000Y95500D02*X5500Y96000D01*
X7000D01*
X7500Y95500D01*
Y94500D01*
X5000Y92000D02*X7500Y94500D01*
X5000Y92000D02*X7500D01*
X6000Y104200D02*X6800Y105000D01*
Y101000D01*
X6000D02*X7500D01*
G54D73*X140000Y25000D02*X160000D01*
Y15000D01*
X140000D01*
Y25000D01*
X130000Y20000D02*X140000D01*
X160000D02*X170000D01*
X90000Y25000D02*X110000D01*
Y15000D01*
X90000D01*
Y25000D01*
X80000Y20000D02*X90000D01*
X110000D02*X120000D01*
X200000Y25000D02*X220000D01*
Y15000D01*
X200000D01*
Y25000D01*
X190000Y20000D02*X200000D01*
X220000D02*X230000D01*
X227000Y133000D02*Y63000D01*
X217000Y133000D02*Y63000D01*
G54D72*Y68000D02*X227000D01*
G54D73*X217000Y63000D02*G75*G03X227000Y63000I5000J0D01*G01*
Y133000D02*G75*G03X217000Y133000I-5000J0D01*G01*
G54D72*X189000D02*Y63000D01*
X149000Y133000D02*X189000D01*
X149000D02*Y63000D01*
X174000D02*X189000D01*
X149000D02*X164000D01*
X174000D02*G75*G03X164000Y63000I-5000J0D01*G01*
G54D73*X40000Y25000D02*X60000D01*
Y15000D01*
X40000D01*
Y25000D01*
X30000Y20000D02*X40000D01*
X60000D02*X70000D01*
G54D72*X20000Y129000D02*Y69000D01*
X10000Y129000D02*X20000D01*
X10000D02*Y69000D01*
X20000D01*
X10000Y79000D02*X20000D01*
X10000D02*Y69000D01*
X136000Y134000D02*Y64000D01*
X96000Y134000D02*X136000D01*
X96000D02*Y64000D01*
X121000D02*X136000D01*
X96000D02*X111000D01*
X121000D02*G75*G03X111000Y64000I-5000J0D01*G01*
X80000Y134000D02*Y64000D01*
X40000Y134000D02*X80000D01*
X40000D02*Y64000D01*
X65000D02*X80000D01*
X40000D02*X55000D01*
X65000D02*G75*G03X55000Y64000I-5000J0D01*G01*
X190000Y24000D02*X192000D01*
X192500Y23500D01*
Y22500D01*
X192000Y22000D02*X192500Y22500D01*
X190500Y22000D02*X192000D01*
X190500Y24000D02*Y20000D01*
X191300Y22000D02*X192500Y20000D01*
X193700Y23500D02*X194200Y24000D01*
X195700D01*
X196200Y23500D01*
Y22500D01*
X193700Y20000D02*X196200Y22500D01*
X193700Y20000D02*X196200D01*
X130000Y24000D02*X132000D01*
X132500Y23500D01*
Y22500D01*
X132000Y22000D02*X132500Y22500D01*
X130500Y22000D02*X132000D01*
X130500Y24000D02*Y20000D01*
X131300Y22000D02*X132500Y20000D01*
X133700Y24000D02*X135700D01*
X133700D02*Y22000D01*
X134200Y22500D01*
X135200D01*
X135700Y22000D01*
Y20500D01*
X135200Y20000D02*X135700Y20500D01*
X134200Y20000D02*X135200D01*
X133700Y20500D02*X134200Y20000D01*
X80000Y24000D02*X82000D01*
X82500Y23500D01*
Y22500D01*
X82000Y22000D02*X82500Y22500D01*
X80500Y22000D02*X82000D01*
X80500Y24000D02*Y20000D01*
X81300Y22000D02*X82500Y20000D01*
X83700Y23500D02*X84200Y24000D01*
X85200D01*
X85700Y23500D01*
X85200Y20000D02*X85700Y20500D01*
X84200Y20000D02*X85200D01*
X83700Y20500D02*X84200Y20000D01*
Y22200D02*X85200D01*
X85700Y23500D02*Y22700D01*
Y21700D02*Y20500D01*
Y21700D02*X85200Y22200D01*
X85700Y22700D02*X85200Y22200D01*
X30000Y24000D02*X32000D01*
X32500Y23500D01*
Y22500D01*
X32000Y22000D02*X32500Y22500D01*
X30500Y22000D02*X32000D01*
X30500Y24000D02*Y20000D01*
X31300Y22000D02*X32500Y20000D01*
X33700Y21500D02*X35700Y24000D01*
X33700Y21500D02*X36200D01*
X35700Y24000D02*Y20000D01*
X226000Y60000D02*X228000D01*
X228500Y59500D01*
Y58500D01*
X228000Y58000D02*X228500Y58500D01*
X226500Y58000D02*X228000D01*
X226500Y60000D02*Y56000D01*
X227300Y58000D02*X228500Y56000D01*
X229700Y59200D02*X230500Y60000D01*
Y56000D01*
X229700D02*X231200D01*
X137000Y64000D02*X140500D01*
X141000Y64500D01*
Y65500D02*Y64500D01*
Y65500D02*X140500Y66000D01*
X137000D02*X140500D01*
X137500Y67200D02*X137000Y67700D01*
Y69200D02*Y67700D01*
Y69200D02*X137500Y69700D01*
X138500D01*
X141000Y67200D02*X138500Y69700D01*
X141000D02*Y67200D01*
X193000Y64500D02*X197000D01*
X193000Y65800D02*X193700Y66500D01*
X196300D01*
X197000Y65800D02*X196300Y66500D01*
X197000Y65800D02*Y64000D01*
X193000Y65800D02*Y64000D01*
X193800Y67700D02*X193000Y68500D01*
X197000D01*
Y69200D02*Y67700D01*
X81000Y64000D02*X84500D01*
X85000Y64500D01*
Y65500D02*Y64500D01*
Y65500D02*X84500Y66000D01*
X81000D02*X84500D01*
X81800Y67200D02*X81000Y68000D01*
X85000D01*
Y68700D02*Y67200D01*
X26000Y72000D02*Y70700D01*
X25300Y70000D02*X26000Y70700D01*
X22700Y70000D02*X25300D01*
X22700D02*X22000Y70700D01*
Y72000D02*Y70700D01*
X22500Y73200D02*X25500D01*
X22500D02*X22000Y73700D01*
Y74700D02*Y73700D01*
Y74700D02*X22500Y75200D01*
X25500D01*
X26000Y74700D02*X25500Y75200D01*
X26000Y74700D02*Y73700D01*
X25500Y73200D02*X26000Y73700D01*
X22000Y76400D02*X26000D01*
X22000D02*X26000Y78900D01*
X22000D02*X26000D01*
X22000Y80100D02*X26000D01*
X22000D02*X26000Y82600D01*
X22000D02*X26000D01*
X22800Y83800D02*X22000Y84600D01*
X26000D01*
Y85300D02*Y83800D01*
M02*
