G04 start of page 7 for group 5 idx 5 *
G04 Title: (unknown), bottom *
G04 Creator: pcb 4.2.2 *
G04 CreationDate: Sat Jan  4 21:18:30 2025 UTC *
G04 For: electronics *
G04 Format: Gerber/RS-274X *
G04 PCB-Dimensions (mil): 2500.00 1500.00 *
G04 PCB-Coordinate-Origin: lower left *
%MOIN*%
%FSLAX25Y25*%
%LNBOTTOM*%
%ADD54C,0.0280*%
%ADD53C,0.0380*%
%ADD52C,0.1200*%
%ADD51C,0.1460*%
%ADD50C,0.0600*%
%ADD49C,0.0001*%
%ADD48C,0.0680*%
%ADD47C,0.0100*%
G54D47*X45000Y69000D02*Y24900D01*
X80000Y24900D02*X45000D01*
X80000D02*Y20000D01*
X79500Y83500D02*X70500D01*
Y74500D01*
X0Y0D02*Y150000D01*
X19500Y124000D02*X15000D01*
X19500Y98500D02*X10500D01*
Y78500D01*
X40500Y78500D02*X10500D01*
X126500Y99000D02*X101000D01*
X96500Y79000D02*X75000D01*
X131000Y103500D02*X96500D01*
X131000D02*Y99000D01*
X40500Y78500D02*Y69500D01*
X45000Y69500D02*X40500D01*
X70500Y129000D02*X45000D01*
X70500D02*Y113500D01*
X79500Y113500D02*X70500D01*
X79500D02*Y83500D01*
X96500Y103500D02*Y79000D01*
X45000Y69500D02*Y69000D01*
X179500Y68000D02*X154000D01*
X250000Y0D02*X0D01*
X126500Y99000D02*Y24900D01*
X126600Y24900D02*X126500D01*
X126600D02*Y20000D01*
X130000Y20000D02*X126600D01*
X135500Y15100D02*X115100D01*
X135500Y89000D02*Y15100D01*
X101000Y74500D02*X70500D01*
X101000Y79000D02*Y74500D01*
X115100Y89000D02*X101000D01*
X115100D02*Y15100D01*
X135500Y89000D02*X131000D01*
X179500Y93500D02*Y68000D01*
X222000Y63000D02*X217500D01*
Y88500D02*Y63000D01*
X226500Y88500D02*X217500D01*
X226500Y108500D02*Y88500D01*
X250000Y149000D02*Y0D01*
X217500Y93500D02*X179500D01*
X217500Y102500D02*Y93500D01*
X222000Y102500D02*X217500D01*
X222000Y103000D02*Y102500D01*
X226500Y108500D02*X188500D01*
Y113500D02*Y108500D01*
X188500Y113500D02*X135500D01*
Y116000D02*Y113500D01*
X135500Y116000D02*X134000D01*
Y119000D02*Y116000D01*
X134000Y119000D02*X131000D01*
X0Y150000D02*X249000D01*
X250000Y149000D01*
G54D48*X230000Y20000D03*
G54D49*G36*
X219000Y66000D02*Y60000D01*
X225000D01*
Y66000D01*
X219000D01*
G37*
G54D50*X222000Y73000D03*
Y83000D03*
Y93000D03*
Y103000D03*
Y113000D03*
Y123000D03*
Y133000D03*
G54D49*G36*
X126600Y23400D02*Y16600D01*
X133400D01*
Y23400D01*
X126600D01*
G37*
G54D48*X170000Y20000D03*
X120000D03*
G54D49*G36*
X186600Y23400D02*Y16600D01*
X193400D01*
Y23400D01*
X186600D01*
G37*
G36*
X181000Y71000D02*Y65000D01*
X187000D01*
Y71000D01*
X181000D01*
G37*
G54D50*X184000Y78000D03*
Y88000D03*
Y98000D03*
Y108000D03*
Y118000D03*
Y128000D03*
X154000D03*
X101000Y129000D03*
X154000Y118000D03*
X101000Y119000D03*
Y109000D03*
Y99000D03*
Y89000D03*
X154000Y108000D03*
Y98000D03*
Y88000D03*
Y78000D03*
Y68000D03*
G54D49*G36*
X128000Y72000D02*Y66000D01*
X134000D01*
Y72000D01*
X128000D01*
G37*
G54D50*X101000Y69000D03*
X131000Y79000D03*
X101000D03*
X131000Y89000D03*
Y99000D03*
Y109000D03*
Y119000D03*
Y129000D03*
G54D49*G36*
X26600Y23400D02*Y16600D01*
X33400D01*
Y23400D01*
X26600D01*
G37*
G36*
X76600D02*Y16600D01*
X83400D01*
Y23400D01*
X76600D01*
G37*
G54D48*X70000Y20000D03*
G54D49*G36*
X72000Y72000D02*Y66000D01*
X78000D01*
Y72000D01*
X72000D01*
G37*
G54D50*X75000Y79000D03*
Y89000D03*
Y99000D03*
Y109000D03*
Y119000D03*
Y129000D03*
G54D49*G36*
X12000Y77000D02*Y71000D01*
X18000D01*
Y77000D01*
X12000D01*
G37*
G54D50*X15000Y84000D03*
Y94000D03*
Y104000D03*
Y114000D03*
Y124000D03*
X45000Y129000D03*
Y119000D03*
Y109000D03*
Y99000D03*
Y89000D03*
Y79000D03*
Y69000D03*
G54D51*X201000Y58000D03*
Y139000D03*
X20000D03*
Y58000D03*
G54D52*G54D53*G54D54*G54D53*G54D54*G54D53*G54D54*G54D53*G54D54*M02*
