G04 start of page 6 for group 4 idx 4 *
G04 Title: (unknown), power *
G04 Creator: pcb 4.2.2 *
G04 CreationDate: Sun May  5 21:26:13 2024 UTC *
G04 For: steve *
G04 Format: Gerber/RS-274X *
G04 PCB-Dimensions (mil): 2500.00 1000.00 *
G04 PCB-Coordinate-Origin: lower left *
%MOIN*%
%FSLAX25Y25*%
%LNGROUP4*%
%ADD41C,0.0280*%
%ADD40C,0.0380*%
%ADD39C,0.0300*%
%ADD38C,0.0560*%
%ADD37C,0.0600*%
%ADD36C,0.0001*%
G54D36*G36*
X227000Y83000D02*Y77000D01*
X233000D01*
Y83000D01*
X227000D01*
G37*
G54D37*X230000Y70000D03*
Y60000D03*
Y50000D03*
Y40000D03*
Y30000D03*
X20000Y50000D03*
Y40000D03*
Y30000D03*
Y20000D03*
G54D36*G36*
X17000Y83000D02*Y77000D01*
X23000D01*
Y83000D01*
X17000D01*
G37*
G54D37*X20000Y70000D03*
Y60000D03*
Y10000D03*
G54D36*G36*
X57000Y83000D02*Y77000D01*
X63000D01*
Y83000D01*
X57000D01*
G37*
G54D37*X60000Y70000D03*
Y60000D03*
Y50000D03*
X90000D03*
Y60000D03*
Y70000D03*
Y80000D03*
G54D36*G36*
X107000Y83000D02*Y77000D01*
X113000D01*
Y83000D01*
X107000D01*
G37*
G54D37*X110000Y70000D03*
X60000Y40000D03*
X90000D03*
X140000D03*
Y50000D03*
X60000Y30000D03*
Y20000D03*
X90000D03*
Y30000D03*
X140000Y20000D03*
Y30000D03*
X110000Y50000D03*
Y40000D03*
Y30000D03*
Y20000D03*
X190000D03*
Y30000D03*
Y40000D03*
Y50000D03*
Y60000D03*
Y70000D03*
Y80000D03*
X110000Y60000D03*
X140000D03*
Y70000D03*
Y80000D03*
G54D36*G36*
X157000Y83000D02*Y77000D01*
X163000D01*
Y83000D01*
X157000D01*
G37*
G54D37*X160000Y70000D03*
Y60000D03*
Y50000D03*
Y40000D03*
Y30000D03*
Y20000D03*
G54D38*X41000Y89000D03*
Y8000D03*
X222000D03*
Y89000D03*
G54D39*G54D40*G54D41*M02*
