G04 start of page 7 for group 5 idx 5 *
G04 Title: (unknown), bottom *
G04 Creator: pcb 4.2.2 *
G04 CreationDate: Sun May  5 21:26:13 2024 UTC *
G04 For: steve *
G04 Format: Gerber/RS-274X *
G04 PCB-Dimensions (mil): 2500.00 1000.00 *
G04 PCB-Coordinate-Origin: lower left *
%MOIN*%
%FSLAX25Y25*%
%LNBOTTOM*%
%ADD48C,0.0280*%
%ADD47C,0.0380*%
%ADD46C,0.0300*%
%ADD45C,0.0560*%
%ADD44C,0.0600*%
%ADD43C,0.0001*%
%ADD42C,0.0100*%
G54D42*X110000Y20000D02*Y15500D01*
X110000Y15500D02*X64500D01*
X72750Y30000D02*Y25500D01*
X110000Y25500D02*X72750D01*
X110000Y30000D02*Y25500D01*
X85500Y30000D02*X60000D01*
X194500Y15500D02*X160000D01*
X36700Y10000D02*X20000D01*
X64500Y25500D02*Y15500D01*
X64500Y25500D02*X55500D01*
Y50000D02*Y25500D01*
X60000Y50000D02*X55500D01*
X36700Y70000D02*Y10000D01*
X60000Y70000D02*X36700D01*
X110000Y60000D02*X105500D01*
X114500Y80000D02*Y50000D01*
X114500Y50000D02*X110000D01*
X105500Y84500D02*Y60000D01*
X85500Y80000D02*Y30000D01*
X90000Y80000D02*X85500D01*
X155500Y84500D02*X105500D01*
X155500D02*Y74500D01*
X194500Y74500D02*X155500D01*
X194500D02*Y60000D01*
X194500Y60000D02*X190000D01*
X114500Y80000D02*X110000D01*
X230000Y40000D02*X194500D01*
Y15500D01*
X160000Y20000D02*Y15500D01*
X190000Y20000D02*X185500D01*
Y70000D02*Y20000D01*
X190000Y70000D02*X185500D01*
G54D43*G36*
X227000Y83000D02*Y77000D01*
X233000D01*
Y83000D01*
X227000D01*
G37*
G54D44*X230000Y70000D03*
Y60000D03*
Y50000D03*
Y40000D03*
Y30000D03*
X20000Y50000D03*
Y40000D03*
Y30000D03*
Y20000D03*
G54D43*G36*
X17000Y83000D02*Y77000D01*
X23000D01*
Y83000D01*
X17000D01*
G37*
G54D44*X20000Y70000D03*
Y60000D03*
Y10000D03*
G54D43*G36*
X57000Y83000D02*Y77000D01*
X63000D01*
Y83000D01*
X57000D01*
G37*
G54D44*X60000Y70000D03*
Y60000D03*
Y50000D03*
X90000D03*
Y60000D03*
Y70000D03*
Y80000D03*
G54D43*G36*
X107000Y83000D02*Y77000D01*
X113000D01*
Y83000D01*
X107000D01*
G37*
G54D44*X110000Y70000D03*
X60000Y40000D03*
X90000D03*
X140000D03*
Y50000D03*
X60000Y30000D03*
Y20000D03*
X90000D03*
Y30000D03*
X140000Y20000D03*
Y30000D03*
X110000Y50000D03*
Y40000D03*
Y30000D03*
Y20000D03*
X190000D03*
Y30000D03*
Y40000D03*
Y50000D03*
Y60000D03*
Y70000D03*
Y80000D03*
X110000Y60000D03*
X140000D03*
Y70000D03*
Y80000D03*
G54D43*G36*
X157000Y83000D02*Y77000D01*
X163000D01*
Y83000D01*
X157000D01*
G37*
G54D44*X160000Y70000D03*
Y60000D03*
Y50000D03*
Y40000D03*
Y30000D03*
Y20000D03*
G54D45*X41000Y89000D03*
Y8000D03*
X222000D03*
Y89000D03*
G54D46*G54D47*G54D48*M02*
