G04 start of page 9 for group 7 idx 7 *
G04 Title: (unknown), spare *
G04 Creator: pcb 4.2.2 *
G04 CreationDate: Sun May  5 21:26:13 2024 UTC *
G04 For: steve *
G04 Format: Gerber/RS-274X *
G04 PCB-Dimensions (mil): 2500.00 1000.00 *
G04 PCB-Coordinate-Origin: lower left *
%MOIN*%
%FSLAX25Y25*%
%LNGROUP7*%
%ADD55C,0.0280*%
%ADD54C,0.0380*%
%ADD53C,0.0300*%
%ADD52C,0.0560*%
%ADD51C,0.0600*%
%ADD50C,0.0001*%
G54D50*G36*
X227000Y83000D02*Y77000D01*
X233000D01*
Y83000D01*
X227000D01*
G37*
G54D51*X230000Y70000D03*
Y60000D03*
Y50000D03*
Y40000D03*
Y30000D03*
X20000Y50000D03*
Y40000D03*
Y30000D03*
Y20000D03*
G54D50*G36*
X17000Y83000D02*Y77000D01*
X23000D01*
Y83000D01*
X17000D01*
G37*
G54D51*X20000Y70000D03*
Y60000D03*
Y10000D03*
G54D50*G36*
X57000Y83000D02*Y77000D01*
X63000D01*
Y83000D01*
X57000D01*
G37*
G54D51*X60000Y70000D03*
Y60000D03*
Y50000D03*
X90000D03*
Y60000D03*
Y70000D03*
Y80000D03*
G54D50*G36*
X107000Y83000D02*Y77000D01*
X113000D01*
Y83000D01*
X107000D01*
G37*
G54D51*X110000Y70000D03*
X60000Y40000D03*
X90000D03*
X140000D03*
Y50000D03*
X60000Y30000D03*
Y20000D03*
X90000D03*
Y30000D03*
X140000Y20000D03*
Y30000D03*
X110000Y50000D03*
Y40000D03*
Y30000D03*
Y20000D03*
X190000D03*
Y30000D03*
Y40000D03*
Y50000D03*
Y60000D03*
Y70000D03*
Y80000D03*
X110000Y60000D03*
X140000D03*
Y70000D03*
Y80000D03*
G54D50*G36*
X157000Y83000D02*Y77000D01*
X163000D01*
Y83000D01*
X157000D01*
G37*
G54D51*X160000Y70000D03*
Y60000D03*
Y50000D03*
Y40000D03*
Y30000D03*
Y20000D03*
G54D52*X41000Y89000D03*
Y8000D03*
X222000D03*
Y89000D03*
G54D53*G54D54*G54D55*M02*
