G04 start of page 11 for group -4063 idx -4063 *
G04 Title: (unknown), componentmask *
G04 Creator: pcb 4.2.2 *
G04 CreationDate: Sat Mar 22 22:15:11 2025 UTC *
G04 For: electronics *
G04 Format: Gerber/RS-274X *
G04 PCB-Dimensions (mil): 2500.00 1500.00 *
G04 PCB-Coordinate-Origin: lower left *
%MOIN*%
%FSLAX25Y25*%
%LNGTS*%
%ADD69C,0.0660*%
%ADD68C,0.0740*%
%ADD67C,0.0001*%
%ADD66C,0.0100*%
G54D66*X0Y150000D02*Y0D01*
Y150000D02*X250000D01*
X0Y0D02*X250000D01*
Y150000D02*Y0D01*
G54D67*G36*
X186300Y23700D02*Y16300D01*
X193700D01*
Y23700D01*
X186300D01*
G37*
G54D68*X230000Y20000D03*
X170000D03*
G54D67*G36*
X127700Y72300D02*Y65700D01*
X134300D01*
Y72300D01*
X127700D01*
G37*
G36*
X233700Y74300D02*Y67700D01*
X240300D01*
Y74300D01*
X233700D01*
G37*
G36*
X179700Y72300D02*Y65700D01*
X186300D01*
Y72300D01*
X179700D01*
G37*
G54D69*X153000Y69000D03*
G54D67*G36*
X126300Y23700D02*Y16300D01*
X133700D01*
Y23700D01*
X126300D01*
G37*
G36*
X76300D02*Y16300D01*
X83700D01*
Y23700D01*
X76300D01*
G37*
G54D68*X120000Y20000D03*
G54D67*G36*
X26300Y23700D02*Y16300D01*
X33700D01*
Y23700D01*
X26300D01*
G37*
G54D68*X70000Y20000D03*
G54D69*X131000Y79000D03*
X101000D03*
X237000Y81000D03*
X183000Y79000D03*
X153000D03*
X237000Y91000D03*
Y101000D03*
Y111000D03*
Y121000D03*
X183000Y89000D03*
Y99000D03*
Y109000D03*
Y119000D03*
Y129000D03*
X153000Y109000D03*
Y99000D03*
Y89000D03*
X131000D03*
X101000D03*
X67000Y79000D03*
Y89000D03*
Y99000D03*
Y109000D03*
X131000Y99000D03*
Y109000D03*
Y119000D03*
X101000Y129000D03*
Y119000D03*
Y109000D03*
Y99000D03*
X131000Y129000D03*
X153000D03*
Y119000D03*
G54D67*G36*
X33700Y132300D02*Y125700D01*
X40300D01*
Y132300D01*
X33700D01*
G37*
G54D69*X67000Y119000D03*
Y129000D03*
X37000Y119000D03*
Y109000D03*
Y99000D03*
Y89000D03*
Y79000D03*
G54D67*G36*
X114700Y46300D02*Y39700D01*
X121300D01*
Y46300D01*
X114700D01*
G37*
G54D69*X108000Y43000D03*
X98000D03*
X88000D03*
X78000D03*
X68000D03*
X58000D03*
X48000D03*
X101000Y69000D03*
X37000D03*
X67000D03*
M02*
