M48
INCH
T65C0.120
T64C0.028
T63C0.038
%
T64
X003700Y012900
X003700Y011900
X003700Y010900
X003700Y009900
X003700Y008900
X003700Y007900
X003700Y006900
X004800Y004300
X005800Y004300
X006700Y012900
X006700Y011900
X006700Y010900
X006700Y009900
X006700Y008900
X006700Y007900
X006700Y006900
X006800Y004300
X007800Y004300
X008800Y004300
X009800Y004300
X010100Y012900
X010100Y011900
X010100Y010900
X010100Y009900
X010100Y008900
X010100Y007900
X010100Y006900
X010800Y004300
X011800Y004300
X013100Y012900
X013100Y011900
X013100Y010900
X013100Y009900
X013100Y008900
X013100Y007900
X013100Y006900
X015300Y012900
X015300Y011900
X015300Y010900
X015300Y009900
X015300Y008900
X015300Y007900
X015300Y006900
X018300Y012900
X018300Y011900
X018300Y010900
X018300Y009900
X018300Y008900
X018300Y007900
X018300Y006900
T63
X003000Y002000
X007000Y002000
X008000Y002000
X012000Y002000
X013000Y002000
X017000Y002000
X019000Y002000
X023000Y002000
X023700Y012100
X023700Y011100
X023700Y010100
X023700Y009100
X023700Y008100
X023700Y007100
T65
X002000Y013900
X002000Y005800
X020100Y013900
X020100Y005800
M30
