G04 start of page 4 for group 2 idx 2 *
G04 Title: (unknown), signal2 *
G04 Creator: pcb 4.2.2 *
G04 CreationDate: Sat Mar 22 22:15:11 2025 UTC *
G04 For: electronics *
G04 Format: Gerber/RS-274X *
G04 PCB-Dimensions (mil): 2500.00 1500.00 *
G04 PCB-Coordinate-Origin: lower left *
%MOIN*%
%FSLAX25Y25*%
%LNG2L*%
%ADD32C,0.0280*%
%ADD31C,0.0380*%
%ADD30C,0.1200*%
%ADD29C,0.1460*%
%ADD28C,0.0600*%
%ADD27C,0.0680*%
%ADD26C,0.0001*%
G54D26*G36*
X186600Y23400D02*Y16600D01*
X193400D01*
Y23400D01*
X186600D01*
G37*
G54D27*X230000Y20000D03*
X170000D03*
G54D26*G36*
X128000Y72000D02*Y66000D01*
X134000D01*
Y72000D01*
X128000D01*
G37*
G36*
X234000Y74000D02*Y68000D01*
X240000D01*
Y74000D01*
X234000D01*
G37*
G36*
X180000Y72000D02*Y66000D01*
X186000D01*
Y72000D01*
X180000D01*
G37*
G54D28*X153000Y69000D03*
G54D26*G36*
X126600Y23400D02*Y16600D01*
X133400D01*
Y23400D01*
X126600D01*
G37*
G36*
X76600D02*Y16600D01*
X83400D01*
Y23400D01*
X76600D01*
G37*
G54D27*X120000Y20000D03*
G54D26*G36*
X26600Y23400D02*Y16600D01*
X33400D01*
Y23400D01*
X26600D01*
G37*
G54D27*X70000Y20000D03*
G54D28*X131000Y79000D03*
X101000D03*
X237000Y81000D03*
X183000Y79000D03*
X153000D03*
X237000Y91000D03*
Y101000D03*
Y111000D03*
Y121000D03*
X183000Y89000D03*
Y99000D03*
Y109000D03*
Y119000D03*
Y129000D03*
X153000Y109000D03*
Y99000D03*
Y89000D03*
X131000D03*
X101000D03*
X67000Y79000D03*
Y89000D03*
Y99000D03*
Y109000D03*
X131000Y99000D03*
Y109000D03*
Y119000D03*
X101000Y129000D03*
Y119000D03*
Y109000D03*
Y99000D03*
X131000Y129000D03*
X153000D03*
Y119000D03*
G54D26*G36*
X34000Y132000D02*Y126000D01*
X40000D01*
Y132000D01*
X34000D01*
G37*
G54D28*X67000Y119000D03*
Y129000D03*
X37000Y119000D03*
Y109000D03*
Y99000D03*
Y89000D03*
Y79000D03*
G54D26*G36*
X115000Y46000D02*Y40000D01*
X121000D01*
Y46000D01*
X115000D01*
G37*
G54D28*X108000Y43000D03*
X98000D03*
X88000D03*
X78000D03*
X68000D03*
X58000D03*
X48000D03*
X101000Y69000D03*
X37000D03*
X67000D03*
G54D29*X20000Y139000D03*
X201000D03*
Y58000D03*
X20000D03*
G54D30*G54D31*G54D32*G54D31*G54D32*G54D31*G54D32*G54D31*G54D32*G54D31*G54D32*M02*
