G04 start of page 13 for group -4079 idx -4079 *
G04 Title: (unknown), topsilk *
G04 Creator: pcb 20140316 *
G04 CreationDate: Sat 09 Apr 2022 06:06:23 PM GMT UTC *
G04 For: steve *
G04 Format: Gerber/RS-274X *
G04 PCB-Dimensions (mil): 2250.00 1000.00 *
G04 PCB-Coordinate-Origin: lower left *
%MOIN*%
%FSLAX25Y25*%
%LNTOPSILK*%
%ADD49C,0.0100*%
G54D49*X0Y100000D02*X225000D01*
Y200D01*
X700D01*
X200Y700D01*
Y100000D01*
X32900Y5800D02*Y1800D01*
Y5800D02*X34400Y3800D01*
X35900Y5800D01*
Y1800D01*
X37100Y5300D02*Y2300D01*
Y5300D02*X37600Y5800D01*
X38600D01*
X39100Y5300D01*
Y2300D01*
X38600Y1800D02*X39100Y2300D01*
X37600Y1800D02*X38600D01*
X37100Y2300D02*X37600Y1800D01*
X40800Y5800D02*Y1800D01*
X42100Y5800D02*X42800Y5100D01*
Y2500D01*
X42100Y1800D02*X42800Y2500D01*
X40300Y1800D02*X42100D01*
X40300Y5800D02*X42100D01*
X44000Y4000D02*X45500D01*
X44000Y1800D02*X46000D01*
X44000Y5800D02*Y1800D01*
Y5800D02*X46000D01*
X49200D02*X49700Y5300D01*
X47700Y5800D02*X49200D01*
X47200Y5300D02*X47700Y5800D01*
X47200Y5300D02*Y4300D01*
X47700Y3800D01*
X49200D01*
X49700Y3300D01*
Y2300D01*
X49200Y1800D02*X49700Y2300D01*
X47700Y1800D02*X49200D01*
X47200Y2300D02*X47700Y1800D01*
X50900Y4000D02*X52400D01*
X50900Y1800D02*X52900D01*
X50900Y5800D02*Y1800D01*
Y5800D02*X52900D01*
X54100D02*Y1800D01*
X56100D01*
X57300Y4000D02*X58800D01*
X57300Y1800D02*X59300D01*
X57300Y5800D02*Y1800D01*
Y5800D02*X59300D01*
X61200Y1800D02*X62500D01*
X60500Y2500D02*X61200Y1800D01*
X60500Y5100D02*Y2500D01*
Y5100D02*X61200Y5800D01*
X62500D01*
X63700D02*X65700D01*
X64700D02*Y1800D01*
X69200Y5800D02*Y1800D01*
X70500Y5800D02*X71200Y5100D01*
Y2500D01*
X70500Y1800D02*X71200Y2500D01*
X68700Y1800D02*X70500D01*
X68700Y5800D02*X70500D01*
X72400D02*X73400D01*
X72900D02*Y1800D01*
X72400D02*X73400D01*
X76600Y5800D02*X77100Y5300D01*
X75100Y5800D02*X76600D01*
X74600Y5300D02*X75100Y5800D01*
X74600Y5300D02*Y4300D01*
X75100Y3800D01*
X76600D01*
X77100Y3300D01*
Y2300D01*
X76600Y1800D02*X77100Y2300D01*
X75100Y1800D02*X76600D01*
X74600Y2300D02*X75100Y1800D01*
X78800Y5800D02*Y1800D01*
X78300Y5800D02*X80300D01*
X80800Y5300D01*
Y4300D01*
X80300Y3800D02*X80800Y4300D01*
X78800Y3800D02*X80300D01*
X82000Y5800D02*Y1800D01*
X84000D01*
X85200Y4800D02*Y1800D01*
Y4800D02*X85900Y5800D01*
X87000D01*
X87700Y4800D01*
Y1800D01*
X85200Y3800D02*X87700D01*
X88900Y5800D02*X89900Y3800D01*
X90900Y5800D01*
X89900Y3800D02*Y1800D01*
X93900Y5800D02*X94900Y1800D01*
X95900Y5800D01*
X97100Y5300D02*X97600Y5800D01*
X99100D01*
X99600Y5300D01*
Y4300D01*
X97100Y1800D02*X99600Y4300D01*
X97100Y1800D02*X99600D01*
X193800Y29100D02*X194800Y25100D01*
X195800Y29100D01*
X197700Y25100D02*X199000D01*
X197000Y25800D02*X197700Y25100D01*
X197000Y28400D02*Y25800D01*
Y28400D02*X197700Y29100D01*
X199000D01*
X200900Y25100D02*X202200D01*
X200200Y25800D02*X200900Y25100D01*
X200200Y28400D02*Y25800D01*
Y28400D02*X200900Y29100D01*
X202200D01*
X195500Y38500D02*X196000Y38000D01*
X194000Y38500D02*X195500D01*
X193500Y38000D02*X194000Y38500D01*
X193500Y38000D02*Y35000D01*
X194000Y34500D01*
X195500D01*
X196000Y35000D01*
Y36000D02*Y35000D01*
X195500Y36500D02*X196000Y36000D01*
X194500Y36500D02*X195500D01*
X197200Y38500D02*Y34500D01*
Y38500D02*X199700Y34500D01*
Y38500D02*Y34500D01*
X201400Y38500D02*Y34500D01*
X202700Y38500D02*X203400Y37800D01*
Y35200D01*
X202700Y34500D02*X203400Y35200D01*
X200900Y34500D02*X202700D01*
X200900Y38500D02*X202700D01*
X217600Y75500D02*X218100Y75000D01*
X217600Y76300D02*Y75500D01*
Y76300D02*X218300Y77000D01*
X218900D01*
X219600Y76300D01*
Y75500D01*
X219100Y75000D02*X219600Y75500D01*
X218100Y75000D02*X219100D01*
X217600Y77700D02*X218300Y77000D01*
X217600Y78500D02*Y77700D01*
Y78500D02*X218100Y79000D01*
X219100D01*
X219600Y78500D01*
Y77700D01*
X218900Y77000D02*X219600Y77700D01*
X218400Y67100D02*X220400Y69600D01*
X218400Y67100D02*X220900D01*
X220400Y69600D02*Y65600D01*
X218600Y59000D02*X219100Y59500D01*
X220600D01*
X221100Y59000D01*
Y58000D01*
X218600Y55500D02*X221100Y58000D01*
X218600Y55500D02*X221100D01*
X217800Y48800D02*X218600Y49600D01*
Y45600D01*
X217800D02*X219300D01*
X205000Y85000D02*Y25000D01*
X215000D01*
Y85000D01*
X205000D01*
Y75000D02*X215000D01*
Y85000D01*
X25000D02*Y15000D01*
X65000D01*
Y85000D01*
X25000D02*X40000D01*
X50000D02*X65000D01*
X40000D02*G75*G03X50000Y85000I5000J0D01*G01*
X85000D02*Y15000D01*
X125000D01*
Y85000D01*
X85000D02*X100000D01*
X110000D02*X125000D01*
X100000D02*G75*G03X110000Y85000I5000J0D01*G01*
X135000D02*Y15000D01*
X175000D01*
Y85000D01*
X135000D02*X150000D01*
X160000D02*X175000D01*
X150000D02*G75*G03X160000Y85000I5000J0D01*G01*
X200000Y84300D02*Y83000D01*
X200700Y85000D02*X200000Y84300D01*
X200700Y85000D02*X203300D01*
X204000Y84300D01*
Y83000D01*
X200500Y81800D02*X203500D01*
X204000Y81300D01*
Y80300D01*
X203500Y79800D01*
X200500D02*X203500D01*
X200000Y80300D02*X200500Y79800D01*
X200000Y81300D02*Y80300D01*
X200500Y81800D02*X200000Y81300D01*
Y78600D02*X204000D01*
X200000Y76100D01*
X204000D01*
X200000Y74900D02*X204000D01*
X200000Y72400D01*
X204000D01*
X203200Y71200D02*X204000Y70400D01*
X200000D02*X204000D01*
X200000Y71200D02*Y69700D01*
X20000Y84500D02*X24000D01*
Y83200D02*X23300Y82500D01*
X20700D02*X23300D01*
X20000Y83200D02*X20700Y82500D01*
X20000Y85000D02*Y83200D01*
X24000Y85000D02*Y83200D01*
X23200Y81300D02*X24000Y80500D01*
X20000D02*X24000D01*
X20000Y81300D02*Y79800D01*
X80500Y85000D02*X84000D01*
X80500D02*X80000Y84500D01*
Y83500D01*
X80500Y83000D01*
X84000D01*
X83500Y81800D02*X84000Y81300D01*
Y79800D01*
X83500Y79300D01*
X82500D02*X83500D01*
X80000Y81800D02*X82500Y79300D01*
X80000Y81800D02*Y79300D01*
X130500Y85000D02*X134000D01*
X130500D02*X130000Y84500D01*
Y83500D01*
X130500Y83000D01*
X134000D01*
X133200Y81800D02*X134000Y81000D01*
X130000D02*X134000D01*
X130000Y81800D02*Y80300D01*
M02*
