M48
INCH
T44C0.110
T43C0.028
T42C0.038
%
T43
X003000Y008000
X003000Y007000
X003000Y006000
X003000Y005000
X003000Y004000
X003000Y003000
X003000Y002000
X006000Y008000
X006000Y007000
X006000Y006000
X006000Y005000
X006000Y004000
X006000Y003000
X006000Y002000
X009000Y008000
X009000Y007000
X009000Y006000
X009000Y005000
X009000Y004000
X009000Y003000
X009000Y002000
X012000Y008000
X012000Y007000
X012000Y006000
X012000Y005000
X012000Y004000
X012000Y003000
X012000Y002000
X014000Y008000
X014000Y007000
X014000Y006000
X014000Y005000
X014000Y004000
X014000Y003000
X014000Y002000
X017000Y008000
X017000Y007000
X017000Y006000
X017000Y005000
X017000Y004000
X017000Y003000
X017000Y002000
T42
X021000Y008000
X021000Y007000
X021000Y006000
X021000Y005000
X021000Y004000
X021000Y003000
T44
X001000Y009000
X001000Y001000
X019000Y009000
X019000Y001000
M30
