G04 start of page 3 for group 1 idx 1 *
G04 Title: (unknown), ground *
G04 Creator: pcb 20140316 *
G04 CreationDate: Sat 09 Apr 2022 06:06:23 PM GMT UTC *
G04 For: steve *
G04 Format: Gerber/RS-274X *
G04 PCB-Dimensions (mil): 2250.00 1000.00 *
G04 PCB-Coordinate-Origin: lower left *
%MOIN*%
%FSLAX25Y25*%
%LNGROUP1*%
%ADD19C,0.1100*%
%ADD18C,0.1360*%
%ADD17C,0.0600*%
%ADD16C,0.0001*%
G54D16*G36*
X207000Y83000D02*Y77000D01*
X213000D01*
Y83000D01*
X207000D01*
G37*
G54D17*X210000Y70000D03*
Y60000D03*
Y50000D03*
Y40000D03*
Y30000D03*
G54D16*G36*
X27000Y83000D02*Y77000D01*
X33000D01*
Y83000D01*
X27000D01*
G37*
G54D17*X60000Y80000D03*
G54D16*G36*
X87000Y83000D02*Y77000D01*
X93000D01*
Y83000D01*
X87000D01*
G37*
G54D17*X30000Y70000D03*
X60000D03*
X90000D03*
X30000Y60000D03*
X60000D03*
X90000D03*
X30000Y50000D03*
X60000D03*
X30000Y40000D03*
Y30000D03*
Y20000D03*
X60000D03*
Y30000D03*
Y40000D03*
X90000Y50000D03*
Y40000D03*
Y30000D03*
Y20000D03*
X120000D03*
Y30000D03*
Y40000D03*
Y50000D03*
X140000D03*
Y40000D03*
X120000Y60000D03*
X140000D03*
X170000D03*
X120000Y70000D03*
Y80000D03*
G54D16*G36*
X137000Y83000D02*Y77000D01*
X143000D01*
Y83000D01*
X137000D01*
G37*
G54D17*X140000Y70000D03*
X170000D03*
Y80000D03*
X140000Y30000D03*
Y20000D03*
X170000D03*
Y30000D03*
Y40000D03*
Y50000D03*
G54D18*X190000Y90000D03*
Y10000D03*
X10000Y90000D03*
Y10000D03*
G54D19*M02*
